<?xml version="1.0" encoding="utf-8"?>
<!-- Generator: Adobe Illustrator 16.0.0, SVG Export Plug-In . SVG Version: 6.00 Build 0)  -->
<!DOCTYPE svg PUBLIC "-//W3C//DTD SVG 1.1//EN" "http://www.w3.org/Graphics/SVG/1.1/DTD/svg11.dtd">
<svg version="1.1" id="Capa_1" xmlns="http://www.w3.org/2000/svg" xmlns:xlink="http://www.w3.org/1999/xlink" x="0px" y="0px"
	 width="50px" height="50px" viewBox="0 0 50 50" enable-background="new 0 0 50 50" xml:space="preserve">
<g>
	<path fill="#38D816" d="M46.767,19.126l0.013,0.071l0.061,0.25c0.127,0.272,0.313,0.845,0.383,1.632
		c0.021-0.004,0.031-0.075,0.082,0.195c0.144,1.241,0.105,0.616,0.264,1.506c-0.021-0.276-0.094-0.62-0.091-0.759
		c0.122,0.569,0.14,1.149,0.175,1.726c0.03-0.241,0.064-0.439,0.113-0.152c0.073-0.182,0.198,0.389,0.296,0.61
		c-0.002-0.286-0.002-0.524-0.002-0.691c0.038,0.041,0.068,0.343,0.095,0.713c0.007-0.026,0.015-0.06,0.019-0.114
		c-0.004,0.054-0.012,0.088-0.019,0.114c0.013,0.253,0.025,0.52,0.039,0.775c0.004-0.145,0.008-0.287,0.026-0.216l-0.053-1.066
		c0.004-0.036,0.013,0,0.022,0.063l-0.033-0.276l-0.012,0.214c-0.013,0.075-0.03-0.07-0.049-0.21
		c-0.017-0.282-0.008-0.355-0.004-0.498c-0.024-0.186-0.032-0.379-0.082-0.563c-0.049-0.207,0.052,1.489-0.049,0.575l0.001-0.284
		c-0.056-0.42-0.159-0.979-0.238-1.25c0.004-0.43-0.227-1.178-0.159-1.262c-0.323-1.596-1.003-3.609-1.65-5.104
		c-0.188-0.225-0.309-0.171-0.686-0.762c-0.051-0.13-0.134-0.325-0.089-0.267c-0.084-0.141-0.188-0.272-0.281-0.406
		c0.155,0.235,0.321,0.541,0.351,0.684c-0.36-0.676,0.1,0.34,0.036,0.296c-0.159-0.312-0.315-0.622-0.521-0.903l0.051,0.111
		c0.868,1.652,1.557,3.393,1.976,5.203L46.767,19.126z"/>
	<path fill="#38D816" d="M22.765,1.165l0.03,0.077C18.67,1.66,14.225,3.165,10.461,6.09C6.647,8.93,3.596,13.172,2.048,18.065
		C0.578,22.967,0.591,28.5,2.49,33.436c0.924,2.47,2.25,4.787,3.906,6.826c1.683,2.019,3.687,3.741,5.88,5.099l-0.592-0.011
		c2.383,1.459,5.188,2.591,8.063,3.113c2.87,0.543,5.771,0.498,8.297,0.062c-0.655,0.111-1.318,0.111-1.983,0.124
		c0.907-0.096,2.509-0.338,4.186-0.774c0.834-0.236,1.709-0.447,2.504-0.785c0.811-0.286,1.573-0.592,2.204-0.917l-0.218,0.193
		c-3.598,1.525,0.276-0.032-1.119,0.742l-0.633,0.271l0.393-0.102l0.631-0.272c-0.057,0.065,0.021,0.1-0.584,0.34
		c0.287-0.107,0.584-0.199,0.862-0.319c1.872-0.667,1.979-0.52,1.854-0.199c0.464-0.265-0.113-0.169,1.842-1.279l-0.208,0.218
		c0.696-0.438,1.314-0.986,1.941-1.513c0.31-0.197,0.641-0.368,0.922-0.601c0.61-0.637,1.021-1.023,1.668-1.651l0.069-0.308
		c1.431-1.403,2.713-3.292,3.81-5.268c1.021-2.026,1.796-4.165,2.288-6.135c0.065-0.887,0.604-3.016,0.52-5.288l-0.216,0.961
		c-0.1,0.603-0.118,1.41-0.317,2.321c-0.079,0.475-0.161,0.956-0.246,1.454c-0.131,0.503-0.263,1.023-0.401,1.549
		c-0.573,2.118-1.518,4.329-2.592,5.953l0.002-0.175c0.421-0.696,0.597-1.266,1.068-2.152l-0.026-0.3
		c-0.31,0.321-0.633,0.871-0.981,1.526c-0.408,0.622-0.795,1.378-1.234,2.096c-0.887,1.433-1.911,2.75-2.417,3.234
		c-1.121,0.969-0.839,0.558-0.381,0.069c0.423-0.524,0.96-1.198,0.501-0.672c1.007-1.258,0.474-0.817-0.416,0.022
		c-0.917,0.822-2.323,1.919-2.934,2.212c-1.561,0.975-4.102,2.481-7.056,3.341c-2.929,0.901-6.192,1.153-8.604,0.907
		c-2.005-0.152-4.204-0.505-6.318-1.376c-2.109-0.854-4.154-2.068-5.951-3.559c-1.771-1.525-3.268-3.311-4.454-5.149
		c-1.2-1.842-1.959-3.786-2.575-5.542c-0.455-1.726-1.119-3.991-1.192-6.199c-0.079-1.093-0.011-2.16,0.073-3.083
		c0.167-0.913,0.302-1.702,0.562-2.235c0.5-2.189,1.378-4.27,2.477-6.212l0.004,0.166c1.598-2.827,3.881-5.459,6.604-7.461
		c2.703-2.036,5.871-3.324,8.877-3.891c0.61-0.107,1.155-0.207,1.67-0.298c0.456-0.045,0.877-0.088,1.205-0.12
		c0.689-0.064,1.204-0.105,1.809,0.077c2.653,0.135,5.528,0.667,8.21,1.749c2.688,1.061,5.157,2.663,7.025,4.498
		c0.039-0.071,0.644,0.362-0.049-0.323c-1.003-0.915-2.15-1.797-3.035-2.511c-0.929-0.638-1.569-1.149-1.561-1.271l0.868,0.552
		c-0.492-0.36-0.975-0.755-1.516-1.053l-1.095-0.449c-0.25-0.182-0.354-0.28-0.36-0.317c-1.871-0.785-3.514-1.559-5.63-1.959
		c-0.753-0.112-1.563-0.161-2.479-0.189C24.986,1.099,23.963,1.157,22.765,1.165"/>
	<path fill="#38D816" d="M28.254,16.221c-0.214-0.417-0.469-0.864-0.684-1.328c-0.332-0.736-0.655-1.538-1.553-1.66
		c-0.775-0.109-1.581-0.062-2.368,0.015c-0.482,0.051-0.843,0.406-1.072,0.858c-0.377,0.732-0.759,1.463-1.099,2.114H28.254z
		 M23.114,37.963c-1.827-0.009-3.656-0.13-5.481-0.289c-0.946-0.083-1.874-0.366-2.812-0.545c-0.747-0.141-1.02-0.779-1.344-1.314
		c-0.982-1.63-1.581-3.41-1.867-5.284c-0.269-1.737-0.52-3.474-0.715-5.215c-0.085-0.729-0.016-1.478-0.016-2.267
		c-1.13-0.269-2.21-0.528-3.292-0.779c-0.41-0.098-0.827-0.158-1.236-0.253c-0.586-0.132-0.837-0.524-0.757-1.157
		c0.043-0.366,0.451-0.686,0.95-0.641c0.618,0.058,1.23,0.191,1.842,0.308c0.792,0.15,1.582,0.313,2.408,0.477
		c0-0.674,0.009-1.266-0.014-1.855c-0.004-0.096-0.155-0.182-0.234-0.276c-0.092-0.107-0.236-0.22-0.246-0.338
		c-0.008-0.094,0.137-0.255,0.246-0.294c0.312-0.109,0.635-0.19,0.961-0.254c1.552-0.287,3.104-0.565,4.659-0.849
		c0.798-0.146,1.601-0.276,2.389-0.458c0.445-0.104,0.887-0.271,1.3-0.47c0.379-0.186,0.544-0.56,0.665-0.967
		c0.261-0.892,0.617-1.749,1.286-2.424c0.403-0.41,0.873-0.763,1.461-0.776h3.198c0.586,0.013,1.057,0.366,1.461,0.776
		c0.672,0.676,1.025,1.532,1.286,2.424c0.118,0.407,0.285,0.781,0.667,0.967c0.411,0.199,0.851,0.366,1.297,0.47
		c0.791,0.182,1.593,0.312,2.393,0.458c1.549,0.284,3.106,0.562,4.655,0.849c0.325,0.064,0.649,0.145,0.962,0.254
		c0.108,0.039,0.251,0.201,0.245,0.294c-0.009,0.119-0.155,0.231-0.245,0.338c-0.079,0.094-0.231,0.18-0.235,0.276
		c-0.021,0.59-0.011,1.181-0.011,1.855c0.822-0.164,1.612-0.327,2.403-0.477c0.612-0.117,1.225-0.25,1.842-0.308
		c0.502-0.045,0.907,0.274,0.956,0.641c0.079,0.633-0.171,1.025-0.761,1.157c-0.411,0.096-0.828,0.156-1.237,0.253
		c-1.081,0.251-2.161,0.511-3.288,0.779c0,0.789,0.069,1.538-0.013,2.267c-0.201,1.741-0.453,3.478-0.716,5.215
		c-0.291,1.874-0.885,3.654-1.872,5.284c-0.325,0.535-0.598,1.174-1.339,1.314c-0.941,0.179-1.87,0.462-2.817,0.545
		c-1.819,0.159-3.652,0.28-5.479,0.289H23.114z"/>
</g>
</svg>
