<?xml version="1.0" encoding="utf-8"?>
<!-- Generator: Adobe Illustrator 16.0.0, SVG Export Plug-In . SVG Version: 6.00 Build 0)  -->
<!DOCTYPE svg PUBLIC "-//W3C//DTD SVG 1.1//EN" "http://www.w3.org/Graphics/SVG/1.1/DTD/svg11.dtd">
<svg version="1.1" id="Capa_1" xmlns="http://www.w3.org/2000/svg" xmlns:xlink="http://www.w3.org/1999/xlink" x="0px" y="0px"
	 width="50px" height="50px" viewBox="0 0 50 50" enable-background="new 0 0 50 50" xml:space="preserve">
<g>
	<path fill="#38D816" d="M46.766,19.126l0.013,0.073l0.06,0.248c0.127,0.274,0.313,0.845,0.383,1.634
		c0.021-0.004,0.032-0.077,0.083,0.193c0.143,1.243,0.105,0.616,0.263,1.506c-0.021-0.276-0.094-0.62-0.09-0.757
		c0.122,0.569,0.139,1.147,0.175,1.726c0.03-0.242,0.064-0.441,0.113-0.152c0.073-0.184,0.199,0.389,0.296,0.608
		c-0.002-0.286-0.002-0.524-0.002-0.691c0.038,0.042,0.068,0.342,0.094,0.716c0.007-0.026,0.015-0.06,0.019-0.115
		c-0.003,0.055-0.011,0.088-0.019,0.115c0.013,0.251,0.026,0.518,0.04,0.773c0.003-0.145,0.007-0.286,0.026-0.216l-0.052-1.065
		c0.003-0.038,0.013-0.002,0.022,0.062l-0.034-0.276l-0.011,0.214c-0.013,0.075-0.03-0.069-0.049-0.21
		c-0.017-0.281-0.008-0.354-0.004-0.498c-0.024-0.186-0.032-0.377-0.083-0.563c-0.049-0.207,0.052,1.491-0.049,0.574l0.001-0.281
		c-0.056-0.421-0.159-0.979-0.238-1.253c0.004-0.428-0.227-1.175-0.16-1.262c-0.323-1.596-1.003-3.609-1.65-5.102
		c-0.188-0.226-0.308-0.171-0.686-0.763c-0.051-0.131-0.133-0.327-0.088-0.269c-0.084-0.141-0.188-0.27-0.282-0.403
		c0.156,0.232,0.321,0.541,0.351,0.682c-0.36-0.676,0.1,0.342,0.036,0.298c-0.16-0.312-0.316-0.624-0.521-0.905l0.051,0.111
		c0.868,1.653,1.557,3.394,1.976,5.204L46.766,19.126z"/>
	<path fill="#38D816" d="M22.765,1.164l0.03,0.077c-4.126,0.418-8.571,1.925-12.334,4.851c-3.814,2.839-6.865,7.081-8.413,11.973
		C0.578,22.966,0.591,28.502,2.49,33.437c0.924,2.467,2.25,4.785,3.906,6.824c1.683,2.021,3.686,3.74,5.879,5.098l-0.591-0.011
		c2.383,1.459,5.188,2.591,8.063,3.115c2.869,0.541,5.771,0.496,8.296,0.062c-0.656,0.109-1.318,0.109-1.983,0.122
		c0.907-0.094,2.509-0.338,4.186-0.773c0.833-0.239,1.709-0.447,2.503-0.785c0.812-0.286,1.574-0.591,2.205-0.917l-0.218,0.193
		c-3.598,1.525,0.276-0.032-1.119,0.744l-0.633,0.271l0.393-0.103l0.631-0.271c-0.056,0.065,0.021,0.1-0.584,0.34
		c0.287-0.111,0.584-0.199,0.862-0.319c1.873-0.667,1.979-0.522,1.854-0.201c0.464-0.265-0.113-0.169,1.842-1.277l-0.208,0.218
		c0.697-0.439,1.314-0.988,1.942-1.516c0.31-0.197,0.64-0.366,0.922-0.599c0.61-0.637,1.021-1.025,1.667-1.65l0.069-0.31
		c1.431-1.401,2.714-3.29,3.81-5.268c1.022-2.026,1.795-4.163,2.288-6.135c0.065-0.886,0.604-3.014,0.52-5.288l-0.216,0.963
		c-0.1,0.603-0.119,1.409-0.317,2.321c-0.079,0.473-0.162,0.954-0.246,1.451c-0.131,0.503-0.263,1.023-0.402,1.551
		c-0.573,2.116-1.517,4.329-2.591,5.953l0.002-0.176c0.42-0.697,0.597-1.264,1.068-2.152l-0.026-0.301
		c-0.31,0.323-0.633,0.874-0.982,1.527c-0.408,0.622-0.794,1.378-1.234,2.096c-0.886,1.433-1.912,2.749-2.417,3.232
		c-1.121,0.971-0.839,0.56-0.381,0.071c0.422-0.524,0.959-1.198,0.501-0.67c1.007-1.26,0.474-0.819-0.417,0.022
		c-0.917,0.821-2.323,1.917-2.934,2.21c-1.56,0.977-4.101,2.481-7.055,3.341c-2.93,0.901-6.193,1.155-8.604,0.907
		c-2.005-0.15-4.205-0.505-6.319-1.376c-2.109-0.854-4.154-2.068-5.951-3.559c-1.771-1.525-3.267-3.309-4.454-5.147
		c-1.2-1.842-1.958-3.786-2.575-5.543c-0.454-1.726-1.119-3.99-1.192-6.197c-0.079-1.095-0.011-2.16,0.073-3.083
		c0.167-0.913,0.302-1.703,0.562-2.236c0.5-2.188,1.378-4.271,2.477-6.21l0.003,0.163c1.598-2.826,3.882-5.459,6.604-7.46
		c2.702-2.036,5.87-3.322,8.877-3.889c0.61-0.109,1.155-0.207,1.669-0.3c0.457-0.043,0.877-0.088,1.206-0.119
		c0.689-0.063,1.204-0.107,1.808,0.075c2.653,0.137,5.528,0.668,8.21,1.75c2.687,1.061,5.157,2.661,7.025,4.497
		c0.04-0.071,0.645,0.361-0.049-0.323c-1.002-0.917-2.15-1.799-3.034-2.511c-0.93-0.64-1.57-1.149-1.561-1.271l0.867,0.55
		c-0.492-0.36-0.975-0.755-1.515-1.053l-1.095-0.449c-0.25-0.183-0.355-0.28-0.361-0.317c-1.87-0.785-3.513-1.557-5.63-1.959
		c-0.753-0.112-1.562-0.161-2.479-0.189C24.987,1.1,23.963,1.159,22.765,1.164"/>
	<polygon fill="#38D816" points="24.866,8.377 30.271,19.323 42.347,21.077 33.606,29.597 35.67,41.626 24.866,35.948 
		14.067,41.626 16.127,29.597 7.387,21.077 19.466,19.323 	"/>
</g>
</svg>
