<?xml version="1.0" encoding="utf-8"?>
<!-- Generator: Adobe Illustrator 16.0.0, SVG Export Plug-In . SVG Version: 6.00 Build 0)  -->
<!DOCTYPE svg PUBLIC "-//W3C//DTD SVG 1.1//EN" "http://www.w3.org/Graphics/SVG/1.1/DTD/svg11.dtd">
<svg version="1.1" id="Capa_1" xmlns="http://www.w3.org/2000/svg" xmlns:xlink="http://www.w3.org/1999/xlink" x="0px" y="0px"
	 width="50px" height="50px" viewBox="0 0 50 50" enable-background="new 0 0 50 50" xml:space="preserve">
<g>
	<path fill="#FFFFFF" d="M46.768,19.126l0.013,0.071l0.059,0.25c0.128,0.272,0.314,0.845,0.384,1.632
		c0.02-0.003,0.031-0.075,0.082,0.196c0.143,1.241,0.106,0.616,0.262,1.506c-0.02-0.276-0.095-0.619-0.09-0.759
		c0.122,0.569,0.14,1.149,0.176,1.726c0.029-0.24,0.063-0.439,0.112-0.152c0.073-0.182,0.199,0.389,0.298,0.61
		c-0.002-0.286-0.002-0.523-0.002-0.691c0.035,0.042,0.068,0.344,0.092,0.713c0.007-0.026,0.016-0.06,0.02-0.115
		c-0.004,0.055-0.012,0.088-0.02,0.115c0.014,0.254,0.027,0.521,0.04,0.776c0.004-0.145,0.006-0.287,0.028-0.216l-0.054-1.066
		c0.004-0.036,0.013,0,0.023,0.064l-0.035-0.276l-0.009,0.214c-0.013,0.075-0.031-0.07-0.049-0.21
		c-0.018-0.281-0.008-0.354-0.004-0.498c-0.023-0.186-0.031-0.379-0.083-0.563c-0.049-0.207,0.053,1.489-0.049,0.574l0.002-0.284
		c-0.056-0.42-0.16-0.979-0.239-1.25c0.005-0.43-0.226-1.178-0.159-1.262c-0.325-1.596-1.004-3.61-1.652-5.105
		c-0.186-0.225-0.307-0.17-0.685-0.762c-0.049-0.129-0.132-0.325-0.088-0.266c-0.084-0.141-0.188-0.273-0.281-0.406
		c0.156,0.235,0.321,0.541,0.351,0.683c-0.36-0.676,0.099,0.34,0.036,0.297c-0.159-0.312-0.317-0.621-0.521-0.903l0.052,0.111
		c0.868,1.652,1.556,3.393,1.974,5.204L46.768,19.126z"/>
	<path fill="#FFFFFF" d="M22.766,1.165l0.029,0.077C18.67,1.66,14.224,3.165,10.458,6.09c-3.811,2.84-6.863,7.082-8.41,11.976
		C0.579,22.966,0.59,28.501,2.49,33.436c0.922,2.47,2.25,4.787,3.903,6.827c1.683,2.019,3.688,3.741,5.883,5.098l-0.595-0.011
		c2.385,1.459,5.19,2.592,8.065,3.113c2.871,0.543,5.771,0.498,8.298,0.062c-0.656,0.111-1.321,0.111-1.982,0.124
		c0.906-0.096,2.506-0.338,4.184-0.774c0.834-0.236,1.71-0.446,2.504-0.785c0.811-0.286,1.573-0.591,2.206-0.916l-0.22,0.193
		c-3.597,1.525,0.277-0.032-1.121,0.742l-0.631,0.27l0.393-0.102l0.63-0.272c-0.057,0.066,0.022,0.099-0.583,0.34
		c0.288-0.107,0.583-0.199,0.862-0.319c1.873-0.667,1.979-0.521,1.854-0.199c0.461-0.265-0.113-0.169,1.842-1.279l-0.209,0.218
		c0.697-0.438,1.314-0.986,1.943-1.514c0.307-0.197,0.64-0.368,0.923-0.601c0.609-0.637,1.021-1.024,1.666-1.651l0.07-0.308
		c1.43-1.403,2.712-3.292,3.809-5.268c1.024-2.026,1.796-4.165,2.287-6.136c0.068-0.886,0.605-3.015,0.521-5.288l-0.214,0.962
		c-0.1,0.603-0.117,1.411-0.317,2.321c-0.081,0.475-0.162,0.956-0.246,1.453c-0.13,0.503-0.264,1.024-0.403,1.55
		c-0.571,2.118-1.516,4.328-2.591,5.953l0.002-0.175c0.422-0.697,0.599-1.266,1.07-2.153l-0.027-0.3
		c-0.31,0.321-0.633,0.872-0.98,1.527c-0.41,0.621-0.794,1.378-1.234,2.096c-0.886,1.433-1.912,2.749-2.419,3.233
		c-1.119,0.969-0.836,0.558-0.379,0.069c0.423-0.523,0.959-1.198,0.502-0.672c1.005-1.257,0.473-0.817-0.417,0.023
		c-0.917,0.822-2.323,1.919-2.933,2.212c-1.562,0.975-4.102,2.479-7.055,3.341c-2.933,0.901-6.194,1.153-8.606,0.907
		c-2.005-0.152-4.206-0.505-6.319-1.377c-2.109-0.854-4.155-2.067-5.953-3.56C8.7,40.89,7.203,39.104,6.017,37.266
		c-1.2-1.843-1.959-3.786-2.576-5.542c-0.453-1.726-1.121-3.993-1.191-6.199c-0.079-1.093-0.013-2.16,0.072-3.083
		c0.168-0.913,0.303-1.702,0.56-2.235c0.502-2.189,1.381-4.271,2.479-6.212l0.004,0.165c1.598-2.826,3.881-5.459,6.602-7.461
		c2.706-2.036,5.871-3.324,8.88-3.891c0.607-0.107,1.154-0.207,1.668-0.298c0.456-0.045,0.875-0.089,1.206-0.121
		c0.689-0.064,1.205-0.105,1.808,0.077c2.654,0.135,5.529,0.667,8.211,1.748c2.687,1.062,5.155,2.663,7.024,4.498
		c0.041-0.072,0.645,0.362-0.048-0.324c-1.003-0.915-2.15-1.797-3.035-2.511c-0.93-0.638-1.572-1.149-1.561-1.271l0.868,0.552
		c-0.495-0.361-0.976-0.755-1.516-1.054l-1.095-0.449c-0.25-0.182-0.355-0.279-0.36-0.317c-1.87-0.785-3.515-1.559-5.63-1.959
		c-0.753-0.112-1.563-0.161-2.482-0.189C24.987,1.098,23.964,1.156,22.766,1.165"/>
	<path fill="#FFFFFF" d="M34.184,33.633c1.605,2.105,2.855,2.447,2.855,2.447s-0.063,0.122-0.186,0.21
		c-0.126,0.088-0.398,0.049-1.356-0.586c-0.958-0.631-2.304-1.519-3.582-3.835c-1.278-2.315-0.89-4.375-1.222-4.413
		c-0.333-0.042-1.297,3.038-0.044,6.358c1.25,3.316,4.38,4.618,4.38,4.618l-1.894,1.471c-1.894,1.47-1.26,1.671-3.447,0.364
		c-1.476-0.879-4.796-3.897-6.26-7.251c-1.465-3.355-0.841-5.072-1.054-5.077c-0.244-0.01-0.836,0.585-0.996,2.041
		c-0.309,2.819,0.362,4.725,3.103,8.175c2.74,3.447,4.282,3.825,4.282,3.825c-0.642,0.104-1.525,0.111-2.727-0.439
		c-1.698-0.772-3.516-1.793-5.671-5.473c-2.154-3.677-0.781-6.167-0.924-6.413c0,0-1.599,0.565-1.301,4.255
		c0.319,3.933,4.958,7.319,4.958,7.319s-3.556-0.96-5.714-4.758c-2.89-5.08-1.666-9.653-1.666-9.653s1.963,0.442,7.827,0.07
		c5.852-0.37,7.465-1.797,7.465-1.797S31.624,30.281,34.184,33.633 M30.685,24.382c-0.176-0.333-0.376-0.655-0.594-0.963
		c0,0-1.901,1.187-6.222,1.518c-4.319,0.334-7.521-0.214-7.521-0.214c-0.176,0.395-0.351,0.885-0.464,1.311
		c0,0,2.958,0.323,7.75,0.084C28.378,25.881,30.685,24.382,30.685,24.382 M29.567,22.766c-1.418-1.589-3.46-2.61-5.756-2.669
		c-2.959-0.079-5.587,1.467-7.026,3.822c0,0,1.574,0.507,6.876,0.189C28.965,23.792,29.567,22.766,29.567,22.766 M21.279,38.437
		c-2.012-2.184-2.514-5.116-2.514-5.116s-0.084,2.006,1.617,4.485c1.7,2.479,5.181,4.302,5.181,4.302S23.554,40.902,21.279,38.437
		 M22.123,30.58c0,0-0.298,3.217,2.354,6.541c2.652,3.326,4.667,4.231,5.025,4.452c0.36,0.222,0.888-0.219,0.888-0.219
		s-3.984-2.178-6.011-5.119C22.092,32.921,22.123,30.58,22.123,30.58 M30.593,30.101c0,0-0.125,2.46,0.895,4.222
		c1.019,1.759,3.32,3.252,3.744,3.443c0.422,0.196,1.021-0.67,1.021-0.67s-0.79-0.052-3.039-2.454
		C30.963,32.24,30.593,30.101,30.593,30.101 M23.437,19.599l-1.505-14.45c-0.035-0.333-0.338-0.579-0.672-0.547l-0.535,0.057
		c-0.337,0.033-0.583,0.338-0.545,0.672l1.502,14.455c0,0,0.453-0.129,0.882-0.178C22.989,19.559,23.437,19.599,23.437,19.599"/>
	<path fill="#FFFFFF" d="M28.616,43.257l-0.044,1.645c0,0,2.556,0.053,6.172-2.302c3.615-2.35,5.305-6.111,5.305-6.111
		s-3.042,4.43-6.894,5.942C29.906,43.708,28.616,43.257,28.616,43.257"/>
	<path fill="#FFFFFF" d="M38.89,28.715c0,0,0.487-0.824,1.4-0.824c0.911,0,1.094,1.035,1.094,1.035s0.728,0.306,0.728,1.369
		c0,1.066-1.4,0.791-1.4,0.791s-0.152,0.519-0.88,0.519c-0.731,0-0.7-0.671-0.7-0.671s-1.37,0.304-1.37-0.91
		C37.762,28.805,38.89,28.715,38.89,28.715"/>
	<polygon fill="#FFFFFF" points="14.391,12.195 14.998,13.307 16.11,13.916 14.998,14.524 14.391,15.632 13.785,14.524 
		12.671,13.916 13.785,13.307 	"/>
	<polygon fill="#FFFFFF" points="17.527,15.936 17.929,16.67 18.663,17.072 17.929,17.472 17.527,18.206 17.125,17.472 
		16.39,17.072 17.125,16.67 	"/>
	<polygon fill="#FFFFFF" points="11.456,16.759 12.241,18.193 13.678,18.98 12.241,19.765 11.456,21.204 10.67,19.765 9.234,18.98 
		10.67,18.193 	"/>
</g>
</svg>
