<?xml version="1.0" encoding="utf-8"?>
<!-- Generator: Adobe Illustrator 16.0.0, SVG Export Plug-In . SVG Version: 6.00 Build 0)  -->
<!DOCTYPE svg PUBLIC "-//W3C//DTD SVG 1.1//EN" "http://www.w3.org/Graphics/SVG/1.1/DTD/svg11.dtd">
<svg version="1.1" id="Capa_1" xmlns="http://www.w3.org/2000/svg" xmlns:xlink="http://www.w3.org/1999/xlink" x="0px" y="0px"
	 width="50px" height="50px" viewBox="0 0 50 50" enable-background="new 0 0 50 50" xml:space="preserve">
<g>
	<path fill="#FFFFFF" d="M46.768,19.125l0.013,0.073l0.059,0.248c0.127,0.274,0.313,0.845,0.383,1.634
		c0.021-0.004,0.031-0.077,0.083,0.193c0.143,1.243,0.106,0.616,0.262,1.506c-0.02-0.276-0.095-0.62-0.089-0.757
		c0.121,0.569,0.139,1.147,0.175,1.726c0.028-0.242,0.063-0.441,0.112-0.152c0.072-0.184,0.199,0.389,0.298,0.608
		c-0.002-0.286-0.002-0.524-0.002-0.691c0.035,0.042,0.067,0.342,0.092,0.716c0.008-0.026,0.016-0.06,0.02-0.115
		c-0.004,0.055-0.012,0.088-0.02,0.115c0.014,0.251,0.027,0.518,0.041,0.773c0.004-0.145,0.005-0.285,0.027-0.216l-0.054-1.065
		c0.004-0.038,0.013-0.001,0.022,0.062l-0.035-0.276l-0.009,0.214c-0.013,0.075-0.031-0.069-0.05-0.21
		c-0.018-0.282-0.008-0.355-0.004-0.498c-0.023-0.186-0.031-0.377-0.083-0.563c-0.049-0.207,0.054,1.491-0.049,0.575l0.002-0.282
		c-0.056-0.421-0.16-0.979-0.239-1.253c0.005-0.428-0.226-1.175-0.16-1.262c-0.325-1.596-1.003-3.609-1.651-5.102
		c-0.186-0.226-0.307-0.171-0.685-0.763c-0.05-0.131-0.132-0.327-0.088-0.269c-0.084-0.141-0.188-0.271-0.281-0.404
		c0.156,0.233,0.321,0.541,0.351,0.682c-0.36-0.676,0.1,0.342,0.037,0.299c-0.16-0.312-0.317-0.624-0.521-0.905l0.052,0.111
		c0.868,1.653,1.556,3.394,1.975,5.204L46.768,19.125z"/>
	<path fill="#FFFFFF" d="M22.766,1.164l0.028,0.077c-4.125,0.419-8.571,1.925-12.336,4.851c-3.811,2.839-6.863,7.082-8.41,11.974
		C0.579,22.965,0.59,28.501,2.491,33.437c0.921,2.468,2.25,4.785,3.903,6.824c1.683,2.021,3.688,3.741,5.882,5.099l-0.594-0.011
		c2.385,1.459,5.19,2.591,8.064,3.115c2.872,0.541,5.771,0.496,8.297,0.062c-0.655,0.109-1.321,0.109-1.982,0.122
		c0.906-0.094,2.506-0.338,4.184-0.773c0.834-0.239,1.709-0.447,2.504-0.785c0.812-0.286,1.573-0.591,2.206-0.917l-0.22,0.193
		c-3.597,1.525,0.277-0.032-1.12,0.744l-0.631,0.271l0.393-0.103l0.63-0.271c-0.057,0.065,0.021,0.1-0.584,0.34
		c0.288-0.111,0.584-0.199,0.863-0.319c1.873-0.667,1.979-0.522,1.854-0.201c0.462-0.265-0.113-0.169,1.842-1.277l-0.209,0.218
		c0.697-0.439,1.313-0.987,1.943-1.515c0.307-0.197,0.64-0.366,0.923-0.599c0.609-0.637,1.021-1.025,1.667-1.651l0.069-0.31
		c1.431-1.401,2.714-3.29,3.81-5.268c1.023-2.026,1.796-4.163,2.286-6.135c0.068-0.887,0.605-3.014,0.521-5.289l-0.215,0.963
		c-0.101,0.603-0.117,1.409-0.317,2.321c-0.081,0.473-0.162,0.954-0.246,1.452c-0.13,0.503-0.264,1.023-0.404,1.551
		c-0.571,2.116-1.515,4.328-2.59,5.953l0.002-0.176c0.421-0.697,0.598-1.264,1.069-2.152l-0.027-0.3
		c-0.31,0.323-0.633,0.873-0.98,1.527c-0.411,0.622-0.794,1.378-1.235,2.096c-0.886,1.433-1.912,2.749-2.418,3.231
		c-1.12,0.971-0.837,0.56-0.379,0.072c0.423-0.524,0.959-1.198,0.502-0.67c1.006-1.26,0.473-0.819-0.417,0.022
		c-0.917,0.82-2.323,1.917-2.933,2.21c-1.562,0.977-4.101,2.481-7.055,3.341c-2.932,0.901-6.194,1.155-8.605,0.907
		c-2.005-0.15-4.205-0.505-6.319-1.376c-2.109-0.854-4.155-2.068-5.953-3.559c-1.769-1.525-3.266-3.309-4.451-5.147
		c-1.2-1.842-1.96-3.786-2.576-5.543c-0.454-1.726-1.121-3.991-1.191-6.197c-0.079-1.095-0.012-2.159,0.072-3.083
		c0.168-0.913,0.302-1.703,0.56-2.236c0.502-2.188,1.381-4.271,2.479-6.21l0.003,0.163c1.598-2.826,3.881-5.459,6.602-7.461
		c2.706-2.036,5.871-3.322,8.88-3.889c0.607-0.109,1.154-0.207,1.668-0.301c0.456-0.043,0.875-0.088,1.206-0.118
		c0.689-0.064,1.205-0.107,1.809,0.075c2.653,0.137,5.528,0.668,8.211,1.75c2.686,1.061,5.155,2.661,7.024,4.498
		c0.041-0.071,0.645,0.36-0.048-0.323c-1.003-0.917-2.15-1.799-3.035-2.511c-0.93-0.641-1.573-1.149-1.561-1.271l0.867,0.55
		c-0.495-0.361-0.976-0.755-1.515-1.054l-1.095-0.449c-0.25-0.182-0.355-0.28-0.361-0.317c-1.869-0.785-3.515-1.557-5.629-1.958
		c-0.754-0.113-1.563-0.162-2.482-0.19C24.987,1.1,23.964,1.158,22.766,1.164"/>
	<path fill="#FFFFFF" d="M33.281,23.163c-0.413,0.13-0.805,0.201-1.261,0.201c-1.946,0-3.607-1.236-4.227-2.965
		c-0.112-0.308-0.033-0.432,0.05-0.49c0.077-0.054,0.298-0.083,0.406,0.25c0.5,1.551,1.998,2.644,3.72,2.644
		c0.444,0,0.873-0.073,1.271-0.21c-0.004-0.024-0.009-0.051-0.015-0.073c-0.59-2.747-3.021-4.627-6.001-4.627
		c-1.104,0-2.166,0.272-3.07,0.753c0.449-0.069,0.906-0.107,1.372-0.107c2.134,0,4.078,0.768,5.641,1.985
		c0.21,0.165,0.099,0.344,0.054,0.389c-0.046,0.047-0.19,0.139-0.379-0.002c-1.505-1.097-3.351-1.763-5.357-1.763
		c-0.898,0-1.765,0.131-2.585,0.375c0,0,0.156,0.519,0.141,0.824c-0.031,0.624-0.194,0.804-0.341,0.779
		c-0.084-0.015-0.136-0.09-0.123-0.426c0.023-0.634-0.435-1.151-0.969-1.151c-0.537,0-0.971,0.517-0.971,1.151
		c0,0.637,0.434,1.153,0.971,1.153c0.056,0,0.191-0.004,0.244-0.008c0.119-0.007,0.175,0.061,0.189,0.16
		c0.015,0.098-0.021,0.25-0.372,0.278c-0.253,0.022-0.461-0.053-0.461-0.053c-0.162,0.542-0.248,1.119-0.248,1.724
		c0,3.533,2.827,6.259,6.263,6.259c3.435,0,6.059-3.208,6.079-6.42C33.303,23.634,33.281,23.163,33.281,23.163 M25.882,28.457
		c-1.287-0.312-2.285-1.388-2.285-2.761c0-0.077,0.008-0.152,0.01-0.227c0.01-0.494,0.534-0.505,0.534-0.067
		c0,1.232,0.857,2.248,1.999,2.548C26.698,28.094,26.511,28.608,25.882,28.457 M26.597,23.857c-0.061,0.004-0.151-0.005-0.213-0.005
		c-0.942,0-1.706-0.766-1.706-1.709c0-0.133,0.011-0.334,0.041-0.457c0.079-0.329,0.546-0.33,0.475,0.133
		c-0.111,0.712,0.641,1.572,1.444,1.548C26.971,23.358,27.066,23.82,26.597,23.857 M31.774,27.041
		c-0.212,0.293-0.576,0.466-0.966,0.466c-0.681,0-1.231-0.552-1.231-1.23c0-0.334,0.515-0.457,0.515-0.043
		c0,0.396,0.321,0.717,0.716,0.717c0.235,0,0.435-0.12,0.576-0.287C31.626,26.376,32.002,26.725,31.774,27.041"/>
	<path fill="#FFFFFF" d="M20.425,23.146c-0.059,0.345-0.089,0.697-0.089,1.059c0,2.353,1.315,4.36,3.198,5.491
		c1.569,0.941,3.204,1.123,6.296,1.183c3.09,0.062,2.827,0.424,2.827,0.586s-2.141,0.141-2.706,0.141
		c-0.567,0,2.727,0.043,2.727,0.629c0,0.584-3.151,0.484-3.151,0.484s2.727,0.18,2.727,0.584s-2.708,0.284-2.708,0.284
		s1.656,0.282,1.656,0.546c0,0.263-4.583,0.242-7.067,0s-6.101-2.222-6.403-5.557C17.366,24.558,20.425,23.146,20.425,23.146"/>
	<path fill="#FFFFFF" d="M11.591,34.697c0,0,4.12,0.544,6.543,0.426c2.423-0.124,4.545-0.727,4.545-0.727s1.271,0.289,2.745,0.441
		c2.267,0.233,4.191,0.104,5.07,0.043c0.879-0.064,1-0.546,0.97-0.819c-0.031-0.274,1.051,0.069,1.242-0.606
		c0.083-0.293-0.152-0.395-0.152-0.395s0.688-0.143,0.688-0.686c0-0.544-0.264-0.544-0.264-0.544s0.516-0.415-0.059-0.992
		c-0.577-0.576-2.546-0.443-2.546-0.443s3.148-2.812,4.404-7.172c1.495-5.188,1.091-10.521,1.091-10.521l0.017-0.019
		c3.433,3.021,5.598,7.45,5.598,12.377c0,9.115-7.398,16.502-16.523,16.502c-5.514,0-10.398-2.696-13.4-6.845L11.591,34.697z"/>
	<path fill="#FFFFFF" d="M34.817,20.641c-0.403,2.3-1.09,3.716-1.09,3.716c0-0.43,0.02-1.089-0.019-1.513
		c-0.183-1.983-1.163-3.476-2.853-4.498c-1.281-0.774-2.683-1.136-4.178-1.031c-1.532,0.109-2.866,0.714-3.982,1.776
		c-0.123,0.122-0.235,0.186-0.407,0.092c-0.512-0.272-0.995-0.171-1.422,0.184c-0.571,0.469-0.911,1.061-0.736,1.821
		c0.059,0.259,0.231,0.501,0.392,0.719c0.164,0.224,0.105,0.614-0.156,0.719c-1.767,0.717-2.681,2.129-3.104,3.902
		c-0.315,1.324-0.083,2.604,0.479,3.834c0.48,1.056,1.111,2.004,2.073,2.678c0.438,0.308,1.106,0.725,1.794,1.01
		c-2.708,0.727-7.152,0.441-8.611,0.325l-1.921-0.143c-1.783-2.641-2.825-5.822-2.825-9.249c0-9.138,7.408-16.548,16.545-16.548
		c3.998,0,7.664,1.421,10.526,3.778c0,0,0.242,1.637-0.002,4.556C35.078,19.694,34.817,20.641,34.817,20.641"/>
</g>
</svg>
