<?xml version="1.0" encoding="utf-8"?>
<!-- Generator: Adobe Illustrator 16.0.0, SVG Export Plug-In . SVG Version: 6.00 Build 0)  -->
<!DOCTYPE svg PUBLIC "-//W3C//DTD SVG 1.1//EN" "http://www.w3.org/Graphics/SVG/1.1/DTD/svg11.dtd">
<svg version="1.1" id="Capa_1" xmlns="http://www.w3.org/2000/svg" xmlns:xlink="http://www.w3.org/1999/xlink" x="0px" y="0px"
	 width="50px" height="50px" viewBox="0 0 50 50" enable-background="new 0 0 50 50" xml:space="preserve">
<g>
	<path fill="#38D816" d="M46.766,19.126l0.015,0.073l0.058,0.248c0.126,0.274,0.314,0.845,0.381,1.633
		c0.021-0.003,0.032-0.077,0.084,0.193c0.143,1.243,0.105,0.616,0.261,1.506c-0.019-0.276-0.094-0.62-0.088-0.757
		c0.12,0.569,0.137,1.147,0.174,1.726c0.03-0.242,0.062-0.441,0.113-0.152c0.071-0.184,0.197,0.389,0.297,0.608
		c0-0.286-0.004-0.524-0.004-0.691c0.038,0.042,0.068,0.342,0.096,0.716c0.008-0.026,0.013-0.06,0.017-0.115
		c-0.004,0.055-0.009,0.088-0.017,0.115c0.013,0.251,0.024,0.518,0.038,0.773c0.004-0.145,0.008-0.285,0.026-0.216l-0.053-1.065
		c0.006-0.038,0.013-0.002,0.022,0.062l-0.032-0.276l-0.011,0.214c-0.013,0.075-0.032-0.069-0.049-0.21
		c-0.019-0.282-0.007-0.355-0.004-0.498c-0.024-0.186-0.034-0.377-0.083-0.563c-0.049-0.207,0.055,1.491-0.049,0.575v-0.282
		c-0.054-0.421-0.158-0.979-0.236-1.252c0.003-0.428-0.229-1.176-0.16-1.262c-0.325-1.596-1.005-3.609-1.652-5.102
		c-0.186-0.225-0.306-0.17-0.686-0.762c-0.049-0.131-0.133-0.327-0.088-0.269c-0.083-0.141-0.186-0.271-0.28-0.404
		c0.154,0.233,0.321,0.541,0.349,0.682c-0.36-0.676,0.1,0.342,0.038,0.299c-0.16-0.312-0.317-0.624-0.52-0.905l0.051,0.111
		c0.866,1.652,1.555,3.393,1.976,5.204L46.766,19.126z"/>
	<path fill="#38D816" d="M22.767,1.165l0.026,0.077c-4.125,0.419-8.57,1.925-12.333,4.851c-3.813,2.839-6.864,7.081-8.412,11.973
		C0.579,22.966,0.59,28.502,2.49,33.437c0.924,2.467,2.25,4.785,3.906,6.824c1.683,2.021,3.687,3.741,5.88,5.099l-0.592-0.012
		c2.382,1.459,5.188,2.592,8.062,3.115c2.872,0.541,5.771,0.496,8.299,0.062c-0.657,0.109-1.32,0.109-1.985,0.122
		c0.909-0.094,2.509-0.338,4.188-0.773c0.833-0.238,1.707-0.447,2.501-0.785c0.813-0.285,1.576-0.591,2.207-0.916l-0.22,0.193
		c-3.596,1.525,0.276-0.032-1.119,0.744l-0.633,0.271l0.393-0.104l0.633-0.271c-0.059,0.066,0.021,0.1-0.586,0.34
		c0.287-0.111,0.584-0.199,0.864-0.319c1.872-0.667,1.979-0.522,1.853-0.201c0.462-0.265-0.112-0.169,1.842-1.277l-0.208,0.218
		c0.695-0.439,1.313-0.988,1.942-1.515c0.308-0.197,0.638-0.366,0.92-0.599c0.612-0.637,1.021-1.025,1.667-1.651l0.071-0.31
		c1.431-1.401,2.713-3.29,3.808-5.267c1.021-2.026,1.795-4.163,2.287-6.135c0.068-0.886,0.605-3.014,0.522-5.288l-0.218,0.963
		c-0.098,0.603-0.118,1.408-0.315,2.321c-0.081,0.473-0.163,0.954-0.248,1.452c-0.13,0.503-0.263,1.023-0.402,1.551
		c-0.571,2.116-1.518,4.328-2.593,5.953l0.003-0.177c0.423-0.697,0.599-1.264,1.069-2.152l-0.026-0.3
		c-0.31,0.323-0.633,0.873-0.98,1.526c-0.409,0.622-0.794,1.378-1.235,2.096c-0.886,1.433-1.91,2.749-2.417,3.231
		c-1.121,0.971-0.837,0.56-0.379,0.072c0.422-0.524,0.958-1.198,0.501-0.67c1.005-1.26,0.474-0.819-0.418,0.022
		c-0.917,0.82-2.323,1.917-2.933,2.21c-1.561,0.977-4.101,2.48-7.055,3.341c-2.93,0.901-6.191,1.155-8.603,0.907
		c-2.007-0.15-4.207-0.505-6.318-1.376c-2.111-0.854-4.156-2.067-5.953-3.558c-1.772-1.525-3.266-3.309-4.454-5.147
		c-1.197-1.842-1.957-3.786-2.575-5.543c-0.452-1.726-1.119-3.99-1.19-6.197c-0.081-1.095-0.011-2.159,0.073-3.083
		c0.167-0.913,0.3-1.704,0.56-2.237c0.502-2.188,1.381-4.27,2.477-6.209l0.004,0.163c1.6-2.826,3.88-5.458,6.604-7.46
		c2.703-2.036,5.871-3.322,8.878-3.889c0.609-0.109,1.153-0.207,1.67-0.301c0.454-0.043,0.875-0.088,1.204-0.118
		c0.691-0.064,1.204-0.107,1.81,0.075c2.651,0.137,5.528,0.668,8.208,1.75c2.687,1.061,5.156,2.661,7.025,4.498
		c0.041-0.072,0.644,0.36-0.049-0.323c-1.001-0.917-2.15-1.799-3.033-2.511c-0.932-0.64-1.572-1.149-1.563-1.271l0.87,0.55
		c-0.494-0.361-0.975-0.755-1.518-1.054l-1.095-0.449c-0.25-0.182-0.353-0.28-0.358-0.317c-1.871-0.785-3.515-1.557-5.63-1.958
		c-0.753-0.113-1.562-0.162-2.48-0.189C24.988,1.101,23.962,1.159,22.767,1.165"/>
	<path fill="#38D816" d="M18.099,24.681c1.176,0.045,2.189,0.696,2.743,1.643c0,0,0.414,0.188,1.058,1.13
		c0.645,0.946,0.646,1.213,0.646,1.213s0.323-0.06,0.679,0.004c0.345,0.062,0.56,0.193,0.56,0.193
		c0.046-0.462,0.18-1.949-0.037-2.858c-0.258-1.104-0.862-3.126-2.886-4.484c-1.208-0.811-2.8-1.585-4.616-1.9
		c-1.219-0.21-2.54-0.216-3.916,0.111c-1.731,0.411-2.912,1.006-3.792,1.671c-0.862,0.649-1.438,1.365-1.967,2.036
		c-1.069,1.355-1.046,2.751-1.046,2.751s0.346,0.022,0.725,0.172c0.376,0.152,0.579,0.276,0.579,0.276s0.842-0.175,1.425-0.338
		c0.582-0.161,1.184-0.377,1.184-0.377c0.079-0.221,0.37-0.95,0.854-1.382c0.971-0.871,2.235-0.719,2.235-0.719
		s0.292-0.242,0.623-0.751c0.329-0.507,0.662-1.286,0.662-1.286s0.923,1.254,2.074,1.992C17.035,24.519,18.099,24.681,18.099,24.681
		"/>
	<path fill="#38D816" d="M16.236,19.432c-1.22-0.21-2.541-0.216-3.917,0.111c-1.727,0.411-2.904,1.002-3.785,1.667
		c-0.002,0.002-0.006,0.003-0.008,0.005c0,0-0.6-2.999,3.077-3.982C15.28,16.251,16.236,19.432,16.236,19.432"/>
	<path fill="#38D816" d="M23.106,28.81c-0.536-0.019-0.676-0.005-0.676-0.005s-0.11-0.511-0.715-1.326
		c-0.606-0.815-1.106-1.121-1.106-1.121c-0.456-0.834-1.325-1.414-2.344-1.45c0,0-1.298-0.184-2.664-1.11
		c-1.365-0.931-1.763-1.652-1.763-1.652s-0.169,0.377-0.459,0.901c-0.29,0.527-0.787,0.977-0.787,0.977
		c-0.067-0.01-0.136-0.015-0.206-0.017c-1.304-0.047-2.431,0.804-2.781,2c0,0-0.503,0.207-1.562,0.49
		c-1.057,0.286-1.239,0.28-1.239,0.28s-0.593-0.447-1.291-0.473c-0.707-0.026-1.299,0.526-1.327,1.23
		c-0.024,0.706,0.525,1.301,1.231,1.328c0.069,0.002,0.136,0,0.202-0.007l0.025-0.008c1.286,3.499,4.695,6.067,8.789,6.221
		c3.354,0.126,6.372-1.397,8.203-3.819l-0.01-0.005c0.122,0.043,0.25,0.071,0.385,0.075c0.692,0.026,1.273-0.514,1.3-1.206
		C24.339,29.42,23.799,28.838,23.106,28.81 M16.644,31.884c-0.444,0.569-1.176,0.884-1.954,0.854
		c-1.057-0.038-1.971-0.73-2.24-1.694c-0.13-0.47,0.207-0.528,0.275-0.263c0.229,0.892,1.029,1.563,1.998,1.602
		c0.656,0.022,1.323-0.192,1.666-0.699C16.508,31.506,16.919,31.529,16.644,31.884 M18.065,30.263
		c-1.42-0.051-2.527-1.245-2.475-2.667c0.004-0.088,0.011-0.177,0.022-0.261c0,0-0.026-0.158-0.349-0.184
		c-0.297-0.028-0.448,0.098-0.448,0.098c-0.222,1.241-1.332,2.165-2.631,2.114c-1.42-0.051-2.527-1.245-2.473-2.665
		c0.054-1.421,1.248-2.529,2.667-2.477c1.418,0.057,2.526,1.25,2.472,2.668l0.849,0.053c0.331-1.091,1.363-1.865,2.557-1.822
		c1.421,0.055,2.526,1.251,2.475,2.67C20.678,29.209,19.484,30.317,18.065,30.263"/>
	<path fill="#38D816" d="M12.321,25.764c-0.635-0.024-1.174,0.614-1.204,1.425c-0.006,0.148,0.192,0.183,0.198,0.017
		c0.024-0.672,0.471-1.202,0.995-1.179c0.528,0.019,0.932,0.578,0.906,1.25c-0.006,0.146-0.006,0.146-0.007,0.22
		c-0.004,0.083,0.057,0.109,0.096,0.113c0.039,0.002,0.097-0.015,0.1-0.102c0.004-0.084,0.004-0.107,0.01-0.233
		C13.446,26.464,12.955,25.79,12.321,25.764"/>
	<path fill="#38D816" d="M18.2,26.666c-0.634-0.026-1.173,0.612-1.204,1.423c-0.006,0.148,0.19,0.182,0.198,0.019
		c0.022-0.674,0.47-1.202,0.993-1.181c0.527,0.019,0.934,0.579,0.908,1.25c-0.006,0.146-0.006,0.146-0.009,0.222
		c-0.002,0.081,0.057,0.109,0.098,0.111c0.038,0.002,0.097-0.015,0.099-0.102c0.003-0.084,0.005-0.107,0.009-0.233
		C19.323,27.364,18.834,26.69,18.2,26.666"/>
	<path fill="#38D816" d="M12.287,29.204c-0.033,0-0.063,0-0.095-0.002c-1.329-0.045-2.369-1.168-2.321-2.5
		c0.051-1.299,1.123-2.323,2.414-2.323c0.03,0,0.058,0,0.088,0.002c1.329,0.053,2.369,1.174,2.319,2.501
		c-0.023,0.646-0.295,1.241-0.767,1.677C13.475,28.979,12.895,29.204,12.287,29.204 M12.285,24.72c-1.109,0-2.032,0.879-2.075,1.995
		c-0.042,1.145,0.854,2.11,1.993,2.15c0.029,0,0.055,0.002,0.082,0.002c0.525,0,1.022-0.193,1.408-0.554
		c0.406-0.375,0.64-0.888,0.661-1.44c0.044-1.144-0.85-2.109-1.993-2.152H12.285z"/>
	<path fill="#38D816" d="M18.165,30.104c-0.033,0-0.062,0-0.093-0.002c-0.644-0.022-1.237-0.295-1.679-0.766
		c-0.438-0.473-0.667-1.089-0.642-1.733c0.049-1.3,1.121-2.323,2.412-2.323c0.03,0,0.057,0,0.088,0.002
		c1.331,0.053,2.371,1.174,2.321,2.503C20.524,29.084,19.453,30.104,18.165,30.104 M18.163,25.621c-1.108,0-2.031,0.877-2.073,1.993
		c-0.021,0.554,0.176,1.083,0.552,1.491c0.376,0.404,0.89,0.64,1.442,0.659c0.026,0,0.054,0.002,0.081,0.002
		c1.105,0,2.026-0.879,2.068-1.994c0.044-1.144-0.852-2.109-1.993-2.15H18.163z"/>
	<path fill="#38D816" d="M32.799,20.301l1.805-0.145l1.089-1.132c0,0,1.279-0.125,4.124,0.334c2.847,0.462,3.874,0.687,3.418,1.572
		c-0.458,0.884-0.705,0.329-1.114,0.454c-0.413,0.13-0.901,2.222-1.836,3.39c-0.939,1.164-1.829,0.52-2.747,0.214
		c-0.917-0.302-2.932-0.757-2.967-1.699c-0.036-0.943-0.017-1.468-0.017-1.468s-0.439-0.703-0.704-0.693
		c-0.265,0.011-0.917,0.713-0.917,0.713s0.146,0.939,0.024,1.696c-0.12,0.762-2.651,1.724-3.917,2.146
		c-1.266,0.424-2.146-0.939-2.794-2.159c-0.651-1.219-0.702-1.632-1.186-1.425c-0.483,0.208-0.795-0.084-1.007-0.678
		c-0.209-0.597,0.3-1.029,4.011-1.66c3.71-0.629,3.412-0.618,3.602-0.511C31.86,19.355,32.799,20.301,32.799,20.301 M27.087,23.509
		c0.862,2.069,1.543,1.979,3.44,1.241c1.898-0.734,2.37-0.965,1.968-3.027c-0.404-2.064-1.895-1.812-3.728-1.305
		C26.933,20.927,26.25,21.49,27.087,23.509 M38.572,20.054c-1.867-0.372-3.371-0.513-3.619,1.575
		c-0.246,2.09,0.242,2.286,2.188,2.875c1.945,0.593,2.635,0.631,3.339-1.495C41.167,20.933,40.44,20.42,38.572,20.054
		 M30.743,21.019c-0.635,0.021-1.123,0.701-1.095,1.512c0.005,0.148,0.203,0.166,0.197,0c-0.024-0.672,0.381-1.233,0.907-1.252
		c0.524-0.019,0.971,0.509,0.995,1.181c0.006,0.148,0.006,0.148,0.008,0.222c0.003,0.083,0.067,0.105,0.109,0.103
		c0.036-0.001,0.094-0.021,0.092-0.107c-0.003-0.086-0.003-0.111-0.009-0.233C31.915,21.633,31.378,20.994,30.743,21.019
		 M36.722,20.833c-0.635,0.024-1.123,0.698-1.091,1.51c0.006,0.148,0.201,0.165,0.195,0c-0.024-0.67,0.381-1.23,0.905-1.249
		c0.526-0.021,0.975,0.507,0.997,1.181c0.005,0.145,0.005,0.145,0.009,0.22c0.002,0.081,0.066,0.105,0.105,0.104
		c0.04-0.002,0.096-0.022,0.092-0.109c-0.004-0.084-0.004-0.107-0.009-0.233C37.896,21.445,37.356,20.807,36.722,20.833"/>
	<path fill="#38D816" d="M33.447,14.938c-4.612,0.175-7.216,2.685-7.216,2.685s0.229,0.614,0.214,1.2
		c-0.015,0.582-0.298,1.099-0.298,1.099c0.516-0.119,1.144-0.239,1.91-0.37c3.71-0.629,3.466-0.62,3.66-0.511
		c0.191,0.105,1.132,1.052,1.132,1.052l1.675-0.122l1.087-1.151c0,0,1.352-0.127,4.201,0.333c0.518,0.083,0.977,0.16,1.378,0.235
		c0,0-0.216-0.374-0.314-0.954c-0.096-0.579,0.024-1.376,0.024-1.376S38.044,14.768,33.447,14.938"/>
	<path fill="#38D816" d="M26.186,18.964c0.066-0.682,0.107-1.543-1.257-1.877c-1.198-0.295-2.501,0.208-2.623,0.984
		C22.185,18.848,22.701,19,22.701,19s-0.614,0.267-0.741,0.913c-0.127,0.646,0.126,0.881,0.126,0.881s0.735-0.554,1.398-0.464
		c0.662,0.088,0.8,0.231,0.8,0.231s0.24-0.139,0.651-0.269c0.41-0.129,0.893-0.259,0.893-0.259S26.105,19.815,26.186,18.964"/>
	<path fill="#38D816" d="M41.058,18.407c-0.116-0.674-0.218-1.528,1.114-1.962c1.175-0.385,2.512,0.017,2.691,0.785
		c0.178,0.766-0.323,0.956-0.323,0.956s0.631,0.22,0.806,0.854c0.173,0.635-0.062,0.888-0.062,0.888s-0.773-0.5-1.429-0.358
		c-0.656,0.137-0.781,0.293-0.781,0.293s-0.25-0.126-0.668-0.22c-0.419-0.098-0.911-0.195-0.911-0.195S41.202,19.25,41.058,18.407"
		/>
	<path fill="#38D816" d="M33.986,29.12c-4.135,0.21-5.656-1.39-5.162-2.269c0.456-0.809,2.261-1.679,2.261-1.679
		c-0.753,0.315-1.619,0.582-2.15,0.763c-1.266,0.422-2.144-0.941-2.796-2.16c-0.648-1.221-0.7-1.636-1.184-1.427
		c-0.482,0.207-0.776-0.09-1.005-0.682c-0.292-0.742,0.114-0.984,0.114-0.984s-0.598-0.372-1.209-0.086
		c-0.412,0.191-0.852,0.443-0.721,1.384c0.127,0.939,1.208,1.05,1.208,1.05s0.352,8.418,10.71,8.031
		c10.358-0.387,9.969-8.801,9.969-8.801s1.399,0.115,1.523-1.153c0.12-1.268-1.225-1.444-1.712-1.369
		c-0.488,0.073-0.554,0.302-0.554,0.302s0.432,0.4,0.06,1.112c-0.46,0.882-0.704,0.345-1.113,0.477
		c-0.412,0.128-0.898,2.222-1.836,3.386c-0.936,1.168-2.034,0.53-2.952,0.224c-0.205-0.07-0.477-0.148-0.766-0.242
		c0,0,1.566,0.631,2.105,1.26c0.4,0.466,0.509,1.112-0.64,1.79C36.987,28.727,35.667,29.033,33.986,29.12"/>
	<path fill="#38D816" d="M36.81,23.95c0.042,1.108-1.26,2.056-2.912,2.12c-1.651,0.06-3.021-0.789-3.061-1.896
		c-0.043-1.108,1.262-2.054,2.911-2.116C35.4,21.995,36.771,22.844,36.81,23.95"/>
	<path fill="#38D816" d="M33.98,28.971c2.691-0.139,5.247-1.142,4.925-2.236c-0.227-0.768-1.607-1.386-2.415-1.685l0.001,0.002
		c-0.482,0.644-1.455,1.104-2.589,1.147c-1.146,0.041-2.158-0.353-2.681-0.969l-0.002,0.002c-0.785,0.357-2.15,1.091-2.315,1.874
		C28.667,28.224,31.288,29.031,33.98,28.971"/>
</g>
</svg>
