<?xml version="1.0" encoding="utf-8"?>
<!-- Generator: Adobe Illustrator 16.0.0, SVG Export Plug-In . SVG Version: 6.00 Build 0)  -->
<!DOCTYPE svg PUBLIC "-//W3C//DTD SVG 1.1//EN" "http://www.w3.org/Graphics/SVG/1.1/DTD/svg11.dtd">
<svg version="1.1" id="Capa_1" xmlns="http://www.w3.org/2000/svg" xmlns:xlink="http://www.w3.org/1999/xlink" x="0px" y="0px"
	 width="50px" height="50px" viewBox="0 0 50 50" enable-background="new 0 0 50 50" xml:space="preserve">
<g>
	<path fill="#38D816" d="M46.766,19.126l0.015,0.071l0.058,0.25c0.128,0.272,0.314,0.845,0.383,1.632
		c0.021-0.004,0.03-0.075,0.083,0.195c0.143,1.241,0.105,0.616,0.261,1.505c-0.019-0.276-0.094-0.619-0.088-0.758
		c0.122,0.569,0.139,1.149,0.174,1.726c0.03-0.241,0.064-0.44,0.113-0.152c0.073-0.183,0.199,0.389,0.299,0.61
		c-0.002-0.285-0.002-0.524-0.002-0.691c0.034,0.042,0.065,0.344,0.092,0.714c0.007-0.026,0.015-0.06,0.019-0.115
		c-0.004,0.055-0.011,0.088-0.019,0.115c0.013,0.253,0.026,0.52,0.04,0.775c0.001-0.145,0.005-0.287,0.026-0.216l-0.053-1.066
		c0.004-0.036,0.013,0,0.023,0.064l-0.034-0.276l-0.009,0.214c-0.015,0.075-0.032-0.069-0.05-0.21
		c-0.017-0.282-0.008-0.355-0.004-0.498c-0.023-0.186-0.03-0.379-0.083-0.563c-0.049-0.207,0.054,1.489-0.049,0.575l0.002-0.283
		c-0.054-0.421-0.159-0.979-0.238-1.251c0.004-0.43-0.228-1.177-0.16-1.262c-0.325-1.596-1.003-3.609-1.651-5.104
		c-0.188-0.226-0.308-0.171-0.685-0.763c-0.049-0.129-0.133-0.325-0.088-0.267c-0.084-0.141-0.188-0.272-0.28-0.406
		c0.156,0.235,0.321,0.541,0.349,0.684c-0.36-0.676,0.1,0.34,0.036,0.297c-0.16-0.312-0.317-0.622-0.52-0.903l0.053,0.111
		c0.864,1.652,1.555,3.393,1.974,5.204L46.766,19.126z"/>
	<path fill="#38D816" d="M22.767,1.165l0.028,0.077c-4.125,0.418-8.57,1.923-12.335,4.849C6.648,8.93,3.597,13.172,2.048,18.065
		c-1.47,4.901-1.457,10.435,0.442,15.37c0.922,2.469,2.25,4.786,3.904,6.826c1.683,2.019,3.688,3.74,5.882,5.098l-0.595-0.011
		c2.383,1.459,5.188,2.591,8.065,3.114c2.871,0.542,5.771,0.497,8.297,0.062c-0.655,0.111-1.32,0.111-1.983,0.124
		c0.907-0.096,2.507-0.338,4.186-0.774c0.833-0.236,1.708-0.446,2.503-0.785c0.811-0.286,1.574-0.591,2.205-0.916l-0.218,0.193
		c-3.598,1.525,0.276-0.032-1.121,0.742l-0.631,0.271l0.393-0.101l0.631-0.272c-0.058,0.066,0.021,0.1-0.586,0.34
		c0.287-0.107,0.586-0.199,0.864-0.319c1.873-0.667,1.979-0.52,1.854-0.199c0.462-0.265-0.113-0.168,1.842-1.278l-0.208,0.218
		c0.695-0.438,1.313-0.986,1.941-1.514c0.308-0.197,0.639-0.368,0.922-0.601c0.61-0.637,1.021-1.023,1.666-1.65l0.071-0.308
		c1.431-1.403,2.713-3.292,3.81-5.268c1.021-2.026,1.795-4.165,2.285-6.135c0.068-0.886,0.607-3.016,0.522-5.288l-0.216,0.961
		c-0.1,0.603-0.118,1.41-0.318,2.321c-0.081,0.476-0.162,0.956-0.246,1.454c-0.132,0.503-0.263,1.023-0.404,1.549
		c-0.571,2.118-1.516,4.328-2.59,5.953l0.002-0.175c0.42-0.696,0.597-1.266,1.068-2.152l-0.026-0.3
		c-0.31,0.321-0.633,0.871-0.982,1.526c-0.409,0.622-0.794,1.378-1.233,2.096c-0.886,1.433-1.912,2.749-2.419,3.233
		c-1.119,0.969-0.837,0.558-0.379,0.069c0.423-0.524,0.96-1.198,0.501-0.672c1.006-1.258,0.474-0.817-0.417,0.022
		c-0.917,0.823-2.323,1.919-2.933,2.212c-1.561,0.975-4.102,2.479-7.055,3.341c-2.931,0.901-6.193,1.153-8.604,0.907
		c-2.005-0.152-4.205-0.505-6.319-1.376c-2.108-0.854-4.155-2.068-5.952-3.56c-1.769-1.523-3.266-3.309-4.453-5.147
		c-1.199-1.842-1.958-3.786-2.574-5.542c-0.454-1.726-1.121-3.992-1.193-6.199c-0.081-1.093-0.011-2.159,0.073-3.083
		c0.167-0.912,0.303-1.701,0.56-2.234c0.502-2.189,1.381-4.271,2.479-6.212l0.004,0.165c1.598-2.826,3.88-5.458,6.602-7.46
		c2.706-2.036,5.871-3.324,8.88-3.891c0.608-0.107,1.154-0.207,1.668-0.298c0.456-0.045,0.875-0.088,1.206-0.121
		c0.689-0.063,1.204-0.105,1.808,0.077c2.653,0.135,5.528,0.667,8.21,1.748c2.687,1.061,5.156,2.663,7.024,4.498
		c0.04-0.071,0.644,0.362-0.049-0.323c-1.002-0.914-2.148-1.797-3.034-2.51c-0.93-0.638-1.572-1.149-1.561-1.271l0.867,0.552
		c-0.494-0.36-0.974-0.755-1.515-1.054l-1.095-0.449c-0.25-0.182-0.354-0.28-0.36-0.317c-1.871-0.785-3.516-1.559-5.63-1.958
		c-0.753-0.113-1.563-0.162-2.48-0.19C24.987,1.1,23.963,1.158,22.767,1.165"/>
	<path fill="#38D816" d="M37.842,33.92H8.058c-0.47,0-0.855-0.385-0.855-0.858c0-0.471,0.385-0.858,0.855-0.858h29.784
		c0.472,0,0.858,0.387,0.858,0.858C38.701,33.535,38.314,33.92,37.842,33.92 M36.199,17.338c-0.358,0.132-0.265,0.398-0.086,0.996
		c0.434,1.44,0.909,2.869,1.362,4.302c0.631,1.989,1.266,3.974,1.879,5.968c0.051,0.164,0.006,0.422-0.096,0.558
		c-0.535,0.706-1.095,1.397-1.667,2.071c-0.105,0.128-0.319,0.229-0.483,0.229H8.195c0.571-0.769,1.09-1.525,1.644-2.226
		c1.82-2.3,3.871-4.377,6.217-6.148c0.327-0.25,0.482-0.514,0.444-0.935c-0.042-0.436-0.015-0.877-0.007-1.316
		c0.009-0.642,0.382-1.021,1.015-1.057c0.644-0.03,1.106,0.351,1.172,0.969c0.01,0.113,0.017,0.222,0.034,0.425
		c0.451-0.278,0.854-0.521,1.254-0.77c2.375-1.478,4.909-2.612,7.6-3.363c2.271-0.636,4.591-1.023,6.967-0.944
		c0.188,0.005,0.52,0.045,0.699,0.15c0.242,0.147,0.315,0.361,0.556,0.351c0.28-0.013,0.28-0.354,0.714-0.332
		c1.453-0.022,3.763,1.091,3.984,2.57c0.15,1.283-0.242,2.28-0.494,3.305c-0.265,1.073-0.365,2.178,0.563,3.002
		c0.403,0.364,0.952,0.599,1.47,0.785c0.361,0.129,0.538,0.299,0.502,0.65c-0.04,0.385-0.346,0.441-0.654,0.413
		c-0.841-0.071-2.313-0.773-2.871-2.232c-0.468-1.23-0.184-2.404,0.124-3.588c0.1-0.387,0.246-0.768,0.297-1.164
		c0.161-1.345-1.407-2.639-2.838-2.659C36.489,17.346,36.291,17.303,36.199,17.338 M32.744,23.201v0.84
		c0.992,0.108,1.966,0.21,3.051,0.326c-0.583-2.236-1.138-4.362-1.699-6.52h-0.583c-2.43,0.011-4.752,0.539-7.002,1.44
		c-2.997,1.204-5.564,2.967-7.489,5.602c-0.454,0.624-0.352,0.936,0.405,1.136c0.172,0.049,0.354,0.049,0.534,0.06
		c1.186,0.081,2.326-0.178,3.45-0.505c1.038-0.302,2.065-0.647,3.086-0.999c0.457-0.156,0.763-0.389,0.763-1.204L32.744,23.201z
		 M32.753,23.018l-5.436,0.204c-0.191,0.007-0.351-0.141-0.359-0.33c-0.007-0.187,0.141-0.346,0.331-0.354l5.438-0.208
		c0.188-0.006,0.349,0.143,0.356,0.331C33.092,22.85,32.943,23.01,32.753,23.018 M33.514,28.776c-0.473,0-0.858,0.383-0.858,0.856
		s0.385,0.858,0.858,0.858c0.474,0,0.859-0.385,0.859-0.858S33.987,28.776,33.514,28.776 M35.828,28.776
		c-0.474,0-0.856,0.383-0.856,0.856s0.383,0.858,0.856,0.858c0.475,0,0.858-0.385,0.858-0.858S36.303,28.776,35.828,28.776
		 M12.392,30.459c0.101-0.006,0.251-0.19,0.283-0.312c0.338-1.365,0.926-2.619,1.684-3.791c0.531-0.815,1.125-1.584,1.69-2.377
		c-2.338,1.782-4.4,3.82-5.938,6.494L12.392,30.459z"/>
</g>
</svg>
