<?xml version="1.0" encoding="utf-8"?>
<!-- Generator: Adobe Illustrator 16.0.0, SVG Export Plug-In . SVG Version: 6.00 Build 0)  -->
<!DOCTYPE svg PUBLIC "-//W3C//DTD SVG 1.1//EN" "http://www.w3.org/Graphics/SVG/1.1/DTD/svg11.dtd">
<svg version="1.1" id="Capa_1" xmlns="http://www.w3.org/2000/svg" xmlns:xlink="http://www.w3.org/1999/xlink" x="0px" y="0px"
	 width="150px" height="150px" viewBox="0 0 150 150" enable-background="new 0 0 150 150" xml:space="preserve">
<g id="Nuevo_símbolo">
</g>
<path fill="#FFFFFF" d="M68.205,2.501l0.085,0.234C55.744,4.009,42.222,8.584,30.769,17.484C19.176,26.12,9.896,39.023,5.188,53.908
	C0.718,68.816,0.752,85.649,6.533,100.66c2.802,7.511,6.843,14.56,11.873,20.762c5.118,6.14,11.218,11.378,17.893,15.509
	l-1.808-0.035c7.254,4.438,15.787,7.883,24.529,9.471c8.733,1.65,17.553,1.513,25.237,0.188c-1.993,0.338-4.018,0.338-6.028,0.377
	c2.756-0.291,7.623-1.027,12.727-2.354c2.539-0.721,5.2-1.359,7.616-2.389c2.468-0.867,4.784-1.799,6.709-2.787l-0.669,0.589
	c-10.94,4.638,0.843-0.097-3.406,2.256l-1.919,0.823l1.192-0.31l1.918-0.829c-0.174,0.201,0.065,0.303-1.776,1.035
	c0.877-0.326,1.776-0.605,2.625-0.971c5.698-2.028,6.021-1.583,5.638-0.605c1.405-0.807-0.343-0.515,5.604-3.89l-0.637,0.662
	c2.119-1.331,3.996-2.999,5.91-4.604c0.934-0.599,1.947-1.119,2.807-1.828c1.854-1.937,3.104-3.112,5.07-5.021l0.211-0.938
	c4.353-4.267,8.254-10.012,11.586-16.021c3.112-6.163,5.463-12.669,6.955-18.661c0.205-2.695,1.842-9.174,1.584-16.085l-0.654,2.924
	c-0.305,1.834-0.356,4.29-0.965,7.06c-0.246,1.445-0.492,2.908-0.748,4.422c-0.397,1.531-0.803,3.113-1.229,4.713
	c-1.736,6.443-4.609,13.166-7.879,18.105l0.006-0.531c1.282-2.118,1.819-3.85,3.252-6.545l-0.083-0.914
	c-0.942,0.977-1.925,2.648-2.981,4.644c-1.248,1.89-2.416,4.192-3.756,6.375c-2.695,4.356-5.814,8.362-7.356,9.835
	c-3.405,2.947-2.544,1.696-1.154,0.211c1.289-1.594,2.919-3.644,1.528-2.045c3.059-3.826,1.438-2.484-1.271,0.069
	c-2.789,2.502-7.064,5.838-8.918,6.729c-4.75,2.965-12.476,7.539-21.459,10.161c-8.92,2.741-18.842,3.507-26.176,2.759
	c-6.1-0.463-12.792-1.537-19.22-4.187c-6.415-2.599-12.638-6.289-18.106-10.83c-5.382-4.633-9.934-10.063-13.541-15.656
	c-3.65-5.604-5.961-11.515-7.834-16.856c-1.38-5.248-3.41-12.144-3.625-18.854c-0.24-3.324-0.037-6.569,0.221-9.379
	c0.511-2.776,0.918-5.175,1.701-6.797c1.528-6.66,4.201-12.99,7.539-18.896l0.012,0.503c4.861-8.597,11.805-16.605,20.082-22.693
	c8.23-6.192,17.857-10.11,27.011-11.835c1.848-0.325,3.51-0.628,5.075-0.908c1.388-0.137,2.662-0.269,3.666-0.365
	c2.097-0.194,3.666-0.32,5.502,0.234c8.07,0.411,16.816,2.028,24.976,5.317c8.171,3.228,15.679,8.1,21.365,13.681
	c0.123-0.217,1.959,1.103-0.146-0.982c-3.054-2.782-6.541-5.466-9.23-7.637c-2.831-1.941-4.784-3.496-4.75-3.866l2.639,1.679
	c-1.505-1.097-2.967-2.296-4.609-3.205l-3.33-1.365c-0.76-0.554-1.08-0.851-1.098-0.966c-5.686-2.387-10.693-4.741-17.121-5.958
	c-2.293-0.343-4.756-0.491-7.552-0.577C74.959,2.301,71.849,2.479,68.205,2.501"/>
<g id="Nuevo_símbolo_2">
	<g>
		<g>
			<g>
				<path fill="#FFFFFF" d="M117.077,102.815h-1.546V57.147c0-3.494-2.843-6.337-6.337-6.337H93.361
					c-2.919-7.176-9.948-12.247-18.137-12.247S60.006,43.634,57.086,50.81H40.805c-3.493,0-6.336,2.843-6.336,6.337v45.668h-1.546
					c-0.7,0-1.268,0.567-1.268,1.268c0,5.744,4.674,10.417,10.418,10.417h65.854c5.744,0,10.418-4.673,10.418-10.417
					C118.345,103.383,117.777,102.815,117.077,102.815z M37.004,57.147c0-2.097,1.705-3.802,3.801-3.802h15.444
					c-0.025,0.098-0.046,0.197-0.07,0.294c-0.014,0.061-0.028,0.123-0.044,0.183c-0.023,0.104-0.045,0.208-0.067,0.313
					c-0.017,0.079-0.033,0.158-0.049,0.237C56,54.47,55.98,54.567,55.964,54.664c-0.018,0.093-0.033,0.187-0.049,0.28
					c-0.015,0.086-0.029,0.173-0.043,0.26c-0.027,0.172-0.052,0.344-0.073,0.518c-0.009,0.064-0.015,0.128-0.021,0.192
					c-0.015,0.124-0.029,0.248-0.041,0.372c-0.008,0.073-0.014,0.148-0.021,0.222c-0.011,0.117-0.019,0.235-0.027,0.353
					c-0.004,0.072-0.01,0.145-0.013,0.217c-0.009,0.127-0.014,0.255-0.018,0.382c-0.004,0.062-0.007,0.124-0.008,0.186
					c-0.002,0.066-0.003,0.134-0.004,0.201H42.552c-0.7,0-1.268,0.567-1.268,1.268v31.759c0,0.699,0.567,1.268,1.268,1.268
					c0.699,0,1.267-0.568,1.267-1.268V60.382h11.943c0.062,0.57,0.152,1.134,0.263,1.695c0.001,0.002,0.001,0.005,0.002,0.008
					c0.185,0.928,0.437,1.839,0.752,2.729c0.005,0.012,0.009,0.024,0.014,0.036c0.061,0.169,0.123,0.338,0.188,0.506
					c0.006,0.015,0.012,0.03,0.019,0.045c0.183,0.469,0.385,0.93,0.604,1.385c0.03,0.063,0.06,0.126,0.092,0.189
					c0.052,0.105,0.105,0.209,0.159,0.313c0.049,0.094,0.099,0.188,0.148,0.281c0.048,0.089,0.097,0.178,0.146,0.266
					c0.065,0.116,0.131,0.229,0.197,0.344c0.041,0.07,0.081,0.139,0.123,0.208c0.111,0.185,0.226,0.368,0.343,0.548l0.023,0.038
					c0.026,0.041,0.053,0.08,0.079,0.12c0.024,0.038,0.05,0.077,0.075,0.114c0.391,0.581,1.179,0.734,1.759,0.343
					c0.255-0.171,0.427-0.419,0.508-0.691c0.001-0.004,0.001-0.008,0.002-0.012c0.011-0.035,0.021-0.07,0.026-0.105
					c0.002-0.009,0.002-0.019,0.005-0.028c0.004-0.031,0.01-0.062,0.013-0.093c0.002-0.013,0.001-0.025,0.002-0.039
					c0.002-0.027,0.004-0.055,0.004-0.083c0-0.02-0.002-0.04-0.003-0.059c-0.001-0.021-0.001-0.042-0.003-0.063
					c-0.003-0.026-0.007-0.051-0.011-0.077c-0.002-0.015-0.004-0.03-0.007-0.045c-0.006-0.031-0.015-0.061-0.022-0.092
					c-0.004-0.009-0.005-0.019-0.007-0.028c-0.013-0.039-0.025-0.077-0.041-0.116c0-0.001-0.001-0.002-0.001-0.002
					c-0.033-0.078-0.073-0.154-0.123-0.228c-0.038-0.057-0.076-0.115-0.113-0.173c-0.006-0.007-0.011-0.015-0.015-0.022
					l-0.032-0.048c-0.106-0.165-0.21-0.332-0.311-0.5c-0.046-0.075-0.089-0.151-0.133-0.227c-0.053-0.092-0.107-0.183-0.158-0.275
					c-0.056-0.101-0.109-0.203-0.163-0.304c-0.035-0.066-0.071-0.134-0.106-0.201c-0.06-0.118-0.118-0.238-0.177-0.357
					c-0.024-0.05-0.048-0.1-0.071-0.149c-0.063-0.134-0.124-0.269-0.184-0.403c-0.016-0.035-0.031-0.07-0.046-0.105
					c-0.063-0.148-0.126-0.297-0.186-0.447c-0.008-0.02-0.016-0.04-0.023-0.059c-0.064-0.164-0.126-0.328-0.187-0.494
					c-0.001-0.002-0.002-0.005-0.003-0.008c-0.568-1.587-0.901-3.259-0.983-4.958v0c-0.014-0.279-0.022-0.558-0.022-0.839
					c0-0.219,0.006-0.438,0.014-0.656c0.002-0.043,0.003-0.086,0.004-0.128c0.011-0.207,0.023-0.413,0.04-0.62
					c0.005-0.048,0.009-0.097,0.013-0.145c0.019-0.198,0.038-0.396,0.063-0.592c0.006-0.038,0.01-0.075,0.015-0.113
					c0.024-0.179,0.051-0.359,0.08-0.537c0.01-0.062,0.02-0.124,0.031-0.185c0.032-0.182,0.066-0.363,0.104-0.544
					c0.017-0.075,0.033-0.149,0.049-0.223C58.623,54.314,58.66,54.157,58.7,54c0.023-0.093,0.049-0.187,0.074-0.28
					c0.031-0.116,0.063-0.232,0.098-0.347c0.038-0.126,0.076-0.253,0.116-0.379c0.035-0.108,0.069-0.216,0.106-0.323
					c2.3-6.726,8.661-11.574,16.13-11.574s13.831,4.848,16.13,11.575c0.036,0.106,0.071,0.212,0.105,0.319
					c0.041,0.127,0.079,0.255,0.117,0.384c0.034,0.115,0.066,0.229,0.098,0.345c0.025,0.094,0.051,0.188,0.075,0.283
					c0.039,0.156,0.076,0.312,0.11,0.469c0.018,0.075,0.033,0.149,0.049,0.224c0.038,0.181,0.073,0.361,0.104,0.543
					c0.011,0.062,0.021,0.124,0.031,0.185c0.028,0.179,0.056,0.357,0.079,0.537c0.006,0.038,0.011,0.075,0.015,0.113
					c0.025,0.197,0.046,0.394,0.063,0.592c0.005,0.048,0.009,0.096,0.014,0.145c0.018,0.207,0.029,0.413,0.039,0.62
					c0.001,0.042,0.003,0.085,0.005,0.128c0.008,0.218,0.014,0.437,0.014,0.656c0,0.281-0.009,0.56-0.022,0.839v0
					c-0.082,1.697-0.416,3.366-0.982,4.953c-0.003,0.006-0.006,0.014-0.008,0.021c-0.058,0.163-0.12,0.323-0.183,0.484
					c-0.009,0.023-0.019,0.046-0.027,0.069c-0.059,0.148-0.119,0.294-0.183,0.44c-0.016,0.038-0.033,0.075-0.049,0.113
					c-0.059,0.133-0.12,0.266-0.181,0.397c-0.024,0.053-0.05,0.105-0.075,0.157c-0.058,0.118-0.115,0.236-0.175,0.353
					c-0.035,0.07-0.072,0.138-0.109,0.207c-0.053,0.101-0.105,0.2-0.16,0.3c-0.053,0.094-0.107,0.186-0.161,0.279
					c-0.044,0.075-0.086,0.15-0.13,0.225c-0.102,0.168-0.206,0.336-0.313,0.501l-0.025,0.04c0,0-0.001,0.001-0.001,0.002
					c-0.043,0.065-0.085,0.129-0.128,0.193c-0.004,0.005-0.006,0.01-0.009,0.014c-0.048,0.072-0.092,0.142-0.139,0.212
					c-0.124,0.189-0.248,0.379-0.368,0.565c-0.071,0.11-0.14,0.217-0.209,0.325c-0.096,0.151-0.193,0.301-0.288,0.45
					c-0.071,0.112-0.14,0.221-0.21,0.332c-0.09,0.144-0.181,0.287-0.27,0.428c-0.07,0.111-0.138,0.221-0.207,0.331
					c-0.085,0.138-0.171,0.276-0.255,0.412c-0.067,0.109-0.133,0.216-0.2,0.325c-0.083,0.136-0.166,0.271-0.248,0.406
					c-0.063,0.104-0.126,0.207-0.188,0.31c-0.083,0.136-0.164,0.271-0.244,0.405c-0.059,0.098-0.118,0.197-0.176,0.293
					c-0.083,0.139-0.162,0.275-0.243,0.41c-0.054,0.092-0.107,0.182-0.159,0.271c-0.087,0.146-0.169,0.291-0.254,0.436
					c-0.045,0.076-0.089,0.152-0.133,0.227c-0.106,0.187-0.211,0.369-0.314,0.551c-0.019,0.031-0.037,0.064-0.055,0.096
					c-0.121,0.213-0.24,0.424-0.356,0.631c-0.028,0.053-0.056,0.102-0.085,0.151c-0.085,0.155-0.171,0.308-0.254,0.458
					c-0.039,0.072-0.077,0.141-0.116,0.211c-0.069,0.129-0.14,0.257-0.207,0.382c-0.041,0.075-0.081,0.147-0.121,0.222
					c-0.063,0.119-0.128,0.238-0.19,0.354c-0.039,0.074-0.077,0.146-0.115,0.219c-0.062,0.114-0.121,0.228-0.18,0.339
					c-0.037,0.071-0.074,0.142-0.111,0.212c-0.059,0.11-0.114,0.221-0.171,0.328c-0.034,0.066-0.069,0.133-0.102,0.199
					c-0.058,0.111-0.112,0.22-0.169,0.327c-0.029,0.06-0.061,0.12-0.091,0.18c-0.031,0.063-0.063,0.125-0.094,0.187V65.249
					c0-0.195-0.045-0.379-0.124-0.543c-0.002-0.005-0.004-0.012-0.007-0.017l-3.376-7.06c0,0,0,0,0,0l-2.954-6.177
					c-0.211-0.44-0.655-0.721-1.144-0.721s-0.933,0.28-1.144,0.721l-2.954,6.177c0,0,0,0.001,0,0.001l-3.376,7.059
					c-0.002,0.005-0.003,0.011-0.006,0.017c-0.078,0.165-0.124,0.349-0.124,0.544v13.739c-0.021-0.04-0.041-0.081-0.062-0.122
					c-0.031-0.064-0.065-0.129-0.099-0.194c-0.037-0.073-0.075-0.146-0.112-0.22c-0.034-0.067-0.069-0.136-0.104-0.204
					c-0.039-0.074-0.078-0.151-0.118-0.229c-0.035-0.066-0.07-0.135-0.106-0.204c-0.042-0.081-0.084-0.162-0.128-0.244
					c-0.036-0.067-0.07-0.134-0.106-0.202c-0.047-0.09-0.096-0.18-0.145-0.27c-0.033-0.064-0.066-0.127-0.102-0.191
					c-0.059-0.111-0.12-0.225-0.181-0.337c-0.025-0.046-0.049-0.091-0.074-0.136c-0.085-0.159-0.173-0.32-0.263-0.483
					c-0.027-0.048-0.054-0.097-0.08-0.144c-0.064-0.119-0.131-0.237-0.197-0.357c-0.036-0.064-0.072-0.13-0.109-0.195
					c-0.06-0.105-0.117-0.211-0.178-0.317c-0.041-0.073-0.083-0.146-0.124-0.219c-0.058-0.104-0.117-0.207-0.177-0.312
					c-0.042-0.074-0.084-0.148-0.128-0.223c-0.063-0.107-0.124-0.216-0.188-0.324c-0.042-0.074-0.085-0.148-0.129-0.223
					c-0.064-0.113-0.132-0.229-0.199-0.343c-0.042-0.071-0.083-0.144-0.127-0.216c-0.074-0.127-0.151-0.256-0.228-0.385
					c-0.035-0.062-0.072-0.121-0.108-0.184c-0.115-0.191-0.229-0.385-0.349-0.581c-0.361-0.6-1.141-0.792-1.739-0.43
					c-0.113,0.068-0.212,0.15-0.293,0.243c-0.36,0.404-0.433,1.01-0.138,1.497c0.139,0.229,0.273,0.455,0.407,0.68
					c0.005,0.01,0.011,0.018,0.016,0.027c0.124,0.209,0.247,0.416,0.366,0.621c0.024,0.039,0.046,0.078,0.069,0.119
					c0.102,0.172,0.2,0.344,0.298,0.513c0.029,0.051,0.059,0.102,0.087,0.152c0.09,0.155,0.18,0.312,0.267,0.464
					c0.032,0.057,0.062,0.111,0.093,0.166c0.083,0.146,0.164,0.29,0.245,0.434c0.032,0.058,0.063,0.115,0.095,0.172
					c0.078,0.14,0.154,0.278,0.229,0.414c0.032,0.056,0.062,0.111,0.092,0.166c0.074,0.136,0.147,0.271,0.221,0.404
					c0.028,0.053,0.058,0.105,0.086,0.158c0.073,0.134,0.143,0.266,0.213,0.396c0.026,0.049,0.053,0.098,0.079,0.146
					c0.071,0.133,0.14,0.265,0.208,0.396c0.022,0.041,0.046,0.084,0.067,0.127c0.071,0.137,0.142,0.271,0.21,0.404
					c0.018,0.033,0.035,0.066,0.052,0.1c0.076,0.146,0.149,0.289,0.222,0.432c0.01,0.018,0.018,0.037,0.027,0.055
					c0.329,0.646,0.622,1.242,0.879,1.781c0.009,0.019,0.018,0.037,0.026,0.055c0.055,0.113,0.106,0.224,0.157,0.332
					c0.015,0.029,0.027,0.059,0.041,0.088c0.045,0.094,0.088,0.186,0.129,0.276c0.018,0.035,0.033,0.07,0.049,0.104
					c0.038,0.082,0.075,0.163,0.111,0.242c0.016,0.035,0.033,0.072,0.049,0.107c0.034,0.074,0.066,0.147,0.099,0.219
					c0.016,0.035,0.031,0.07,0.047,0.105c0.031,0.068,0.061,0.135,0.089,0.2c0.016,0.034,0.03,0.067,0.045,0.099
					c0.027,0.064,0.054,0.125,0.079,0.186c0.015,0.031,0.028,0.063,0.043,0.095c0.024,0.058,0.048,0.114,0.071,0.169
					c0.013,0.027,0.025,0.058,0.037,0.086c0.023,0.053,0.045,0.104,0.065,0.155c0.012,0.026,0.022,0.053,0.034,0.078
					c0.02,0.048,0.038,0.093,0.057,0.138c0.01,0.023,0.021,0.05,0.03,0.073c0.018,0.042,0.034,0.081,0.05,0.12
					c0.01,0.022,0.019,0.047,0.027,0.068c0.015,0.033,0.025,0.063,0.038,0.094c0.027,0.066,0.052,0.129,0.073,0.184
					c0.003,0.006,0.006,0.013,0.008,0.02c0.016,0.036,0.027,0.068,0.04,0.1c0.001,0.006,0.003,0.011,0.006,0.016
					c0.025,0.067,0.046,0.122,0.061,0.161v9.579c0,2.384,1.94,4.325,4.326,4.325h6.558c2.384,0,4.324-1.941,4.324-4.325v-9.579
					c0.021-0.054,0.053-0.138,0.095-0.245c0.156-0.398,0.468-1.16,0.963-2.244c0.031-0.066,0.061-0.132,0.092-0.199
					c0.135-0.293,0.283-0.607,0.442-0.943c0.06-0.121,0.119-0.245,0.182-0.372c0.128-0.264,0.262-0.537,0.405-0.824
					c0.129-0.255,0.265-0.524,0.405-0.798c0.063-0.121,0.125-0.244,0.19-0.369c0.965-1.86,2.209-4.101,3.777-6.661
					c0.008-0.011,0.015-0.023,0.022-0.034c0.15-0.246,0.305-0.495,0.46-0.746c0.024-0.038,0.049-0.078,0.073-0.116
					c0.143-0.229,0.287-0.458,0.436-0.692c0.048-0.076,0.098-0.153,0.146-0.229c0.128-0.201,0.256-0.401,0.387-0.605
					c0.141-0.217,0.283-0.437,0.428-0.657c0.045-0.068,0.087-0.135,0.133-0.205c0.05-0.075,0.1-0.151,0.149-0.228l0.031-0.049
					c0.117-0.18,0.23-0.363,0.342-0.547c0.041-0.068,0.081-0.137,0.121-0.206c0.066-0.114,0.133-0.229,0.197-0.344
					c0.049-0.088,0.098-0.176,0.146-0.265c0.051-0.092,0.099-0.186,0.147-0.28c0.055-0.104,0.108-0.208,0.16-0.312
					c0.031-0.062,0.059-0.124,0.089-0.186c0.222-0.457,0.425-0.922,0.608-1.395c0.005-0.011,0.01-0.022,0.014-0.032
					c0.066-0.171,0.13-0.342,0.192-0.516c0.002-0.007,0.004-0.015,0.007-0.021c0.509-1.431,0.854-2.918,1.02-4.438h11.494v6.953
					c0,0.7,0.567,1.268,1.267,1.268c0.7,0,1.268-0.567,1.268-1.268v-8.22c0-0.7-0.567-1.267-1.268-1.267H94.803
					c-0.002-0.067-0.004-0.134-0.006-0.201c-0.001-0.063-0.004-0.124-0.007-0.186c-0.005-0.127-0.011-0.254-0.018-0.381
					c-0.004-0.073-0.009-0.146-0.015-0.218c-0.007-0.117-0.017-0.235-0.026-0.353c-0.006-0.074-0.013-0.148-0.02-0.222
					c-0.013-0.124-0.025-0.248-0.041-0.371c-0.008-0.064-0.015-0.128-0.022-0.193c-0.021-0.173-0.046-0.346-0.072-0.518
					c-0.014-0.087-0.028-0.173-0.043-0.261c-0.016-0.093-0.031-0.186-0.048-0.278c-0.019-0.097-0.037-0.195-0.056-0.292
					c-0.016-0.08-0.032-0.158-0.05-0.237c-0.021-0.104-0.043-0.209-0.067-0.313c-0.014-0.062-0.028-0.122-0.043-0.183
					c-0.023-0.098-0.046-0.197-0.07-0.295h14.995c2.097,0,3.802,1.706,3.802,3.801v45.669h-4.28V72.404
					c0-0.7-0.567-1.268-1.268-1.268c-0.699,0-1.267,0.567-1.267,1.268v30.412H43.818v-6.872c0-0.7-0.567-1.268-1.267-1.268
					c-0.7,0-1.268,0.567-1.268,1.268v6.872h-4.28V57.147z M70.154,89.077v-3.02h10.14v3.02H70.154z M80.294,91.612v3.104
					c0,0.987-0.804,1.79-1.79,1.79h-6.558c-0.988,0-1.791-0.803-1.791-1.79v-3.104l0,0H80.294z M70.154,83.522V66.518h10.14v17.005
					H70.154L70.154,83.522z M70.904,63.969l2.164-4.525h4.312l2.163,4.525H70.904z M84.155,105.35
					c-0.472,0.969-1.466,1.638-2.614,1.638H68.459c-1.148,0-2.143-0.669-2.614-1.638H84.155z M107.927,111.966H42.073
					c-3.915,0-7.174-2.869-7.782-6.616h28.878c0.572,2.391,2.727,4.173,5.29,4.173h13.082c2.563,0,4.717-1.782,5.289-4.173h28.878
					C115.101,109.096,111.842,111.966,107.927,111.966z"/>
			</g>
		</g>
		<g>
			<g>
				<path fill="#FFFFFF" d="M75.225,29.5c-0.701,0-1.268,0.567-1.268,1.268v4.738c0,0.7,0.566,1.267,1.268,1.267
					c0.7,0,1.268-0.567,1.268-1.267v-4.738C76.492,30.067,75.925,29.5,75.225,29.5z"/>
			</g>
		</g>
		<g>
			<g>
				<path fill="#FFFFFF" d="M99.669,40.502c-0.348-0.608-1.121-0.818-1.729-0.471l-4.113,2.353c-0.607,0.348-0.817,1.122-0.47,1.729
					c0.233,0.409,0.661,0.638,1.1,0.638c0.214,0,0.432-0.054,0.629-0.167l4.112-2.353C99.806,41.884,100.017,41.11,99.669,40.502z"
					/>
			</g>
		</g>
		<g>
			<g>
				<path fill="#FFFFFF" d="M89.813,32.801c-0.555-0.425-1.351-0.32-1.776,0.236l-2.881,3.762c-0.424,0.556-0.319,1.351,0.236,1.777
					c0.229,0.176,0.501,0.261,0.77,0.261c0.382,0,0.758-0.171,1.008-0.497l2.88-3.761C90.475,34.022,90.369,33.227,89.813,32.801z"
					/>
			</g>
		</g>
		<g>
			<g>
				<path fill="#FFFFFF" d="M56.173,42.385l-4.112-2.353c-0.608-0.348-1.382-0.137-1.729,0.47c-0.348,0.608-0.138,1.382,0.47,1.73
					l4.112,2.352c0.197,0.114,0.415,0.167,0.629,0.167c0.438,0,0.866-0.229,1.1-0.638C56.991,43.506,56.78,42.732,56.173,42.385z"/>
			</g>
		</g>
		<g>
			<g>
				<path fill="#FFFFFF" d="M64.845,36.798l-2.881-3.761c-0.426-0.556-1.222-0.661-1.776-0.236
					c-0.557,0.425-0.662,1.221-0.236,1.777l2.88,3.761c0.25,0.326,0.626,0.497,1.008,0.497c0.269,0,0.54-0.085,0.77-0.261
					C65.164,38.149,65.269,37.354,64.845,36.798z"/>
			</g>
		</g>
	</g>
</g>
</svg>
