<?xml version="1.0" encoding="utf-8"?>
<!-- Generator: Adobe Illustrator 16.0.0, SVG Export Plug-In . SVG Version: 6.00 Build 0)  -->
<!DOCTYPE svg PUBLIC "-//W3C//DTD SVG 1.1//EN" "http://www.w3.org/Graphics/SVG/1.1/DTD/svg11.dtd">
<svg version="1.1" id="Capa_1" xmlns="http://www.w3.org/2000/svg" xmlns:xlink="http://www.w3.org/1999/xlink" x="0px" y="0px"
	 width="150px" height="150px" viewBox="0 0 150 150" enable-background="new 0 0 150 150" xml:space="preserve">
<g id="Nuevo_símbolo">
</g>
<g id="Nuevo_símbolo_3">
</g>
<g id="Nuevo_símbolo_5">
	<path fill="#FFFFFF" d="M68.205,2.501l0.085,0.233c-12.546,1.274-26.068,5.85-37.521,14.749
		C19.176,26.12,9.896,39.022,5.188,53.908C0.718,68.815,0.752,85.649,6.533,100.66c2.802,7.511,6.843,14.56,11.873,20.762
		c5.118,6.14,11.218,11.378,17.893,15.509l-1.808-0.035c7.254,4.438,15.787,7.883,24.529,9.471
		c8.733,1.65,17.553,1.513,25.237,0.188c-1.993,0.338-4.018,0.338-6.028,0.377c2.756-0.291,7.623-1.027,12.727-2.354
		c2.539-0.721,5.2-1.359,7.616-2.389c2.468-0.867,4.784-1.799,6.709-2.787l-0.669,0.589c-10.94,4.638,0.843-0.097-3.406,2.256
		l-1.919,0.823l1.192-0.31l1.918-0.829c-0.174,0.201,0.065,0.303-1.776,1.035c0.877-0.326,1.776-0.605,2.625-0.971
		c5.698-2.028,6.021-1.583,5.638-0.605c1.405-0.807-0.343-0.515,5.604-3.89l-0.637,0.662c2.119-1.331,3.996-2.999,5.91-4.604
		c0.934-0.599,1.947-1.119,2.807-1.828c1.854-1.937,3.104-3.112,5.07-5.021l0.211-0.938c4.353-4.267,8.254-10.012,11.586-16.021
		c3.112-6.163,5.463-12.669,6.955-18.661c0.205-2.695,1.842-9.174,1.584-16.085l-0.654,2.924c-0.305,1.834-0.356,4.29-0.965,7.06
		c-0.246,1.445-0.492,2.908-0.748,4.422c-0.397,1.531-0.803,3.113-1.229,4.713c-1.736,6.443-4.609,13.166-7.879,18.105l0.006-0.531
		c1.282-2.118,1.819-3.85,3.252-6.545l-0.083-0.914c-0.942,0.977-1.925,2.648-2.981,4.644c-1.248,1.89-2.416,4.192-3.756,6.375
		c-2.695,4.356-5.814,8.362-7.356,9.835c-3.405,2.947-2.544,1.696-1.154,0.211c1.289-1.594,2.919-3.644,1.528-2.045
		c3.059-3.826,1.438-2.484-1.271,0.069c-2.789,2.502-7.064,5.838-8.918,6.729c-4.75,2.965-12.476,7.539-21.459,10.161
		c-8.92,2.741-18.842,3.507-26.176,2.759c-6.1-0.463-12.792-1.537-19.22-4.187c-6.415-2.599-12.638-6.289-18.106-10.83
		c-5.382-4.633-9.934-10.063-13.541-15.656c-3.65-5.604-5.961-11.515-7.834-16.856c-1.38-5.248-3.41-12.144-3.625-18.854
		c-0.24-3.324-0.037-6.569,0.221-9.379c0.511-2.776,0.918-5.175,1.701-6.797c1.528-6.66,4.201-12.99,7.539-18.896l0.012,0.503
		c4.861-8.597,11.805-16.604,20.082-22.692c8.23-6.192,17.857-10.11,27.011-11.835c1.848-0.325,3.51-0.628,5.075-0.908
		c1.388-0.137,2.662-0.27,3.666-0.365c2.097-0.194,3.666-0.32,5.502,0.234c8.07,0.411,16.816,2.027,24.976,5.316
		c8.171,3.229,15.679,8.101,21.365,13.682c0.123-0.218,1.959,1.103-0.146-0.982c-3.054-2.782-6.541-5.466-9.23-7.637
		c-2.831-1.941-4.784-3.496-4.75-3.866l2.639,1.679c-1.505-1.097-2.967-2.296-4.609-3.205l-3.33-1.364
		c-0.76-0.555-1.08-0.852-1.098-0.967c-5.686-2.387-10.693-4.74-17.121-5.958c-2.293-0.343-4.756-0.49-7.552-0.576
		C74.959,2.301,71.849,2.479,68.205,2.501"/>
	<g>
		<g>
			<g>
				<path fill="#FFFFFF" d="M50.813,90.361c-5.002,0-9.068,4.066-9.068,9.068s4.066,9.07,9.068,9.07s9.071-4.068,9.071-9.07
					S55.815,90.361,50.813,90.361z M50.813,105.477c-3.335,0-6.047-2.711-6.047-6.047c0-3.335,2.713-6.046,6.047-6.046
					c3.335,0,6.048,2.712,6.048,6.046C56.861,102.766,54.148,105.477,50.813,105.477z"/>
			</g>
		</g>
		<g>
			<g>
				<path fill="#FFFFFF" d="M102.21,90.361c-5.002,0-9.071,4.066-9.071,9.068s4.069,9.07,9.071,9.07s9.068-4.068,9.068-9.07
					S107.212,90.361,102.21,90.361z M102.21,105.477c-3.337,0-6.047-2.711-6.047-6.047c0-3.335,2.711-6.046,6.047-6.046
					c3.334,0,6.046,2.712,6.046,6.046C108.256,102.766,105.544,105.477,102.21,105.477z"/>
			</g>
		</g>
		<g>
			<g>
				<path fill="#FFFFFF" d="M120.109,81.985l-13.605-21.163c-0.279-0.433-0.758-0.694-1.271-0.694h-16.63
					c-0.835,0-1.512,0.678-1.512,1.511V99.43c0,0.838,0.677,1.512,1.512,1.512h6.047v-3.023h-4.534V63.15h14.292l12.917,20.096
					v14.672h-7.559v3.023h9.07c0.836,0,1.513-0.674,1.513-1.512V82.803C120.35,82.514,120.266,82.227,120.109,81.985z"/>
			</g>
		</g>
		<g>
			<g>
				<path fill="#FFFFFF" d="M96.163,79.778V69.197h12.093v-3.022H94.65c-0.835,0-1.512,0.677-1.512,1.512V81.29
					c0,0.836,0.677,1.513,1.512,1.513h22.675v-3.024H96.163L96.163,79.778z"/>
			</g>
		</g>
		<g>
			<g>
				<path fill="#FFFFFF" d="M88.604,49.547h-57.44c-0.834,0-1.513,0.677-1.513,1.511V99.43c0,0.838,0.679,1.512,1.513,1.512h12.093
					v-3.023H32.675V52.57h54.417v45.348h-28.72v3.023h30.231c0.838,0,1.513-0.674,1.513-1.512V51.058
					C90.116,50.224,89.441,49.547,88.604,49.547z"/>
			</g>
		</g>
		<g>
			<g>
				<rect x="31.163" y="91.872" fill="#FFFFFF" width="9.07" height="3.024"/>
			</g>
		</g>
		<g>
			<g>
				<rect x="61.396" y="91.872" fill="#FFFFFF" width="25.695" height="3.024"/>
			</g>
		</g>
		<g>
			<g>
				<rect x="112.79" y="91.872" fill="#FFFFFF" width="6.047" height="3.024"/>
			</g>
		</g>
		<g>
			<g>
				<rect x="35.697" y="55.593" fill="#FFFFFF" width="52.906" height="3.024"/>
			</g>
		</g>
		<g>
			<g>
				<rect x="49.303" y="97.918" fill="#FFFFFF" width="3.022" height="3.023"/>
			</g>
		</g>
		<g>
			<g>
				<rect x="100.697" y="97.918" fill="#FFFFFF" width="3.024" height="3.023"/>
			</g>
		</g>
		<g>
			<g>
				<rect x="35.697" y="43.5" fill="#FFFFFF" width="21.164" height="3.023"/>
			</g>
		</g>
		<g>
			<g>
				<rect x="29.65" y="43.5" fill="#FFFFFF" width="3.024" height="3.023"/>
			</g>
		</g>
	</g>
</g>
</svg>
