<?xml version="1.0" encoding="utf-8"?>
<!-- Generator: Adobe Illustrator 16.0.0, SVG Export Plug-In . SVG Version: 6.00 Build 0)  -->
<!DOCTYPE svg PUBLIC "-//W3C//DTD SVG 1.1//EN" "http://www.w3.org/Graphics/SVG/1.1/DTD/svg11.dtd">
<svg version="1.1" id="Capa_1" xmlns="http://www.w3.org/2000/svg" xmlns:xlink="http://www.w3.org/1999/xlink" x="0px" y="0px"
	 width="150px" height="150px" viewBox="0 0 150 150" enable-background="new 0 0 150 150" xml:space="preserve">
<g>
	<path fill="#FFFFFF" d="M141.209,57.135l0.04,0.217l0.18,0.76c0.389,0.828,0.954,2.57,1.165,4.963
		c0.063-0.011,0.095-0.228,0.251,0.595c0.434,3.776,0.323,1.873,0.796,4.581c-0.06-0.84-0.288-1.885-0.271-2.308
		c0.369,1.731,0.423,3.496,0.534,5.249c0.085-0.73,0.191-1.336,0.34-0.462c0.22-0.554,0.605,1.182,0.905,1.856
		c-0.006-0.868-0.006-1.594-0.006-2.102c0.106,0.126,0.206,1.045,0.28,2.171c0.023-0.08,0.048-0.183,0.06-0.349
		c-0.012,0.166-0.037,0.269-0.06,0.349c0.042,0.771,0.083,1.583,0.123,2.359c0.012-0.44,0.017-0.874,0.083-0.657l-0.163-3.245
		c0.012-0.108,0.041,0,0.068,0.195l-0.105-0.84l-0.029,0.651c-0.04,0.229-0.094-0.211-0.151-0.64
		c-0.054-0.857-0.023-1.079-0.011-1.513c-0.072-0.566-0.095-1.154-0.251-1.714c-0.148-0.628,0.163,4.529-0.148,1.748l0.005-0.863
		c-0.168-1.279-0.485-2.976-0.726-3.804c0.014-1.309-0.688-3.582-0.485-3.838c-0.988-4.855-3.053-10.979-5.024-15.525
		c-0.565-0.686-0.934-0.52-2.082-2.319c-0.151-0.394-0.403-0.987-0.269-0.811c-0.257-0.428-0.574-0.828-0.854-1.233
		c0.474,0.714,0.977,1.646,1.065,2.079c-1.094-2.056,0.303,1.034,0.111,0.903c-0.486-0.948-0.965-1.891-1.585-2.748l0.157,0.336
		c2.639,5.027,4.732,10.322,6.006,15.828L141.209,57.135z"/>
	<path fill="#FFFFFF" d="M68.206,2.5l0.085,0.234C55.745,4.008,42.222,8.583,30.77,17.483C19.177,26.119,9.896,39.022,5.189,53.907
		c-4.47,14.908-4.436,31.742,1.345,46.752c2.802,7.511,6.843,14.56,11.873,20.762c5.118,6.14,11.218,11.378,17.893,15.508
		l-1.808-0.034c7.254,4.438,15.788,7.882,24.529,9.47c8.734,1.651,17.553,1.513,25.238,0.188c-1.993,0.337-4.018,0.337-6.029,0.377
		c2.756-0.292,7.623-1.028,12.727-2.354c2.539-0.72,5.2-1.359,7.616-2.388c2.468-0.868,4.784-1.799,6.709-2.787l-0.668,0.588
		c-10.941,4.638,0.842-0.097-3.407,2.256l-1.919,0.823l1.193-0.309l1.917-0.829c-0.174,0.201,0.066,0.303-1.776,1.035
		c0.877-0.326,1.776-0.606,2.625-0.971c5.698-2.028,6.021-1.583,5.638-0.606c1.405-0.806-0.343-0.514,5.604-3.889l-0.637,0.662
		c2.119-1.331,3.996-2.999,5.909-4.604c0.935-0.599,1.948-1.119,2.808-1.828c1.854-1.937,3.104-3.113,5.069-5.021l0.211-0.938
		c4.353-4.267,8.254-10.012,11.587-16.021c3.112-6.163,5.463-12.669,6.954-18.661c0.206-2.696,1.842-9.174,1.585-16.085
		l-0.654,2.924c-0.306,1.834-0.357,4.29-0.966,7.06c-0.246,1.445-0.491,2.907-0.748,4.421c-0.397,1.531-0.803,3.113-1.228,4.713
		c-1.736,6.443-4.609,13.166-7.879,18.106l0.006-0.531c1.282-2.119,1.819-3.85,3.252-6.546l-0.083-0.914
		c-0.943,0.977-1.925,2.649-2.982,4.644c-1.248,1.89-2.416,4.192-3.755,6.375c-2.696,4.357-5.815,8.362-7.357,9.835
		c-3.405,2.947-2.544,1.696-1.154,0.211c1.289-1.594,2.919-3.644,1.528-2.045c3.059-3.827,1.437-2.484-1.271,0.069
		c-2.79,2.502-7.065,5.838-8.919,6.729c-4.749,2.965-12.475,7.54-21.459,10.162c-8.919,2.741-18.841,3.507-26.175,2.759
		c-6.1-0.463-12.792-1.537-19.22-4.187c-6.415-2.599-12.638-6.289-18.107-10.83c-5.381-4.633-9.933-10.064-13.541-15.656
		c-3.649-5.604-5.96-11.515-7.834-16.856c-1.379-5.249-3.41-12.144-3.624-18.855c-0.24-3.324-0.037-6.569,0.22-9.379
		c0.511-2.776,0.919-5.175,1.702-6.797c1.528-6.66,4.201-12.99,7.539-18.896l0.012,0.503c4.861-8.597,11.804-16.605,20.081-22.693
		c8.231-6.192,17.858-10.11,27.011-11.835c1.848-0.325,3.51-0.628,5.075-0.908c1.388-0.137,2.662-0.269,3.667-0.365
		c2.096-0.194,3.665-0.32,5.501,0.234c8.071,0.411,16.816,2.028,24.976,5.317c8.171,3.228,15.679,8.1,21.365,13.681
		c0.123-0.217,1.959,1.103-0.146-0.982c-3.053-2.782-6.54-5.466-9.23-7.637c-2.831-1.941-4.784-3.496-4.75-3.866l2.639,1.679
		c-1.505-1.097-2.967-2.296-4.61-3.205l-3.33-1.365c-0.76-0.554-1.08-0.851-1.097-0.966c-5.686-2.387-10.693-4.741-17.122-5.958
		c-2.293-0.343-4.755-0.491-7.551-0.577C74.96,2.3,71.85,2.478,68.206,2.5"/>
	<path fill="#FFFFFF" d="M102.934,101.26c4.883,6.402,8.685,7.442,8.685,7.442s-0.191,0.371-0.565,0.64
		c-0.383,0.269-1.211,0.148-4.125-1.782c-2.913-1.919-7.008-4.621-10.892-11.664c-3.89-7.042-2.708-13.308-3.719-13.423
		c-1.014-0.125-3.944,9.242-0.134,19.341c3.801,10.087,13.323,14.045,13.323,14.045l-5.76,4.472
		c-5.763,4.473-3.833,5.084-10.487,1.109c-4.487-2.673-14.588-11.853-19.041-22.054c-4.456-10.207-2.556-15.428-3.205-15.445
		c-0.743-0.028-2.545,1.782-3.03,6.209c-0.939,8.574,1.1,14.371,9.436,24.864c8.334,10.487,13.026,11.635,13.026,11.635
		c-1.954,0.313-4.638,0.336-8.294-1.337c-5.167-2.348-10.693-5.455-17.25-16.645c-6.551-11.183-2.376-18.757-2.813-19.505
		c0,0-4.861,1.719-3.955,12.943c0.971,11.96,15.08,22.258,15.08,22.258s-10.815-2.918-17.381-14.474
		c-8.788-15.45-5.067-29.359-5.067-29.359s5.972,1.342,23.805,0.211c17.798-1.125,22.708-5.466,22.708-5.466
		S95.149,91.063,102.934,101.26 M92.29,73.123c-0.534-1.017-1.142-1.994-1.808-2.93c0,0-5.781,3.609-18.924,4.615
		c-13.14,1.017-22.879-0.651-22.879-0.651c-0.534,1.2-1.065,2.69-1.411,3.987c0,0,8.997,0.982,23.573,0.257
		C85.275,77.681,92.29,73.123,92.29,73.123 M88.892,68.205c-4.313-4.833-10.524-7.94-17.507-8.116
		c-9.002-0.241-16.993,4.46-21.371,11.624c0,0,4.789,1.542,20.915,0.577C87.061,71.323,88.892,68.205,88.892,68.205 M63.682,115.871
		c-6.121-6.643-7.646-15.559-7.646-15.559s-0.257,6.1,4.918,13.639c5.172,7.54,15.759,13.086,15.759,13.086
		S70.602,123.37,63.682,115.871 M66.249,91.972c0,0-0.908,9.784,7.16,19.895c8.065,10.116,14.194,12.869,15.282,13.543
		c1.094,0.674,2.702-0.668,2.702-0.668s-12.118-6.625-18.284-15.571C66.155,99.094,66.249,91.972,66.249,91.972 M92.013,90.515
		c0,0-0.38,7.483,2.722,12.841c3.099,5.351,10.099,9.893,11.387,10.475c1.282,0.595,3.104-2.039,3.104-2.039
		s-2.402-0.16-9.245-7.465C93.135,97.021,92.013,90.515,92.013,90.515 M70.245,58.574l-4.575-43.953
		c-0.105-1.01-1.028-1.759-2.047-1.662l-1.625,0.171c-1.026,0.103-1.774,1.028-1.662,2.044l4.569,43.964
		c0,0,1.379-0.394,2.685-0.542C68.885,58.449,70.245,58.574,70.245,58.574"/>
	<path fill="#FFFFFF" d="M85.998,130.533l-0.134,5.003c0,0,7.777,0.16,18.775-7.003c10.995-7.145,16.136-18.587,16.136-18.587
		s-9.253,13.476-20.968,18.074C89.922,131.903,85.998,130.533,85.998,130.533"/>
	<path fill="#FFFFFF" d="M117.249,86.3c0,0,1.479-2.508,4.258-2.508c2.77,0,3.327,3.148,3.327,3.148s2.217,0.931,2.217,4.164
		c0,3.245-4.259,2.405-4.259,2.405s-0.463,1.576-2.679,1.576c-2.222,0-2.128-2.039-2.128-2.039s-4.167,0.925-4.167-2.771
		C113.818,86.574,117.249,86.3,117.249,86.3"/>
	<polygon fill="#FFFFFF" points="42.73,36.052 44.578,39.434 47.96,41.284 44.578,43.135 42.73,46.505 40.888,43.135 37.501,41.284 
		40.888,39.434 	"/>
	<polygon fill="#FFFFFF" points="52.27,47.43 53.492,49.664 55.725,50.886 53.492,52.103 52.27,54.336 51.047,52.103 48.811,50.886 
		51.047,49.664 	"/>
	<polygon fill="#FFFFFF" points="33.803,49.932 36.193,54.296 40.563,56.689 36.193,59.077 33.803,63.452 31.415,59.077 
		27.045,56.689 31.415,54.296 	"/>
</g>
</svg>
