<?xml version="1.0" encoding="utf-8"?>
<!-- Generator: Adobe Illustrator 16.0.0, SVG Export Plug-In . SVG Version: 6.00 Build 0)  -->
<!DOCTYPE svg PUBLIC "-//W3C//DTD SVG 1.1//EN" "http://www.w3.org/Graphics/SVG/1.1/DTD/svg11.dtd">
<svg version="1.1" id="Capa_1" xmlns="http://www.w3.org/2000/svg" xmlns:xlink="http://www.w3.org/1999/xlink" x="0px" y="0px"
	 width="380px" height="380px" viewBox="16 16 380 380" enable-background="new 16 16 380 380" xml:space="preserve">
<path fill="#122436" d="M38.12,232.163l0.004-0.004L38.12,232.163z"/>
<g>
	<g>
		<path fill="#122436" d="M329.619,98.545c-31.562-37.316-78.77-61.02-131.473-61.016c-1.498,0-2.992,0.017-4.479,0.055l0.226,8.729
			c1.412-0.034,2.831-0.051,4.253-0.051c50.053,0,94.815,22.485,124.805,57.922c24.089,28.479,38.602,65.263,38.602,105.484
			c0,1.413-0.017,2.82-0.055,4.22c-0.096,3.833-0.334,7.631-0.692,11.393c-0.064,0.702-0.136,1.405-0.211,2.104
			c-0.075,0.692-0.157,1.385-0.239,2.074c-0.084,0.699-0.173,1.395-0.266,2.091c-0.563,4.202-1.286,8.357-2.163,12.449
			c-0.194,0.915-0.385,1.825-0.596,2.732c-0.127,0.55-0.267,1.089-0.403,1.635c-0.191,0.805-0.386,1.606-0.591,2.405
			c-0.934,3.604-1.991,7.162-3.161,10.669c-0.249,0.743-0.509,1.483-0.767,2.225c-0.198,0.563-0.393,1.128-0.595,1.688
			c-0.276,0.762-0.563,1.515-0.85,2.271c-1.436,3.787-3.012,7.504-4.714,11.151c-1.07,2.288-2.192,4.553-3.367,6.783
			c-1.722,3.282-3.553,6.499-5.491,9.646c-1.364,2.218-2.779,4.401-4.25,6.55c-2.019,2.954-4.13,5.847-6.337,8.66
			c-1.703,2.17-3.455,4.295-5.264,6.376c-2.343,2.694-4.776,5.31-7.29,7.849c-1.852,1.872-3.747,3.694-5.686,5.474
			c-2.719,2.493-5.519,4.893-8.4,7.194c-1.959,1.569-3.954,3.094-5.983,4.567c-3.022,2.2-6.123,4.301-9.299,6.293
			c-2.146,1.348-4.325,2.646-6.539,3.896c-3.258,1.838-6.579,3.57-9.97,5.188c-1.055,0.505-2.118,0.999-3.187,1.483
			c-0.406,0.181-0.818,0.358-1.228,0.536c-0.849,0.375-1.699,0.75-2.555,1.108c-3.38,1.422-6.815,2.729-10.305,3.922
			c-0.771,0.267-1.545,0.516-2.319,0.769c-0.538,0.177-1.078,0.357-1.617,0.524c-0.812,0.256-1.63,0.498-2.445,0.741
			c-4.056,1.203-8.177,2.254-12.357,3.145c-0.728,0.153-1.458,0.307-2.188,0.453c-0.634,0.127-1.269,0.246-1.907,0.365
			c-0.729,0.136-1.462,0.27-2.199,0.396c-3.681,0.635-7.398,1.152-11.157,1.535c-0.976,0.103-1.955,0.185-2.938,0.263
			c-0.415,0.034-0.828,0.078-1.248,0.112c-1.396,0.106-2.797,0.195-4.201,0.267c-2.777,0.139-5.571,0.211-8.382,0.211
			c-1.017,0-2.026-0.021-3.039-0.041c-0.727-0.014-1.454-0.027-2.18-0.052c-0.692-0.023-1.388-0.048-2.077-0.077
			c-0.709-0.031-1.419-0.065-2.125-0.105c-3.806-0.219-7.583-0.557-11.314-1.028c-1.108-0.14-2.21-0.299-3.312-0.46
			c-0.28-0.044-0.563-0.074-0.839-0.119c-1.378-0.208-2.746-0.437-4.107-0.683c-3.687-0.658-7.323-1.449-10.918-2.354
			c-0.744-0.185-1.48-0.379-2.217-0.576c-0.6-0.156-1.197-0.317-1.794-0.484c-0.75-0.208-1.494-0.423-2.238-0.642
			c-4.079-1.2-8.094-2.555-12.037-4.059c-0.774-0.297-1.556-0.594-2.326-0.9c-0.533-0.212-1.061-0.433-1.59-0.651
			c-0.747-0.308-1.491-0.614-2.231-0.932c-3.37-1.445-6.685-2.994-9.933-4.659c-2.486-1.269-4.929-2.603-7.34-3.994
			c-3.097-1.791-6.126-3.681-9.09-5.663c-2.193-1.466-4.349-2.983-6.467-4.553c-2.958-2.189-5.839-4.486-8.64-6.87
			c-1.92-1.634-3.803-3.312-5.648-5.035c-1.381-1.289-2.75-2.592-4.083-3.926c-1.31-1.31-2.589-2.65-3.854-4.004
			c-1.726-1.846-3.408-3.732-5.048-5.655c-2.371-2.783-4.652-5.643-6.832-8.583c-1.583-2.131-3.118-4.305-4.595-6.515
			c-1.985-2.964-3.875-5.993-5.666-9.087c-1.392-2.401-2.726-4.84-3.995-7.316c-1.667-3.251-3.216-6.569-4.666-9.942
			c-0.31-0.724-0.614-1.454-0.917-2.184c-0.222-0.542-0.447-1.088-0.668-1.634c-0.297-0.744-0.583-1.49-0.87-2.241
			c-1.511-3.946-2.872-7.965-4.08-12.054c-0.221-0.758-0.443-1.516-0.658-2.275c-0.164-0.59-0.32-1.184-0.478-1.778
			c-0.201-0.746-0.399-1.489-0.586-2.24c-0.908-3.595-1.699-7.234-2.36-10.919c-0.147-0.825-0.28-1.657-0.417-2.49
			c-0.089-0.545-0.187-1.088-0.269-1.637c-0.15-0.979-0.283-1.962-0.417-2.947c-0.556-4.12-0.955-8.289-1.201-12.501
			c-0.041-0.706-0.079-1.413-0.109-2.122c-0.034-0.692-0.058-1.392-0.082-2.087c-0.021-0.72-0.041-1.439-0.054-2.163
			c-0.021-1.058-0.041-2.111-0.041-3.176H26c0,0.761,0.021,1.515,0.031,2.269h-0.014c0.003,0.365,0.021,0.729,0.027,1.095
			c0.014,0.751,0.034,1.494,0.058,2.241c0.024,0.74,0.051,1.48,0.082,2.218c0.034,0.746,0.075,1.49,0.116,2.233
			c0.024,0.396,0.037,0.798,0.061,1.194h0.014c0.232,3.605,0.563,7.189,1.017,10.734c0.041,0.324,0.092,0.645,0.137,0.969
			c0.15,1.125,0.303,2.255,0.474,3.376c0.085,0.543,0.184,1.086,0.269,1.628c0.15,0.906,0.293,1.814,0.458,2.723l0.031,0.19h0.003
			c0.645,3.554,1.405,7.071,2.265,10.547l-0.014,0.003c0.065,0.253,0.133,0.501,0.198,0.754c0.198,0.791,0.406,1.579,0.618,2.366
			c0.167,0.625,0.331,1.246,0.508,1.87c0.222,0.794,0.454,1.59,0.686,2.382c0.13,0.433,0.246,0.868,0.375,1.299l0.01-0.004
			c1.051,3.456,2.204,6.863,3.462,10.22l-0.01,0.003c0.15,0.406,0.314,0.802,0.468,1.205c0.3,0.784,0.6,1.568,0.914,2.347
			c0.235,0.587,0.474,1.166,0.716,1.749c0.314,0.758,0.627,1.519,0.952,2.271c0.105,0.249,0.205,0.502,0.313,0.747l0.01-0.003
			c2.02,4.635,4.227,9.169,6.628,13.583c0.222,0.406,0.454,0.808,0.679,1.211c0.478,0.855,0.955,1.716,1.443,2.564l0.15,0.266
			l0.007-0.003c1.805,3.114,3.708,6.164,5.7,9.148l-0.007,0.007l0.17,0.242c1.566,2.34,3.19,4.639,4.864,6.896l0.144,0.202
			l0.003-0.004c2.148,2.886,4.393,5.697,6.712,8.438l-0.007,0.007l0.317,0.358c1.729,2.03,3.503,4.019,5.325,5.963l0.341,0.385
			l0.007-0.007c2.463,2.62,5.008,5.161,7.631,7.624l-0.007,0.007l0.392,0.348c1.941,1.815,3.926,3.585,5.952,5.308l0.368,0.328
			l0.007-0.011c2.746,2.322,5.56,4.567,8.449,6.713l-0.003,0.007l0.259,0.185c2.237,1.657,4.513,3.261,6.829,4.81l0.266,0.188
			l0.007-0.011c2.991,1.992,6.048,3.896,9.166,5.703v0.007l0.208,0.116c0.965,0.556,1.938,1.098,2.913,1.634
			c0.29,0.16,0.573,0.324,0.859,0.481c1.276,0.691,2.562,1.371,3.854,2.036l0.068,0.033l0.003-0.003
			c3.199,1.638,6.46,3.166,9.776,4.602l-0.007,0.011c0.218,0.095,0.437,0.18,0.655,0.272c0.771,0.331,1.552,0.655,2.333,0.976
			c0.566,0.234,1.129,0.471,1.702,0.695c0.798,0.321,1.603,0.628,2.408,0.935c0.419,0.16,0.836,0.331,1.259,0.488l0.003-0.007
			c3.367,1.252,6.781,2.401,10.243,3.448l-0.003,0.01c0.409,0.123,0.822,0.232,1.231,0.355c0.778,0.229,1.556,0.454,2.337,0.672
			c0.627,0.174,1.255,0.341,1.883,0.508c0.788,0.212,1.572,0.417,2.364,0.614c0.29,0.075,0.573,0.153,0.86,0.225l0.003-0.014
			c3.479,0.854,6.996,1.614,10.55,2.249v0.003l0.071,0.011c1.439,0.259,2.886,0.497,4.339,0.723c0.215,0.03,0.433,0.055,0.648,0.089
			c1.238,0.184,2.477,0.361,3.725,0.519l0.106,0.014l0.003-0.004c3.544,0.446,7.129,0.774,10.734,1.003v0.014
			c0.352,0.021,0.706,0.031,1.058,0.051c0.747,0.045,1.498,0.082,2.248,0.113c0.733,0.034,1.467,0.062,2.204,0.082
			c0.75,0.023,1.501,0.041,2.255,0.055c0.406,0.007,0.808,0.023,1.218,0.03v-0.014c0.668,0.007,1.337,0.027,2.005,0.027
			c2.944,0,5.871-0.075,8.776-0.222l0.064-0.004c1.475-0.074,2.944-0.167,4.411-0.279c0.41-0.031,0.812-0.072,1.221-0.109
			c1.068-0.089,2.132-0.174,3.192-0.287l0.075-0.003v-0.004c3.6-0.367,7.159-0.855,10.69-1.442v0.014
			c0.328-0.055,0.648-0.119,0.972-0.177c0.781-0.133,1.563-0.276,2.341-0.42c0.665-0.123,1.329-0.249,1.991-0.382
			c0.778-0.154,1.555-0.318,2.333-0.48c0.396-0.086,0.799-0.161,1.19-0.25l-0.003-0.01c3.53-0.781,7.02-1.661,10.461-2.65v0.004
			c0.465-0.134,0.921-0.28,1.382-0.417c0.85-0.256,1.699-0.505,2.541-0.771c0.577-0.181,1.146-0.372,1.72-0.557
			c0.812-0.266,1.624-0.531,2.432-0.805c0.164-0.058,0.33-0.108,0.501-0.167l-0.003-0.01c3.404-1.177,6.762-2.456,10.066-3.838
			v0.007l0.299-0.13c0.885-0.372,1.761-0.757,2.637-1.143c0.451-0.201,0.908-0.389,1.355-0.59c1.107-0.501,2.21-1.017,3.305-1.539
			c0.198-0.091,0.398-0.184,0.593-0.275v-0.003c3.245-1.56,6.428-3.231,9.559-4.987l0.003,0.014c0.249-0.14,0.491-0.286,0.736-0.427
			c0.707-0.402,1.41-0.809,2.108-1.221c0.553-0.321,1.099-0.646,1.648-0.972c0.695-0.42,1.391-0.851,2.083-1.28
			c0.379-0.234,0.765-0.46,1.141-0.699l-0.004-0.01c3.042-1.921,6.02-3.937,8.93-6.041l0.007,0.007l0.416-0.317
			c2.148-1.563,4.257-3.173,6.327-4.829l0.399-0.304l-0.007-0.011c2.801-2.258,5.535-4.595,8.186-7.017l0.004,0.003l0.239-0.229
			c2.04-1.872,4.035-3.793,5.986-5.761l0.253-0.245l-0.007-0.007c2.523-2.562,4.977-5.195,7.336-7.91l0.004,0.003l0.092-0.112
			c1.91-2.193,3.766-4.44,5.563-6.733l0.072-0.089l-0.004-0.004c2.217-2.83,4.339-5.736,6.379-8.701l0.01,0.004l0.201-0.311
			c1.553-2.265,3.046-4.57,4.489-6.914l0.208-0.32l-0.004-0.007c1.877-3.063,3.653-6.195,5.342-9.381l0.011,0.004
			c0.171-0.316,0.326-0.641,0.49-0.962c0.369-0.703,0.73-1.409,1.089-2.118c0.294-0.583,0.586-1.171,0.873-1.76
			c0.354-0.72,0.699-1.446,1.044-2.174c0.167-0.351,0.341-0.698,0.505-1.05l-0.011-0.007c1.511-3.258,2.928-6.57,4.236-9.933h0.007
			c0.174-0.446,0.334-0.897,0.502-1.345c0.304-0.798,0.607-1.593,0.897-2.397c0.215-0.587,0.419-1.181,0.624-1.773
			c0.276-0.781,0.549-1.566,0.812-2.357c0.068-0.201,0.143-0.401,0.208-0.606l-0.011-0.004c1.127-3.408,2.149-6.854,3.061-10.349
			l0.003,0.004l0.068-0.28c0.222-0.856,0.431-1.716,0.639-2.575c0.136-0.56,0.278-1.116,0.408-1.675
			c0.232-1.003,0.446-2.01,0.661-3.02c0.086-0.401,0.182-0.805,0.264-1.211c0.72-3.506,1.324-7.05,1.825-10.632h0.014
			c0.051-0.372,0.092-0.747,0.143-1.122c0.099-0.743,0.194-1.491,0.286-2.237c0.086-0.716,0.167-1.43,0.246-2.149
			c0.078-0.75,0.153-1.5,0.225-2.251c0.038-0.393,0.086-0.777,0.12-1.17h-0.018c0.314-3.564,0.533-7.153,0.625-10.771
			c0.041-1.495,0.058-2.985,0.058-4.482C370.289,167.328,354.987,128.521,329.619,98.545z"/>
		<path fill="#122436" d="M97.382,81.013l-5.389-6.87c-2.357,1.849-4.667,3.759-6.925,5.728l5.741,6.583
			C92.954,84.584,95.145,82.77,97.382,81.013z"/>
		<path fill="#122436" d="M65.543,114.146c1.668-2.309,3.394-4.574,5.178-6.791l-6.805-5.471c-1.876,2.333-3.694,4.72-5.451,7.152
			L65.543,114.146z"/>
		<path fill="#122436" d="M83.301,93.421l-6.137-6.214c-2.135,2.108-4.209,4.267-6.228,6.48l6.45,5.888
			C79.304,97.47,81.275,95.421,83.301,93.421z"/>
		<path fill="#122436" d="M112.783,70.299l-4.571-7.439c-2.555,1.566-5.065,3.199-7.528,4.895l4.95,7.194
			C107.973,73.341,110.357,71.79,112.783,70.299z"/>
		<path fill="#122436" d="M121.665,65.223c2.507-1.331,5.052-2.596,7.63-3.796l-3.684-7.917c-2.719,1.266-5.4,2.599-8.04,4.001
			L121.665,65.223z"/>
		<path fill="#122436" d="M183.411,46.913l-0.778-8.698c-2.998,0.27-5.976,0.613-8.93,1.033l1.228,8.643
			C177.735,47.497,180.563,47.169,183.411,46.913z"/>
		<path fill="#122436" d="M138.696,57.409c2.644-1.034,5.318-1.999,8.03-2.896l-2.746-8.288c-2.855,0.945-5.676,1.961-8.459,3.049
			L138.696,57.409z"/>
		<path fill="#122436" d="M156.539,51.603c2.742-0.719,5.508-1.37,8.306-1.951l-1.771-8.547c-2.947,0.606-5.864,1.292-8.752,2.049
			L156.539,51.603z"/>
		<path fill="#122436" d="M59.81,122.641l-7.385-4.656c-1.6,2.534-3.131,5.113-4.602,7.739l7.621,4.26
			C56.839,127.498,58.295,125.048,59.81,122.641z"/>
		<path fill="#122436" d="M35.568,193.067l-8.688-0.876c-0.301,2.967-0.526,5.955-0.669,8.964l8.722,0.423
			C35.073,198.723,35.285,195.885,35.568,193.067z"/>
		<path fill="#122436" d="M36.915,182.92c0.464-2.821,1-5.615,1.607-8.384l-8.531-1.866c-0.638,2.916-1.2,5.856-1.692,8.827
			L36.915,182.92z"/>
		<path fill="#122436" d="M50.723,139.085l-7.873-3.779c-1.296,2.702-2.524,5.444-3.677,8.22l8.06,3.356
			C48.329,144.249,49.495,141.646,50.723,139.085z"/>
		<path fill="#122436" d="M43.59,156.471l-8.258-2.841c-0.972,2.828-1.873,5.686-2.698,8.579l8.395,2.401
			C41.813,161.864,42.669,159.152,43.59,156.471z"/>
	</g>
	<path fill="#FFFFFF" d="M219.254,34.552h88.272c2.351,0,4.253,1.903,4.253,4.25v50.377c0,2.35-1.902,4.253-4.253,4.253h-49.466
		c-1.297,0-2.521,0.591-3.33,1.607l-14.503,18.215c-0.866,1.088-2.616,0.474-2.616-0.914V97.686c0-2.347-1.907-4.25-4.254-4.25
		H219.25c-2.347,0-4.254-1.903-4.254-4.256V38.805C215,36.455,216.903,34.552,219.254,34.552z"/>
	<path fill="#122436" d="M313.622,32.706c-1.546-1.552-3.729-2.524-6.096-2.521h-88.272c-2.367-0.003-4.551,0.968-6.097,2.521
		c-1.551,1.549-2.527,3.731-2.523,6.095v50.377c0,2.367,0.973,4.55,2.523,6.095c1.546,1.552,3.729,2.528,6.097,2.524h13.995v14.541
		c-0.004,0.818,0.17,1.647,0.501,2.384c0.498,1.115,1.317,1.991,2.24,2.565c0.932,0.577,1.989,0.883,3.104,0.887
		c0.813,0,1.661-0.174,2.459-0.549c0.803-0.372,1.536-0.952,2.092-1.655l14.47-18.173h49.415c2.366,0,4.546-0.972,6.095-2.524
		c1.552-1.545,2.527-3.728,2.524-6.095V38.805C316.149,36.438,315.174,34.255,313.622,32.706z M251.316,92.316l-9.339,11.73v-6.361
		c0.003-2.364-0.973-4.546-2.524-6.092c-1.545-1.556-3.729-2.527-6.096-2.524h-13.994V38.917h88.051V89.07h-49.354
		C255.431,89.07,252.95,90.267,251.316,92.316z"/>
	<path fill="#365FE0" d="M257.292,83.349L239.931,65.99l7.839-7.842l9.522,9.523l21.715-21.717l7.839,7.842L257.292,83.349z"/>
	<path fill="#365FE0" d="M237.38,236.888c-13.467-13.657-32.064-21.96-52.561-21.96h-70.676c-20.135,0-38.404,8.012-51.792,21.019
		c-9.299,9.009-16.274,20.479-19.845,33.312c-0.28,0.989-0.375,1.252-0.525,1.859c24.519,62.261,85.197,106.327,156.166,106.327
		c21.547,0,42.147-4.065,61.078-11.467v-74.842c0-21.438-8.34-40.494-21.786-54.193L237.38,236.888z"/>
	<path fill="#FFFFFF" d="M237.438,236.946l-0.058-0.059c-13.467-13.657-32.064-21.96-52.561-21.96h-70.676
		c-20.135,0-38.404,8.012-51.792,21.019c-9.299,9.009-16.274,20.479-19.845,33.312c-0.28,0.989-0.375,1.252-0.525,1.859
		c1.017,2.582,2.098,5.138,3.237,7.658c3.913-9.626,9.8-18.263,17.134-25.367c13.388-13.004,31.658-21.016,51.792-21.016h70.676
		c20.497,0,39.094,8.299,52.561,21.956l0.058,0.058c13.446,13.699,21.786,32.757,21.786,54.194v-17.465
		C259.224,269.698,250.884,250.642,237.438,236.946z"/>
	<path fill="#FFCC34" d="M203.665,137.734c0,29.917-24.256,54.173-54.174,54.173c-29.921,0-54.176-24.252-54.176-54.173
		c0-29.922,24.252-54.177,54.176-54.177C179.409,83.557,203.665,107.813,203.665,137.734z"/>
	<path fill="#FFFFFF" d="M149.491,102.768c26.64,0,48.771,19.234,53.307,44.572c0.56-3.121,0.867-6.327,0.867-9.605
		c0-29.922-24.256-54.177-54.174-54.177c-29.921,0-54.176,24.255-54.176,54.177c0,3.278,0.307,6.484,0.866,9.605
		C100.714,122.002,122.848,102.768,149.491,102.768z"/>
	<path fill="#FFCC34" d="M85.744,334.228c29.748,26.862,69.165,43.217,112.402,43.217c5.086,0,10.117-0.229,15.09-0.671v-95.14
		H85.747v52.594H85.744z"/>
	<path fill="#FFFFFF" d="M85.744,281.634h127.489v17.464H85.744V281.634z"/>
	<path fill="#FFCC34" d="M121.944,214.928h-7.801c-4.625,0-9.155,0.426-13.545,1.235v65.471h21.35v-66.706H121.944z"/>
	<path fill="#FFFFFF" d="M114.144,214.928c-4.629,0-9.155,0.426-13.549,1.235v17.464c4.394-0.809,8.92-1.234,13.549-1.234h7.801
		v-17.465H114.144z"/>
	<path fill="#FFCC34" d="M198.381,216.166c-4.397-0.813-8.93-1.238-13.562-1.238h-7.788v66.706h21.35V216.166z"/>
	<path fill="#FFFFFF" d="M184.819,214.928h-7.788v17.465h7.788c4.632,0,9.165,0.426,13.562,1.237v-17.464
		C193.984,215.354,189.451,214.928,184.819,214.928z"/>
	<path fill="#122436" d="M240.551,233.886l-0.003-0.007l-0.058-0.058h-0.003c-10.199-10.349-23.216-17.778-37.74-21.179v-0.109
		l-3.571-0.661c-0.416-0.075-0.843-0.129-1.266-0.201c-0.563-0.096-1.129-0.194-1.695-0.276c-0.706-0.103-1.416-0.188-2.128-0.27
		c-0.539-0.064-1.078-0.137-1.624-0.188c-0.801-0.075-1.606-0.13-2.411-0.185c-0.464-0.03-0.925-0.071-1.388-0.096
		c-1.276-0.062-2.555-0.096-3.844-0.096h-70.676c-1.275,0-2.548,0.034-3.811,0.096c-0.45,0.021-0.893,0.062-1.343,0.093
		c-0.809,0.051-1.617,0.102-2.419,0.177c-0.528,0.052-1.054,0.123-1.576,0.185c-0.716,0.082-1.433,0.164-2.142,0.267
		c-0.549,0.078-1.088,0.174-1.63,0.263c-0.471,0.078-0.948,0.139-1.416,0.228l-3.575,0.658v0.109
		c-14.152,3.299-26.855,10.396-36.92,20.176c-9.841,9.541-17.223,21.674-21.009,35.273l0.003-0.014
		c-0.133,0.468-0.215,0.744-0.3,1.03c-0.085,0.283-0.17,0.594-0.263,0.965l-0.334,1.354l0.508,1.296
		c9.588,24.345,24.573,45.96,43.463,63.411v0.037l1.439,1.3c0.32,0.289,0.655,0.559,0.979,0.846c1.18,1.05,2.381,2.084,3.592,3.104
		c0.625,0.524,1.245,1.057,1.876,1.571c1.494,1.226,3.015,2.416,4.55,3.593c0.351,0.266,0.696,0.545,1.047,0.814
		c1.74,1.307,3.503,2.582,5.294,3.824c0.154,0.105,0.311,0.201,0.46,0.307c0.566,0.393,1.146,0.761,1.719,1.146
		c1.413,0.948,2.838,1.887,4.284,2.797c0.713,0.447,1.436,0.887,2.156,1.323c1.361,0.825,2.729,1.635,4.114,2.426
		c0.73,0.42,1.463,0.839,2.2,1.244c1.498,0.825,3.012,1.624,4.54,2.408c0.617,0.317,1.224,0.646,1.845,0.955
		c2.152,1.072,4.322,2.108,6.522,3.091c0.211,0.092,0.43,0.181,0.645,0.272c1.982,0.877,3.987,1.717,6.014,2.518
		c0.723,0.287,1.453,0.557,2.18,0.836c1.548,0.59,3.101,1.163,4.67,1.709c0.825,0.286,1.65,0.566,2.479,0.839
		c1.542,0.512,3.094,1,4.656,1.467c0.801,0.238,1.603,0.488,2.411,0.717c1.832,0.518,3.677,1.002,5.533,1.463
		c0.525,0.129,1.041,0.276,1.569,0.402c2.377,0.563,4.776,1.077,7.19,1.545c0.628,0.12,1.259,0.219,1.886,0.331
		c1.808,0.331,3.623,0.638,5.448,0.911c0.87,0.129,1.739,0.238,2.613,0.354c1.634,0.219,3.271,0.413,4.918,0.583
		c0.904,0.096,1.811,0.185,2.722,0.263c1.722,0.15,3.452,0.27,5.188,0.369c0.802,0.047,1.6,0.105,2.405,0.14
		c2.527,0.112,5.065,0.181,7.62,0.181c2.684,0,5.355-0.064,8.009-0.188c0.942-0.045,1.87-0.13,2.804-0.188
		c1.555-0.096,3.117-0.175,4.663-0.314l3.98-0.352v-0.091c15.07-1.699,29.569-5.301,43.211-10.633l2.776-1.088v-77.819
		C263.593,268.556,254.789,248.376,240.551,233.886z M184.819,219.295c1.153,0,2.299,0.034,3.438,0.088
		c0.372,0.018,0.74,0.052,1.112,0.079c0.761,0.048,1.521,0.098,2.275,0.17c0.453,0.044,0.903,0.105,1.354,0.157
		c0.341,0.04,0.678,0.085,1.016,0.129v57.35h-12.617v-57.973H184.819z M208.87,372.687c-0.16,0.014-0.32,0.027-0.48,0.034
		c-0.878,0.055-1.75,0.137-2.634,0.178c-2.524,0.115-5.058,0.18-7.61,0.18c-2.429,0-4.837-0.068-7.238-0.173
		c-0.764-0.031-1.521-0.089-2.286-0.13c-1.647-0.096-3.295-0.208-4.929-0.352c-0.86-0.075-1.72-0.16-2.575-0.249
		c-1.569-0.164-3.131-0.349-4.687-0.557c-0.822-0.108-1.645-0.214-2.463-0.333c-1.747-0.26-3.479-0.554-5.205-0.867
		c-0.586-0.105-1.177-0.197-1.757-0.31c-2.295-0.444-4.578-0.933-6.835-1.471c-0.495-0.116-0.982-0.256-1.477-0.375
		c-1.763-0.438-3.52-0.897-5.26-1.393c-0.771-0.218-1.531-0.453-2.299-0.682c-1.474-0.443-2.94-0.9-4.393-1.385
		c-0.798-0.263-1.593-0.532-2.385-0.809c-1.47-0.512-2.926-1.047-4.379-1.603c-0.706-0.27-1.419-0.529-2.122-0.81
		c-1.873-0.743-3.728-1.521-5.563-2.332c-0.249-0.109-0.505-0.209-0.754-0.321c-2.074-0.924-4.124-1.903-6.15-2.913
		c-0.617-0.307-1.228-0.634-1.842-0.951c-1.416-0.729-2.824-1.471-4.216-2.241c-0.716-0.393-1.422-0.798-2.132-1.204
		c-1.306-0.744-2.599-1.508-3.882-2.288c-0.682-0.417-1.364-0.83-2.04-1.256c-1.402-0.88-2.784-1.787-4.155-2.708
		c-0.505-0.342-1.02-0.669-1.524-1.018c-1.866-1.285-3.715-2.605-5.526-3.97c-0.249-0.188-0.491-0.385-0.74-0.576
		c-1.545-1.177-3.07-2.378-4.574-3.605c-0.566-0.464-1.122-0.942-1.682-1.412c-1-0.84-1.985-1.695-2.964-2.559v-46.229h118.761
		v86.688H208.87z M172.666,219.295v57.973h-46.355v-57.973H172.666z M117.578,219.295v57.973h-12.617v-57.356
		c0.358-0.048,0.716-0.092,1.078-0.133c0.45-0.055,0.897-0.112,1.351-0.157c0.74-0.07,1.487-0.118,2.234-0.166
		c0.372-0.024,0.743-0.059,1.119-0.075c1.129-0.055,2.261-0.085,3.401-0.089h3.435V219.295z M46.595,270.841
		c0.034-0.126,0.068-0.238,0.113-0.399l0.007-0.021v0.007c3.356-12.063,9.923-22.863,18.675-31.347l0.003-0.004
		c8.497-8.248,19.057-14.339,30.839-17.453v55.644H81.377v46.692C66.557,308.815,54.659,290.805,46.595,270.841z M202.748,277.268
		v-55.637c12.099,3.206,22.911,9.591,31.524,18.32l0.055,0.059l-0.007-0.004c12.661,12.9,20.531,30.835,20.538,51.134v71.784
		c-11.836,4.384-24.311,7.426-37.259,8.961v-94.617H202.748z"/>
	<path fill="#122436" d="M149.491,196.273c32.33-0.003,58.536-26.209,58.54-58.539c-0.004-32.337-26.21-58.54-58.54-58.543
		c-32.336,0.003-58.539,26.207-58.542,58.543C90.952,170.064,117.155,196.27,149.491,196.273z M114.27,102.512
		c9.026-9.019,21.448-14.584,35.219-14.588c13.767,0,26.193,5.566,35.222,14.588c9.019,9.029,14.585,21.452,14.585,35.223
		c0,13.767-5.567,26.193-14.585,35.218c-9.029,9.022-21.452,14.585-35.222,14.589c-13.771-0.003-26.193-5.567-35.219-14.589
		c-9.022-9.029-14.588-21.452-14.588-35.222C99.681,123.964,105.248,111.541,114.27,102.512z"/>
	<path fill="#FFCC34" d="M346.705,221.245h-33.183c-19.289,0-34.929-15.639-34.929-34.928V113.81h103.04v72.508
		C381.634,205.609,365.998,221.245,346.705,221.245z"/>
	<path fill="#365FE0" d="M313.522,221.245h33.183c19.293,0,34.929-15.639,34.929-34.928h-103.04
		C278.594,205.609,294.233,221.245,313.522,221.245z"/>
	<path fill="#FFFFFF" d="M353.898,208.146h8.49v-8.731h-8.49V208.146z M335.209,208.146h8.498v-8.731h-8.498V208.146z
		 M316.524,208.146h8.496v-8.731h-8.496V208.146z M297.839,208.146h8.493v-8.731h-8.493V208.146z"/>
	<path fill="#FFFFFF" d="M278.594,113.81h103.04v17.464h-103.04V113.81z"/>
	<path fill="#365FE0" d="M319.345,221.245h21.541v124.144h-21.541V221.245z"/>
	<path fill="#122436" d="M274.229,109.443v76.874c0.004,21.703,17.59,39.29,39.294,39.293h1.457v124.144h30.272V225.61h1.453
		c21.704-0.003,39.291-17.59,39.295-39.293v-76.874H274.229z M300.718,118.175v42.822h8.732v-42.822h16.298v42.822h8.731v-42.822
		h16.301v42.822h8.733v-42.822h17.754v63.779H282.96v-63.779H300.718z M336.521,341.022h-12.809V225.61h12.809V341.022z
		 M368.317,207.929c-5.543,5.539-13.157,8.951-21.608,8.954h-33.187c-8.452-0.003-16.065-3.415-21.608-8.954
		c-4.563-4.567-7.647-10.553-8.606-17.242h93.615C375.964,197.375,372.878,203.361,368.317,207.929z"/>
</g>
</svg>
