<?xml version="1.0" encoding="utf-8"?>
<!-- Generator: Adobe Illustrator 16.0.0, SVG Export Plug-In . SVG Version: 6.00 Build 0)  -->
<!DOCTYPE svg PUBLIC "-//W3C//DTD SVG 1.1//EN" "http://www.w3.org/Graphics/SVG/1.1/DTD/svg11.dtd">
<svg version="1.1" id="Capa_1" xmlns="http://www.w3.org/2000/svg" xmlns:xlink="http://www.w3.org/1999/xlink" x="0px" y="0px"
	 width="216.833px" height="25px" viewBox="-257.916 174 216.833 25" enable-background="new -257.916 174 216.833 25"
	 xml:space="preserve">
<g>
	<path fill="#001E7E" d="M-241.304,183.189l-2.771,7.266h-0.435l-2.576-6.648l-2.59,6.648h-0.405l-2.787-7.266h0.447l2.534,6.73
		l2.59-6.73h0.421l2.575,6.73l2.548-6.73H-241.304z"/>
	<path fill="#001E7E" d="M-226.646,183.189l-2.771,7.266h-0.436l-2.575-6.648l-2.591,6.648h-0.404l-2.786-7.266h0.447l2.533,6.73
		l2.591-6.73h0.421l2.574,6.73l2.549-6.73H-226.646z"/>
	<path fill="#001E7E" d="M-211.988,183.189l-2.771,7.266h-0.436l-2.576-6.648l-2.59,6.648h-0.405l-2.785-7.266h0.446l2.534,6.73
		l2.59-6.73h0.421l2.575,6.73l2.548-6.73H-211.988z"/>
	<path fill="#001E7E" d="M-208.523,190.363c-0.089-0.088-0.133-0.197-0.133-0.328s0.047-0.24,0.14-0.33
		c0.095-0.088,0.201-0.133,0.322-0.133c0.131,0,0.24,0.045,0.329,0.133c0.089,0.09,0.133,0.199,0.133,0.33s-0.044,0.24-0.133,0.328
		c-0.089,0.09-0.198,0.133-0.329,0.133C-208.325,190.496-208.435,190.453-208.523,190.363z"/>
	<path fill="#001E7E" d="M-196.896,190.455h-1.428v-0.994c-0.616,0.736-1.442,1.105-2.479,1.105c-0.774,0-1.416-0.219-1.926-0.658
		c-0.509-0.439-0.763-1.023-0.763-1.756c0-0.734,0.271-1.281,0.813-1.646c0.541-0.363,1.273-0.545,2.197-0.545h2.03v-0.281
		c0-0.988-0.551-1.482-1.652-1.482c-0.689,0-1.408,0.252-2.155,0.756l-0.699-0.979c0.904-0.721,1.932-1.078,3.079-1.078
		c0.878,0,1.594,0.223,2.148,0.666c0.556,0.441,0.833,1.141,0.833,2.092L-196.896,190.455L-196.896,190.455z M-198.464,187.684
		v-0.629h-1.765c-1.129,0-1.693,0.354-1.693,1.063c0,0.363,0.141,0.641,0.42,0.832c0.28,0.191,0.67,0.287,1.17,0.287
		c0.499,0,0.936-0.141,1.309-0.42S-198.464,188.158-198.464,187.684z"/>
	<path fill="#001E7E" d="M-186.705,187.039v-4.033h1.568v7.449h-1.568v-1.357c-0.252,0.459-0.6,0.816-1.043,1.076
		c-0.443,0.264-0.922,0.395-1.436,0.395c-0.84,0-1.52-0.256-2.036-0.771c-0.52-0.514-0.777-1.256-0.777-2.227v-4.564h1.568v4.088
		c0,1.373,0.568,2.061,1.708,2.061c0.541,0,1.013-0.18,1.413-0.539C-186.906,188.256-186.705,187.729-186.705,187.039z"/>
	<path fill="#001E7E" d="M-178.879,183.006l1.596,2.451l1.652-2.451h1.86l-2.604,3.641l2.717,3.811h-1.932l-1.779-2.479
		l-1.735,2.479h-1.834l2.646-3.795l-2.506-3.654L-178.879,183.006L-178.879,183.006z"/>
	<path fill="#001E7E" d="M-167.888,190.455h-1.567v-10.389h1.567V190.455z"/>
	<path fill="#001E7E" d="M-162.722,181.523c-0.196-0.197-0.295-0.432-0.295-0.701c0-0.271,0.099-0.504,0.295-0.699
		c0.194-0.197,0.429-0.295,0.698-0.295s0.504,0.098,0.699,0.295c0.195,0.195,0.295,0.43,0.295,0.699s-0.1,0.504-0.295,0.701
		c-0.195,0.193-0.43,0.293-0.699,0.293S-162.527,181.719-162.722,181.523z M-161.252,190.455h-1.568v-7.449h1.568V190.455z"/>
	<path fill="#001E7E" d="M-154.618,186.422v4.033h-1.567v-7.449h1.567v1.359c0.225-0.457,0.563-0.816,1.016-1.078
		c0.453-0.262,0.939-0.393,1.463-0.393c1.178,0,1.975,0.484,2.395,1.457c0.738-0.973,1.656-1.457,2.76-1.457
		c0.84,0,1.52,0.258,2.037,0.77c0.518,0.514,0.775,1.256,0.775,2.227v4.563h-1.566v-4.086c0-1.373-0.569-2.059-1.708-2.059
		c-0.532,0-0.996,0.17-1.396,0.512c-0.396,0.34-0.604,0.838-0.623,1.49v4.145h-1.565v-4.088c0-0.709-0.126-1.229-0.378-1.563
		c-0.254-0.33-0.649-0.496-1.19-0.496s-1.013,0.18-1.414,0.539S-154.618,185.732-154.618,186.422z"/>
	<path fill="#001E7E" d="M-135.2,182.896c1,0,1.854,0.346,2.563,1.035c0.711,0.689,1.064,1.609,1.064,2.76
		c0,1.145-0.354,2.08-1.057,2.799c-0.705,0.719-1.527,1.078-2.466,1.078s-1.78-0.41-2.526-1.232v3.836h-1.567v-10.166h1.567v1.303
		C-137.004,183.365-136.198,182.896-135.2,182.896z M-137.649,186.744c0,0.709,0.215,1.291,0.645,1.744
		c0.43,0.451,0.951,0.678,1.567,0.678s1.153-0.223,1.61-0.672c0.457-0.447,0.686-1.029,0.686-1.742c0-0.715-0.225-1.307-0.672-1.777
		c-0.447-0.473-0.984-0.707-1.609-0.707s-1.152,0.234-1.582,0.707C-137.435,185.445-137.649,186.035-137.649,186.744z"/>
	<path fill="#001E7E" d="M-126.881,181.523c-0.197-0.197-0.295-0.432-0.295-0.701c0-0.271,0.098-0.504,0.295-0.699
		c0.193-0.197,0.428-0.295,0.697-0.295s0.505,0.098,0.7,0.295c0.194,0.195,0.294,0.43,0.294,0.699s-0.1,0.504-0.294,0.701
		c-0.195,0.193-0.431,0.293-0.7,0.293S-126.687,181.719-126.881,181.523z M-125.413,190.455h-1.568v-7.449h1.568V190.455z"/>
	<path fill="#001E7E" d="M-113.415,187.416h-5.84c0.039,0.541,0.284,0.98,0.741,1.313c0.457,0.33,0.979,0.496,1.568,0.496
		c0.934,0,1.644-0.295,2.128-0.885l0.896,0.98c-0.804,0.832-1.849,1.246-3.137,1.246c-1.045,0-1.936-0.35-2.667-1.043
		c-0.731-0.695-1.099-1.629-1.099-2.801s0.373-2.104,1.119-2.793s1.627-1.035,2.64-1.035c1.015,0,1.874,0.307,2.583,0.918
		c0.709,0.609,1.063,1.453,1.063,2.523v1.08H-113.415z M-119.254,186.188h4.271c0-0.627-0.195-1.107-0.588-1.443
		c-0.394-0.336-0.875-0.504-1.449-0.504s-1.09,0.176-1.547,0.525C-119.025,185.113-119.254,185.588-119.254,186.188z"/>
	<path fill="#001E7E" d="M-109.129,184.379v-1.344h5.821v1.414l-4.187,4.645h4.412v1.359h-6.328v-1.527l4.074-4.549
		L-109.129,184.379L-109.129,184.379z"/>
	<path fill="#001E7E" d="M-92.485,190.455h-1.428v-0.994c-0.616,0.736-1.442,1.105-2.479,1.105c-0.774,0-1.416-0.219-1.925-0.658
		c-0.51-0.439-0.764-1.023-0.764-1.756c0-0.734,0.271-1.281,0.813-1.646c0.541-0.363,1.273-0.545,2.198-0.545h2.03v-0.281
		c0-0.988-0.551-1.482-1.652-1.482c-0.689,0-1.409,0.252-2.156,0.756l-0.699-0.979c0.904-0.721,1.934-1.078,3.08-1.078
		c0.877,0,1.594,0.223,2.148,0.666c0.554,0.441,0.833,1.141,0.833,2.092L-92.485,190.455L-92.485,190.455z M-94.054,187.684v-0.629
		h-1.764c-1.129,0-1.693,0.354-1.693,1.063c0,0.363,0.142,0.641,0.421,0.832c0.278,0.191,0.67,0.287,1.17,0.287
		c0.498,0,0.936-0.141,1.309-0.42S-94.054,188.158-94.054,187.684z"/>
	<path fill="#001E7E" d="M-87.411,190.258c-0.2-0.203-0.301-0.449-0.301-0.74c0-0.289,0.101-0.533,0.301-0.734
		c0.201-0.201,0.445-0.301,0.733-0.301c0.289,0,0.537,0.1,0.742,0.301s0.31,0.445,0.31,0.734c0,0.291-0.104,0.537-0.31,0.74
		c-0.205,0.205-0.453,0.311-0.742,0.311C-86.965,190.568-87.209,190.463-87.411,190.258z"/>
	<path fill="#001E7E" d="M-77.478,190.566c-1.035,0-1.929-0.354-2.675-1.059c-0.746-0.703-1.12-1.627-1.12-2.766
		s0.392-2.063,1.17-2.779c0.778-0.713,1.729-1.068,2.851-1.068c1.119,0,2.065,0.387,2.842,1.162l-0.924,1.135
		c-0.646-0.563-1.293-0.84-1.947-0.84c-0.652,0-1.219,0.217-1.7,0.648c-0.479,0.436-0.722,0.994-0.722,1.682
		c0,0.686,0.238,1.268,0.715,1.74c0.477,0.479,1.063,0.717,1.757,0.717s1.353-0.316,1.968-0.951l0.924,1.008
		C-75.247,190.109-76.293,190.566-77.478,190.566z"/>
	<path fill="#001E7E" d="M-63.84,189.453c-0.748,0.742-1.683,1.113-2.802,1.113c-1.118,0-2.054-0.371-2.801-1.113
		c-0.746-0.742-1.12-1.646-1.12-2.723c0-1.072,0.374-1.98,1.12-2.725c0.747-0.74,1.683-1.111,2.801-1.111
		c1.119,0,2.054,0.371,2.802,1.111c0.745,0.742,1.118,1.65,1.118,2.725C-62.722,187.807-63.095,188.711-63.84,189.453z
		 M-68.329,188.488c0.442,0.451,1.006,0.678,1.688,0.678s1.243-0.227,1.688-0.678c0.443-0.453,0.664-1.039,0.664-1.758
		c0-0.721-0.221-1.307-0.664-1.758c-0.442-0.451-1.006-0.68-1.688-0.68s-1.244,0.229-1.688,0.68s-0.666,1.037-0.666,1.758
		C-68.995,187.449-68.772,188.035-68.329,188.488z"/>
	<path fill="#001E7E" d="M-56.577,186.422v4.033h-1.567v-7.449h1.567v1.359c0.225-0.457,0.563-0.816,1.016-1.078
		c0.453-0.262,0.939-0.393,1.463-0.393c1.178,0,1.975,0.484,2.395,1.457c0.738-0.973,1.656-1.457,2.76-1.457
		c0.84,0,1.52,0.258,2.037,0.77c0.518,0.514,0.775,1.256,0.775,2.227v4.563h-1.566v-4.086c0-1.373-0.569-2.059-1.708-2.059
		c-0.532,0-0.996,0.17-1.396,0.512c-0.396,0.34-0.604,0.838-0.623,1.49v4.145h-1.566v-4.088c0-0.709-0.125-1.229-0.379-1.563
		c-0.252-0.33-0.647-0.496-1.188-0.496s-1.013,0.18-1.414,0.539S-56.577,185.732-56.577,186.422z"/>
</g>
</svg>
