<?xml version="1.0" encoding="utf-8"?>
<!-- Generator: Adobe Illustrator 16.0.0, SVG Export Plug-In . SVG Version: 6.00 Build 0)  -->
<!DOCTYPE svg PUBLIC "-//W3C//DTD SVG 1.1//EN" "http://www.w3.org/Graphics/SVG/1.1/DTD/svg11.dtd">
<svg version="1.1" id="Capa_1" xmlns="http://www.w3.org/2000/svg" xmlns:xlink="http://www.w3.org/1999/xlink" x="0px" y="0px"
	 width="150px" height="150px" viewBox="0 0 150 150" enable-background="new 0 0 150 150" xml:space="preserve">
<g>
	<path fill="#FFFFFF" d="M141.209,57.133l0.04,0.222l0.18,0.754c0.389,0.834,0.954,2.57,1.165,4.97
		c0.063-0.011,0.095-0.233,0.251,0.589c0.434,3.78,0.323,1.874,0.796,4.58c-0.06-0.839-0.288-1.885-0.271-2.301
		c0.369,1.73,0.423,3.489,0.534,5.249c0.085-0.737,0.191-1.343,0.34-0.463c0.22-0.561,0.605,1.183,0.905,1.851
		c-0.006-0.868-0.006-1.594-0.006-2.102c0.106,0.125,0.206,1.039,0.28,2.176c0.023-0.079,0.048-0.183,0.06-0.35
		c-0.012,0.167-0.037,0.271-0.06,0.35c0.042,0.765,0.083,1.576,0.123,2.354c0.012-0.44,0.017-0.869,0.083-0.657l-0.163-3.239
		c0.012-0.113,0.041-0.005,0.068,0.188l-0.105-0.839l-0.029,0.65c-0.04,0.229-0.094-0.211-0.151-0.64
		c-0.054-0.856-0.023-1.079-0.011-1.513c-0.072-0.566-0.095-1.148-0.251-1.714c-0.148-0.629,0.163,4.535-0.148,1.747l0.005-0.856
		c-0.168-1.279-0.485-2.976-0.726-3.81c0.014-1.303-0.688-3.576-0.485-3.838c-0.988-4.855-3.053-10.979-5.024-15.52
		c-0.565-0.686-0.934-0.52-2.082-2.319c-0.151-0.4-0.403-0.994-0.269-0.817c-0.257-0.428-0.574-0.822-0.854-1.228
		c0.474,0.709,0.977,1.645,1.065,2.073c-1.094-2.057,0.303,1.04,0.111,0.908c-0.486-0.948-0.965-1.896-1.585-2.753l0.157,0.337
		c2.639,5.026,4.732,10.321,6.006,15.828L141.209,57.133z"/>
	<path fill="#FFFFFF" d="M68.206,2.497l0.085,0.235C55.745,4.006,42.222,8.586,30.77,17.485
		c-11.592,8.638-20.874,21.54-25.581,36.42c-4.47,14.908-4.436,31.746,1.345,46.757c2.802,7.506,6.843,14.555,11.873,20.758
		c5.118,6.146,11.218,11.378,17.893,15.508l-1.808-0.035c7.254,4.438,15.788,7.883,24.529,9.477
		c8.734,1.645,17.553,1.508,25.238,0.189c-1.993,0.33-4.018,0.33-6.029,0.371c2.756-0.285,7.623-1.028,12.727-2.354
		c2.539-0.726,5.2-1.359,7.616-2.388c2.468-0.869,4.784-1.8,6.709-2.787l-0.668,0.588c-10.941,4.638,0.842-0.097-3.407,2.262
		l-1.919,0.822l1.193-0.313l1.917-0.822c-0.174,0.199,0.066,0.302-1.776,1.033c0.877-0.338,1.776-0.604,2.625-0.971
		c5.698-2.027,6.021-1.588,5.638-0.611c1.405-0.806-0.343-0.514,5.604-3.885l-0.637,0.663c2.119-1.337,3.996-3.005,5.909-4.609
		c0.935-0.601,1.948-1.114,2.808-1.821c1.854-1.937,3.104-3.12,5.069-5.021l0.211-0.942c4.353-4.261,8.254-10.008,11.587-16.021
		c3.112-6.163,5.463-12.663,6.954-18.662c0.206-2.696,1.842-9.167,1.585-16.085l-0.654,2.931c-0.306,1.834-0.357,4.284-0.966,7.06
		c-0.246,1.44-0.491,2.902-0.748,4.417c-0.397,1.529-0.803,3.111-1.228,4.717c-1.736,6.438-4.609,13.166-7.879,18.107l0.006-0.538
		c1.282-2.118,1.819-3.843,3.252-6.546l-0.083-0.913c-0.943,0.982-1.925,2.655-2.982,4.644c-1.248,1.891-2.416,4.192-3.755,6.374
		c-2.696,4.359-5.815,8.362-7.357,9.831c-3.405,2.953-2.544,1.702-1.154,0.217c1.289-1.594,2.919-3.644,1.528-2.039
		c3.059-3.833,1.437-2.491-1.271,0.068c-2.79,2.496-7.065,5.832-8.919,6.723c-4.749,2.971-12.475,7.546-21.459,10.161
		c-8.919,2.742-18.841,3.514-26.175,2.76c-6.1-0.457-12.792-1.537-19.22-4.187c-6.415-2.6-12.638-6.289-18.107-10.824
		c-5.381-4.638-9.933-10.064-13.541-15.657c-3.649-5.603-5.96-11.515-7.834-16.86c-1.379-5.25-3.41-12.139-3.624-18.85
		c-0.24-3.33-0.037-6.568,0.22-9.38c0.511-2.775,0.919-5.18,1.702-6.803c1.528-6.654,4.201-12.988,7.539-18.889l0.012,0.496
		c4.861-8.597,11.804-16.604,20.081-22.693c8.231-6.19,17.858-10.104,27.011-11.828c1.848-0.332,3.51-0.629,5.075-0.915
		c1.388-0.132,2.662-0.269,3.667-0.359c2.096-0.194,3.665-0.326,5.501,0.228c8.071,0.418,16.816,2.034,24.976,5.323
		c8.171,3.229,15.679,8.095,21.365,13.682c0.123-0.218,1.959,1.097-0.146-0.983c-3.053-2.787-6.54-5.472-9.23-7.637
		c-2.831-1.947-4.784-3.496-4.75-3.867l2.639,1.674c-1.505-1.097-2.967-2.296-4.61-3.204l-3.33-1.365
		c-0.76-0.554-1.08-0.852-1.097-0.966c-5.686-2.388-10.693-4.734-17.122-5.957c-2.293-0.343-4.755-0.491-7.551-0.577
		C74.96,2.304,71.85,2.48,68.206,2.497"/>
	<path fill="#FFFFFF" d="M100.189,69.412c-1.256,0.395-2.451,0.611-3.835,0.611c-5.921,0-10.973-3.758-12.857-9.019
		c-0.34-0.938-0.1-1.314,0.151-1.491c0.234-0.166,0.908-0.252,1.236,0.76c1.52,4.719,6.075,8.043,11.315,8.043
		c1.351,0,2.656-0.223,3.867-0.64c-0.012-0.074-0.029-0.155-0.046-0.224c-1.796-8.356-9.19-14.074-18.255-14.074
		c-3.359,0-6.586,0.828-9.336,2.29c1.365-0.211,2.756-0.324,4.172-0.324c6.492,0,12.404,2.335,17.159,6.036
		c0.64,0.503,0.3,1.046,0.166,1.184c-0.14,0.142-0.58,0.422-1.154-0.007c-4.578-3.335-10.193-5.362-16.293-5.362
		c-2.733,0-5.369,0.398-7.862,1.142c0,0,0.474,1.577,0.428,2.507c-0.095,1.897-0.591,2.445-1.037,2.372
		c-0.257-0.047-0.414-0.275-0.374-1.297c0.071-1.931-1.322-3.501-2.947-3.501c-1.634,0-2.954,1.57-2.954,3.501
		c0,1.936,1.319,3.507,2.954,3.507c0.168,0,0.579-0.012,0.742-0.023c0.363-0.022,0.531,0.184,0.574,0.486
		c0.046,0.297-0.065,0.76-1.131,0.846c-0.771,0.068-1.402-0.16-1.402-0.16c-0.491,1.65-0.754,3.403-0.754,5.242
		c0,10.745,8.596,19.038,19.05,19.038c10.447,0,18.429-9.756,18.489-19.528C100.255,70.846,100.189,69.412,100.189,69.412
		 M77.682,85.515c-3.913-0.948-6.948-4.222-6.948-8.396c0-0.234,0.025-0.463,0.031-0.69c0.029-1.503,1.625-1.537,1.625-0.206
		c0,3.746,2.607,6.837,6.077,7.751C80.164,84.412,79.595,85.977,77.682,85.515 M79.858,71.526c-0.186,0.012-0.46-0.018-0.648-0.018
		c-2.868,0-5.189-2.331-5.189-5.198c0-0.405,0.031-1.017,0.123-1.388c0.24-0.999,1.662-1.005,1.445,0.405
		c-0.337,2.166,1.948,4.781,4.392,4.707C80.995,70.007,81.286,71.411,79.858,71.526 M95.605,81.207
		c-0.645,0.892-1.75,1.417-2.938,1.417c-2.071,0-3.747-1.679-3.747-3.741c0-1.017,1.568-1.388,1.568-0.131
		c0,1.204,0.977,2.182,2.179,2.182c0.714,0,1.322-0.366,1.75-0.874C95.155,79.187,96.299,80.248,95.605,81.207"/>
	<path fill="#FFFFFF" d="M61.083,69.361c-0.177,1.051-0.271,2.119-0.271,3.222c0,7.157,4.001,13.263,9.728,16.701
		c4.772,2.862,9.745,3.416,19.149,3.6c9.399,0.188,8.6,1.29,8.6,1.781s-6.512,0.429-8.231,0.429c-1.725,0,8.293,0.132,8.293,1.913
		c0,1.776-9.584,1.474-9.584,1.474s8.293,0.549,8.293,1.776s-8.236,0.862-8.236,0.862s5.038,0.856,5.038,1.662
		c0,0.8-13.94,0.737-21.497,0c-7.557-0.736-18.558-6.757-19.478-16.9C51.781,73.656,61.083,69.361,61.083,69.361"/>
	<path fill="#FFFFFF" d="M34.214,104.495c0,0,12.532,1.657,19.903,1.297c7.368-0.377,13.826-2.211,13.826-2.211
		s3.867,0.88,8.348,1.343c6.895,0.708,12.749,0.313,15.422,0.131c2.673-0.194,3.042-1.662,2.95-2.49
		c-0.094-0.834,3.199,0.212,3.779-1.845c0.251-0.892-0.463-1.199-0.463-1.199s2.093-0.435,2.093-2.085
		c0-1.656-0.802-1.656-0.802-1.656s1.568-1.263-0.18-3.017c-1.754-1.753-7.746-1.348-7.746-1.348s9.576-8.55,13.394-21.813
		c4.547-15.782,3.319-32.005,3.319-32.005l0.052-0.057c10.441,9.19,17.027,22.659,17.027,37.647
		c0,27.726-22.502,50.197-50.256,50.197c-16.773,0-31.629-8.204-40.76-20.821L34.214,104.495z"/>
	<path fill="#FFFFFF" d="M104.862,61.742c-1.228,6.996-3.316,11.304-3.316,11.304c0-1.309,0.06-3.313-0.057-4.604
		c-0.557-6.031-3.539-10.572-8.68-13.681c-3.895-2.352-8.159-3.455-12.706-3.136c-4.661,0.332-8.719,2.172-12.112,5.404
		c-0.374,0.37-0.714,0.564-1.24,0.279c-1.556-0.828-3.024-0.519-4.324,0.561c-1.736,1.428-2.77,3.227-2.239,5.541
		c0.18,0.787,0.702,1.524,1.194,2.187c0.497,0.68,0.32,1.869-0.474,2.188c-5.375,2.182-8.154,6.477-9.442,11.869
		c-0.96,4.026-0.251,7.923,1.457,11.664c1.462,3.21,3.381,6.094,6.306,8.145c1.334,0.938,3.365,2.205,5.458,3.073
		c-8.237,2.21-21.754,1.342-26.192,0.988l-5.843-0.435c-5.424-8.031-8.594-17.707-8.594-28.131
		c0-27.794,22.531-50.334,50.325-50.334c12.161,0,23.311,4.324,32.018,11.493c0,0,0.737,4.98-0.005,13.856
		C105.653,58.863,104.862,61.742,104.862,61.742"/>
</g>
</svg>
