<?xml version="1.0" encoding="utf-8"?>
<!-- Generator: Adobe Illustrator 16.0.0, SVG Export Plug-In . SVG Version: 6.00 Build 0)  -->
<!DOCTYPE svg PUBLIC "-//W3C//DTD SVG 1.1//EN" "http://www.w3.org/Graphics/SVG/1.1/DTD/svg11.dtd">
<svg version="1.1" id="Capa_1" xmlns="http://www.w3.org/2000/svg" xmlns:xlink="http://www.w3.org/1999/xlink" x="0px" y="0px"
	 width="380px" height="380px" viewBox="0 0 380 380" enable-background="new 0 0 380 380" xml:space="preserve">
<g>
	<g>
		<path fill="#122436" d="M21.493,169.473l-10.189-1.227c-0.418,3.452-0.737,6.936-0.953,10.443l10.245,0.639
			C20.803,176.015,21.102,172.731,21.493,169.473z"/>
		<path fill="#122436" d="M26.074,234.197l-9.914,2.666c0.915,3.391,1.922,6.741,3.024,10.046l9.736-3.246
			C27.882,240.551,26.936,237.392,26.074,234.197z"/>
		<path fill="#122436" d="M20.619,201.08c-0.209-3.274-0.325-6.571-0.35-9.89l-10.266,0.067c0.023,3.519,0.148,7.013,0.373,10.479
			L20.619,201.08z"/>
		<path fill="#122436" d="M21.794,212.886l-10.174,1.372c0.471,3.48,1.035,6.929,1.704,10.346l10.078-1.964
			C22.772,219.423,22.236,216.169,21.794,212.886z"/>
		<path fill="#122436" d="M33.063,254.785l-9.487,3.92c1.341,3.236,2.764,6.42,4.283,9.555l9.244-4.466
			C35.671,260.839,34.328,257.833,33.063,254.785z"/>
		<path fill="#122436" d="M46.438,298.601c2.112,2.789,4.307,5.512,6.573,8.171l7.807-6.666c-2.138-2.508-4.202-5.071-6.194-7.703
			L46.438,298.601z"/>
		<path fill="#122436" d="M42.632,274.279l-8.906,5.105c1.736,3.035,3.562,6.011,5.469,8.934l8.594-5.615
			C45.991,279.949,44.272,277.138,42.632,274.279z"/>
		<path fill="#122436" d="M28.797,136.714c1.039-3.144,2.17-6.249,3.385-9.308l-9.545-3.792c-1.285,3.245-2.484,6.541-3.589,9.879
			L28.797,136.714z"/>
		<path fill="#122436" d="M347.234,125.958c1.244,3.044,2.399,6.132,3.464,9.26l9.718-3.314c-1.129-3.316-2.358-6.592-3.671-9.825
			L347.234,125.958z"/>
		<path fill="#122436" d="M337.76,106.417c1.621,2.863,3.162,5.771,4.618,8.729l9.212-4.532c-1.545-3.14-3.178-6.228-4.899-9.259
			L337.76,106.417z"/>
		<path fill="#122436" d="M359.296,177.746l10.244-0.729c-0.253-3.503-0.601-6.983-1.05-10.431l-10.177,1.32
			C358.733,171.157,359.062,174.44,359.296,177.746z"/>
		<path fill="#122436" d="M354.127,146.574c0.84,3.177,1.586,6.385,2.244,9.629l10.062-2.029c-0.698-3.444-1.489-6.849-2.381-10.218
			L354.127,146.574z"/>
		<path fill="#122436" d="M25.476,148.102l-9.949-2.527c-0.858,3.376-1.621,6.789-2.281,10.239l10.081,1.937
			C23.949,154.503,24.667,151.283,25.476,148.102z"/>
		<path fill="#122436" d="M47.621,97.562c0.489-0.755,0.998-1.492,1.501-2.233c0.557-0.826,1.113-1.657,1.684-2.471
			c0.396-0.565,0.798-1.119,1.198-1.675c2.771-3.862,5.692-7.611,8.767-11.221c2.002-2.345,4.069-4.637,6.192-6.869
			c2.995-3.152,6.12-6.184,9.348-9.099c2.19-1.977,4.428-3.91,6.717-5.771c3.529-2.871,7.183-5.59,10.935-8.177
			c0.633-0.434,1.268-0.867,1.91-1.296c0.762-0.509,1.536-1.011,2.306-1.508c0.648-0.421,1.298-0.838,1.952-1.248
			c3.886-2.43,7.881-4.708,11.971-6.826c0.693-0.36,1.394-0.708,2.092-1.059c0.813-0.403,1.623-0.806,2.441-1.199
			c0.714-0.345,1.435-0.681,2.157-1.013c4.171-1.929,8.426-3.706,12.77-5.298c0.698-0.255,1.404-0.497,2.103-0.746
			c0.906-0.317,1.809-0.636,2.722-0.938c0.722-0.24,1.457-0.47,2.183-0.701c4.443-1.408,8.959-2.655,13.547-3.702
			c0.541-0.125,1.083-0.232,1.624-0.349c1.136-0.246,2.271-0.494,3.413-0.715c0.67-0.132,1.344-0.249,2.014-0.373
			c4.704-0.861,9.472-1.548,14.305-2.013c0.288-0.032,0.58-0.047,0.87-0.072c1.439-0.134,2.879-0.252,4.327-0.349
			c0.613-0.04,1.236-0.065,1.853-0.096c3.14-0.173,6.3-0.283,9.481-0.283c1.789,0,3.574,0.033,5.353,0.089
			c0.526,0.016,1.053,0.048,1.576,0.069c1.225,0.051,2.446,0.099,3.664,0.176c0.669,0.039,1.337,0.096,2.003,0.148
			c4.866,0.356,9.676,0.901,14.409,1.66c0.585,0.092,1.164,0.204,1.745,0.3c1.121,0.192,2.236,0.381,3.35,0.595
			c0.68,0.132,1.36,0.277,2.04,0.417c4.696,0.958,9.323,2.093,13.865,3.433c0.122,0.033,0.233,0.071,0.351,0.107
			c1.511,0.449,3.02,0.916,4.517,1.409c0.598,0.197,1.187,0.405,1.787,0.61c5.481,1.865,10.833,3.998,16.047,6.392
			c0.674,0.308,1.349,0.609,2.012,0.927c0.934,0.44,1.857,0.906,2.783,1.368c0.59,0.292,1.188,0.579,1.774,0.879
			c4.102,2.099,8.101,4.379,11.999,6.797c0.673,0.412,1.337,0.826,1.998,1.247c0.771,0.494,1.536,0.999,2.301,1.5
			c0.639,0.425,1.284,0.851,1.918,1.283c3.643,2.482,7.178,5.11,10.603,7.861c2.228,1.784,4.41,3.625,6.545,5.518
			c3.23,2.873,6.355,5.855,9.357,8.958c2.018,2.086,3.975,4.228,5.885,6.412c2.802,3.212,5.496,6.514,8.056,9.927
			c1.868,2.498,3.666,5.053,5.403,7.655c0.147,0.221,0.303,0.438,0.452,0.661l8.57-5.652c-0.085-0.122-0.169-0.241-0.255-0.366
			l0.008-0.003c-0.625-0.94-1.271-1.867-1.906-2.792c-0.332-0.482-0.66-0.974-0.998-1.452c-0.96-1.364-1.943-2.711-2.938-4.046
			c-2.581-3.451-5.296-6.799-8.108-10.058l0.011-0.009c-0.152-0.176-0.317-0.343-0.472-0.517c-2.07-2.367-4.187-4.687-6.373-6.947
			c-0.084-0.088-0.161-0.176-0.241-0.264l-0.012,0.013c-2.923-3.007-5.956-5.912-9.083-8.711l0.017-0.013
			c-0.329-0.292-0.671-0.578-1.001-0.87c-0.645-0.565-1.29-1.127-1.938-1.685c-0.711-0.604-1.423-1.21-2.145-1.808
			c-0.652-0.541-1.307-1.08-1.967-1.611c-0.325-0.26-0.643-0.534-0.969-0.791l-0.011,0.016c-3.281-2.611-6.656-5.112-10.114-7.492
			l0.006-0.012c-0.201-0.139-0.405-0.273-0.607-0.408c-0.652-0.445-1.316-0.877-1.977-1.32c-0.84-0.553-1.677-1.107-2.525-1.648
			c-0.658-0.425-1.328-0.838-1.999-1.251c-0.572-0.351-1.134-0.72-1.709-1.066l-0.012,0.018c-3.586-2.17-7.247-4.23-10.986-6.153
			v-0.003c-0.053-0.026-0.105-0.051-0.158-0.08c-0.419-0.213-0.837-0.409-1.261-0.621c-1.181-0.595-2.368-1.187-3.57-1.758
			c-0.583-0.277-1.176-0.535-1.769-0.809c-0.905-0.417-1.811-0.847-2.727-1.25l-0.002,0.012c-3.833-1.692-7.734-3.252-11.703-4.681
			l0.007-0.009c-1.098-0.394-2.204-0.758-3.31-1.129c-0.489-0.166-0.976-0.343-1.47-0.506c-1.723-0.566-3.453-1.106-5.197-1.621
			c-4.006-1.18-8.078-2.206-12.197-3.113l0.005-0.016c-0.86-0.188-1.731-0.352-2.599-0.528c-0.688-0.139-1.375-0.288-2.064-0.422
			c-1.217-0.231-2.437-0.441-3.663-0.646c-0.581-0.1-1.163-0.213-1.744-0.305c-0.079-0.011-0.157-0.026-0.237-0.044v0.009
			c-4.116-0.653-8.284-1.156-12.486-1.524v-0.016c-0.869-0.076-1.75-0.127-2.621-0.192c-0.686-0.048-1.37-0.107-2.058-0.148
			c-1.321-0.083-2.644-0.139-3.975-0.192c-0.529-0.021-1.053-0.051-1.585-0.069c-0.076-0.003-0.146-0.012-0.227-0.012v0.003
			c-1.807-0.051-3.623-0.085-5.451-0.085c-2.388,0-4.758,0.061-7.122,0.153v-0.018c-0.991,0.041-1.972,0.104-2.963,0.161
			c-0.639,0.031-1.283,0.06-1.923,0.1c-1.603,0.103-3.203,0.24-4.796,0.389c-0.234,0.021-0.475,0.033-0.706,0.055
			c-0.023,0-0.048,0.004-0.071,0.004v0.003c-4.2,0.409-8.361,0.971-12.472,1.666l-0.003-0.017c-0.906,0.151-1.801,0.333-2.703,0.494
			c-0.682,0.128-1.368,0.243-2.046,0.375c-1.276,0.249-2.539,0.522-3.808,0.799c-0.512,0.111-1.026,0.212-1.535,0.328
			c-0.064,0.015-0.131,0.028-0.195,0.04l0.003,0.008c-4.11,0.943-8.161,2.034-12.159,3.253l-0.004-0.02
			c-0.721,0.221-1.431,0.461-2.146,0.689c-0.722,0.229-1.444,0.454-2.161,0.69c-1.044,0.349-2.072,0.714-3.108,1.078
			c-0.67,0.237-1.339,0.462-2.005,0.706c-0.172,0.064-0.349,0.125-0.525,0.189l0.003,0.012c-3.942,1.457-7.815,3.056-11.621,4.779
			l-0.008-0.022c-0.521,0.237-1.035,0.489-1.553,0.731c-0.706,0.327-1.408,0.652-2.109,0.989c-0.927,0.446-1.847,0.898-2.76,1.356
			c-0.695,0.349-1.389,0.694-2.072,1.05c-0.307,0.155-0.619,0.303-0.925,0.464l0.01,0.021c-3.718,1.948-7.363,4.025-10.924,6.229
			l-0.009-0.017c-0.314,0.188-0.615,0.394-0.924,0.586c-0.677,0.424-1.347,0.854-2.017,1.288c-0.835,0.536-1.665,1.074-2.491,1.626
			c-0.672,0.445-1.331,0.898-1.998,1.356c-0.441,0.304-0.89,0.598-1.329,0.901l0.011,0.016c-3.437,2.41-6.792,4.928-10.048,7.567
			l-0.005-0.008c-0.072,0.057-0.136,0.12-0.208,0.176c-2.462,2.001-4.865,4.075-7.218,6.2c-0.173,0.158-0.357,0.298-0.524,0.454
			l0.007,0.012c-3.1,2.824-6.111,5.747-9.007,8.782l-0.004-0.003c-0.069,0.069-0.124,0.139-0.192,0.209
			c-5.237,5.497-10.123,11.332-14.636,17.461l-0.016-0.012c-0.4,0.545-0.786,1.108-1.184,1.66c-0.488,0.677-0.982,1.355-1.459,2.042
			c-0.565,0.809-1.115,1.627-1.668,2.441c-0.343,0.51-0.699,1.015-1.039,1.529l0.013,0.003c-0.213,0.322-0.43,0.63-0.64,0.948
			L47.621,97.562z"/>
		<path fill="#122436" d="M41.495,107.735l-8.97-4.984c-1.696,3.056-3.31,6.165-4.829,9.327l9.252,4.447
			C38.381,113.545,39.901,110.614,41.495,107.735z"/>
		<path fill="#122436" d="M68.832,308.862l-7.332,7.191c2.451,2.495,4.969,4.914,7.561,7.272l6.901-7.607
			C73.52,313.504,71.141,311.216,68.832,308.862z"/>
		<path fill="#122436" d="M332.807,281.778l8.635,5.56c1.892-2.936,3.699-5.936,5.426-8.985l-8.944-5.045
			C336.295,276.183,334.591,279.009,332.807,281.778z"/>
		<path fill="#122436" d="M326.031,291.534c-1.975,2.642-4.023,5.222-6.152,7.751l7.853,6.611c2.257-2.673,4.43-5.414,6.526-8.218
			L326.031,291.534z"/>
		<path fill="#122436" d="M287.927,328.653l5.927,8.381c2.854-2.021,5.651-4.119,8.372-6.299l-6.401-8.021
			C293.252,324.769,290.618,326.75,287.927,328.653z"/>
		<path fill="#122436" d="M304.836,314.991l6.952,7.56c2.574-2.369,5.077-4.812,7.509-7.321l-7.372-7.142
			C309.631,310.456,307.263,312.757,304.836,314.991z"/>
		<path fill="#122436" d="M354.228,233.053c-0.837,3.203-1.766,6.362-2.781,9.486l9.765,3.174c1.078-3.313,2.064-6.666,2.947-10.065
			L354.228,233.053z"/>
		<path fill="#122436" d="M369.996,189.59l-10.264,0.024v0.389c0,3.32-0.094,6.619-0.284,9.889l10.255,0.59
			c0.194-3.47,0.293-6.963,0.293-10.479V189.59L369.996,189.59z"/>
		<path fill="#122436" d="M356.821,221.475l10.09,1.89c0.642-3.422,1.188-6.875,1.634-10.359l-10.186-1.298
			C357.938,214.994,357.425,218.251,356.821,221.475z"/>
		<path fill="#122436" d="M278.014,335.166c-2.812,1.708-5.677,3.336-8.59,4.882l4.809,9.069c3.09-1.637,6.125-3.363,9.109-5.176
			L278.014,335.166z"/>
		<path fill="#122436" d="M343.392,262.768l9.271,4.401c1.5-3.155,2.913-6.36,4.231-9.614l-9.516-3.854
			C346.138,256.764,344.803,259.791,343.392,262.768z"/>
		<path fill="#122436" d="M163.988,357.757l-1.562,10.145c3.438,0.531,6.907,0.958,10.407,1.294l0.966-10.226
			C170.501,358.664,167.229,358.256,163.988,357.757z"/>
		<path fill="#122436" d="M139.905,362.938c3.35,0.968,6.735,1.84,10.159,2.619l2.271-10.014c-3.228-0.727-6.421-1.55-9.578-2.463
			L139.905,362.938z"/>
		<path fill="#122436" d="M78.668,331.452c2.744,2.163,5.555,4.25,8.425,6.254l5.875-8.421c-2.707-1.889-5.358-3.854-7.945-5.894
			L78.668,331.452z"/>
		<path fill="#122436" d="M97.665,344.548c2.995,1.792,6.053,3.504,9.16,5.126l4.753-9.101c-2.932-1.53-5.813-3.14-8.639-4.837
			L97.665,344.548z"/>
		<path fill="#122436" d="M118.194,355.107c3.199,1.394,6.452,2.703,9.75,3.908l3.542-9.638c-3.108-1.138-6.171-2.369-9.191-3.685
			L118.194,355.107z"/>
		<path fill="#122436" d="M195.543,359.645c-1.838,0.061-3.688,0.089-5.544,0.089c-1.458,0-2.908-0.018-4.352-0.052l-0.261,10.262
			c1.532,0.043,3.073,0.057,4.614,0.057c1.965,0,3.92-0.028,5.872-0.092L195.543,359.645z"/>
		<path fill="#122436" d="M238.382,352.744c-3.148,0.934-6.332,1.775-9.556,2.529l2.337,9.999c3.423-0.798,6.803-1.694,10.145-2.688
			L238.382,352.744z"/>
		<path fill="#122436" d="M258.764,345.233c-2.999,1.323-6.048,2.574-9.135,3.734l3.604,9.61c3.279-1.229,6.51-2.549,9.693-3.967
			L258.764,345.233z"/>
		<path fill="#122436" d="M207.383,358.854l1.039,10.216c3.495-0.358,6.962-0.812,10.396-1.365l-1.632-10.134
			C213.947,358.094,210.681,358.524,207.383,358.854z"/>
	</g>
	<g>
		<path fill="#FFCC34" d="M309.491,140.516c-27.335-65.985-102.984-97.324-168.969-69.987
			C74.537,97.861,43.206,173.508,70.539,239.494c27.335,65.984,102.983,97.318,168.962,69.984
			C305.482,282.153,336.826,206.502,309.491,140.516z"/>
		<path fill="#FFFFFF" d="M190,81.304c67.952,0,123.657,52.412,128.914,119.015c0.264-3.405,0.407-6.842,0.407-10.311
			c0-71.422-57.896-129.323-129.315-129.323S60.688,118.584,60.688,190.008c0,3.469,0.139,6.905,0.409,10.311
			C66.344,133.715,122.053,81.304,190,81.304z"/>
		<path fill="#365FE0" d="M274.395,190.003c0,46.612-37.78,84.391-84.393,84.391c-46.607,0-84.395-37.78-84.395-84.391
			s37.787-84.397,84.395-84.397C236.614,105.606,274.395,143.391,274.395,190.003z"/>
		<path fill="#FFFFFF" d="M190,123.279c43.628,0,79.523,33.104,83.938,75.563c0.3-2.904,0.457-5.855,0.457-8.839
			c0-46.612-37.78-84.397-84.395-84.397c-46.606,0-84.394,37.785-84.394,84.397c0,2.984,0.16,5.935,0.46,8.839
			C110.484,156.383,146.372,123.279,190,123.279z"/>
		<path fill="#122436" d="M190,53.319C114.511,53.324,53.325,114.51,53.317,190.003C53.324,265.498,114.51,326.682,190,326.682
			c75.491-0.008,136.676-61.184,136.683-136.678C326.676,114.51,265.496,53.325,190,53.319z M276.237,276.236
			c-22.091,22.085-52.534,35.716-86.235,35.721c-33.697-0.005-64.144-13.636-86.229-35.721
			c-22.083-22.089-35.719-52.531-35.725-86.229c0.006-33.698,13.642-64.144,35.725-86.236
			c22.085-22.081,52.533-35.716,86.229-35.723c33.703,0.006,64.145,13.642,86.235,35.723c22.082,22.092,35.707,52.534,35.721,86.236
			C311.944,223.703,298.312,254.147,276.237,276.236z"/>
		<path fill="#122436" d="M190,98.241c-50.682,0.005-91.755,41.084-91.759,91.763C98.245,240.68,139.319,281.76,190,281.76
			c50.681-0.007,91.752-41.08,91.76-91.756C281.755,139.325,240.684,98.248,190,98.241z M244.475,244.472
			c-13.962,13.951-33.181,22.562-54.473,22.562c-21.294,0-40.505-8.61-54.468-22.562c-13.95-13.966-22.558-33.176-22.565-54.468
			c0.007-21.295,8.615-40.506,22.565-54.469c13.963-13.951,33.174-22.559,54.468-22.565c21.294,0,40.512,8.608,54.473,22.565
			c13.945,13.958,22.553,33.174,22.558,54.469C267.027,211.301,258.42,230.507,244.475,244.472z"/>
		<path fill="#FFFFFF" d="M215.617,195.23c-1.71-3.225-4.289-6.034-7.655-8.349c-3.148-2.15-7.879-4.292-14.47-6.529
			c-6.871-2.335-10.026-4.406-11.461-5.739c-1.626-1.5-2.417-3.668-2.417-6.617c0-3.14,0.881-5.43,2.778-7.213
			c1.952-1.829,4.762-2.721,8.608-2.721c3.639,0,6.376,1.098,8.368,3.361c2.136,2.421,3.175,5.759,3.175,10.174v4.422h15.085V171.6
			c0-7.988-2.049-14.499-6.094-19.346c-3.356-4.015-7.806-6.646-13.285-7.854v-11.237h-14.185v11.191
			c-5.241,1.066-9.606,3.341-13.01,6.795c-4.329,4.396-6.522,10.106-6.522,16.99c0,6.559,2.013,12.034,5.967,16.271
			c3.75,4.022,9.815,7.301,18.43,10.004c7.127,2.471,10.291,4.618,11.687,5.995c1.674,1.64,2.452,3.658,2.452,6.371
			c0,2.976-0.998,5.213-3.14,7.029c-2.322,1.979-5.361,2.932-9.292,2.932c-4.549,0-7.905-1.109-10.253-3.384
			c-2.313-2.261-3.438-5.418-3.438-9.674v-4.421h-15.138v4.421c0,8.049,2.358,14.57,7.02,19.378
			c3.801,3.929,8.865,6.436,15.078,7.494v10.408h14.14v-10.525c5.449-1.044,9.965-3.3,13.458-6.72
			c4.447-4.37,6.701-10.097,6.701-17.044C218.203,202.312,217.334,198.464,215.617,195.23z"/>
	</g>
</g>
</svg>
