<?xml version="1.0" encoding="utf-8"?>
<!-- Generator: Adobe Illustrator 16.0.0, SVG Export Plug-In . SVG Version: 6.00 Build 0)  -->
<!DOCTYPE svg PUBLIC "-//W3C//DTD SVG 1.1//EN" "http://www.w3.org/Graphics/SVG/1.1/DTD/svg11.dtd">
<svg version="1.1" id="Capa_1" xmlns="http://www.w3.org/2000/svg" xmlns:xlink="http://www.w3.org/1999/xlink" x="0px" y="0px"
	 width="100px" height="100px" viewBox="0 0 100 100" enable-background="new 0 0 100 100" xml:space="preserve">
<g id="Nuevo_símbolo_2">
	<path fill="#ECECEC" d="M75.29,89.516H15.226V8.903c0-3.492-2.831-6.323-6.322-6.323H7.323h61.646c3.491,0,6.321,2.831,6.321,6.323
		V89.516z"/>
	<g>
		<path fill="#FEA82F" d="M15.226,89.516h66.387c3.491,0,6.322-2.831,6.322-6.322v-6.322H27.871v6.322
			c0,3.491-2.831,6.322-6.323,6.322H15.226z"/>
		<path fill="#FEA82F" d="M15.226,21.548H2.581V8.903c0-3.492,2.831-6.323,6.323-6.323l0,0c3.492,0,6.322,2.831,6.322,6.323V21.548z
			"/>
	</g>
	<path fill="#B6C1CE" d="M75.29,31.758c-6.413,2.014-11.064,8.003-11.064,15.081c0,7.076,4.651,13.065,11.064,15.081V31.758z"/>
	<circle fill="#FEA82F" cx="81.612" cy="42.097" r="15.806"/>
	<path fill="#FF8031" d="M81.612,54.742c-8.195,0-14.934-6.239-15.728-14.227c-0.05,0.521-0.078,1.047-0.078,1.581
		c0,8.73,7.076,15.807,15.806,15.807c8.73,0,15.807-7.076,15.807-15.807c0-0.534-0.028-1.06-0.078-1.581
		C96.546,48.503,89.809,54.742,81.612,54.742z"/>
	<g>
		<rect x="2.581" y="84.774" fill="#29ABE2" width="18.968" height="12.645"/>
		<rect x="23.129" y="8.903" fill="#29ABE2" width="44.259" height="17.387"/>
	</g>
	<rect x="2.581" y="16.806" fill="#FF8031" width="12.645" height="4.742"/>
	<rect x="2.581" y="92.678" fill="#48C397" width="18.968" height="4.741"/>
	<path fill="#F9E0A6" d="M8.903,84.774L7.372,72.519c-0.033-0.258-0.049-0.521-0.049-0.782V58.298c0-0.264,0.016-0.525,0.049-0.785
		l1.317-10.528c0.141-1.128,0.584-2.198,1.283-2.746l9.04-11.626c0.604-1.127,1.532-1.581,2.513-1.581l0,0
		c1.76,0,3.185,1.426,3.185,3.185v0.538c0,0.664-0.207,1.311-0.592,1.851l-6.133,8.586c-0.767,1.07-1.178,2.354-1.178,3.673v9.126
		c0,0.981,0.229,1.949,0.667,2.829l2.495,4.986l0,0l6.922-6.922c0.629-0.63,1.481-0.981,2.371-0.981l0,0
		c1.851,0,3.353,1.501,3.353,3.353l0,0c0,0.89-0.353,1.741-0.981,2.37L19.968,75.29v9.484H8.903z"/>
	<path d="M21.548,27.872h47.42V7.323h-47.42V27.872z M24.709,10.484h41.097v14.226H24.709V10.484z"/>
	<rect x="29.452" y="50" width="31.614" height="3.161"/>
	<rect x="32.613" y="37.355" width="9.484" height="3.161"/>
	<rect x="48.419" y="37.355" width="9.484" height="3.161"/>
	<rect x="32.613" y="43.678" width="9.484" height="3.161"/>
	<rect x="48.419" y="43.678" width="9.484" height="3.161"/>
	<rect x="43.677" y="62.646" width="25.292" height="3.161"/>
	<rect x="59.484" y="68.969" width="9.484" height="3.16"/>
	<rect x="43.677" y="68.969" width="9.484" height="3.16"/>
	<path d="M81.612,37.355c0.873,0,1.581,0.709,1.581,1.58h3.161c0-2.058-1.325-3.795-3.161-4.45v-3.453h-3.162v3.453
		c-1.834,0.655-3.16,2.393-3.16,4.45c0,2.615,2.127,4.743,4.741,4.743c0.873,0,1.581,0.709,1.581,1.58
		c0,0.871-0.708,1.581-1.581,1.581c-0.872,0-1.581-0.71-1.581-1.581h-3.16c0,2.059,1.326,3.797,3.16,4.451v3.452h3.162v-3.452
		c1.836-0.654,3.161-2.393,3.161-4.451c0-2.614-2.127-4.742-4.742-4.742c-0.872,0-1.581-0.709-1.581-1.581
		C80.031,38.064,80.74,37.355,81.612,37.355z"/>
	<rect x="89.516" y="40.516" width="3.162" height="3.162"/>
	<rect x="70.549" y="40.516" width="3.161" height="3.162"/>
	<path d="M96.156,51.63C98.017,48.796,99,45.498,99,42.097c0-9.586-7.8-17.387-17.388-17.387c-1.645,0-3.232,0.245-4.741,0.674
		V8.903C76.871,4.545,73.326,1,68.969,1H8.903C4.545,1,1,4.545,1,8.903v14.226h12.645v11.778l-6.401,8.229
		c-0.895,0.793-1.511,2.108-1.706,3.651L4.223,57.317c-0.039,0.325-0.062,0.652-0.062,0.98v13.438c0,0.328,0.022,0.653,0.062,0.979
		l1.309,10.478H1V99h22.129v-7.903h58.483c4.358,0,7.903-3.545,7.903-7.903V75.29H76.871V58.811
		c1.509,0.429,3.097,0.674,4.741,0.674c4.655,0,9.029-1.814,12.313-5.112l-2.237-2.232c-2.689,2.699-6.268,4.183-10.076,4.183
		c-7.844,0-14.225-6.382-14.225-14.226c0-7.844,6.381-14.225,14.225-14.225c7.845,0,14.227,6.381,14.227,14.225
		c0,2.783-0.805,5.48-2.325,7.798L96.156,51.63z M4.161,19.968V8.903c0-2.614,2.128-4.742,4.742-4.742s4.742,2.128,4.742,4.742
		v11.064H4.161z M7.359,72.325c-0.024-0.196-0.036-0.394-0.036-0.589V58.298c0-0.197,0.012-0.395,0.036-0.589l1.315-10.528
		c0.111-0.884,0.435-1.5,0.691-1.7l9.315-11.898l0.147-0.226c0.352-0.659,0.782-0.745,1.117-0.745c0.885,0,1.604,0.72,1.604,1.604
		v0.538c0,0.337-0.103,0.66-0.297,0.932l-6.133,8.586c-0.964,1.348-1.473,2.936-1.473,4.592v9.126c0,1.22,0.289,2.442,0.833,3.535
		l1.351,2.699h-0.604v3.162h3.816l7.385-7.385c0.33-0.329,0.787-0.519,1.253-0.519c0.977,0,1.772,0.794,1.772,1.771
		c0,0.474-0.183,0.918-0.518,1.254L16.806,74.636v8.558H8.718L7.359,72.325z M19.968,95.839H4.161v-9.484h15.807V95.839z
		 M86.354,83.193c0,2.615-2.127,4.741-4.742,4.741H27.868c0.994-1.32,1.584-2.963,1.584-4.741v-4.742h56.903V83.193z M64.226,42.097
		c0,6.74,3.863,12.583,9.484,15.468V75.29H26.291v7.903c0,2.058-1.327,3.797-3.162,4.451v-4.451h-3.161v-7.248l11.2-11.201
		c0.933-0.931,1.445-2.171,1.445-3.488c0-2.721-2.213-4.934-4.933-4.934c-1.299,0-2.57,0.526-3.488,1.445l-5.371,5.37l-1.515-3.024
		c-0.327-0.656-0.5-1.39-0.5-2.122v-9.126c0-0.993,0.306-1.945,0.884-2.756l6.133-8.586c0.581-0.811,0.887-1.769,0.887-2.77v-0.537
		c0-2.625-2.139-4.764-4.766-4.764c-1.227,0-2.319,0.482-3.138,1.35V8.903c0-1.786-0.618-3.417-1.622-4.742h53.784
		c2.613,0,4.741,2.128,4.741,4.742v17.725C68.089,29.514,64.226,35.357,64.226,42.097z"/>
</g>
<g id="Nuevo_símbolo">
</g>
</svg>
