<?xml version="1.0" encoding="utf-8"?>
<!-- Generator: Adobe Illustrator 16.0.0, SVG Export Plug-In . SVG Version: 6.00 Build 0)  -->
<!DOCTYPE svg PUBLIC "-//W3C//DTD SVG 1.1//EN" "http://www.w3.org/Graphics/SVG/1.1/DTD/svg11.dtd">
<svg version="1.1" id="Capa_1" xmlns="http://www.w3.org/2000/svg" xmlns:xlink="http://www.w3.org/1999/xlink" x="0px" y="0px"
	 width="150px" height="150px" viewBox="0 0 150 150" enable-background="new 0 0 150 150" xml:space="preserve">
<g id="Nuevo_símbolo">
</g>
<path fill="#FFFFFF" d="M68.205,2.501l0.085,0.234C55.744,4.009,42.222,8.584,30.769,17.484C19.176,26.12,9.896,39.023,5.188,53.908
	C0.718,68.816,0.752,85.649,6.533,100.66c2.802,7.511,6.843,14.56,11.873,20.762c5.118,6.14,11.218,11.378,17.893,15.509
	l-1.808-0.035c7.254,4.438,15.787,7.883,24.529,9.471c8.733,1.65,17.553,1.513,25.237,0.188c-1.993,0.338-4.018,0.338-6.028,0.377
	c2.756-0.291,7.623-1.027,12.727-2.354c2.539-0.721,5.2-1.359,7.616-2.389c2.468-0.867,4.784-1.799,6.709-2.787l-0.669,0.589
	c-10.94,4.638,0.843-0.097-3.406,2.256l-1.919,0.823l1.192-0.31l1.918-0.829c-0.174,0.201,0.065,0.303-1.776,1.035
	c0.877-0.326,1.776-0.605,2.625-0.971c5.698-2.028,6.021-1.583,5.638-0.605c1.405-0.807-0.343-0.515,5.604-3.89l-0.637,0.662
	c2.119-1.331,3.996-2.999,5.91-4.604c0.934-0.599,1.947-1.119,2.807-1.828c1.854-1.937,3.104-3.112,5.07-5.021l0.211-0.938
	c4.353-4.267,8.254-10.012,11.586-16.021c3.112-6.163,5.463-12.669,6.955-18.661c0.205-2.695,1.842-9.174,1.584-16.085l-0.654,2.924
	c-0.305,1.834-0.356,4.29-0.965,7.06c-0.246,1.445-0.492,2.908-0.748,4.422c-0.397,1.531-0.803,3.113-1.229,4.713
	c-1.736,6.443-4.609,13.166-7.879,18.105l0.006-0.531c1.282-2.118,1.819-3.85,3.252-6.545l-0.083-0.914
	c-0.942,0.977-1.925,2.648-2.981,4.644c-1.248,1.89-2.416,4.192-3.756,6.375c-2.695,4.356-5.814,8.362-7.356,9.835
	c-3.405,2.947-2.544,1.696-1.154,0.211c1.289-1.594,2.919-3.644,1.528-2.045c3.059-3.826,1.438-2.484-1.271,0.069
	c-2.789,2.502-7.064,5.838-8.918,6.729c-4.75,2.965-12.476,7.539-21.459,10.161c-8.92,2.741-18.842,3.507-26.176,2.759
	c-6.1-0.463-12.792-1.537-19.22-4.187c-6.415-2.599-12.638-6.289-18.106-10.83c-5.382-4.633-9.934-10.063-13.541-15.656
	c-3.65-5.604-5.961-11.515-7.834-16.856c-1.38-5.248-3.41-12.144-3.625-18.854c-0.24-3.324-0.037-6.569,0.221-9.379
	c0.511-2.776,0.918-5.175,1.701-6.797c1.528-6.66,4.201-12.99,7.539-18.896l0.012,0.503c4.861-8.597,11.805-16.605,20.082-22.693
	c8.23-6.192,17.857-10.11,27.011-11.835c1.848-0.325,3.51-0.628,5.075-0.908c1.388-0.137,2.662-0.269,3.666-0.365
	c2.097-0.194,3.666-0.32,5.502,0.234c8.07,0.411,16.816,2.028,24.976,5.317c8.171,3.228,15.679,8.1,21.365,13.681
	c0.123-0.217,1.959,1.103-0.146-0.982c-3.054-2.782-6.541-5.466-9.23-7.637c-2.831-1.941-4.784-3.496-4.75-3.866l2.639,1.679
	c-1.505-1.097-2.967-2.296-4.609-3.205l-3.33-1.365c-0.76-0.554-1.08-0.851-1.098-0.966c-5.686-2.387-10.693-4.741-17.121-5.958
	c-2.293-0.343-4.756-0.491-7.552-0.577C74.959,2.301,71.849,2.479,68.205,2.501"/>
<g id="Nuevo_símbolo_3">
	<g>
		<g>
			<g>
				<path fill="#FFFFFF" d="M109.961,102.656l-1.479-0.593C115.918,93.791,120,83.167,120,72c0-9.136-2.762-17.926-7.793-25.315
					c-0.063-0.12-0.137-0.228-0.225-0.322c-2.205-3.177-4.83-6.092-7.842-8.653c-0.598-0.509-1.494-0.436-2.002,0.162
					c-0.508,0.598-0.436,1.495,0.162,2.003c2.416,2.055,4.566,4.352,6.432,6.838c-3.008,1.175-6.619,2.171-10.65,2.958
					c-1.111-3.315-2.479-6.406-4.088-9.195c-2.166-3.759-4.658-6.786-7.375-9.012c4.227,1.208,8.256,3.082,11.951,5.578
					c0.65,0.439,1.533,0.269,1.973-0.382c0.439-0.65,0.268-1.533-0.383-1.973C92.719,29.658,84.018,27,75,27
					c-12.02,0-23.32,4.681-31.82,13.18C34.682,48.68,30,59.98,30,72c0,11.182,4.088,21.808,11.535,30.082l-1.459,0.572
					c-0.537,0.194-5.111,2.018-5.111,7.831v5.092c0,0.785,0.637,1.423,1.422,1.423h8.176h1.271h1.516h7.271h2.684
					c0.068,0,0.135-0.007,0.201-0.017c0.064,0.01,0.133,0.017,0.201,0.017h5.781c0.785,0,1.422-0.637,1.422-1.421
					c0-0.785-0.637-1.421-1.422-1.421h-4.361v-4.949c0-5.222,4.102-6.724,4.268-6.782c0.021-0.007,0.045-0.015,0.064-0.023
					l6.922-2.71c0.014,0.016,0.027,0.033,0.045,0.049l3.678,3.581c0.266,0.259,0.621,0.403,0.99,0.403c0.008,0,0.016,0,0.023,0
					c0.377-0.006,0.738-0.162,1-0.436l3.531-3.663l6.912,2.771c0.023,0.01,0.041,0.017,0.066,0.024
					c0.174,0.062,4.277,1.563,4.277,6.785v4.949H80.51H69.521H67.93c-0.785,0-1.42,0.637-1.42,1.421S67.145,117,67.93,117h1.592
					H80.51h11.814l0,0l0,0h1.814h1.271h1.516h7.271h9.447c0.785,0,1.42-0.646,1.42-1.431v-5.084
					C115.066,104.694,110.527,102.862,109.961,102.656z M105.662,100.933l-1.4-0.563v-0.809c1.547-0.907,2.736-2.361,3.303-4.097
					c2.066-0.163,3.701-1.895,3.701-4.002c0-1.254-0.58-2.376-1.482-3.113v-2.525c0-4.869-3.652-8.898-8.363-9.497
					c0.055-0.964,0.09-1.935,0.109-2.906h15.604C116.791,83.707,112.75,93.423,105.662,100.933z M100.531,97.733h-1.297
					c-2.51,0-4.553-2.043-4.553-4.554v-3.76l0,0c1.852-0.201,5.129-0.849,7.656-2.958c0.566,0.971,1.441,2.021,2.746,2.634v4.084
					C105.084,95.69,103.043,97.733,100.531,97.733z M101.42,100.52v0.788l-1.584,1.643l-1.488-1.448v-0.982
					c0.291,0.035,0.588,0.056,0.889,0.056h1.295C100.832,100.575,101.127,100.555,101.42,100.52z M93.266,86.67
					c-0.002,0-0.004,0-0.006,0c-0.049,0-0.098,0.003-0.145,0.008c-0.016,0.001-0.031,0.005-0.045,0.006
					c-0.033,0.005-0.064,0.009-0.096,0.016c-0.021,0.004-0.043,0.01-0.063,0.016c-0.025,0.006-0.051,0.012-0.074,0.02
					c-0.014,0.004-0.029,0.011-0.045,0.016v-0.926c0-3.713,3.021-6.734,6.734-6.734h0.68c3.715,0,6.734,3.021,6.734,6.734v0.914
					c-0.027-0.008-0.053-0.015-0.082-0.021c-0.012-0.004-0.025-0.008-0.039-0.012c-1.98-0.45-2.629-3.094-2.633-3.114
					c-0.123-0.544-0.555-0.966-1.102-1.078s-1.109,0.106-1.436,0.56C99.076,86.629,93.34,86.67,93.266,86.67z M107.926,92.42v-1.915
					c0.301,0.214,0.496,0.563,0.496,0.958C108.422,91.857,108.227,92.207,107.926,92.42z M110.4,49.104
					c4.115,6.359,6.473,13.762,6.73,21.475h-15.604c-0.115-6.396-1.008-12.566-2.602-18.184
					C103.295,51.526,107.189,50.417,110.4,49.104z M98.686,70.579H84.141c0,0-0.002,0-0.004,0c-1.939-2.143-4.664-3.559-7.715-3.794
					v-12.22c6.973-0.07,13.703-0.649,19.697-1.657C97.689,58.341,98.568,64.341,98.686,70.579z M86.15,85.418
					c0,0.836-0.564,1.541-1.332,1.758V83.66C85.586,83.877,86.15,84.582,86.15,85.418z M76.422,29.921
					c5.654,0.604,10.975,4.8,15.109,11.974c1.453,2.517,2.699,5.298,3.727,8.282c-5.73,0.938-12.16,1.478-18.836,1.545V29.921
					L76.422,29.921z M75.52,69.588c4.842,0,8.779,3.938,8.779,8.779v1.736c-0.01-0.008-0.02-0.014-0.029-0.021
					c-0.021-0.016-0.041-0.032-0.063-0.047c-0.018-0.012-0.035-0.022-0.053-0.033c-0.02-0.014-0.041-0.027-0.064-0.039
					c-0.02-0.012-0.041-0.021-0.061-0.032c-0.021-0.01-0.039-0.021-0.061-0.028c-0.025-0.012-0.051-0.021-0.076-0.031
					c-0.018-0.006-0.035-0.013-0.053-0.019c-0.029-0.01-0.059-0.018-0.088-0.024c-0.014-0.004-0.025-0.008-0.039-0.012
					c-2.699-0.613-3.555-4.133-3.563-4.164c-0.123-0.545-0.555-0.967-1.102-1.078c-0.547-0.113-1.107,0.107-1.436,0.56
					c-3.328,4.601-10.68,4.647-10.775,4.647l0,0c-0.004,0-0.004,0-0.006,0c-0.049,0-0.098,0.002-0.145,0.007
					c-0.016,0.002-0.029,0.005-0.045,0.007c-0.031,0.005-0.064,0.009-0.096,0.015c-0.021,0.005-0.041,0.011-0.061,0.016
					c-0.025,0.007-0.051,0.013-0.076,0.02c-0.023,0.007-0.045,0.017-0.068,0.024c-0.02,0.008-0.041,0.015-0.061,0.023
					c-0.027,0.011-0.051,0.023-0.076,0.035c-0.016,0.008-0.033,0.016-0.049,0.023c-0.025,0.014-0.049,0.03-0.074,0.045
					c-0.014,0.01-0.029,0.018-0.043,0.026c-0.021,0.016-0.045,0.033-0.066,0.05c-0.014,0.011-0.029,0.021-0.043,0.031
					c-0.014,0.012-0.025,0.023-0.039,0.035v-1.771c0-4.841,3.939-8.779,8.779-8.779H75.52z M51.314,70.579
					c0.117-6.239,0.998-12.241,2.568-17.675c6.002,1.009,12.74,1.59,19.697,1.66v12.235c-2.98,0.279-5.635,1.686-7.535,3.789
					c-0.051-0.005-0.104-0.009-0.156-0.009H51.314L51.314,70.579z M65.41,83.646v3.545c-0.797-0.197-1.389-0.916-1.389-1.773
					C64.021,84.562,64.613,83.843,65.41,83.646z M73.58,29.921v21.801c-6.662-0.067-13.096-0.609-18.834-1.549
					c1.025-2.981,2.271-5.761,3.723-8.277C62.604,34.721,67.924,30.525,73.58,29.921z M63.365,31.476
					c-2.709,2.226-5.197,5.248-7.359,9c-1.607,2.788-2.975,5.877-4.086,9.192c-4.025-0.786-7.631-1.779-10.633-2.95
					C46.729,39.478,54.445,34.041,63.365,31.476z M39.613,49.111c3.203,1.309,7.1,2.413,11.463,3.28
					c-1.594,5.619-2.488,11.79-2.604,18.188H32.869C33.131,62.686,35.574,55.335,39.613,49.111z M48.771,100.52
					c0.291,0.035,0.586,0.056,0.887,0.056h1.297c0.299,0,0.596-0.021,0.887-0.056v0.788l-1.584,1.643l-1.486-1.448V100.52z
					 M50.955,97.733h-1.297c-2.512,0-4.553-2.043-4.553-4.554v-3.759c1.85-0.2,5.127-0.849,7.654-2.959
					c0.566,0.971,1.441,2.021,2.748,2.634v4.084C55.508,95.69,53.465,97.733,50.955,97.733z M54.611,83.591
					c-0.123-0.545-0.555-0.967-1.102-1.079c-0.547-0.111-1.109,0.107-1.436,0.561c-2.576,3.559-8.316,3.598-8.385,3.598
					c-0.002,0-0.004,0-0.006,0c-0.049,0-0.098,0.003-0.145,0.008c-0.016,0.001-0.029,0.005-0.045,0.006
					c-0.031,0.005-0.064,0.009-0.096,0.016c-0.021,0.004-0.041,0.01-0.061,0.015c-0.025,0.007-0.051,0.013-0.076,0.021
					c-0.016,0.004-0.029,0.011-0.045,0.016v-0.926c0-3.713,3.021-6.734,6.734-6.734h0.68c3.715,0,6.734,3.021,6.734,6.734v0.914l0,0
					c-0.027-0.008-0.055-0.015-0.084-0.021c-0.012-0.004-0.023-0.009-0.037-0.011C55.264,86.255,54.615,83.611,54.611,83.591z
					 M32.869,73.421h15.604c0.018,0.979,0.055,1.956,0.109,2.926c-4.635,0.667-8.207,4.661-8.207,9.478v2.514
					c-0.912,0.738-1.496,1.863-1.496,3.125c0,2.123,1.658,3.863,3.748,4.004c0.564,1.734,1.754,3.188,3.301,4.095v0.8l-1.551,0.608
					C37.264,93.455,33.211,83.729,32.869,73.421z M42.262,90.474v1.978c-0.324-0.209-0.541-0.574-0.541-0.988
					C41.721,91.048,41.938,90.684,42.262,90.474z M56.285,109.209v4.949h-1.664H47.35h-1.516h-1.271h-6.754v-3.673
					c0-3.962,3.098-5.109,3.217-5.152c0.021-0.007,0.045-0.016,0.066-0.023l5.359-2.1l2.848,2.773
					c0.266,0.259,0.621,0.403,0.992,0.403c0.008,0,0.014,0,0.021,0c0.379-0.006,0.738-0.162,1-0.436l2.691-2.791l3.324,1.334
					C56.697,105.784,56.285,107.347,56.285,109.209z M69.996,96.792l-7.543,2.953c-0.959,0.331-2.289,1.093-3.469,2.35l-4.301-1.725
					v-0.808c1.549-0.908,2.738-2.362,3.303-4.098c2.068-0.163,3.701-1.895,3.701-4.002c0-1.254-0.578-2.376-1.48-3.113v-2.525
					c0-5.014-3.873-9.137-8.783-9.541c-0.053-0.948-0.09-1.904-0.109-2.862h12.844c-0.711,1.502-1.109,3.178-1.109,4.946v3.315
					c-1.135,0.853-1.869,2.21-1.869,3.735c0,2.551,2.055,4.629,4.598,4.669c0.666,2.252,2.203,4.134,4.219,5.255V96.792
					L69.996,96.792z M58.35,92.42v-1.916c0.299,0.215,0.496,0.563,0.496,0.959C58.846,91.857,58.648,92.207,58.35,92.42z
					 M77.391,97.783c0,0.002,0,0.004,0,0.005v0.087l-2.328,2.416l-2.225-2.168v-1.787c0.477,0.079,0.967,0.123,1.467,0.123h1.621
					c0.5,0,0.988-0.044,1.465-0.123V97.783z M75.926,93.617h-1.621c-3.336,0-6.053-2.715-6.053-6.051v-5.018
					c2.27-0.209,6.754-0.998,10.029-3.938c0.691,1.309,1.85,2.826,3.695,3.614v5.341C81.977,90.902,79.262,93.617,75.926,93.617z
					 M91.055,102.104c-1.178-1.26-2.51-2.025-3.473-2.356l-7.35-2.949v-1.457c2.018-1.121,3.553-3.004,4.219-5.257
					c2.516-0.069,4.541-2.136,4.541-4.667c0-1.517-0.729-2.867-1.852-3.721v-3.33c0-1.768-0.398-3.444-1.107-4.946h12.652
					c-0.018,0.962-0.057,1.922-0.111,2.874c-4.834,0.48-8.623,4.57-8.623,9.529v2.515c-0.912,0.737-1.496,1.862-1.496,3.124
					c0,2.124,1.658,3.863,3.748,4.005c0.564,1.733,1.754,3.187,3.301,4.094v0.801L91.055,102.104z M91.84,90.474v1.978
					c-0.326-0.209-0.543-0.574-0.543-0.988C91.297,91.048,91.514,90.684,91.84,90.474z M112.223,114.158h-8.025h-7.27H95.41h-1.271
					h-0.393v-4.949c0-1.854-0.41-3.413-1.037-4.7l3.318-1.3l2.848,2.774c0.266,0.259,0.623,0.403,0.992,0.403
					c0.008,0,0.016,0,0.023,0c0.377-0.006,0.738-0.162,1-0.436l2.689-2.791l5.35,2.145c0.025,0.01,0.039,0.016,0.064,0.024
					c0.131,0.047,3.229,1.195,3.229,5.156V114.158L112.223,114.158z"/>
			</g>
		</g>
	</g>
</g>
</svg>
