<?xml version="1.0" encoding="utf-8"?>
<!-- Generator: Adobe Illustrator 16.0.0, SVG Export Plug-In . SVG Version: 6.00 Build 0)  -->
<!DOCTYPE svg PUBLIC "-//W3C//DTD SVG 1.1//EN" "http://www.w3.org/Graphics/SVG/1.1/DTD/svg11.dtd">
<svg version="1.1" id="Capa_1" xmlns="http://www.w3.org/2000/svg" xmlns:xlink="http://www.w3.org/1999/xlink" x="0px" y="0px"
	 width="150px" height="150px" viewBox="0 0 150 150" enable-background="new 0 0 150 150" xml:space="preserve">
<g id="Nuevo_símbolo">
</g>
<path fill="#FFFFFF" d="M68.205,2.501l0.085,0.234C55.744,4.009,42.222,8.584,30.769,17.484C19.176,26.12,9.896,39.023,5.188,53.908
	C0.718,68.816,0.752,85.649,6.533,100.66c2.802,7.511,6.843,14.56,11.873,20.762c5.118,6.14,11.218,11.378,17.893,15.509
	l-1.808-0.035c7.254,4.438,15.787,7.883,24.529,9.471c8.733,1.65,17.553,1.513,25.237,0.188c-1.993,0.338-4.018,0.338-6.028,0.377
	c2.756-0.291,7.623-1.027,12.727-2.354c2.539-0.721,5.2-1.359,7.616-2.389c2.468-0.867,4.784-1.799,6.709-2.787l-0.669,0.589
	c-10.94,4.638,0.843-0.097-3.406,2.256l-1.919,0.823l1.192-0.31l1.918-0.829c-0.174,0.201,0.065,0.303-1.776,1.035
	c0.877-0.326,1.776-0.605,2.625-0.971c5.698-2.028,6.021-1.583,5.638-0.605c1.405-0.807-0.343-0.515,5.604-3.89l-0.637,0.662
	c2.119-1.331,3.996-2.999,5.91-4.604c0.934-0.599,1.947-1.119,2.807-1.828c1.854-1.937,3.104-3.112,5.07-5.021l0.211-0.938
	c4.353-4.267,8.254-10.012,11.586-16.021c3.112-6.163,5.463-12.669,6.955-18.661c0.205-2.695,1.842-9.174,1.584-16.085l-0.654,2.924
	c-0.305,1.834-0.356,4.29-0.965,7.06c-0.246,1.445-0.492,2.908-0.748,4.422c-0.397,1.531-0.803,3.113-1.229,4.713
	c-1.736,6.443-4.609,13.166-7.879,18.105l0.006-0.531c1.282-2.118,1.819-3.85,3.252-6.545l-0.083-0.914
	c-0.942,0.977-1.925,2.648-2.981,4.644c-1.248,1.89-2.416,4.192-3.756,6.375c-2.695,4.356-5.814,8.362-7.356,9.835
	c-3.405,2.947-2.544,1.696-1.154,0.211c1.289-1.594,2.919-3.644,1.528-2.045c3.059-3.826,1.438-2.484-1.271,0.069
	c-2.789,2.502-7.064,5.838-8.918,6.729c-4.75,2.965-12.476,7.539-21.459,10.161c-8.92,2.741-18.842,3.507-26.176,2.759
	c-6.1-0.463-12.792-1.537-19.22-4.187c-6.415-2.599-12.638-6.289-18.106-10.83c-5.382-4.633-9.934-10.063-13.541-15.656
	c-3.65-5.604-5.961-11.515-7.834-16.856c-1.38-5.248-3.41-12.144-3.625-18.854c-0.24-3.324-0.037-6.569,0.221-9.379
	c0.511-2.776,0.918-5.175,1.701-6.797c1.528-6.66,4.201-12.99,7.539-18.896l0.012,0.503c4.861-8.597,11.805-16.605,20.082-22.693
	c8.23-6.192,17.857-10.11,27.011-11.835c1.848-0.325,3.51-0.628,5.075-0.908c1.388-0.137,2.662-0.269,3.666-0.365
	c2.097-0.194,3.666-0.32,5.502,0.234c8.07,0.411,16.816,2.028,24.976,5.317c8.171,3.228,15.679,8.1,21.365,13.681
	c0.123-0.217,1.959,1.103-0.146-0.982c-3.054-2.782-6.541-5.466-9.23-7.637c-2.831-1.941-4.784-3.496-4.75-3.866l2.639,1.679
	c-1.505-1.097-2.967-2.296-4.609-3.205l-3.33-1.365c-0.76-0.554-1.08-0.851-1.098-0.966c-5.686-2.387-10.693-4.741-17.121-5.958
	c-2.293-0.343-4.756-0.491-7.552-0.577C74.959,2.301,71.849,2.479,68.205,2.501"/>
<g>
	<path fill="#FFFFFF" d="M67.342,88.462l-0.396,0.158l1.112,2.785l0.396-0.159c4.035-1.614,9.057-1.614,13.092,0l0.396,0.158
		l1.112-2.785l-0.396-0.157C77.924,86.566,72.077,86.566,67.342,88.462z"/>
	<path fill="#FFFFFF" d="M73.5,66.02h3v16.496h-3V66.02z"/>
	<path fill="#FFFFFF" d="M116.985,36.031v27.518c0,0.483-0.077,0.963-0.229,1.421l-7.131,21.393l-11.126,17.415
		c-0.346,0.545-0.903,0.919-1.537,1.031c-1.338,0.209-2.593-0.707-2.803-2.046c-0.079-0.515,0.006-1.042,0.245-1.504
		c2.608-4.736,7.403-13.527,7.403-13.527c0.057-0.103,0.101-0.211,0.131-0.323l1.213-4.446l4.769-14.987l-2.859-0.91l-4.777,15.021
		l0.011,0.003c-0.007,0.021-0.023,0.036-0.028,0.058c-0.383,1.402-1.831,2.23-3.233,1.848c-0.098-0.025-0.193-0.059-0.287-0.096
		c-1.179-0.472-1.854-1.717-1.604-2.961l2.323-11.623c0.02-0.098,0.028-0.197,0.028-0.295v-4.393
		c-0.017-6.395,2.524-12.53,7.059-17.04c0.28-0.281,0.439-0.662,0.439-1.06V36.031h-2.999v9.885
		c-1.039,1.097-1.985,2.279-2.828,3.532c-8.281-13.346-25.813-17.451-39.159-9.169c-3.722,2.309-6.859,5.447-9.168,9.167
		c-0.843-1.253-1.788-2.434-2.827-3.53v-9.885h-2.998v10.496c0,0.398,0.158,0.779,0.439,1.06c4.534,4.51,7.075,10.646,7.058,17.041
		v4.392c0,0.099,0.01,0.198,0.029,0.294l2.324,11.622c0.249,1.246-0.426,2.492-1.605,2.964c-1.352,0.54-2.884-0.116-3.425-1.468
		c-0.037-0.094-0.069-0.189-0.096-0.285c-0.005-0.021-0.021-0.037-0.028-0.057l0.011-0.004L44.94,67.065l-2.859,0.91l4.768,14.987
		l1.213,4.446c0.032,0.112,0.076,0.221,0.132,0.323c0,0,4.796,8.791,7.403,13.527c0.578,1.048,0.291,2.339-0.756,3.124
		c-0.515,0.387-1.168,0.541-1.801,0.426c-0.635-0.112-1.192-0.486-1.538-1.031L40.376,86.363l-7.131-21.393
		c-0.152-0.458-0.23-0.939-0.23-1.422V36.031h-2.999v27.518c0,0.805,0.129,1.606,0.385,2.371l7.189,21.568
		c0.039,0.118,0.093,0.229,0.158,0.334l11.227,17.571c0.798,1.244,2.076,2.102,3.529,2.367c0.308,0.056,0.621,0.084,0.934,0.084
		c1.185-0.006,2.335-0.399,3.276-1.119c0.061-0.044,0.105-0.1,0.164-0.146c0.107,0.123,0.208,0.256,0.317,0.375
		c0.863,0.948,1.804,1.824,2.811,2.621v5.689c-0.002,2.979-0.483,5.938-1.424,8.765c-0.262,0.786,0.165,1.635,0.95,1.896
		c0.152,0.05,0.313,0.075,0.474,0.075h29.989c0.827,0,1.5-0.671,1.5-1.499c0-0.161-0.026-0.32-0.077-0.473
		c-0.94-2.826-1.422-5.785-1.423-8.764v-5.688c1.002-0.794,1.938-1.666,2.8-2.611c0.116-0.126,0.219-0.262,0.333-0.393
		c0.08,0.068,0.146,0.146,0.232,0.209c2.347,1.762,5.678,1.285,7.439-1.061c0.078-0.107,0.154-0.216,0.227-0.328l11.226-17.571
		c0.066-0.104,0.119-0.216,0.158-0.334l7.191-21.569c0.254-0.764,0.385-1.564,0.383-2.37V36.031H116.985z M97.071,53.128
		c-0.389-0.478-0.793-0.922-1.201-1.359l0.743-0.743c0.277,0.446,0.541,0.904,0.792,1.37C97.285,52.635,97.185,52.885,97.071,53.128
		L97.071,53.128z M94.864,48.533l-1.142,1.144c-1.12-0.987-2.317-1.881-3.58-2.676l1.656-1.657
		C92.912,46.315,93.938,47.382,94.864,48.533z M62.599,45.5l-2.002-2.001c1.468-1.014,3.039-1.871,4.686-2.554l1.463,2.922
		C65.32,44.297,63.934,44.843,62.599,45.5L62.599,45.5z M69.739,43.147l-1.585-3.167c1.746-0.481,3.538-0.775,5.346-0.877v3.587
		C72.238,42.757,70.981,42.91,69.739,43.147L69.739,43.147z M76.5,39.082c1.813,0.103,3.609,0.398,5.36,0.881l-1.598,3.187
		c-1.243-0.238-2.5-0.391-3.763-0.458V39.082z M84.72,40.95c1.65,0.677,3.225,1.527,4.696,2.536L87.401,45.5
		c-1.335-0.657-2.72-1.204-4.146-1.635L84.72,40.95z M58.221,45.363L59.857,47c-1.264,0.793-2.461,1.688-3.58,2.676l-1.126-1.127
		c0.567-0.717,1.175-1.403,1.817-2.054C57.37,46.095,57.799,45.733,58.221,45.363L58.221,45.363z M53.385,51.024l0.745,0.745
		c-0.408,0.439-0.814,0.884-1.2,1.359c-0.114-0.242-0.213-0.49-0.334-0.729C52.847,51.933,53.105,51.472,53.385,51.024
		L53.385,51.024z M87.989,123.001H62.011c0.659-2.525,0.992-5.126,0.993-7.737v-3.596c0.736,0.424,1.494,0.812,2.271,1.157
		c6.193,2.752,13.261,2.752,19.453,0c0.775-0.345,1.532-0.731,2.269-1.155v3.595C86.997,117.875,87.33,120.476,87.989,123.001z
		 M90.574,104.951c-1.966,2.191-4.374,3.941-7.064,5.133c-5.419,2.396-11.597,2.396-17.016,0c-2.697-1.193-5.109-2.949-7.077-5.146
		c-0.277-0.301-0.527-0.617-0.785-0.928c0.448-1.395,0.301-2.914-0.408-4.197c-2.166-3.935-5.845-10.672-7.023-12.83
		c3.053,0.596,6.011-1.396,6.607-4.449c0.141-0.723,0.139-1.465-0.006-2.186l-1.016-5.079c1.325,0.129,2.659,0.218,4,0.218
		c2.338,0.002,4.671-0.198,6.975-0.596l-0.515-2.955c-3.662,0.622-7.395,0.705-11.079,0.244l-0.66-3.309v-2.586
		c3.385-1.808,7.474-2.247,11.627-1.195l0.738-2.907c-4.359-1.106-8.685-0.794-12.442,0.815c-0.128-2.238-0.533-4.45-1.207-6.588
		c0.748-1.073,1.579-2.087,2.485-3.031c0.08-0.09,0.171-0.18,0.264-0.273c0.076-0.077,0.151-0.155,0.303-0.287
		c1.703-1.66,3.635-3.066,5.737-4.178c1.966-1.061,4.067-1.846,6.247-2.334c3.782-0.884,7.719-0.882,11.5,0.004
		c2.177,0.489,4.276,1.275,6.238,2.335c2.109,1.117,4.046,2.53,5.754,4.196c0.199,0.188,0.384,0.373,0.593,0.595
		c0.888,0.925,1.701,1.919,2.434,2.973c-0.675,2.138-1.08,4.351-1.207,6.589c-3.758-1.61-8.081-1.92-12.442-0.816l0.738,2.906
		c4.153-1.051,8.243-0.614,11.627,1.195v2.586l-0.69,3.451c-3.187,0.278-6.395,0.148-9.549-0.386l-0.516,2.955
		c2.276,0.392,4.583,0.589,6.894,0.586c0.855,0,1.708-0.033,2.558-0.085l-0.991,4.956c-0.61,3.051,1.369,6.02,4.42,6.629
		c0.72,0.145,1.461,0.146,2.182,0.006c-1.179,2.158-4.856,8.896-7.023,12.83c-0.708,1.28-0.853,2.798-0.399,4.188
		C91.113,104.318,90.861,104.637,90.574,104.951L90.574,104.951z"/>
</g>
</svg>
