<?xml version="1.0" encoding="utf-8"?>
<!-- Generator: Adobe Illustrator 16.0.0, SVG Export Plug-In . SVG Version: 6.00 Build 0)  -->
<!DOCTYPE svg PUBLIC "-//W3C//DTD SVG 1.1//EN" "http://www.w3.org/Graphics/SVG/1.1/DTD/svg11.dtd">
<svg version="1.1" id="Capa_1" xmlns="http://www.w3.org/2000/svg" xmlns:xlink="http://www.w3.org/1999/xlink" x="0px" y="0px"
	 width="250px" height="274px" viewBox="0 0 250 274" enable-background="new 0 0 250 274" xml:space="preserve">
<g>
	<path fill="#001E7E" d="M190.963,81.358c0,38.31-31.055,69.362-69.361,69.362c-38.306,0-69.361-31.052-69.361-69.362
		C52.24,43.049,83.296,12,121.602,12C159.908,12,190.963,43.049,190.963,81.358 M121.602,23.558
		c-31.922,0-57.801,25.882-57.801,57.8c0,31.926,25.879,57.801,57.801,57.801c31.919,0,57.8-25.875,57.8-57.801
		C179.401,49.44,153.521,23.558,121.602,23.558"/>
	
		<rect x="89.339" y="49.428" transform="matrix(0.7688 -0.6394 0.6394 0.7688 -17.5517 71.4023)" fill="#001E7E" width="1.287" height="21.098"/>
	<path fill="#001E7E" d="M148.867,89.25c-5.477-17.042-22.486-17.344-23.414-17.427c-0.37-0.037-0.497-1.84-0.834-3.685
		c-0.337-1.844-0.337-3.521-0.337-3.521s3.019,1.344,7.202,1.003c4.188-0.333,5.699-2.007,6.703-3.515
		c1.007-1.511-0.168-4.021,0.504-4.188c0.671-0.167,1.507-1.844,3.182-4.528c1.677-2.678,2.177-2.844,2.68-4.522
		c0.507-1.673-0.503-4.688-1.003-4.521c-0.5,0.167-0.667,6.199-0.667,6.199l-5.198,6.365c0,0-1.675-0.166-2.679,0.5
		c-1.007,0.674-3.521,3.018-5.531,4.188c-2.012,1.177-5.025,0.84-6.869,0.84c-1.842,0-2.516-0.5-3.015-1.34
		c-0.5-0.837-0.5-1.507-0.5-1.507s0.999-0.5,2.011-1.507c1-1.007,1-3.185,1-3.185s0.845,0,1.512-1.844
		c0.669-1.84-3.016-3.348-3.523-3.348c-0.499,0-0.332,2.514-0.332,2.514s-2.512-0.507-4.355,0.333
		c-1.844,0.833-1.844,4.695-1.844,4.695l-1.34,0.333l1.173,1.337c0,0-0.167,1.007,0,2.011c0.167,1.007,4.188-0.504,4.188-0.504
		s0.671,0.837,0.671,2.177c0,1.344-0.166,3.181-1.17,3.688c-1.008,0.5-3.188,2.177-7.543,2.681c-4.352,0.5-8.372,0.833-10.384-0.337
		c-2.011-1.17-4.525-4.355-5.028-4.355c0,0-0.504,1.003,0.503,2.852c1.004,1.84,2.515,1.503,2.515,1.503s1.844,1.344,5.192,2.177
		c1.955,0.493,5.358-0.167,5.358-0.167s-1.048,5.363,2.01,5.363c5.032,0,7.377-7.207,8.381-7.207c1.007,0,3.684,1.677,4.354,2.351
		c0.674,0.667,1.341,1.504,1.341,1.504s-8.377,3.018-13.572,11.395c-5.192,8.375-8.18,14.665-15.241,16.082
		c-7.54,1.511-11.561-3.518-11.561-3.518s0.832,7.203,7.539,8.543c6.697,1.34,9.042-0.837,9.042-0.837s-2.177,1.844-4.354,2.344
		c-2.178,0.507-5.695,0-5.695,0s2.511,5.028,10.05,5.028s10.054-2.014,10.054-2.014s-0.166,1.848-2.177,2.852
		c-2.011,1.003-3.519,1.337-3.519,1.337s2.852,1.848,7.874,1.181c5.027-0.674,8.042-2.685,8.042-2.685s-1.337,3.518-5.024,4.188
		c-3.689,0.67-7.873,0.167-7.873,0.167s5.191,5.362,15.749,4.188c10.551-1.17,11.22-3.851,11.22-3.851s-0.669,0.71-0.503,2.514
		c0.17,1.797,2.181,2.845,2.181,2.845s-1.17-1.17-0.503-2.845c0.671-1.677,5.532-7.373,6.869-6.873
		c1.341,0.504,1.341,1.17-0.837,3.355c-2.177,2.174-3.688,3.177-3.688,3.177S156.788,113.871,148.867,89.25"/>
	<polygon fill="#001E7E" points="116.826,49.034 115.946,46.02 117.207,47.023 118.084,44.009 118.333,46.896 119.968,46.396 
		118.333,48.911 	"/>
	
		<rect x="81.702" y="50.197" transform="matrix(0.1563 -0.9877 0.9877 0.1563 19.2011 124.9347)" fill="#001E7E" width="2.061" height="2.061"/>
	
		<rect x="82.662" y="49.356" transform="matrix(0.8152 -0.5792 0.5792 0.8152 -14.3836 57.3864)" fill="#001E7E" width="0.137" height="3.751"/>
	<polygon fill="#001E7E" points="84.209,50.07 84.289,50.179 81.257,52.389 81.173,52.273 	"/>
	<g>
		<path fill="#001E7E" d="M84.85,169.201v69.227h-8.782V226.53c-3.73,4.54-7.919,7.953-12.567,10.247
			c-4.641,2.29-9.724,3.434-15.238,3.434c-9.797,0-18.167-3.551-25.1-10.658c-6.935-7.105-10.401-15.745-10.401-25.927
			c0-9.97,3.496-18.499,10.498-25.577c6.996-7.087,15.416-10.627,25.26-10.627c5.681,0,10.825,1.21,15.427,3.627
			c4.605,2.416,8.645,6.043,12.122,10.879v-12.727H84.85z M49.251,176.012c-4.96,0-9.536,1.218-13.729,3.652
			c-4.198,2.438-7.531,5.859-10.014,10.268c-2.478,4.401-3.717,9.065-3.717,13.98c0,4.874,1.25,9.533,3.746,13.982
			c2.504,4.449,5.859,7.912,10.079,10.391c4.214,2.481,8.738,3.717,13.564,3.717c4.877,0,9.496-1.229,13.857-3.685
			c4.367-2.456,7.722-5.786,10.072-9.981c2.352-4.188,3.528-8.916,3.528-14.17c0-8.006-2.638-14.705-7.912-20.082
			C63.452,178.704,56.961,176.012,49.251,176.012"/>
		<path fill="#001E7E" d="M103.751,169.201h8.901v32.323c0,7.892,0.432,13.322,1.275,16.29c1.279,4.245,3.706,7.594,7.301,10.054
			c3.591,2.459,7.865,3.692,12.84,3.692c4.97,0,9.184-1.204,12.644-3.599c3.468-2.397,5.855-5.542,7.175-9.444
			c0.891-2.675,1.339-8.341,1.339-16.993v-32.323h9.094v33.976c0,9.547-1.111,16.738-3.336,21.571
			c-2.232,4.841-5.579,8.623-10.054,11.362c-4.475,2.731-10.087,4.101-16.829,4.101c-6.75,0-12.376-1.369-16.894-4.101
			c-4.521-2.739-7.891-6.558-10.119-11.456c-2.225-4.898-3.337-12.268-3.337-22.107V169.201z"/>
		<polygon fill="#001E7E" points="176.218,169.201 186.909,169.201 205.324,194.525 223.538,169.201 234.251,169.201 
			210.683,201.902 237.239,238.428 226.389,238.428 205.322,209.358 184.37,238.428 173.735,238.428 199.966,201.968 		"/>
	</g>
	<g>
		<path fill="#717175" d="M18.738,252.664l0.608-0.486h0.463l-0.601,2.721h-0.471c-0.015-0.642-0.098-1.137-0.258-1.485
			c-0.155-0.348-0.376-0.615-0.671-0.804c-0.293-0.196-0.618-0.29-0.991-0.29c-0.476,0-0.858,0.123-1.149,0.389
			c-0.29,0.257-0.441,0.579-0.441,0.966c0,0.297,0.095,0.533,0.275,0.703c0.181,0.166,0.725,0.425,1.638,0.762
			c0.601,0.228,1.021,0.434,1.268,0.623c0.239,0.184,0.427,0.419,0.558,0.692c0.128,0.274,0.188,0.586,0.188,0.931
			c0,0.496-0.119,0.949-0.37,1.354c-0.25,0.409-0.604,0.731-1.075,0.964c-0.472,0.236-1.015,0.354-1.634,0.354
			c-0.488,0-0.913-0.067-1.282-0.202c-0.367-0.127-0.736-0.348-1.098-0.659l-0.446,0.488h-0.488l0.614-2.829h0.472
			c0.004,0.651,0.091,1.167,0.265,1.528c0.174,0.37,0.428,0.652,0.769,0.855c0.337,0.199,0.725,0.297,1.173,0.297
			c0.532,0,0.968-0.145,1.302-0.431c0.333-0.294,0.499-0.642,0.499-1.052c0-0.337-0.13-0.608-0.38-0.811
			c-0.142-0.113-0.628-0.337-1.475-0.678c-0.656-0.254-1.098-0.471-1.323-0.638c-0.217-0.17-0.391-0.385-0.511-0.638
			c-0.118-0.254-0.182-0.554-0.182-0.905c0-0.74,0.248-1.349,0.747-1.826c0.497-0.482,1.142-0.722,1.928-0.722
			c0.396,0,0.758,0.063,1.087,0.193C18.075,252.16,18.405,252.369,18.738,252.664"/>
		<path fill="#717175" d="M21.752,257.938c-0.018,0.134-0.025,0.246-0.025,0.334c0,0.377,0.091,0.666,0.279,0.869
			c0.184,0.198,0.432,0.301,0.739,0.301c0.261,0,0.514-0.059,0.764-0.185c0.255-0.12,0.559-0.373,0.92-0.739l0.36,0.275
			c-0.417,0.46-0.823,0.786-1.226,0.975c-0.399,0.192-0.829,0.289-1.29,0.289c-0.656,0-1.166-0.188-1.543-0.564
			c-0.372-0.37-0.562-0.884-0.562-1.521c0-0.572,0.151-1.124,0.472-1.646c0.312-0.524,0.738-0.935,1.275-1.238
			c0.543-0.301,1.13-0.45,1.753-0.45c0.459,0,0.811,0.109,1.062,0.326c0.254,0.226,0.38,0.501,0.38,0.838
			c0,0.278-0.101,0.562-0.305,0.844c-0.198,0.282-0.528,0.528-0.985,0.735C23.368,257.587,22.68,257.771,21.752,257.938
			 M21.814,257.489c0.604-0.115,1.051-0.305,1.326-0.562c0.379-0.358,0.568-0.76,0.568-1.206c0-0.186-0.04-0.33-0.127-0.436
			c-0.088-0.105-0.196-0.155-0.33-0.155c-0.265,0-0.507,0.155-0.734,0.471C22.184,256.059,21.951,256.688,21.814,257.489"/>
		<path fill="#717175" d="M30.237,254.798c0.409-0.385,0.821-0.572,1.242-0.572c0.229,0,0.406,0.05,0.53,0.155
			c0.122,0.105,0.188,0.242,0.188,0.413c0,0.148-0.055,0.271-0.151,0.372c-0.095,0.103-0.211,0.149-0.352,0.149
			c-0.153,0-0.301-0.091-0.436-0.271c-0.062-0.08-0.105-0.131-0.127-0.146c-0.025-0.019-0.061-0.029-0.104-0.029
			c-0.116,0-0.232,0.059-0.352,0.167c0.225,0.153,0.392,0.334,0.503,0.536c0.109,0.2,0.164,0.428,0.164,0.678
			c0,0.547-0.207,0.997-0.612,1.349c-0.41,0.348-1.019,0.524-1.827,0.524c-0.162,0-0.397-0.015-0.703-0.036
			c-0.209-0.021-0.368-0.029-0.481-0.029c-0.358,0-0.634,0.051-0.825,0.152c-0.113,0.065-0.175,0.155-0.175,0.275
			c0,0.124,0.088,0.21,0.259,0.254c0.111,0.028,0.535,0.058,1.267,0.091c0.729,0.025,1.207,0.065,1.425,0.105
			c0.392,0.082,0.691,0.231,0.897,0.448c0.21,0.211,0.312,0.472,0.312,0.783c0,0.326-0.107,0.634-0.325,0.92
			c-0.221,0.282-0.559,0.507-1.019,0.671C29.07,261.92,28.434,262,27.621,262c-0.702,0-1.232-0.051-1.591-0.146
			c-0.361-0.094-0.616-0.225-0.768-0.391c-0.144-0.163-0.217-0.341-0.217-0.524c0-0.229,0.101-0.432,0.315-0.606
			c0.206-0.173,0.612-0.318,1.206-0.434c-0.246-0.069-0.438-0.189-0.576-0.363c-0.135-0.174-0.199-0.369-0.199-0.583
			c0-0.302,0.108-0.561,0.337-0.786c0.228-0.229,0.583-0.392,1.054-0.478c-0.453-0.305-0.677-0.696-0.677-1.183
			c0-0.521,0.221-0.964,0.67-1.326c0.452-0.365,1.073-0.55,1.87-0.55c0.209,0,0.413,0.015,0.607,0.043
			C29.853,254.699,30.045,254.739,30.237,254.798 M28.078,260.058c-0.627,0-1.09,0.08-1.385,0.254
			c-0.21,0.123-0.308,0.304-0.308,0.548c0,0.213,0.087,0.372,0.268,0.484c0.258,0.155,0.646,0.235,1.171,0.235
			c0.62,0,1.072-0.093,1.359-0.274c0.288-0.178,0.441-0.389,0.441-0.624c0-0.191-0.105-0.348-0.312-0.457
			C29.11,260.108,28.701,260.058,28.078,260.058 M29.14,255.055c-0.333,0-0.619,0.151-0.859,0.452
			c-0.235,0.306-0.355,0.718-0.355,1.236c0,0.321,0.073,0.568,0.215,0.721c0.141,0.152,0.341,0.232,0.602,0.232
			c0.322,0,0.579-0.131,0.783-0.396c0.257-0.341,0.387-0.765,0.387-1.268c0-0.337-0.069-0.583-0.199-0.743
			C29.574,255.135,29.386,255.055,29.14,255.055"/>
		<path fill="#717175" d="M35.327,254.802l-0.865,3.199c-0.102,0.377-0.156,0.65-0.156,0.825c0,0.156,0.033,0.268,0.098,0.348
			c0.063,0.073,0.149,0.109,0.265,0.109c0.286,0,0.63-0.229,1.04-0.688c0.406-0.464,0.738-1.146,0.995-2.048l0.476-1.648h1.392
			l-1.084,3.818c-0.051,0.175-0.08,0.305-0.08,0.392c0,0.069,0.015,0.124,0.04,0.153c0.022,0.036,0.059,0.051,0.105,0.051
			c0.29,0,0.659-0.414,1.113-1.244l0.397,0.179c-0.33,0.67-0.667,1.141-1.017,1.404c-0.341,0.273-0.703,0.406-1.081,0.406
			c-0.278,0-0.495-0.08-0.645-0.231c-0.149-0.152-0.225-0.377-0.225-0.67v-0.315c-0.645,0.783-1.362,1.181-2.147,1.181
			c-0.324,0-0.573-0.097-0.754-0.29c-0.179-0.191-0.265-0.448-0.265-0.774c0-0.297,0.057-0.674,0.185-1.127l0.533-2.014
			c0.013-0.04,0.021-0.077,0.021-0.116c0-0.099-0.035-0.174-0.111-0.229c-0.073-0.062-0.2-0.091-0.378-0.091h-0.232l0.109-0.482
			L35.327,254.802z"/>
		<path fill="#717175" d="M40.567,254.907l2.082-0.109l-0.512,2.281c0.349-0.847,0.667-1.427,0.953-1.724
			c0.402-0.413,0.863-0.619,1.374-0.619c0.297,0,0.532,0.083,0.706,0.249c0.178,0.164,0.265,0.377,0.265,0.638
			c0,0.254-0.073,0.465-0.225,0.638c-0.156,0.164-0.325,0.25-0.529,0.25c-0.174,0-0.317-0.057-0.441-0.174
			c-0.116-0.112-0.182-0.257-0.182-0.42c0-0.09,0.018-0.192,0.051-0.315c0.011-0.036,0.015-0.065,0.015-0.086
			c0-0.036-0.015-0.073-0.048-0.105c-0.032-0.033-0.076-0.048-0.122-0.048c-0.142,0-0.312,0.08-0.501,0.225
			c-0.191,0.146-0.412,0.468-0.659,0.957c-0.337,0.674-0.598,1.354-0.789,2.04l-0.359,1.318l-1.419,0.063l0.749-2.816
			c0.147-0.525,0.221-0.938,0.221-1.242c0-0.218-0.046-0.355-0.145-0.435c-0.098-0.072-0.308-0.109-0.619-0.109L40.567,254.907z"/>
		<path fill="#717175" d="M46.212,254.898l2.387-0.097l-1.073,3.966c-0.051,0.171-0.075,0.298-0.075,0.378
			c0,0.062,0.015,0.108,0.039,0.144c0.025,0.029,0.062,0.049,0.105,0.049c0.098,0,0.217-0.076,0.373-0.229
			c0.254-0.253,0.505-0.608,0.743-1.071l0.391,0.225c-0.648,1.195-1.359,1.796-2.137,1.796c-0.261,0-0.471-0.08-0.62-0.242
			c-0.151-0.16-0.231-0.377-0.231-0.656c0-0.188,0.021-0.369,0.069-0.543l0.734-2.762c0.019-0.042,0.029-0.093,0.029-0.147
			c0-0.099-0.044-0.177-0.124-0.235c-0.082-0.059-0.221-0.087-0.419-0.087h-0.341L46.212,254.898z M48.132,252.016
			c0.242,0,0.448,0.086,0.618,0.253c0.171,0.174,0.258,0.381,0.258,0.623c0,0.239-0.087,0.449-0.258,0.616
			c-0.17,0.174-0.376,0.261-0.618,0.261c-0.243,0-0.446-0.087-0.621-0.261c-0.17-0.167-0.253-0.377-0.253-0.616
			c0-0.242,0.083-0.449,0.253-0.623C47.686,252.102,47.889,252.016,48.132,252.016"/>
		<path fill="#717175" d="M54.218,252.026l2.348-0.102l-1.819,6.931c-0.029,0.107-0.039,0.188-0.039,0.253s0.01,0.12,0.039,0.153
			c0.036,0.027,0.076,0.051,0.131,0.051c0.278,0,0.667-0.432,1.166-1.29l0.388,0.21c-0.318,0.63-0.666,1.095-1.038,1.388
			c-0.374,0.29-0.74,0.438-1.095,0.438c-0.265,0-0.469-0.08-0.62-0.231c-0.148-0.156-0.246-0.388-0.293-0.695
			c-0.309,0.34-0.594,0.583-0.854,0.721c-0.27,0.134-0.552,0.206-0.838,0.206c-0.515,0-0.942-0.181-1.279-0.543
			c-0.341-0.366-0.511-0.84-0.511-1.421c0-0.579,0.148-1.158,0.439-1.738c0.292-0.583,0.647-1.015,1.061-1.297
			c0.414-0.282,0.856-0.428,1.326-0.428c0.341,0,0.631,0.072,0.873,0.218c0.239,0.137,0.449,0.361,0.616,0.663l0.692-2.555
			c0.014-0.058,0.021-0.105,0.021-0.156c0-0.082-0.04-0.151-0.124-0.21c-0.086-0.054-0.235-0.083-0.448-0.083h-0.282L54.218,252.026
			z M53.21,255.305c-0.246,0-0.47,0.091-0.667,0.268c-0.282,0.246-0.535,0.648-0.756,1.2c-0.229,0.551-0.341,1.079-0.341,1.58
			c0,0.337,0.069,0.59,0.195,0.756c0.131,0.16,0.306,0.246,0.515,0.246c0.271,0,0.54-0.137,0.801-0.404
			c0.322-0.341,0.583-0.846,0.771-1.511c0.145-0.504,0.214-0.918,0.214-1.251c0-0.279-0.065-0.496-0.203-0.652
			C53.608,255.385,53.432,255.305,53.21,255.305"/>
		<path fill="#717175" d="M61.5,255.667l0.29-0.772l1.366-0.101l-1.059,3.808c-0.073,0.261-0.108,0.425-0.108,0.496
			c0,0.051,0.015,0.091,0.035,0.12c0.022,0.029,0.059,0.044,0.105,0.044c0.261,0,0.605-0.414,1.026-1.239l0.402,0.217
			c-0.621,1.21-1.305,1.818-2.04,1.818c-0.25,0-0.449-0.08-0.588-0.231c-0.142-0.156-0.222-0.388-0.245-0.688
			c-0.269,0.337-0.53,0.576-0.783,0.714c-0.254,0.134-0.525,0.206-0.808,0.206c-0.482,0-0.884-0.177-1.199-0.528
			c-0.316-0.348-0.472-0.825-0.472-1.436c0-0.579,0.139-1.137,0.421-1.673c0.286-0.529,0.645-0.941,1.09-1.24
			c0.442-0.297,0.895-0.444,1.362-0.444c0.319,0,0.576,0.076,0.768,0.221C61.265,255.109,61.405,255.345,61.5,255.667
			 M60.605,255.377c-0.432,0-0.822,0.305-1.163,0.913c-0.348,0.608-0.522,1.305-0.522,2.088c0,0.364,0.055,0.623,0.163,0.774
			c0.112,0.151,0.269,0.225,0.471,0.225c0.219,0,0.45-0.108,0.696-0.326c0.246-0.217,0.468-0.583,0.659-1.098
			c0.191-0.514,0.29-1.058,0.29-1.638c0-0.344-0.055-0.587-0.155-0.725C60.938,255.45,60.789,255.377,60.605,255.377"/>
		<path fill="#717175" d="M68.764,252.026l2.352-0.102l-1.819,6.931c-0.025,0.107-0.04,0.188-0.04,0.253s0.015,0.12,0.04,0.153
			c0.038,0.027,0.077,0.051,0.131,0.051c0.282,0,0.671-0.432,1.166-1.29l0.385,0.21c-0.318,0.63-0.663,1.095-1.033,1.388
			c-0.377,0.29-0.741,0.438-1.101,0.438c-0.261,0-0.468-0.08-0.615-0.231c-0.149-0.156-0.248-0.388-0.29-0.695
			c-0.309,0.34-0.594,0.583-0.863,0.721c-0.268,0.134-0.543,0.206-0.833,0.206c-0.518,0-0.942-0.181-1.278-0.543
			c-0.341-0.366-0.508-0.84-0.508-1.421c0-0.579,0.145-1.158,0.435-1.738c0.297-0.583,0.648-1.015,1.065-1.297
			c0.408-0.282,0.848-0.428,1.322-0.428c0.341,0,0.631,0.072,0.873,0.218c0.235,0.137,0.45,0.361,0.616,0.663l0.696-2.555
			c0.011-0.058,0.018-0.105,0.018-0.156c0-0.082-0.04-0.151-0.124-0.21c-0.082-0.054-0.234-0.083-0.448-0.083h-0.286L68.764,252.026
			z M67.764,255.305c-0.246,0-0.467,0.091-0.669,0.268c-0.284,0.246-0.537,0.648-0.758,1.2c-0.226,0.551-0.341,1.079-0.341,1.58
			c0,0.337,0.069,0.59,0.195,0.756c0.131,0.16,0.301,0.246,0.514,0.246c0.272,0,0.541-0.137,0.798-0.404
			c0.33-0.341,0.587-0.846,0.779-1.511c0.141-0.504,0.21-0.918,0.21-1.251c0-0.279-0.065-0.496-0.202-0.652
			C68.159,255.385,67.98,255.305,67.764,255.305"/>
		<path fill="#717175" d="M76.688,253.186h1.397l-0.455,1.713h1.102l-0.164,0.555h-1.091l-0.873,3.268
			c-0.027,0.099-0.047,0.192-0.047,0.28c0,0.107,0.021,0.188,0.065,0.238c0.044,0.059,0.098,0.079,0.175,0.079
			c0.278,0,0.69-0.412,1.238-1.239l0.389,0.246c-0.352,0.596-0.722,1.033-1.109,1.313c-0.388,0.278-0.758,0.419-1.113,0.419
			c-0.315,0-0.56-0.087-0.738-0.264c-0.182-0.179-0.271-0.402-0.271-0.686c0-0.213,0.031-0.448,0.099-0.705l0.789-2.95h-1.019
			l0.167-0.555h0.997L76.688,253.186z"/>
		<path fill="#717175" d="M82.423,254.638c0.685,0,1.242,0.211,1.678,0.631c0.434,0.42,0.644,0.96,0.644,1.608
			c0,0.819-0.29,1.554-0.873,2.203c-0.586,0.651-1.35,0.978-2.307,0.978c-0.696,0-1.259-0.209-1.688-0.63
			c-0.428-0.421-0.646-0.96-0.646-1.616c0-0.564,0.145-1.094,0.439-1.602c0.284-0.503,0.665-0.891,1.145-1.166
			C81.288,254.772,81.825,254.638,82.423,254.638 M82.474,255.084c-0.276,0-0.522,0.12-0.746,0.358
			c-0.305,0.326-0.559,0.826-0.755,1.507c-0.191,0.675-0.289,1.222-0.289,1.631c0,0.322,0.076,0.572,0.229,0.747
			c0.155,0.17,0.361,0.253,0.612,0.253c0.242,0,0.456-0.08,0.642-0.253c0.268-0.255,0.528-0.718,0.768-1.377
			c0.242-0.664,0.362-1.275,0.362-1.848c0-0.326-0.077-0.572-0.231-0.747C82.907,255.175,82.713,255.084,82.474,255.084"/>
		<path fill="#717175" d="M87.39,253.186h1.399l-0.458,1.713h1.108l-0.166,0.555h-1.09l-0.878,3.268
			c-0.025,0.099-0.042,0.192-0.042,0.28c0,0.107,0.025,0.188,0.064,0.238c0.039,0.059,0.102,0.079,0.17,0.079
			c0.283,0,0.696-0.412,1.239-1.239l0.387,0.246c-0.347,0.596-0.716,1.033-1.104,1.313c-0.388,0.278-0.756,0.419-1.115,0.419
			c-0.308,0-0.559-0.087-0.739-0.264c-0.181-0.179-0.271-0.402-0.271-0.686c0-0.213,0.036-0.448,0.101-0.705l0.794-2.95h-1.021
			l0.167-0.555h1L87.39,253.186z"/>
		<path fill="#717175" d="M94.331,255.667l0.29-0.772l1.362-0.101l-1.058,3.808c-0.068,0.261-0.108,0.425-0.108,0.496
			c0,0.051,0.015,0.091,0.035,0.12c0.023,0.029,0.058,0.044,0.102,0.044c0.265,0,0.608-0.414,1.029-1.239l0.402,0.217
			c-0.619,1.21-1.301,1.818-2.04,1.818c-0.253,0-0.45-0.08-0.587-0.231c-0.138-0.156-0.226-0.388-0.242-0.688
			c-0.271,0.337-0.533,0.576-0.787,0.714c-0.253,0.134-0.521,0.206-0.804,0.206c-0.485,0-0.885-0.177-1.2-0.528
			c-0.317-0.348-0.474-0.825-0.474-1.436c0-0.579,0.137-1.137,0.424-1.673c0.279-0.529,0.642-0.941,1.087-1.24
			c0.438-0.297,0.895-0.444,1.358-0.444c0.322,0,0.58,0.076,0.772,0.221C94.089,255.109,94.234,255.345,94.331,255.667
			 M93.433,255.377c-0.432,0-0.819,0.305-1.166,0.913c-0.341,0.608-0.519,1.305-0.519,2.088c0,0.364,0.055,0.623,0.167,0.774
			c0.109,0.151,0.265,0.225,0.467,0.225c0.217,0,0.449-0.108,0.696-0.326c0.245-0.217,0.464-0.583,0.655-1.098
			c0.191-0.514,0.293-1.058,0.297-1.638c0-0.344-0.058-0.587-0.162-0.725C93.77,255.45,93.621,255.377,93.433,255.377"/>
		<path fill="#717175" d="M98.451,252.026l2.402-0.102l-1.816,6.739c-0.053,0.206-0.087,0.352-0.087,0.441
			c0,0.062,0.015,0.112,0.036,0.145c0.025,0.033,0.055,0.048,0.102,0.048c0.095,0,0.203-0.059,0.322-0.175
			c0.25-0.238,0.504-0.587,0.77-1.044l0.404,0.211c-0.322,0.623-0.67,1.072-1.039,1.354c-0.366,0.276-0.729,0.413-1.083,0.413
			c-0.265,0-0.479-0.08-0.627-0.231c-0.155-0.156-0.229-0.377-0.229-0.652c0-0.242,0.033-0.493,0.103-0.746l1.43-5.362
			c0.029-0.104,0.044-0.195,0.044-0.275c0-0.101-0.044-0.173-0.127-0.231c-0.088-0.059-0.246-0.087-0.481-0.087h-0.266
			L98.451,252.026z"/>
		<path fill="#717175" d="M106.212,257.938c-0.015,0.134-0.023,0.246-0.023,0.334c0,0.377,0.095,0.666,0.276,0.869
			c0.185,0.198,0.431,0.301,0.738,0.301c0.259,0,0.516-0.059,0.765-0.185c0.25-0.12,0.559-0.373,0.917-0.739l0.362,0.275
			c-0.42,0.46-0.825,0.786-1.225,0.975c-0.402,0.192-0.83,0.289-1.293,0.289c-0.652,0-1.164-0.188-1.536-0.564
			c-0.377-0.37-0.568-0.884-0.568-1.521c0-0.572,0.158-1.124,0.474-1.646c0.308-0.524,0.739-0.935,1.279-1.238
			c0.539-0.301,1.124-0.45,1.749-0.45c0.457,0,0.815,0.109,1.063,0.326c0.253,0.226,0.381,0.501,0.381,0.838
			c0,0.278-0.106,0.562-0.305,0.844c-0.204,0.282-0.528,0.528-0.982,0.735C107.826,257.587,107.134,257.771,106.212,257.938
			 M106.272,257.489c0.606-0.115,1.051-0.305,1.326-0.562c0.381-0.358,0.568-0.76,0.568-1.206c0-0.186-0.042-0.33-0.126-0.436
			c-0.087-0.105-0.196-0.155-0.334-0.155c-0.26,0-0.504,0.155-0.735,0.471C106.639,256.059,106.407,256.688,106.272,257.489"/>
		<path fill="#717175" d="M116.485,258.012l0.431,0.133c-0.261,0.646-0.564,1.117-0.911,1.421c-0.35,0.297-0.707,0.449-1.066,0.449
			c-0.308,0-0.544-0.088-0.714-0.25c-0.171-0.164-0.253-0.388-0.253-0.667c0-0.25,0.08-0.648,0.235-1.195
			c0.231-0.814,0.366-1.318,0.406-1.507c0.04-0.192,0.062-0.345,0.062-0.461c0-0.133-0.036-0.238-0.099-0.312
			c-0.058-0.072-0.142-0.111-0.238-0.111c-0.175,0-0.359,0.075-0.552,0.221c-0.328,0.231-0.638,0.587-0.924,1.059
			c-0.293,0.474-0.507,0.955-0.656,1.456l-0.459,1.652l-1.406,0.051l1.099-4.117c0.007-0.039,0.014-0.079,0.014-0.115
			c0-0.109-0.036-0.186-0.112-0.238c-0.076-0.059-0.221-0.084-0.427-0.084h-0.287l0.08-0.497l2.297-0.101l-0.409,1.731
			c0.786-1.195,1.558-1.797,2.304-1.797c0.341,0,0.62,0.107,0.837,0.318c0.217,0.21,0.323,0.476,0.323,0.797
			c0,0.255-0.048,0.566-0.146,0.929l-0.489,1.818c-0.086,0.286-0.134,0.463-0.134,0.543c0,0.051,0.012,0.095,0.039,0.12
			c0.029,0.029,0.067,0.04,0.117,0.04c0.119,0,0.249-0.065,0.384-0.211C116.055,258.841,116.276,258.482,116.485,258.012"/>
		<path fill="#717175" d="M126.935,252.664l0.608-0.486h0.465l-0.608,2.721h-0.465c-0.018-0.642-0.102-1.137-0.257-1.485
			c-0.152-0.348-0.384-0.615-0.674-0.804c-0.29-0.196-0.62-0.29-0.989-0.29c-0.478,0-0.858,0.123-1.148,0.389
			c-0.293,0.257-0.438,0.579-0.438,0.966c0,0.297,0.091,0.533,0.271,0.703c0.182,0.166,0.729,0.425,1.634,0.762
			c0.605,0.228,1.029,0.434,1.272,0.623c0.238,0.184,0.424,0.419,0.554,0.692c0.123,0.274,0.196,0.586,0.196,0.931
			c0,0.496-0.127,0.949-0.377,1.354c-0.246,0.409-0.61,0.731-1.076,0.964c-0.465,0.236-1.012,0.354-1.631,0.354
			c-0.492,0-0.917-0.067-1.281-0.202c-0.37-0.127-0.736-0.348-1.103-0.659l-0.442,0.488h-0.492l0.62-2.829h0.466
			c0.004,0.651,0.091,1.167,0.27,1.528c0.17,0.37,0.423,0.652,0.76,0.855c0.341,0.199,0.729,0.297,1.178,0.297
			c0.533,0,0.964-0.145,1.301-0.431c0.333-0.294,0.5-0.642,0.5-1.052c0-0.337-0.127-0.608-0.377-0.811
			c-0.138-0.113-0.63-0.337-1.474-0.678c-0.661-0.254-1.099-0.471-1.323-0.638c-0.224-0.17-0.395-0.385-0.515-0.638
			c-0.119-0.254-0.177-0.554-0.177-0.905c0-0.74,0.249-1.349,0.745-1.826c0.497-0.482,1.139-0.722,1.932-0.722
			c0.392,0,0.754,0.063,1.084,0.193C126.271,252.16,126.605,252.369,126.935,252.664"/>
		<path fill="#717175" d="M129.944,257.938c-0.011,0.134-0.021,0.246-0.021,0.334c0,0.377,0.095,0.666,0.275,0.869
			c0.188,0.198,0.436,0.301,0.747,0.301c0.253,0,0.512-0.059,0.757-0.185c0.254-0.12,0.559-0.373,0.921-0.739l0.358,0.275
			c-0.413,0.46-0.821,0.786-1.221,0.975c-0.398,0.192-0.83,0.289-1.295,0.289c-0.65,0-1.168-0.188-1.538-0.564
			c-0.377-0.37-0.563-0.884-0.563-1.521c0-0.572,0.156-1.124,0.468-1.646c0.308-0.524,0.738-0.935,1.279-1.238
			c0.543-0.301,1.126-0.45,1.753-0.45c0.457,0,0.811,0.109,1.065,0.326c0.25,0.226,0.377,0.501,0.377,0.838
			c0,0.278-0.102,0.562-0.304,0.844c-0.208,0.282-0.53,0.528-0.982,0.735C131.564,257.587,130.872,257.771,129.944,257.938
			 M130.011,257.489c0.601-0.115,1.051-0.305,1.326-0.562c0.377-0.358,0.568-0.76,0.568-1.206c0-0.186-0.044-0.33-0.126-0.436
			c-0.091-0.105-0.2-0.155-0.335-0.155c-0.261,0-0.503,0.155-0.734,0.471C130.38,256.059,130.145,256.688,130.011,257.489"/>
		<path fill="#717175" d="M134.627,254.907l2.086-0.109l-0.512,2.281c0.349-0.847,0.667-1.427,0.953-1.724
			c0.399-0.413,0.859-0.619,1.37-0.619c0.297,0,0.532,0.083,0.71,0.249c0.174,0.164,0.265,0.377,0.265,0.638
			c0,0.254-0.076,0.465-0.228,0.638c-0.157,0.164-0.327,0.25-0.526,0.25c-0.177,0-0.317-0.057-0.445-0.174
			c-0.116-0.112-0.182-0.257-0.182-0.42c0-0.09,0.019-0.192,0.051-0.315c0.011-0.036,0.019-0.065,0.019-0.086
			c0-0.036-0.019-0.073-0.051-0.105c-0.033-0.033-0.073-0.048-0.119-0.048c-0.142,0-0.312,0.08-0.501,0.225
			c-0.191,0.146-0.415,0.468-0.663,0.957c-0.337,0.674-0.598,1.354-0.785,2.04l-0.362,1.318l-1.416,0.063l0.749-2.816
			c0.146-0.525,0.217-0.938,0.217-1.242c0-0.218-0.046-0.355-0.145-0.435c-0.098-0.072-0.308-0.109-0.619-0.109L134.627,254.907z"/>
		<path fill="#717175" d="M139.828,255.392l0.148-0.497l2.298-0.101l-0.663,2.395c-0.159,0.592-0.239,1.059-0.239,1.413
			c0,0.258,0.072,0.464,0.221,0.616c0.142,0.151,0.322,0.231,0.537,0.231c0.286,0,0.594-0.131,0.931-0.384
			c0.337-0.254,0.631-0.635,0.884-1.134c0.257-0.501,0.388-0.96,0.388-1.381c0-0.13-0.021-0.231-0.058-0.318
			c-0.04-0.083-0.116-0.167-0.229-0.261c-0.188-0.163-0.311-0.29-0.361-0.377c-0.051-0.092-0.076-0.188-0.076-0.298
			c0-0.144,0.058-0.274,0.175-0.39c0.119-0.113,0.261-0.171,0.434-0.171c0.221,0,0.399,0.091,0.547,0.278
			c0.146,0.181,0.222,0.438,0.222,0.769c0,0.598-0.146,1.243-0.432,1.938c-0.286,0.691-0.678,1.256-1.173,1.685
			c-0.49,0.435-1.055,0.651-1.682,0.651c-0.528,0-0.942-0.147-1.246-0.438c-0.301-0.293-0.45-0.685-0.45-1.178
			c0-0.275,0.047-0.595,0.149-0.961l0.428-1.619c0.021-0.05,0.029-0.104,0.029-0.159c0-0.098-0.044-0.173-0.12-0.231
			c-0.084-0.051-0.215-0.08-0.399-0.08H139.828z"/>
		<path fill="#717175" d="M146.335,254.898l2.389-0.097l-1.069,3.966c-0.051,0.171-0.073,0.298-0.073,0.378
			c0,0.062,0.011,0.108,0.033,0.144c0.029,0.029,0.062,0.049,0.105,0.049c0.102,0,0.224-0.076,0.377-0.229
			c0.253-0.253,0.503-0.608,0.747-1.071l0.387,0.225c-0.648,1.195-1.361,1.796-2.134,1.796c-0.265,0-0.476-0.08-0.627-0.242
			c-0.151-0.16-0.228-0.377-0.228-0.656c0-0.188,0.023-0.369,0.067-0.543l0.736-2.762c0.018-0.042,0.025-0.093,0.025-0.147
			c0-0.099-0.04-0.177-0.124-0.235c-0.079-0.059-0.217-0.087-0.42-0.087h-0.336L146.335,254.898z M148.259,252.016
			c0.244,0,0.446,0.086,0.616,0.253c0.174,0.174,0.257,0.381,0.257,0.623c0,0.239-0.083,0.449-0.257,0.616
			c-0.17,0.174-0.372,0.261-0.616,0.261c-0.238,0-0.448-0.087-0.619-0.261c-0.17-0.167-0.257-0.377-0.257-0.616
			c0-0.242,0.087-0.449,0.257-0.623C147.811,252.102,148.021,252.016,148.259,252.016"/>
		<path fill="#717175" d="M154.357,258.489l0.365,0.29c-0.341,0.417-0.721,0.731-1.152,0.952c-0.427,0.215-0.877,0.326-1.336,0.326
			c-0.642,0-1.153-0.195-1.54-0.572c-0.384-0.38-0.573-0.884-0.573-1.511c0-0.571,0.152-1.123,0.453-1.655
			c0.305-0.536,0.703-0.949,1.188-1.243c0.486-0.293,1.011-0.438,1.568-0.438c0.532,0,0.949,0.116,1.239,0.362
			c0.286,0.246,0.435,0.558,0.435,0.935c0,0.279-0.075,0.505-0.234,0.675c-0.16,0.167-0.352,0.253-0.583,0.253
			c-0.219,0-0.392-0.065-0.526-0.188c-0.137-0.131-0.206-0.286-0.206-0.479c0-0.13,0.032-0.242,0.101-0.333
			c0.065-0.086,0.226-0.195,0.475-0.332c0.084-0.04,0.124-0.08,0.124-0.124c0-0.065-0.047-0.124-0.146-0.182
			c-0.131-0.075-0.293-0.115-0.484-0.115c-0.465,0-0.863,0.239-1.2,0.714c-0.42,0.604-0.635,1.365-0.635,2.289
			c0,0.438,0.095,0.772,0.288,0.989c0.191,0.217,0.438,0.326,0.745,0.326C153.259,259.428,153.799,259.116,154.357,258.489"/>
		<path fill="#717175" d="M156.443,254.898l2.385-0.097l-1.069,3.966c-0.051,0.171-0.075,0.298-0.075,0.378
			c0,0.062,0.006,0.108,0.035,0.144c0.025,0.029,0.058,0.049,0.105,0.049c0.098,0,0.221-0.076,0.373-0.229
			c0.254-0.253,0.5-0.608,0.747-1.071l0.387,0.225c-0.645,1.195-1.357,1.796-2.134,1.796c-0.261,0-0.472-0.08-0.627-0.242
			c-0.152-0.16-0.224-0.377-0.224-0.656c0-0.188,0.021-0.369,0.063-0.543l0.736-2.762c0.021-0.042,0.033-0.093,0.033-0.147
			c0-0.099-0.048-0.177-0.128-0.235c-0.082-0.059-0.221-0.087-0.42-0.087h-0.34L156.443,254.898z M158.359,252.016
			c0.244,0,0.45,0.086,0.624,0.253c0.167,0.174,0.253,0.381,0.253,0.623c0,0.239-0.086,0.449-0.253,0.616
			c-0.174,0.174-0.38,0.261-0.624,0.261c-0.242,0-0.444-0.087-0.619-0.261c-0.17-0.167-0.257-0.377-0.257-0.616
			c0-0.242,0.087-0.449,0.257-0.623C157.915,252.102,158.117,252.016,158.359,252.016"/>
		<path fill="#717175" d="M163.255,254.638c0.688,0,1.247,0.211,1.677,0.631c0.432,0.42,0.646,0.96,0.646,1.608
			c0,0.819-0.295,1.554-0.878,2.203c-0.583,0.651-1.347,0.978-2.305,0.978c-0.694,0-1.257-0.209-1.688-0.63
			c-0.428-0.421-0.645-0.96-0.645-1.616c0-0.564,0.144-1.094,0.438-1.602c0.286-0.503,0.669-0.891,1.145-1.166
			C162.122,254.772,162.661,254.638,163.255,254.638 M163.305,255.084c-0.275,0-0.524,0.12-0.745,0.358
			c-0.305,0.326-0.558,0.826-0.754,1.507c-0.195,0.675-0.29,1.222-0.29,1.631c0,0.322,0.076,0.572,0.231,0.747
			c0.153,0.17,0.355,0.253,0.608,0.253c0.244,0,0.457-0.08,0.643-0.253c0.271-0.255,0.524-0.718,0.768-1.377
			c0.242-0.664,0.362-1.275,0.362-1.848c0-0.326-0.076-0.572-0.231-0.747C163.743,255.175,163.545,255.084,163.305,255.084"/>
		<path fill="#717175" d="M166.78,256.481c0-0.524,0.217-0.964,0.647-1.315c0.429-0.354,1.008-0.535,1.736-0.535
			c0.598,0,1.047,0.116,1.355,0.34c0.308,0.221,0.455,0.501,0.455,0.823c0,0.214-0.062,0.387-0.191,0.521
			c-0.127,0.131-0.286,0.199-0.484,0.199c-0.186,0-0.339-0.059-0.453-0.174c-0.124-0.12-0.185-0.265-0.185-0.435
			c0-0.108,0.042-0.243,0.133-0.399c0.044-0.071,0.063-0.13,0.063-0.158c0-0.073-0.048-0.143-0.142-0.199
			c-0.094-0.062-0.254-0.088-0.464-0.088c-0.348,0-0.63,0.092-0.851,0.272c-0.215,0.184-0.326,0.391-0.326,0.63
			c0,0.151,0.05,0.271,0.151,0.355c0.102,0.087,0.442,0.231,1.021,0.434c0.431,0.149,0.729,0.284,0.884,0.396
			c0.163,0.112,0.29,0.257,0.378,0.438c0.087,0.181,0.133,0.377,0.133,0.591c0,0.337-0.093,0.648-0.282,0.938
			c-0.188,0.29-0.463,0.519-0.825,0.688c-0.363,0.166-0.802,0.253-1.319,0.253c-0.707,0-1.239-0.126-1.594-0.373
			c-0.352-0.25-0.525-0.568-0.525-0.953c0-0.235,0.067-0.427,0.213-0.583c0.146-0.151,0.326-0.228,0.536-0.228
			c0.182,0,0.337,0.058,0.457,0.173c0.12,0.12,0.181,0.27,0.181,0.457c0,0.141-0.064,0.297-0.198,0.465
			c-0.059,0.071-0.095,0.13-0.095,0.173c0,0.099,0.072,0.185,0.196,0.261c0.17,0.099,0.397,0.149,0.694,0.149
			c0.377,0,0.682-0.091,0.905-0.275c0.226-0.182,0.341-0.402,0.341-0.659c0-0.146-0.05-0.271-0.147-0.37
			c-0.103-0.102-0.326-0.207-0.678-0.322c-0.753-0.24-1.225-0.465-1.42-0.66C166.878,257.108,166.78,256.833,166.78,256.481"/>
		<path fill="#717175" d="M175.939,252.026h3.731c1.061,0,1.873,0.279,2.435,0.833c0.568,0.562,0.851,1.337,0.851,2.33
			c0,0.644-0.122,1.281-0.368,1.904c-0.247,0.628-0.566,1.135-0.943,1.522c-0.38,0.391-0.869,0.702-1.467,0.935
			c-0.598,0.231-1.271,0.352-2.014,0.352h-3.936l0.135-0.496h0.438c0.301,0,0.49-0.167,0.583-0.5l1.58-5.941
			c0.019-0.04,0.025-0.084,0.025-0.131c0-0.095-0.042-0.17-0.126-0.225c-0.08-0.051-0.236-0.08-0.465-0.08h-0.615L175.939,252.026z
			 M178.084,259.406c0.402,0,0.778-0.098,1.141-0.298c0.362-0.202,0.674-0.484,0.946-0.861c0.268-0.374,0.51-0.913,0.71-1.609
			c0.202-0.703,0.308-1.377,0.308-2.015c0-0.688-0.167-1.225-0.493-1.607c-0.279-0.326-0.717-0.493-1.307-0.493
			c-0.27,0-0.45,0.029-0.543,0.087c-0.091,0.059-0.16,0.159-0.208,0.312l-1.601,6c-0.016,0.055-0.019,0.101-0.019,0.145
			c0,0.112,0.025,0.188,0.087,0.238c0.084,0.069,0.199,0.103,0.355,0.103H178.084z"/>
		<path fill="#717175" d="M186.982,254.638c0.684,0,1.242,0.211,1.673,0.631c0.436,0.42,0.648,0.96,0.648,1.608
			c0,0.819-0.29,1.554-0.873,2.203c-0.586,0.651-1.352,0.978-2.308,0.978c-0.691,0-1.261-0.209-1.689-0.63
			c-0.426-0.421-0.644-0.96-0.644-1.616c0-0.564,0.145-1.094,0.435-1.602c0.289-0.503,0.67-0.891,1.146-1.166
			C185.848,254.772,186.385,254.638,186.982,254.638 M187.028,255.084c-0.271,0-0.521,0.12-0.742,0.358
			c-0.305,0.326-0.558,0.826-0.754,1.507c-0.191,0.675-0.289,1.222-0.289,1.631c0,0.322,0.072,0.572,0.228,0.747
			c0.156,0.17,0.358,0.253,0.613,0.253c0.242,0,0.452-0.08,0.64-0.253c0.27-0.255,0.53-0.718,0.77-1.377
			c0.238-0.664,0.362-1.275,0.362-1.848c0-0.326-0.08-0.572-0.231-0.747C187.467,255.175,187.269,255.084,187.028,255.084"/>
		<path fill="#717175" d="M195.502,256.13c0.324-0.478,0.667-0.825,1.026-1.054c0.366-0.224,0.721-0.34,1.072-0.34
			c0.349,0,0.623,0.091,0.814,0.278c0.197,0.181,0.294,0.428,0.294,0.743c0,0.235-0.033,0.488-0.108,0.764l-0.615,2.33
			c-0.015,0.055-0.025,0.111-0.025,0.166c0,0.128,0.054,0.186,0.151,0.186c0.242,0,0.608-0.384,1.095-1.149l0.394,0.244
			c-0.662,1.141-1.368,1.709-2.126,1.709c-0.279,0-0.488-0.08-0.646-0.235c-0.151-0.156-0.228-0.38-0.228-0.678
			c0-0.144,0.019-0.293,0.058-0.448l0.521-1.949c0.095-0.359,0.146-0.623,0.146-0.79c0-0.13-0.036-0.235-0.105-0.315
			c-0.063-0.084-0.151-0.119-0.257-0.119c-0.162,0-0.337,0.064-0.521,0.202c-0.262,0.188-0.508,0.494-0.75,0.913
			c-0.242,0.421-0.434,0.902-0.591,1.436l-0.535,1.877l-1.403,0.04l0.896-3.353c0.062-0.224,0.091-0.428,0.091-0.63
			c0-0.155-0.04-0.283-0.105-0.366c-0.069-0.09-0.159-0.134-0.269-0.134c-0.261,0-0.579,0.21-0.949,0.623
			c-0.369,0.412-0.655,1.01-0.865,1.782l-0.537,2.037l-1.412,0.04l1.069-4.019c0.021-0.077,0.031-0.148,0.031-0.21
			c0-0.105-0.039-0.189-0.126-0.243c-0.084-0.062-0.235-0.091-0.461-0.091h-0.238l0.142-0.479l2.25-0.104l-0.341,1.305
			c0.412-0.522,0.778-0.88,1.108-1.073c0.329-0.191,0.659-0.289,0.996-0.289c0.341,0,0.608,0.091,0.804,0.278
			c0.193,0.181,0.29,0.428,0.29,0.739C195.535,255.842,195.525,255.968,195.502,256.13"/>
		<path fill="#717175" d="M201.967,257.938c-0.016,0.134-0.022,0.246-0.022,0.337c0,0.374,0.095,0.663,0.279,0.866
			c0.186,0.198,0.431,0.301,0.739,0.301c0.261,0,0.514-0.059,0.765-0.185c0.25-0.124,0.558-0.373,0.92-0.739l0.359,0.275
			c-0.417,0.46-0.827,0.786-1.226,0.975c-0.397,0.196-0.829,0.289-1.29,0.289c-0.654,0-1.17-0.188-1.543-0.564
			c-0.374-0.37-0.562-0.884-0.562-1.521c0-0.572,0.156-1.12,0.468-1.646c0.315-0.522,0.742-0.935,1.281-1.238
			c0.545-0.301,1.124-0.45,1.751-0.45c0.457,0,0.813,0.109,1.062,0.326c0.254,0.226,0.385,0.501,0.385,0.838
			c0,0.278-0.105,0.562-0.31,0.844c-0.198,0.282-0.528,0.528-0.984,0.735C203.586,257.587,202.894,257.771,201.967,257.938
			 M202.031,257.489c0.609-0.115,1.052-0.305,1.326-0.562c0.38-0.358,0.572-0.76,0.572-1.206c0-0.186-0.047-0.33-0.134-0.436
			c-0.088-0.105-0.195-0.155-0.326-0.155c-0.265,0-0.507,0.155-0.735,0.471C202.401,256.059,202.17,256.688,202.031,257.489
			 M203.018,254.021l-0.164-0.137l0.707-1.007c0.238-0.345,0.432-0.565,0.572-0.671c0.138-0.105,0.286-0.155,0.436-0.155
			c0.173,0,0.322,0.058,0.444,0.181c0.12,0.111,0.182,0.25,0.182,0.406c0,0.253-0.2,0.471-0.598,0.652L203.018,254.021z"/>
		<path fill="#717175" d="M206.467,256.481c0-0.524,0.213-0.964,0.645-1.315c0.427-0.354,1.011-0.535,1.738-0.535
			c0.594,0,1.047,0.116,1.352,0.34c0.308,0.221,0.461,0.501,0.461,0.823c0,0.214-0.063,0.387-0.196,0.521
			c-0.119,0.131-0.286,0.199-0.481,0.199c-0.186,0-0.337-0.059-0.457-0.174c-0.12-0.12-0.181-0.265-0.181-0.435
			c0-0.108,0.044-0.243,0.13-0.399c0.044-0.071,0.065-0.13,0.065-0.158c0-0.073-0.044-0.143-0.141-0.199
			c-0.099-0.062-0.251-0.088-0.468-0.088c-0.345,0-0.627,0.092-0.848,0.272c-0.217,0.184-0.326,0.391-0.326,0.63
			c0,0.151,0.051,0.271,0.151,0.355c0.103,0.087,0.438,0.231,1.015,0.434c0.436,0.149,0.732,0.284,0.892,0.396
			c0.163,0.112,0.282,0.257,0.373,0.438c0.087,0.181,0.137,0.377,0.137,0.591c0,0.337-0.097,0.648-0.282,0.938
			c-0.191,0.29-0.463,0.519-0.825,0.688c-0.362,0.166-0.801,0.253-1.319,0.253c-0.709,0-1.239-0.126-1.594-0.373
			c-0.355-0.25-0.529-0.568-0.529-0.953c0-0.235,0.073-0.427,0.218-0.583c0.148-0.151,0.325-0.228,0.529-0.228
			c0.185,0,0.341,0.058,0.459,0.173c0.124,0.12,0.183,0.27,0.183,0.457c0,0.141-0.065,0.297-0.2,0.465
			c-0.057,0.071-0.09,0.13-0.09,0.173c0,0.099,0.068,0.185,0.195,0.261c0.17,0.099,0.398,0.149,0.695,0.149
			c0.38,0,0.677-0.091,0.91-0.275c0.221-0.182,0.333-0.402,0.333-0.659c0-0.146-0.048-0.271-0.149-0.37
			c-0.097-0.102-0.326-0.207-0.676-0.322c-0.751-0.24-1.223-0.465-1.418-0.66C206.564,257.108,206.467,256.833,206.467,256.481"/>
		<path fill="#717175" d="M213.154,253.186h1.401l-0.463,1.713h1.108l-0.166,0.555h-1.092l-0.873,3.268
			c-0.032,0.099-0.047,0.192-0.047,0.28c0,0.107,0.022,0.188,0.069,0.238c0.04,0.059,0.097,0.079,0.166,0.079
			c0.286,0,0.695-0.412,1.244-1.239l0.391,0.246c-0.355,0.596-0.722,1.033-1.112,1.313c-0.388,0.278-0.758,0.419-1.113,0.419
			c-0.314,0-0.561-0.087-0.743-0.264c-0.181-0.179-0.268-0.402-0.268-0.686c0-0.213,0.033-0.448,0.103-0.705l0.79-2.95h-1.019
			l0.162-0.555h1.001L213.154,253.186z"/>
		<path fill="#717175" d="M216.321,254.898l2.383-0.097l-1.065,3.966c-0.05,0.171-0.075,0.298-0.075,0.378
			c0,0.062,0.011,0.108,0.035,0.144c0.027,0.029,0.059,0.049,0.102,0.049c0.103,0,0.225-0.076,0.378-0.229
			c0.253-0.253,0.504-0.608,0.75-1.071l0.387,0.225c-0.652,1.195-1.361,1.796-2.138,1.796c-0.264,0-0.474-0.08-0.623-0.242
			c-0.155-0.16-0.231-0.377-0.231-0.656c0-0.188,0.025-0.369,0.069-0.543l0.734-2.762c0.019-0.042,0.029-0.093,0.029-0.147
			c0-0.099-0.042-0.177-0.122-0.235c-0.084-0.059-0.221-0.087-0.421-0.087h-0.337L216.321,254.898z M218.241,252.016
			c0.242,0,0.445,0.086,0.62,0.253c0.169,0.174,0.256,0.381,0.256,0.623c0,0.239-0.087,0.449-0.256,0.616
			c-0.175,0.174-0.378,0.261-0.62,0.261c-0.24,0-0.45-0.087-0.619-0.261c-0.167-0.167-0.255-0.377-0.255-0.616
			c0-0.242,0.088-0.449,0.255-0.623C217.791,252.102,218.001,252.016,218.241,252.016"/>
		<path fill="#717175" d="M224.338,258.489l0.366,0.29c-0.337,0.417-0.72,0.731-1.148,0.952c-0.432,0.215-0.876,0.326-1.34,0.326
			c-0.642,0-1.156-0.195-1.536-0.572c-0.385-0.38-0.58-0.884-0.58-1.511c0-0.571,0.155-1.123,0.46-1.655
			c0.301-0.536,0.699-0.949,1.186-1.243c0.484-0.293,1.006-0.438,1.567-0.438c0.533,0,0.949,0.116,1.24,0.362
			c0.288,0.246,0.434,0.558,0.434,0.935c0,0.279-0.078,0.505-0.235,0.675c-0.156,0.167-0.354,0.253-0.583,0.253
			c-0.213,0-0.392-0.065-0.524-0.188c-0.135-0.131-0.208-0.286-0.208-0.479c0-0.13,0.033-0.242,0.103-0.333
			c0.065-0.086,0.225-0.195,0.474-0.332c0.08-0.04,0.12-0.08,0.12-0.124c0-0.065-0.044-0.124-0.142-0.182
			c-0.134-0.075-0.294-0.115-0.481-0.115c-0.468,0-0.867,0.239-1.202,0.714c-0.421,0.604-0.631,1.365-0.631,2.289
			c0,0.438,0.09,0.772,0.282,0.989c0.191,0.217,0.441,0.326,0.751,0.326C223.241,259.428,223.78,259.116,224.338,258.489"/>
		<path fill="#717175" d="M228.998,254.638c0.682,0,1.237,0.211,1.669,0.631s0.646,0.96,0.646,1.608
			c0,0.819-0.294,1.554-0.873,2.203c-0.587,0.651-1.352,0.978-2.305,0.978c-0.694,0-1.257-0.209-1.692-0.63
			c-0.427-0.421-0.64-0.96-0.64-1.616c0-0.564,0.141-1.094,0.434-1.602c0.29-0.503,0.674-0.891,1.146-1.166
			C227.856,254.772,228.396,254.638,228.998,254.638 M229.044,255.084c-0.282,0-0.524,0.12-0.749,0.358
			c-0.301,0.326-0.554,0.826-0.754,1.507c-0.191,0.675-0.29,1.222-0.29,1.631c0,0.322,0.076,0.572,0.231,0.747
			c0.156,0.17,0.359,0.253,0.61,0.253c0.242,0,0.455-0.08,0.64-0.253c0.271-0.255,0.528-0.718,0.772-1.377
			c0.238-0.664,0.358-1.275,0.358-1.848c0-0.326-0.076-0.572-0.228-0.747C229.479,255.175,229.28,255.084,229.044,255.084"/>
		<path fill="#717175" d="M232.515,256.481c0-0.524,0.222-0.964,0.649-1.315c0.431-0.354,1.015-0.535,1.739-0.535
			c0.598,0,1.046,0.116,1.355,0.34c0.308,0.221,0.455,0.501,0.455,0.823c0,0.214-0.062,0.387-0.194,0.521
			c-0.12,0.131-0.284,0.199-0.479,0.199c-0.188,0-0.341-0.059-0.455-0.174c-0.124-0.12-0.187-0.265-0.187-0.435
			c0-0.108,0.044-0.243,0.135-0.399c0.044-0.071,0.063-0.13,0.063-0.158c0-0.073-0.048-0.143-0.146-0.199
			c-0.095-0.062-0.246-0.088-0.461-0.088c-0.347,0-0.633,0.092-0.851,0.272c-0.214,0.184-0.326,0.391-0.326,0.63
			c0,0.151,0.051,0.271,0.152,0.355c0.101,0.087,0.441,0.231,1.021,0.434c0.432,0.149,0.729,0.284,0.885,0.396
			c0.163,0.112,0.287,0.257,0.378,0.438c0.09,0.181,0.133,0.377,0.133,0.591c0,0.337-0.097,0.648-0.286,0.938
			c-0.186,0.29-0.459,0.519-0.825,0.688c-0.359,0.166-0.798,0.253-1.315,0.253c-0.707,0-1.239-0.126-1.595-0.373
			c-0.348-0.25-0.524-0.568-0.524-0.953c0-0.235,0.071-0.427,0.213-0.583c0.148-0.151,0.326-0.228,0.536-0.228
			c0.179,0,0.337,0.058,0.453,0.173c0.123,0.12,0.185,0.27,0.185,0.457c0,0.141-0.065,0.297-0.199,0.465
			c-0.062,0.071-0.095,0.13-0.095,0.173c0,0.099,0.069,0.185,0.197,0.261c0.17,0.099,0.394,0.149,0.694,0.149
			c0.381,0,0.682-0.091,0.905-0.275c0.226-0.182,0.338-0.402,0.338-0.659c0-0.146-0.048-0.271-0.148-0.37
			c-0.099-0.102-0.322-0.207-0.674-0.322c-0.754-0.24-1.225-0.465-1.421-0.66C232.616,257.108,232.515,256.833,232.515,256.481"/>
	</g>
</g>
</svg>
