<?xml version="1.0" encoding="utf-8"?>
<!-- Generator: Adobe Illustrator 16.0.0, SVG Export Plug-In . SVG Version: 6.00 Build 0)  -->
<!DOCTYPE svg PUBLIC "-//W3C//DTD SVG 1.1//EN" "http://www.w3.org/Graphics/SVG/1.1/DTD/svg11.dtd">
<svg version="1.1" id="Capa_1" xmlns="http://www.w3.org/2000/svg" xmlns:xlink="http://www.w3.org/1999/xlink" x="0px" y="0px"
	 width="150px" height="150px" viewBox="0 0 150 150" enable-background="new 0 0 150 150" xml:space="preserve">
<path fill="#FFFFFF" d="M48.814,115.001H97.32c1.389,0,2.519-1.13,2.519-2.519v-4.143c0-0.647-0.524-1.172-1.172-1.172
	s-1.172,0.524-1.172,1.172v4.143c0,0.096-0.078,0.175-0.175,0.175h-1.882v-9.459c0-0.647-0.524-1.172-1.172-1.172
	s-1.172,0.524-1.172,1.172v9.459h-2.057V99.211c2.095,0.726,4.39,0.719,6.457,0.008v3.652c0,0.646,0.524,1.172,1.172,1.172
	s1.172-0.525,1.172-1.172v-4.832c2.709-1.852,4.335-4.865,4.335-8.191c0-3.356-1.681-6.458-4.493-8.297
	c-0.555-0.362-1.261-0.393-1.841-0.077c-0.015,0.007-0.027,0.017-0.041,0.025c-1.767-2.411-4.108-3.401-4.236-3.453
	c-0.008-0.004-0.016-0.007-0.022-0.01l-9.704-3.758l-4.297-1.665l-0.009-3.291c2.225-1.73,3.768-4.295,4.154-7.222
	c2.717-0.191,4.707-2.394,4.707-4.985c0-1.719-0.871-3.257-2.248-4.159c0.162-0.373,0.253-0.782,0.253-1.212v-7.934
	c0-2.563-2.22-4.448-4.514-4.272c-0.314,0.025-0.667-0.139-0.737-0.496c-0.532-2.72-2.242-4.042-5.228-4.042h-0.524
	c-0.647,0-1.172,0.525-1.172,1.172c0,0.647,0.524,1.172,1.172,1.172h0.524c2.315,0,2.706,1.016,2.928,2.148
	c0.288,1.478,1.668,2.502,3.218,2.383c0.94-0.071,1.989,0.749,1.989,1.935v7.933c0,1.393-3.108,0.625-3.108-1.702
	c0-0.624-0.423-1.165-1.027-1.317c-0.604-0.151-1.231,0.126-1.525,0.675c-0.98,1.834-2.935,3.046-5.077,3.046
	c-2.438,0-9.438,0-11.832,0c-0.936,0-1.745-0.761-1.745-1.745v-7.603c0-3.174,2.582-5.756,5.756-5.756h4.432
	c0.647,0,1.172-0.524,1.172-1.172c0-0.647-0.524-1.172-1.172-1.172h-4.432c-4.467,0-8.1,3.633-8.1,8.1v7.603
	c0,1.109,0.444,2.115,1.163,2.853c-1.017,0.924-1.63,2.2-1.63,3.561c0,2.593,1.992,4.793,4.706,4.985
	c0.306,2.332,1.344,4.493,3.004,6.198c0.43,0.442,0.896,0.84,1.39,1.199v3.113l-13.995,5.425c-0.007,0.003-0.015,0.006-0.021,0.01
	c-0.253,0.104-6.186,2.621-6.186,9.551v24.413C45.824,113.659,47.166,115.001,48.814,115.001z M56.632,94.161h14.86v6.615h-14.86
	V94.161z M56.632,103.12h14.86v9.537h-14.86V103.12z M73.836,103.12h14.858v9.537H73.836V103.12z M88.694,100.776H73.836v-6.614
	h11.516c0.731,1.501,1.869,2.856,3.343,3.866V100.776z M99.246,84.155c1.635,1.427,2.583,3.488,2.583,5.692
	c0,4.237-3.477,7.662-7.745,7.562c-4.066-0.096-7.514-3.589-7.377-7.811c0.069-2.126,1.011-4.077,2.58-5.444v6.428
	c0,0.614,0.33,1.186,0.861,1.493l3.257,1.88c0.531,0.307,1.191,0.307,1.724,0c2.385-1.377,1.897-1.096,3.256-1.88
	c0.51-0.295,0.861-0.867,0.861-1.493V84.155z M96.902,84.718v5.506l-2.636,1.522l-2.636-1.522v-7.178
	c0-0.699-0.428-1.322-0.94-1.578c-0.568-0.309-1.274-0.283-1.82,0.071c-3.499,2.276-5.107,6.359-4.312,10.278H73.836v-8.244
	c4.356-0.309,8.196-2.576,10.202-6.703l8.637,3.345C92.852,80.293,95.735,81.604,96.902,84.718z M65.734,75.238
	c0.609,1.549,2.089,3.369,5.108,3.882c0.376,0.063,0.649,0.385,0.649,0.765v1.36c-1.885-0.133-5.804-0.938-7.905-5.174
	L65.734,75.238z M79.675,75.181l2.169,0.84c-2.14,4.208-6.092,5.054-8.008,5.209v-1.348c0-0.38,0.265-0.7,0.628-0.763
	C77.702,78.564,79.089,76.592,79.675,75.181z M83.782,59.732v-4.971c0.167-0.024,0.407-0.085,0.521-0.124
	c1.043,0.384,1.745,1.36,1.745,2.479C86.048,58.387,85.142,59.511,83.782,59.732z M59.271,57.116c0-1.125,0.806-1.964,1.678-2.36
	c0.209,0.027,0.385,0.036,0.588,0.036v4.94C60.174,59.511,59.271,58.385,59.271,57.116z M63.88,60.655v-5.863h9.435
	c2.245,0,4.347-0.924,5.853-2.5c0.477,0.887,1.279,1.661,2.271,2.099c0,7.268,0.002,6.097-0.006,6.483
	c-0.117,4.685-3.969,8.419-8.632,8.419C67.47,69.292,63.88,65.163,63.88,60.655z M77.189,70.72l0.006,2.012
	c0.001,0.47,0.157,0.917,0.424,1.282c-0.298,0.915-1.147,2.383-3.551,2.795c-0.532,0.092-1.012,0.317-1.41,0.636
	c-0.401-0.318-0.885-0.545-1.423-0.636c-2.396-0.407-3.159-1.846-3.401-2.66c0.336-0.39,0.536-0.895,0.536-1.427v-1.926
	C71.113,71.899,74.361,71.957,77.189,70.72z M48.168,87.597c0-5.277,4.454-7.265,4.726-7.381l8.501-3.295
	c1.963,4.142,5.74,6.428,10.098,6.672v8.225h-14.86v-1.314c0-0.647-0.524-1.172-1.172-1.172s-1.172,0.524-1.172,1.172v22.154h-5.474
	c-0.356,0-0.646-0.291-0.646-0.647V87.597z"/>
<path fill="#FFFFFF" d="M62.203,90.62h3.347c1.637,0,2.969-1.332,2.969-2.97v-0.625c0-1.637-1.332-2.969-2.969-2.969h-3.347
	c-1.637,0-2.969,1.332-2.969,2.969v0.625C59.234,89.288,60.566,90.62,62.203,90.62z M61.578,87.025c0-0.339,0.287-0.625,0.625-0.625
	h3.347c0.339,0,0.625,0.286,0.625,0.625v0.625c0,0.339-0.286,0.625-0.625,0.625h-3.347c-0.338,0-0.625-0.286-0.625-0.625V87.025z"/>
<path fill="#FFFFFF" d="M80.248,86.166h-2.5c-0.647,0-1.172,0.525-1.172,1.172c0,0.647,0.524,1.172,1.172,1.172h2.5
	c0.647,0,1.172-0.524,1.172-1.172C81.42,86.691,80.896,86.166,80.248,86.166z"/>
<g>
	<path fill="#FFFFFF" d="M141.208,57.136l0.04,0.217l0.181,0.76c0.389,0.828,0.953,2.57,1.164,4.963
		c0.063-0.011,0.096-0.228,0.252,0.595c0.434,3.776,0.322,1.873,0.795,4.581c-0.06-0.84-0.287-1.885-0.271-2.308
		c0.368,1.731,0.423,3.496,0.534,5.249c0.084-0.73,0.191-1.336,0.34-0.462c0.22-0.554,0.605,1.182,0.904,1.856
		c-0.006-0.868-0.006-1.594-0.006-2.102c0.106,0.126,0.207,1.045,0.28,2.171c0.022-0.08,0.048-0.183,0.06-0.349
		c-0.012,0.166-0.037,0.269-0.06,0.349c0.042,0.771,0.083,1.583,0.123,2.359c0.013-0.44,0.017-0.874,0.083-0.657l-0.163-3.245
		c0.013-0.108,0.041,0,0.068,0.195l-0.104-0.84l-0.029,0.651c-0.041,0.229-0.094-0.211-0.151-0.64
		c-0.054-0.857-0.022-1.079-0.011-1.513c-0.072-0.566-0.096-1.154-0.252-1.714c-0.147-0.628,0.164,4.529-0.147,1.748l0.005-0.863
		c-0.168-1.279-0.484-2.976-0.726-3.804c0.014-1.309-0.688-3.582-0.485-3.838c-0.988-4.855-3.053-10.979-5.023-15.525
		c-0.565-0.686-0.935-0.52-2.082-2.319c-0.151-0.394-0.403-0.987-0.27-0.811c-0.257-0.428-0.574-0.828-0.854-1.233
		c0.474,0.714,0.977,1.646,1.064,2.079c-1.094-2.056,0.303,1.034,0.111,0.903c-0.486-0.948-0.965-1.891-1.585-2.748l0.157,0.336
		c2.639,5.027,4.731,10.322,6.006,15.828L141.208,57.136z"/>
	<path fill="#FFFFFF" d="M68.205,2.501l0.085,0.234C55.744,4.009,42.222,8.584,30.769,17.484
		C19.176,26.12,9.896,39.023,5.188,53.908C0.718,68.816,0.752,85.649,6.533,100.66c2.802,7.511,6.843,14.56,11.873,20.762
		c5.118,6.14,11.218,11.378,17.893,15.509l-1.808-0.035c7.254,4.438,15.787,7.883,24.529,9.471
		c8.733,1.65,17.553,1.513,25.237,0.188c-1.993,0.338-4.018,0.338-6.028,0.377c2.756-0.291,7.623-1.027,12.727-2.354
		c2.539-0.721,5.2-1.359,7.616-2.389c2.468-0.867,4.784-1.799,6.709-2.787l-0.669,0.589c-10.94,4.638,0.843-0.097-3.406,2.256
		l-1.919,0.823l1.192-0.31l1.918-0.829c-0.174,0.201,0.065,0.303-1.776,1.035c0.877-0.326,1.776-0.605,2.625-0.971
		c5.698-2.028,6.021-1.583,5.638-0.605c1.405-0.807-0.343-0.515,5.604-3.89l-0.637,0.662c2.119-1.331,3.996-2.999,5.91-4.604
		c0.934-0.599,1.947-1.119,2.807-1.828c1.854-1.937,3.104-3.112,5.07-5.021l0.211-0.938c4.353-4.267,8.254-10.012,11.586-16.021
		c3.112-6.163,5.463-12.669,6.955-18.661c0.205-2.695,1.842-9.174,1.584-16.085l-0.654,2.924c-0.305,1.834-0.356,4.29-0.965,7.06
		c-0.246,1.445-0.492,2.908-0.748,4.422c-0.397,1.531-0.803,3.113-1.229,4.713c-1.736,6.443-4.609,13.166-7.879,18.105l0.006-0.531
		c1.282-2.118,1.819-3.85,3.252-6.545l-0.083-0.914c-0.942,0.977-1.925,2.648-2.981,4.644c-1.248,1.89-2.416,4.192-3.756,6.375
		c-2.695,4.356-5.814,8.362-7.356,9.835c-3.405,2.947-2.544,1.696-1.154,0.211c1.289-1.594,2.919-3.644,1.528-2.045
		c3.059-3.826,1.438-2.484-1.271,0.069c-2.789,2.502-7.064,5.838-8.918,6.729c-4.75,2.965-12.476,7.539-21.459,10.161
		c-8.92,2.741-18.842,3.507-26.176,2.759c-6.1-0.463-12.792-1.537-19.22-4.187c-6.415-2.599-12.638-6.289-18.106-10.83
		c-5.382-4.633-9.934-10.063-13.541-15.656c-3.65-5.604-5.961-11.515-7.834-16.856c-1.38-5.248-3.41-12.144-3.625-18.854
		c-0.24-3.324-0.037-6.569,0.221-9.379c0.511-2.776,0.918-5.175,1.701-6.797c1.528-6.66,4.201-12.99,7.539-18.896l0.012,0.503
		c4.861-8.597,11.805-16.605,20.082-22.693c8.23-6.192,17.857-10.11,27.011-11.835c1.848-0.325,3.51-0.628,5.075-0.908
		c1.388-0.137,2.662-0.269,3.666-0.365c2.097-0.194,3.666-0.32,5.502,0.234c8.07,0.411,16.816,2.028,24.976,5.317
		c8.171,3.228,15.679,8.1,21.365,13.681c0.123-0.217,1.959,1.103-0.146-0.982c-3.054-2.782-6.541-5.466-9.23-7.637
		c-2.831-1.941-4.784-3.496-4.75-3.866l2.639,1.679c-1.505-1.097-2.967-2.296-4.609-3.205l-3.33-1.365
		c-0.76-0.554-1.08-0.851-1.098-0.966c-5.686-2.387-10.693-4.741-17.121-5.958c-2.293-0.343-4.756-0.491-7.552-0.577
		C74.959,2.301,71.849,2.479,68.205,2.501"/>
	<path fill="#FFFFFF" d="M85.997,130.534l-0.135,5.003c0,0,7.777,0.159,18.775-7.003c10.995-7.145,16.137-18.588,16.137-18.588
		s-9.254,13.477-20.969,18.074C89.921,131.903,85.997,130.534,85.997,130.534"/>
	<path fill="#FFFFFF" d="M117.248,86.301c0,0,1.479-2.508,4.258-2.508c2.771,0,3.327,3.147,3.327,3.147s2.217,0.932,2.217,4.164
		c0,3.246-4.259,2.405-4.259,2.405s-0.463,1.576-2.679,1.576c-2.223,0-2.129-2.039-2.129-2.039s-4.166,0.925-4.166-2.771
		C113.817,86.575,117.248,86.301,117.248,86.301"/>
	<polygon fill="#FFFFFF" points="42.729,36.053 44.577,39.435 47.959,41.285 44.577,43.136 42.729,46.506 40.888,43.136 
		37.5,41.285 40.888,39.435 	"/>
	<polygon fill="#FFFFFF" points="52.269,47.431 53.491,49.665 55.724,50.887 53.491,52.104 52.269,54.337 51.046,52.104 
		48.81,50.887 51.046,49.665 	"/>
	<polygon fill="#FFFFFF" points="33.802,49.933 36.192,54.297 40.562,56.69 36.192,59.078 33.802,63.453 31.414,59.078 
		27.044,56.69 31.414,54.297 	"/>
</g>
<g id="Nuevo_símbolo">
</g>
</svg>
