<?xml version="1.0" encoding="utf-8"?>
<!-- Generator: Adobe Illustrator 16.0.0, SVG Export Plug-In . SVG Version: 6.00 Build 0)  -->
<!DOCTYPE svg PUBLIC "-//W3C//DTD SVG 1.1//EN" "http://www.w3.org/Graphics/SVG/1.1/DTD/svg11.dtd">
<svg version="1.1" id="Capa_1" xmlns="http://www.w3.org/2000/svg" xmlns:xlink="http://www.w3.org/1999/xlink" x="0px" y="0px"
	 width="249px" height="83px" viewBox="0 0 249 83" enable-background="new 0 0 249 83" xml:space="preserve">
<g>
	<g>
		<path fill="#FFFFFF" d="M66.391,41.5c0,13.807-11.193,25-25,25s-25-11.193-25-25c0-13.808,11.193-25,25-25
			S66.391,27.692,66.391,41.5 M41.391,20.667c-11.506,0-20.834,9.326-20.834,20.833c0,11.506,9.328,20.833,20.834,20.833
			S62.224,53.005,62.224,41.5C62.224,29.993,52.896,20.667,41.391,20.667"/>
		
			<rect x="52.739" y="21.113" transform="matrix(0.7076 -0.7066 0.7066 0.7076 0.0764 44.4699)" fill="#C9E3F5" width="2.059" height="2.058"/>
		<rect x="53.699" y="20.27" fill="#C9E3F5" width="0.14" height="3.745"/>
		<rect x="51.896" y="22.073" fill="#C9E3F5" width="3.744" height="0.138"/>
		
			<rect x="56.183" y="24.034" transform="matrix(0.7071 -0.7071 0.7071 0.7071 -1.1267 48.1862)" fill="#C9E3F5" width="2.838" height="2.838"/>
		<rect x="57.507" y="22.874" fill="#C9E3F5" width="0.191" height="5.16"/>
		<rect x="55.021" y="25.358" fill="#C9E3F5" width="5.161" height="0.191"/>
		
			<rect x="50.842" y="25.232" transform="matrix(0.7073 -0.7069 0.7069 0.7073 -3.2482 44.0372)" fill="#C9E3F5" width="1.419" height="1.418"/>
		<rect x="51.503" y="24.651" fill="#C9E3F5" width="0.097" height="2.579"/>
		<rect x="50.262" y="25.893" fill="#C9E3F5" width="2.58" height="0.096"/>
		
			<rect x="52.844" y="28.404" transform="matrix(0.7068 -0.7074 0.7074 0.7068 -5.0678 46.8435)" fill="#C9E3F5" width="2.262" height="2.263"/>
		<rect x="53.898" y="27.479" fill="#C9E3F5" width="0.152" height="4.114"/>
		<rect x="51.918" y="29.459" fill="#C9E3F5" width="4.113" height="0.152"/>
		
			<rect x="48.24" y="23.005" transform="matrix(0.7069 -0.7073 0.7073 0.7069 -2.4054 41.5202)" fill="#C9E3F5" width="1.315" height="1.316"/>
		<rect x="48.854" y="22.466" fill="#C9E3F5" width="0.089" height="2.393"/>
		<rect x="47.702" y="23.617" fill="#C9E3F5" width="2.392" height="0.089"/>
		
			<rect x="46.967" y="26.445" transform="matrix(0.7078 -0.7064 0.7064 0.7078 -5.1108 41.2791)" fill="#C9E3F5" width="0.744" height="0.743"/>
		<rect x="47.313" y="26.141" fill="#C9E3F5" width="0.05" height="1.353"/>
		<rect x="46.662" y="26.791" fill="#C9E3F5" width="1.353" height="0.051"/>
		
			<rect x="29.762" y="29.992" transform="matrix(0.768 -0.6404 0.6404 0.768 -14.6841 27.0462)" fill="#FFFFFF" width="0.463" height="7.604"/>
		<path fill="#FFFFFF" d="M51.218,44.341c-1.974-6.141-8.106-6.249-8.438-6.279c-0.135-0.012-0.182-0.664-0.303-1.328
			c-0.12-0.664-0.12-1.269-0.12-1.269s1.087,0.482,2.597,0.362c1.51-0.121,2.053-0.725,2.415-1.269
			c0.362-0.543-0.06-1.448,0.182-1.509s0.543-0.664,1.146-1.631c0.604-0.966,0.785-1.026,0.967-1.63
			c0.181-0.603-0.182-1.69-0.362-1.63c-0.182,0.061-0.242,2.235-0.242,2.235l-1.872,2.295c0,0-0.604-0.061-0.966,0.181
			c-0.362,0.242-1.268,1.087-1.993,1.51c-0.725,0.423-1.812,0.302-2.476,0.302s-0.905-0.181-1.086-0.483
			c-0.182-0.302-0.182-0.543-0.182-0.543s0.362-0.182,0.725-0.543c0.362-0.363,0.362-1.147,0.362-1.147s0.302,0,0.543-0.664
			c0.242-0.666-1.087-1.208-1.268-1.208s-0.122,0.906-0.122,0.906s-0.904-0.181-1.568,0.12c-0.665,0.302-0.665,1.691-0.665,1.691
			l-0.483,0.121l0.424,0.483c0,0-0.061,0.363,0,0.725c0.06,0.363,1.51-0.181,1.51-0.181s0.24,0.301,0.24,0.785
			s-0.06,1.147-0.422,1.33c-0.363,0.181-1.147,0.784-2.717,0.965c-1.57,0.183-3.02,0.303-3.744-0.12
			c-0.726-0.422-1.631-1.57-1.813-1.57c0,0-0.181,0.362,0.182,1.026s0.905,0.544,0.905,0.544s0.665,0.483,1.872,0.785
			c0.705,0.177,1.934-0.06,1.934-0.06S36,39.571,37.103,39.571c1.812,0,2.657-2.596,3.02-2.596s1.328,0.604,1.569,0.845
			c0.242,0.242,0.483,0.543,0.483,0.543s-3.019,1.087-4.891,4.106c-1.872,3.02-2.948,5.288-5.495,5.797
			C29.071,48.811,27.622,47,27.622,47s0.302,2.596,2.718,3.079c2.415,0.483,3.26-0.302,3.26-0.302s-0.785,0.664-1.569,0.846
			c-0.785,0.181-2.054,0-2.054,0s0.906,1.812,3.623,1.812c2.718,0,3.623-0.725,3.623-0.725s-0.06,0.664-0.785,1.026
			c-0.724,0.363-1.268,0.483-1.268,0.483s1.027,0.665,2.838,0.423c1.813-0.242,2.899-0.966,2.899-0.966s-0.483,1.269-1.812,1.51
			c-1.328,0.242-2.838,0.061-2.838,0.061s1.871,1.932,5.676,1.51c3.804-0.422,4.046-1.389,4.046-1.389s-0.242,0.257-0.182,0.906
			s0.785,1.026,0.785,1.026s-0.423-0.423-0.181-1.026c0.241-0.604,1.992-2.657,2.476-2.476c0.483,0.181,0.483,0.422-0.302,1.208
			c-0.785,0.785-1.328,1.147-1.328,1.147S54.07,53.218,51.218,44.341"/>
		<polygon fill="#FFFFFF" points="39.669,29.85 39.352,28.763 39.805,29.125 40.122,28.038 40.213,29.08 40.801,28.898 
			40.213,29.804 		"/>
		
			<rect x="27.008" y="30.268" transform="matrix(0.1549 -0.9879 0.9879 0.1549 -7.1316 52.9433)" fill="#C9E3F5" width="0.744" height="0.744"/>
		
			<rect x="27.356" y="29.964" transform="matrix(0.8137 -0.5812 0.5812 0.8137 -12.7091 21.622)" fill="#C9E3F5" width="0.05" height="1.352"/>
		
			<rect x="27.355" y="29.964" transform="matrix(-0.5858 -0.8104 0.8104 -0.5858 18.5891 70.7794)" fill="#C9E3F5" width="0.05" height="1.352"/>
	</g>
	<g>
		<path fill="#FFFFFF" d="M127.934,17.725v47.552h-6.031v-8.173c-2.564,3.118-5.441,5.463-8.633,7.037
			c-3.189,1.574-6.68,2.36-10.467,2.36c-6.73,0-12.478-2.44-17.242-7.32c-4.764-4.881-7.145-10.818-7.145-17.81
			c0-6.848,2.403-12.704,7.211-17.57c4.807-4.866,10.59-7.299,17.351-7.299c3.903,0,7.437,0.832,10.599,2.492
			c3.161,1.66,5.936,4.151,8.326,7.474v-8.741H127.934z M103.48,22.4c-3.404,0-6.548,0.838-9.43,2.511
			c-2.883,1.674-5.174,4.024-6.877,7.051c-1.702,3.027-2.553,6.228-2.553,9.604c0,3.348,0.859,6.549,2.575,9.604
			c1.717,3.055,4.024,5.436,6.92,7.137c2.896,1.703,6.002,2.555,9.319,2.555c3.348,0,6.521-0.845,9.518-2.533
			c2.998-1.688,5.304-3.972,6.92-6.854c1.615-2.88,2.422-6.125,2.422-9.734c0-5.5-1.812-10.1-5.435-13.796
			C113.236,24.25,108.777,22.4,103.48,22.4"/>
		<path fill="#FFFFFF" d="M140.913,17.725h6.119v22.203c0,5.419,0.293,9.149,0.876,11.188c0.876,2.914,2.546,5.216,5.013,6.905
			c2.465,1.69,5.404,2.535,8.819,2.535c3.414,0,6.311-0.823,8.689-2.47c2.377-1.646,4.019-3.809,4.924-6.49
			c0.613-1.835,0.918-5.726,0.918-11.669V17.725h6.25v23.338c0,6.556-0.764,11.495-2.293,14.816
			c-1.53,3.322-3.832,5.921-6.906,7.801s-6.928,2.819-11.56,2.819c-4.634,0-8.501-0.939-11.604-2.819
			c-3.103-1.88-5.42-4.501-6.95-7.867c-1.528-3.365-2.295-8.428-2.295-15.188V17.725z"/>
		<polygon fill="#FFFFFF" points="190.695,17.725 198.038,17.725 210.686,35.12 223.2,17.725 230.555,17.725 214.369,40.188 
			232.609,65.276 225.157,65.276 210.684,45.304 196.293,65.276 188.991,65.276 207.007,40.232 		"/>
	</g>
</g>
</svg>
