<?xml version="1.0" encoding="utf-8"?>
<!-- Generator: Adobe Illustrator 16.0.0, SVG Export Plug-In . SVG Version: 6.00 Build 0)  -->
<!DOCTYPE svg PUBLIC "-//W3C//DTD SVG 1.1//EN" "http://www.w3.org/Graphics/SVG/1.1/DTD/svg11.dtd">
<svg version="1.1" id="Capa_1" xmlns="http://www.w3.org/2000/svg" xmlns:xlink="http://www.w3.org/1999/xlink" x="0px" y="0px"
	 width="380px" height="380px" viewBox="0 0 380 380" enable-background="new 0 0 380 380" xml:space="preserve">
<g>
	<g>
		<path fill="#122436" d="M45.539,235.756l-8.751,3.614c1.232,2.983,2.548,5.922,3.951,8.813l8.521-4.121
			C47.943,241.338,46.701,238.566,45.539,235.756z"/>
		<path fill="#122436" d="M39.092,216.771l-9.143,2.455c0.84,3.129,1.772,6.219,2.786,9.266l8.983-2.991
			C40.76,222.625,39.888,219.715,39.092,216.771z"/>
		<path fill="#122436" d="M36.625,206.109c-0.581-2.969-1.072-5.969-1.479-8.998l-9.383,1.265c0.429,3.212,0.954,6.394,1.568,9.544
			L36.625,206.109z"/>
		<path fill="#122436" d="M34.062,186.224c-0.195-3.019-0.303-6.059-0.321-9.121l-9.469,0.063c0.022,3.244,0.137,6.466,0.34,9.665
			L34.062,186.224z"/>
		<path fill="#122436" d="M78.524,285.633l-6.757,6.633c2.26,2.301,4.582,4.534,6.972,6.704l6.365-7.013
			C82.848,289.912,80.654,287.805,78.524,285.633z"/>
		<path fill="#122436" d="M57.874,276.168c1.949,2.57,3.969,5.081,6.063,7.534l7.201-6.147c-1.971-2.312-3.876-4.679-5.714-7.104
			L57.874,276.168z"/>
		<path fill="#122436" d="M54.36,253.734l-8.215,4.709c1.605,2.8,3.288,5.543,5.048,8.24l7.927-5.179
			C57.459,258.966,55.873,256.372,54.36,253.734z"/>
		<path fill="#122436" d="M53.317,100.133l-8.278-4.598c-1.564,2.818-3.048,5.686-4.449,8.604l8.533,4.102
			C50.443,105.492,51.842,102.788,53.317,100.133z"/>
		<path fill="#122436" d="M326.563,98.916c1.494,2.641,2.914,5.322,4.256,8.052l8.496-4.18c-1.428-2.896-2.934-5.743-4.521-8.54
			L326.563,98.916z"/>
		<path fill="#122436" d="M335.301,116.939c1.143,2.808,2.208,5.655,3.192,8.541l8.962-3.056c-1.043-3.059-2.176-6.08-3.389-9.062
			L335.301,116.939z"/>
		<path fill="#122436" d="M341.654,135.955c0.773,2.929,1.463,5.888,2.064,8.88l9.283-1.871c-0.645-3.178-1.372-6.317-2.193-9.424
			L341.654,135.955z"/>
		<path fill="#122436" d="M345.51,155.632c0.393,3,0.695,6.021,0.914,9.072l9.442-0.673c-0.229-3.232-0.552-6.439-0.966-9.62
			L345.51,155.632z"/>
		<path fill="#122436" d="M36.555,146.263c0.577-2.996,1.239-5.962,1.986-8.899l-9.18-2.329c-0.788,3.113-1.491,6.262-2.101,9.442
			L36.555,146.263z"/>
		<path fill="#122436" d="M34.868,157.074l-9.402-1.132c-0.384,3.185-0.677,6.395-0.876,9.631l9.45,0.589
			C34.229,163.106,34.506,160.077,34.868,157.074z"/>
		<path fill="#122436" d="M41.604,126.859c0.958-2.899,2.001-5.763,3.118-8.585l-8.799-3.495c-1.191,2.993-2.293,6.033-3.311,9.11
			L41.604,126.859z"/>
		<path fill="#122436" d="M58.965,90.749c0.455-0.699,0.929-1.387,1.395-2.074c0.51-0.759,1.017-1.514,1.538-2.257
			c0.367-0.525,0.744-1.043,1.117-1.564c2.548-3.555,5.234-7.005,8.067-10.326c1.849-2.168,3.762-4.283,5.726-6.348
			c2.759-2.907,5.637-5.699,8.611-8.385c2.022-1.827,4.087-3.61,6.202-5.33c3.251-2.641,6.613-5.148,10.072-7.53
			c0.592-0.406,1.183-0.81,1.779-1.206c0.695-0.466,1.398-0.924,2.104-1.379c0.607-0.389,1.213-0.78,1.82-1.161
			c3.581-2.238,7.257-4.336,11.022-6.288c0.647-0.333,1.298-0.658,1.953-0.984c0.74-0.37,1.483-0.739,2.227-1.099
			c0.666-0.317,1.338-0.632,2.012-0.942c3.839-1.775,7.76-3.41,11.762-4.879c0.651-0.24,1.31-0.466,1.964-0.695
			c0.825-0.288,1.649-0.581,2.482-0.858c0.677-0.226,1.357-0.437,2.042-0.654c4.087-1.298,8.244-2.448,12.472-3.41
			c0.507-0.114,1.017-0.215,1.528-0.325c1.036-0.226,2.071-0.452,3.118-0.655c0.621-0.122,1.247-0.229,1.868-0.344
			c4.339-0.795,8.729-1.428,13.183-1.856c0.273-0.026,0.543-0.041,0.817-0.067c1.32-0.122,2.645-0.229,3.976-0.317
			c0.566-0.037,1.14-0.06,1.709-0.089c2.896-0.159,5.807-0.259,8.748-0.259c1.651,0,3.292,0.029,4.93,0.081
			c0.488,0.015,0.969,0.045,1.458,0.063c1.127,0.048,2.256,0.092,3.377,0.162c0.617,0.037,1.233,0.089,1.853,0.137
			c4.481,0.329,8.918,0.833,13.289,1.531c0.537,0.086,1.069,0.188,1.602,0.277c1.033,0.178,2.068,0.352,3.093,0.548
			c0.629,0.122,1.259,0.256,1.884,0.385c4.33,0.884,8.598,1.931,12.789,3.166c0.096,0.026,0.188,0.06,0.281,0.085
			c1.41,0.418,2.811,0.854,4.206,1.31c0.547,0.181,1.087,0.373,1.635,0.562c5.056,1.72,9.997,3.688,14.806,5.896
			c0.621,0.285,1.246,0.563,1.863,0.855c0.858,0.406,1.705,0.836,2.557,1.257c0.549,0.274,1.099,0.536,1.643,0.813
			c3.787,1.938,7.475,4.039,11.07,6.27c0.617,0.381,1.234,0.762,1.842,1.15c0.713,0.455,1.416,0.921,2.119,1.387
			c0.593,0.393,1.184,0.781,1.771,1.181c3.354,2.289,6.616,4.712,9.778,7.249c2.058,1.646,4.065,3.344,6.033,5.089
			c2.978,2.648,5.858,5.4,8.632,8.264c1.861,1.923,3.666,3.901,5.427,5.918c2.585,2.958,5.07,6.003,7.427,9.15
			c1.729,2.305,3.39,4.664,4.989,7.064c0.134,0.203,0.277,0.403,0.415,0.606l7.904-5.212c-0.078-0.114-0.155-0.225-0.233-0.336
			l0.009-0.004c-0.582-0.876-1.186-1.738-1.785-2.604c-0.299-0.437-0.59-0.877-0.895-1.313c-0.887-1.257-1.79-2.496-2.711-3.728
			c-2.382-3.186-4.882-6.273-7.479-9.277l0.011-0.011c-0.142-0.162-0.295-0.314-0.438-0.48c-1.906-2.183-3.857-4.32-5.875-6.403
			c-0.076-0.077-0.146-0.162-0.222-0.239l-0.011,0.007c-2.697-2.773-5.493-5.448-8.379-8.03l0.016-0.015
			c-0.304-0.27-0.618-0.532-0.925-0.803c-0.593-0.518-1.185-1.035-1.782-1.549c-0.654-0.563-1.316-1.121-1.982-1.672
			c-0.604-0.5-1.203-0.995-1.813-1.487c-0.3-0.24-0.592-0.492-0.893-0.729l-0.012,0.015c-3.023-2.408-6.136-4.716-9.326-6.909
			l0.008-0.011c-0.187-0.13-0.375-0.248-0.561-0.374c-0.605-0.414-1.221-0.817-1.83-1.224c-0.771-0.511-1.543-1.018-2.318-1.517
			c-0.615-0.393-1.235-0.773-1.854-1.158c-0.521-0.325-1.04-0.662-1.568-0.98l-0.012,0.016c-3.307-2.001-6.68-3.902-10.135-5.674
			l0.004-0.004c-0.048-0.026-0.096-0.048-0.148-0.074c-0.387-0.196-0.783-0.381-1.172-0.58c-1.09-0.548-2.183-1.092-3.279-1.613
			c-0.537-0.255-1.084-0.495-1.624-0.743c-0.841-0.389-1.677-0.784-2.522-1.157l-0.004,0.011c-3.535-1.561-7.131-3-10.792-4.316
			l0.004-0.008c-1.011-0.362-2.032-0.702-3.049-1.043c-0.45-0.155-0.897-0.314-1.354-0.466c-1.586-0.521-3.185-1.021-4.793-1.494
			c-3.694-1.088-7.449-2.034-11.248-2.87l0.004-0.015c-0.791-0.174-1.594-0.326-2.395-0.488c-0.635-0.13-1.267-0.267-1.906-0.389
			c-1.125-0.215-2.25-0.407-3.377-0.6c-0.537-0.092-1.074-0.191-1.609-0.276c-0.07-0.012-0.145-0.026-0.215-0.037v0.004
			c-3.799-0.604-7.642-1.065-11.518-1.406V10.64c-0.804-0.07-1.615-0.122-2.423-0.178c-0.629-0.044-1.262-0.1-1.896-0.137
			c-1.217-0.077-2.439-0.129-3.664-0.178c-0.487-0.019-0.974-0.048-1.465-0.063c-0.066-0.004-0.138-0.011-0.203-0.011v0.007
			c-1.672-0.052-3.348-0.081-5.03-0.081c-2.2,0-4.39,0.056-6.572,0.141v-0.015c-0.91,0.036-1.82,0.096-2.726,0.147
			c-0.592,0.029-1.184,0.056-1.775,0.093c-1.476,0.096-2.948,0.218-4.416,0.354c-0.219,0.022-0.44,0.033-0.662,0.056
			c-0.022,0-0.044,0.004-0.067,0.004v0.004c-3.876,0.377-7.711,0.898-11.503,1.534l-0.003-0.011
			c-0.829,0.141-1.653,0.304-2.478,0.451c-0.636,0.119-1.273,0.226-1.905,0.352c-1.165,0.229-2.322,0.478-3.477,0.729
			c-0.48,0.107-0.969,0.203-1.45,0.311c-0.056,0.012-0.119,0.022-0.174,0.037v0.008c-3.788,0.865-7.523,1.875-11.211,3l-0.007-0.019
			c-0.658,0.199-1.309,0.421-1.964,0.628c-0.669,0.215-1.346,0.426-2.012,0.647c-0.951,0.318-1.894,0.647-2.837,0.98
			c-0.625,0.222-1.253,0.437-1.879,0.662c-0.156,0.059-0.318,0.11-0.477,0.17l0.004,0.011c-3.636,1.347-7.209,2.822-10.719,4.409
			l-0.011-0.019c-0.473,0.215-0.943,0.447-1.416,0.666c-0.659,0.307-1.317,0.614-1.968,0.928c-0.843,0.403-1.683,0.817-2.519,1.236
			c-0.647,0.325-1.291,0.646-1.935,0.979c-0.277,0.145-0.566,0.281-0.843,0.426l0.011,0.019c-3.433,1.797-6.791,3.713-10.079,5.743
			l-0.007-0.015c-0.281,0.174-0.558,0.355-0.839,0.533c-0.632,0.396-1.258,0.799-1.887,1.201c-0.762,0.492-1.52,0.984-2.271,1.487
			c-0.625,0.418-1.243,0.84-1.864,1.265c-0.403,0.274-0.814,0.544-1.213,0.825l0.011,0.015c-3.173,2.224-6.265,4.542-9.272,6.976
			l-0.004-0.007c-0.063,0.052-0.122,0.11-0.188,0.162c-2.275,1.846-4.49,3.759-6.662,5.722c-0.159,0.141-0.329,0.274-0.484,0.415
			l0.011,0.011c-2.863,2.604-5.641,5.301-8.311,8.101l-0.004-0.004c-0.055,0.063-0.107,0.126-0.166,0.188
			c-2.164,2.271-4.272,4.602-6.306,6.994c0,0,0,0-0.004,0.004c-2.504,2.948-4.897,5.992-7.194,9.11l-0.011-0.008
			c-0.374,0.503-0.725,1.017-1.091,1.527c-0.451,0.625-0.906,1.25-1.346,1.883c-0.525,0.747-1.032,1.505-1.546,2.264
			c-0.314,0.47-0.644,0.929-0.954,1.397l0.011,0.008c-0.192,0.292-0.396,0.581-0.588,0.873L58.965,90.749z"/>
		<path fill="#122436" d="M331.754,243.115l8.553,4.062c1.383-2.909,2.682-5.864,3.896-8.868l-8.776-3.555
			C334.283,237.583,333.057,240.372,331.754,243.115z"/>
		<path fill="#122436" d="M321.99,260.65l7.963,5.127c1.745-2.707,3.413-5.473,5-8.288l-8.244-4.653
			C325.208,255.492,323.635,258.096,321.99,260.65z"/>
		<path fill="#122436" d="M315.742,269.646c-1.823,2.438-3.713,4.818-5.674,7.148l7.242,6.1c2.078-2.467,4.084-4.992,6.018-7.578
			L315.742,269.646z"/>
		<path fill="#122436" d="M280.598,303.885l5.471,7.731c2.63-1.864,5.209-3.804,7.728-5.812l-5.91-7.397
			C285.509,300.302,283.079,302.128,280.598,303.885z"/>
		<path fill="#122436" d="M296.193,291.284l6.408,6.972c2.373-2.182,4.686-4.434,6.928-6.75l-6.801-6.588
			C300.611,287.102,298.434,289.225,296.193,291.284z"/>
		<path fill="#122436" d="M356.291,175.627l-9.469,0.022v0.358c0,3.063-0.086,6.103-0.262,9.121l9.453,0.543
			c0.186-3.199,0.276-6.42,0.276-9.664L356.291,175.627L356.291,175.627z"/>
		<path fill="#122436" d="M345.559,196.023c-0.39,3.033-0.863,6.037-1.422,9.012l9.307,1.742c0.593-3.155,1.091-6.34,1.506-9.555
			L345.559,196.023z"/>
		<path fill="#122436" d="M271.451,309.893c-2.59,1.575-5.23,3.077-7.919,4.501l4.435,8.366c2.854-1.513,5.651-3.104,8.403-4.774
			L271.451,309.893z"/>
		<path fill="#122436" d="M341.744,215.712c-0.77,2.952-1.624,5.87-2.563,8.749l9.004,2.93c0.996-3.056,1.902-6.15,2.721-9.285
			L341.744,215.712z"/>
		<path fill="#122436" d="M105.117,318.544c2.767,1.653,5.585,3.232,8.452,4.728l4.379-8.394c-2.7-1.413-5.36-2.896-7.967-4.46
			L105.117,318.544z"/>
		<path fill="#122436" d="M253.7,319.177c-2.767,1.225-5.577,2.374-8.425,3.443l3.328,8.864c3.021-1.136,5.998-2.353,8.937-3.656
			L253.7,319.177z"/>
		<path fill="#122436" d="M166.29,330.728l-1.442,9.356c3.173,0.488,6.373,0.885,9.598,1.191l0.891-9.429
			C172.296,331.563,169.278,331.186,166.29,330.728z"/>
		<path fill="#122436" d="M144.076,335.506c3.088,0.893,6.209,1.697,9.369,2.415l2.093-9.235c-2.977-0.674-5.921-1.432-8.829-2.271
			L144.076,335.506z"/>
		<path fill="#122436" d="M87.597,306.468c2.533,1.993,5.123,3.917,7.774,5.768l5.419-7.77c-2.497-1.741-4.941-3.554-7.328-5.437
			L87.597,306.468z"/>
		<path fill="#122436" d="M124.051,328.282c2.955,1.287,5.955,2.493,8.995,3.605l3.266-8.889c-2.87-1.05-5.692-2.187-8.481-3.399
			L124.051,328.282z"/>
		<path fill="#122436" d="M195.391,332.469c-1.697,0.057-3.401,0.082-5.111,0.082c-1.342,0-2.682-0.015-4.017-0.048l-0.237,9.464
			c1.413,0.037,2.83,0.052,4.253,0.052c1.813,0,3.618-0.024,5.415-0.085L195.391,332.469z"/>
		<path fill="#122436" d="M234.904,326.104c-2.903,0.861-5.844,1.639-8.814,2.334l2.156,9.221c3.154-0.736,6.27-1.564,9.35-2.479
			L234.904,326.104z"/>
		<path fill="#122436" d="M206.313,331.74l0.959,9.421c3.226-0.329,6.42-0.747,9.59-1.257l-1.504-9.349
			C212.368,331.038,209.354,331.433,206.313,331.74z"/>
	</g>
	<path fill="#FFFFFF" d="M332.919,302.65c2.675-6.676,2.638-14.012-0.11-20.657c-2.625-6.343-7.494-11.437-13.707-14.345
		c-6.215-2.906-13.246-3.377-19.797-1.328l-79.232,24.83l0.156-0.828c1.01-5.375,0.084-10.729-2.672-15.49
		c-3.103-5.362-8.125-9.143-14.132-10.645l-63.403-15.846c-4.701-1.173-9.557-0.828-14.047,0.987l-42.076,17.06v-12.552
		c0-3.897-3.17-7.067-7.068-7.067H30.97c-3.898,0-7.068,3.17-7.068,7.067v92.409c0,3.895,3.17,7.063,7.068,7.063h45.86
		c3.895,0,7.064-3.17,7.064-7.063v-3.312l0.625,0.155l105.53,26.059c4.807,1.184,10.112,0.721,14.641-1.28l113.883-50.357
		C325.152,314.604,330.245,309.326,332.919,302.65z"/>
	<path fill="#365FE0" d="M28.444,271.781h50.909v76.991H28.444V271.781z"/>
	<path fill="#FFFFFF" d="M70.105,332.632h9.247v-9.469h-9.247V332.632z M49.275,332.632h9.468v-9.469h-9.468V332.632z
		 M28.444,332.632h9.468v-9.469h-9.468V332.632z"/>
	<path fill="#FFCC34" d="M79.353,296.256l50.627-22.215c3.354-1.473,7.083-1.868,10.671-1.135l75.292,15.378
		c0,0-4.678,18.265-24.844,15.229c-11.344-1.709-23.021-3.471-23.021-3.471l1.342,5.021c2.393,8.927,9.217,15.986,18.057,18.684
		c5.381,1.642,11.151,1.516,16.459-0.363l122.67-43.437c0,0,13.594,17.493-9.875,33.41c-23.469,15.915-119.623,51.91-119.623,51.91
		L82.848,338.003L79.353,296.256z"/>
	<path fill="#122436" d="M332.98,281.923c-2.174-5.267-5.836-9.546-10.297-12.481c-4.459-2.941-9.733-4.563-15.187-4.564
		c-2.736,0-5.522,0.41-8.248,1.27l-78.935,24.731c0.33-1.567,0.488-3.14,0.488-4.692c0-5.127-1.727-10.013-4.757-13.947
		c-3.021-3.936-7.382-6.938-12.579-8.234l-63.403-15.844c-1.827-0.459-3.691-0.686-5.555-0.686c-2.933,0-5.858,0.565-8.607,1.68
		L84.09,266.104v-12.267c0-1.985-0.821-3.835-2.126-5.129c-1.299-1.31-3.145-2.132-5.13-2.128H30.97
		c-1.99,0-3.835,0.822-5.134,2.128c-1.31,1.297-2.13,3.144-2.127,5.129v92.409c0,1.986,0.821,3.832,2.127,5.13
		c1.298,1.306,3.14,2.131,5.134,2.127h45.86c1.986,0.004,3.835-0.821,5.13-2.127c1.309-1.298,2.13-3.144,2.126-5.13v-3.066
		l105.916,26.15c1.809,0.446,3.654,0.669,5.492,0.669c3.174,0,6.332-0.659,9.27-1.957l113.883-50.358
		c5.129-2.267,9.258-5.938,12.076-10.353c2.818-4.412,4.354-9.575,4.356-14.883C335.083,288.936,334.402,285.352,332.98,281.923z
		 M33.178,256.055h41.44v87.983h-41.44V256.055L33.178,256.055z M322.748,302.234c-1.861,2.904-4.538,5.29-7.93,6.792
		l-113.879,50.36c-1.729,0.764-3.58,1.151-5.441,1.151c-1.08,0-2.164-0.134-3.221-0.394l-108.191-26.71v-57.106l45.372-18.395
		c1.616-0.654,3.333-0.988,5.052-0.988c1.095,0,2.189,0.134,3.258,0.404l63.407,15.842c3.07,0.772,5.581,2.508,7.368,4.822
		c1.782,2.315,2.792,5.189,2.792,8.174c0,1.207-0.162,2.438-0.515,3.674c-0.832,2.926-2.565,5.344-4.85,7.062
		c-2.281,1.707-5.086,2.685-8.033,2.685c-0.662,0-1.334-0.051-2.012-0.15l-27.141-4.088l-1.409,9.361l27.14,4.092
		c1.147,0.169,2.286,0.254,3.422,0.254c5.045,0,9.836-1.672,13.715-4.578c0.641-0.48,1.242-1.006,1.834-1.555l88.592-27.762
		c1.806-0.565,3.625-0.832,5.419-0.832c3.569,0,7.042,1.064,9.976,3c2.938,1.935,5.318,4.719,6.758,8.191
		c0.939,2.271,1.384,4.609,1.384,6.913C325.614,295.926,324.602,299.332,322.748,302.234z"/>
	<path fill="#122436" d="M53.898,263.614c-4.508,0-8.167,3.657-8.167,8.167c0,4.513,3.658,8.171,8.167,8.171
		c4.512,0,8.17-3.658,8.17-8.171C62.068,267.268,58.407,263.614,53.898,263.614z"/>
	<path fill="#365FE0" d="M203.965,67.807c2.836,9.635,14.471,13.415,22.43,7.286c11.299-8.691,26.963,2.692,22.188,16.123
		c-3.37,9.461,3.82,19.354,13.857,19.077c14.252-0.392,20.235,18.024,8.479,26.079c-8.289,5.678-8.289,17.91,0,23.587
		c11.758,8.056,5.773,26.476-8.479,26.08c-10.041-0.278-17.229,9.615-13.857,19.081c4.775,13.43-10.891,24.81-22.188,16.118
		c-7.959-6.125-19.59-2.348-22.43,7.289c-4.027,13.673-23.395,13.673-27.418,0c-2.841-9.635-14.473-13.414-22.433-7.289
		c-11.296,8.695-26.96-2.688-22.185-16.118c3.37-9.466-3.821-19.359-13.859-19.081c-14.251,0.396-20.236-18.024-8.478-26.08
		c8.289-5.677,8.289-17.909,0-23.587c-11.758-8.055-5.774-26.475,8.478-26.079c10.042,0.277,17.229-9.616,13.859-19.077
		c-4.775-13.431,10.893-24.814,22.185-16.123c7.963,6.129,19.592,2.349,22.433-7.286C180.57,54.133,199.938,54.133,203.965,67.807z"
		/>
	<path fill="#FFFFFF" d="M131.615,206.093c-0.98,3.437-0.64,6.709,0.595,9.505C133.157,212.291,132.85,208.971,131.615,206.093z"/>
	<path fill="#FFFFFF" d="M118.063,121.655c10.042,0.277,17.232-9.616,13.862-19.077c-0.115-0.326-0.222-0.651-0.311-0.977
		c-2.197,5.122-7.323,8.865-13.552,8.691c-11.322-0.314-17.429,11.256-13.552,20.062
		C106.611,125.347,111.449,121.471,118.063,121.655z"/>
	<path fill="#FFFFFF" d="M132.21,92.096c3.436-7.778,13.796-11.881,21.9-5.641c7.963,6.125,19.596,2.349,22.433-7.29
		c4.028-13.67,23.395-13.67,27.422,0c2.836,9.636,14.471,13.415,22.43,7.29c8.106-6.24,18.467-2.138,21.902,5.641
		c0.081-0.296,0.178-0.592,0.285-0.884c4.775-13.431-10.891-24.814-22.188-16.119c-7.959,6.125-19.594,2.349-22.43-7.29
		c-4.027-13.67-23.395-13.67-27.422,0c-2.837,9.635-14.469,13.415-22.433,7.29c-11.295-8.695-26.959,2.688-22.185,16.119
		C132.033,91.508,132.125,91.804,132.21,92.096z"/>
	<path fill="#FFFFFF" d="M248.582,102.578c-3.37,9.461,3.82,19.354,13.857,19.077c6.617-0.185,11.453,3.691,13.557,8.699
		c3.873-8.806-2.229-20.376-13.557-20.062c-6.229,0.174-11.354-3.569-13.547-8.691C248.8,101.927,248.695,102.252,248.582,102.578z"
		/>
	<path fill="#FFFFFF" d="M248.297,215.598c1.235-2.796,1.576-6.068,0.596-9.505C247.656,208.971,247.352,212.291,248.297,215.598z"
		/>
	<path fill="#365FE0" d="M244.509,148.168c0,29.963-24.293,54.251-54.255,54.251c-29.963,0-54.256-24.288-54.256-54.251
		c0-29.967,24.293-54.26,54.256-54.26C220.216,93.908,244.509,118.201,244.509,148.168z"/>
	<path fill="#FFFFFF" d="M190.253,107.164c27.722,0,50.583,20.79,53.853,47.632c0.267-2.175,0.402-4.387,0.402-6.628
		c0-29.967-24.293-54.26-54.255-54.26c-29.963,0-54.256,24.293-54.256,54.26c0,2.241,0.137,4.453,0.403,6.628
		C139.667,127.954,162.532,107.164,190.253,107.164z"/>
	<path fill="#122436" d="M279.876,163.11c-1.375-2.696-3.495-5.152-6.283-7.061c-1.413-0.969-2.427-2.171-3.118-3.521
		c-0.688-1.35-1.039-2.852-1.039-4.36c0-1.514,0.352-3.015,1.039-4.364c0.691-1.351,1.705-2.553,3.118-3.521
		c2.784-1.908,4.908-4.364,6.283-7.061c1.38-2.7,2.022-5.618,2.021-8.478c-0.008-4.842-1.797-9.547-5.098-13.164
		c-1.65-1.801-3.688-3.321-6.043-4.383c-2.361-1.058-5.031-1.649-7.863-1.646c-0.199,0-0.393,0.003-0.58,0.007h0.021l-0.304,0.004
		c-2.752-0.008-5.069-1.099-6.805-2.863c-1.724-1.764-2.757-4.168-2.752-6.672c0-1.051,0.174-2.127,0.565-3.229
		c0.78-2.19,1.157-4.405,1.157-6.551c0-5.366-2.338-10.153-5.838-13.496c-3.506-3.358-8.226-5.426-13.312-5.434
		c-3.909-0.011-8.008,1.287-11.544,4.024c-1.805,1.379-3.786,1.981-5.791,1.989c-2.014,0.004-4.025-0.644-5.659-1.823
		c-1.636-1.188-2.896-2.848-3.547-5.041l-1.003-3.396h-0.352c-1.442-2.845-3.498-5.171-5.896-6.839
		c-3.296-2.301-7.164-3.418-11.007-3.418c-3.84,0-7.708,1.117-11.004,3.418c-2.4,1.664-4.457,3.994-5.896,6.839h-0.352L172,66.468
		c-0.651,2.193-1.916,3.854-3.551,5.041c-1.635,1.176-3.643,1.827-5.659,1.823c-2.005-0.008-3.988-0.61-5.792-1.989
		c-3.532-2.737-7.631-4.035-11.54-4.024c-5.089,0.008-9.809,2.075-13.312,5.434c-3.499,3.343-5.84,8.13-5.836,13.496
		c-0.003,2.146,0.374,4.36,1.154,6.551c0.392,1.099,0.565,2.174,0.565,3.225c0.004,2.504-1.024,4.912-2.748,6.676
		c-1.735,1.761-4.054,2.853-6.806,2.863l-0.288-0.004h0.026c-0.196-0.007-0.399-0.011-0.6-0.011
		c-2.833-0.004-5.507,0.588-7.863,1.646c-3.543,1.591-6.343,4.209-8.233,7.287c-1.89,3.077-2.904,6.628-2.907,10.26
		c0,2.859,0.64,5.777,2.02,8.478c1.375,2.696,3.495,5.156,6.284,7.061c1.413,0.97,2.426,2.171,3.118,3.521
		c0.688,1.35,1.04,2.852,1.04,4.36c0,1.513-0.352,3.015-1.04,4.365c-0.691,1.35-1.705,2.552-3.118,3.524
		c-2.785,1.904-4.909,4.36-6.284,7.057c-1.379,2.7-2.023,5.618-2.02,8.478c0.007,4.842,1.797,9.546,5.097,13.16
		c1.646,1.805,3.688,3.321,6.043,4.383c2.36,1.062,5.031,1.648,7.863,1.648c0.189,0,0.381-0.004,0.574-0.012h0.026l0.262-0.002
		c2.752,0.006,5.071,1.102,6.806,2.862c1.724,1.763,2.752,4.171,2.748,6.677c0,1.049-0.174,2.125-0.565,3.229
		c-0.78,2.189-1.158,4.404-1.154,6.551c-0.003,5.366,2.338,10.148,5.836,13.496c3.503,3.354,8.223,5.422,13.312,5.43
		c3.909,0.012,8.004-1.287,11.54-4.021l0.011-0.008c1.801-1.375,3.78-1.979,5.781-1.985c2.016-0.004,4.024,0.647,5.659,1.823
		c1.638,1.188,2.9,2.849,3.551,5.041l0.999,3.396h0.352c1.442,2.846,3.499,5.171,5.896,6.84c3.299,2.301,7.164,3.412,11.007,3.416
		c3.839-0.004,7.708-1.115,11.008-3.416c2.396-1.669,4.452-3.998,5.896-6.84h0.352l0.999-3.396c0.65-2.195,1.911-3.857,3.551-5.041
		c1.631-1.18,3.644-1.827,5.658-1.827c2.002,0.008,3.98,0.61,5.784,1.989l0.008,0.004c3.532,2.733,7.632,4.035,11.54,4.021
		c5.086-0.007,9.807-2.074,13.313-5.43c3.498-3.348,5.837-8.129,5.837-13.496c0-2.146-0.378-4.361-1.157-6.551
		c-0.393-1.104-0.566-2.18-0.566-3.229c-0.004-2.508,1.029-4.912,2.752-6.676c1.735-1.762,4.055-2.855,6.807-2.863l0.277,0.004
		h0.019c0.188,0.008,0.377,0.008,0.565,0.008c2.832,0.004,5.502-0.584,7.863-1.646c3.543-1.59,6.344-4.209,8.232-7.282
		c1.891-3.078,2.906-6.629,2.906-10.261C281.898,168.729,281.256,165.811,279.876,163.11z M269.818,178.356
		c-0.824,0.898-1.809,1.624-2.942,2.134c-1.14,0.511-2.44,0.817-3.983,0.821l-0.33-0.004h0.02c-0.174-0.007-0.355-0.011-0.548-0.011
		c-5.377-0.004-10.204,2.241-13.581,5.719c-3.389,3.47-5.439,8.202-5.443,13.29c0,2.113,0.361,4.281,1.116,6.401
		c0.429,1.209,0.606,2.325,0.606,3.377c0,2.588-1.104,4.903-2.922,6.664c-1.82,1.754-4.307,2.804-6.758,2.796
		c-1.898-0.011-3.807-0.564-5.759-2.052l-0.008-0.005c-3.478-2.686-7.582-3.965-11.565-3.957c-4.018,0-7.932,1.265-11.193,3.609
		c-2.336,1.676-4.322,3.943-5.725,6.654h-0.378l-0.999,3.395c-0.729,2.427-1.996,4.021-3.587,5.148
		c-1.595,1.117-3.573,1.713-5.582,1.713s-3.987-0.596-5.582-1.713c-1.59-1.127-2.863-2.723-3.587-5.148l-0.999-3.395h-0.378
		c-1.401-2.711-3.388-4.979-5.725-6.654c-3.258-2.346-7.176-3.605-11.192-3.609c-3.98-0.008-8.089,1.271-11.566,3.957l-0.003,0.005
		c-1.957,1.485-3.861,2.041-5.763,2.052c-2.448,0.008-4.934-1.042-6.753-2.796c-1.824-1.761-2.922-4.076-2.926-6.664
		c0-1.052,0.178-2.168,0.611-3.377c0.751-2.116,1.113-4.288,1.113-6.401c-0.003-5.088-2.056-9.817-5.444-13.29
		c-3.377-3.478-8.204-5.723-13.582-5.715c-0.177,0-0.366,0-0.562,0.011h0.026l-0.326,0.004c-1.542-0.004-2.84-0.307-3.983-0.817
		c-1.698-0.766-3.074-2.023-4.046-3.606c-0.973-1.575-1.51-3.458-1.506-5.301c0-1.453,0.322-2.869,0.984-4.164
		c0.669-1.298,1.668-2.5,3.203-3.559c2.729-1.867,4.823-4.323,6.206-7.038c1.384-2.719,2.068-5.692,2.068-8.658
		c0-2.967-0.684-5.94-2.068-8.659c-1.383-2.719-3.477-5.174-6.206-7.038c-1.531-1.059-2.534-2.261-3.199-3.559
		c-0.666-1.298-0.984-2.715-0.988-4.168c-0.007-2.456,0.961-4.979,2.611-6.769c0.825-0.899,1.809-1.628,2.944-2.139
		c1.139-0.51,2.437-0.813,3.983-0.82l0.296,0.007h0.026c0.185,0.008,0.366,0.008,0.54,0.008c5.378,0.007,10.201-2.241,13.582-5.715
		c3.388-3.473,5.437-8.204,5.44-13.289c0-2.115-0.358-4.283-1.113-6.402c-0.429-1.21-0.607-2.327-0.607-3.377
		c0-2.59,1.103-4.904,2.922-6.665c1.82-1.754,4.305-2.804,6.757-2.797c1.897,0.012,3.81,0.566,5.766,2.061
		c3.477,2.682,7.582,3.962,11.566,3.958c4.017-0.004,7.93-1.266,11.188-3.61c2.337-1.675,4.328-3.942,5.729-6.654h0.374l0.999-3.398
		c0.729-2.423,1.997-4.017,3.591-5.148c1.591-1.117,3.573-1.713,5.578-1.709c2.008-0.004,3.991,0.592,5.582,1.709
		c1.594,1.128,2.862,2.726,3.592,5.148l0.998,3.398h0.375c1.4,2.708,3.391,4.979,5.729,6.654c3.258,2.342,7.175,3.606,11.188,3.606
		c3.984,0.008,8.09-1.272,11.566-3.954c1.956-1.494,3.867-2.049,5.766-2.061c2.452-0.007,4.938,1.043,6.758,2.797
		c1.819,1.761,2.922,4.075,2.922,6.665c0,1.05-0.178,2.167-0.605,3.381c-0.755,2.115-1.113,4.283-1.113,6.398
		c0.004,5.085,2.053,9.816,5.44,13.289c3.381,3.477,8.204,5.722,13.581,5.715c0.186,0,0.363,0,0.525-0.004h0.021l0.318-0.008
		c1.541,0.004,2.84,0.308,3.982,0.817c1.697,0.766,3.07,2.023,4.046,3.606c0.974,1.576,1.509,3.458,1.507,5.301
		c0,1.453-0.322,2.87-0.983,4.168c-0.669,1.298-1.669,2.5-3.204,3.559c-2.729,1.864-4.822,4.319-6.202,7.038
		c-1.384,2.719-2.071,5.692-2.071,8.659c0,2.966,0.688,5.939,2.071,8.658c1.38,2.718,3.474,5.175,6.202,7.042
		c1.535,1.055,2.538,2.257,3.204,3.555c0.661,1.298,0.983,2.715,0.983,4.164C272.438,174.048,271.471,176.566,269.818,178.356z"/>
	<path fill="#122436" d="M190.253,89.174c-32.582,0.004-58.987,26.412-58.99,58.994c0.003,32.578,26.409,58.986,58.99,58.986
		c32.582-0.004,58.987-26.408,58.991-58.986C249.24,115.586,222.835,89.178,190.253,89.174z M225.27,183.184
		c-8.978,8.968-21.326,14.501-35.016,14.501c-13.688,0-26.042-5.533-35.015-14.501c-8.97-8.978-14.503-21.327-14.507-35.016
		c0.004-13.692,5.537-26.043,14.507-35.02c8.973-8.969,21.327-14.502,35.015-14.506c13.689,0,26.039,5.533,35.016,14.506
		c8.969,8.974,14.504,21.327,14.506,35.02C239.771,161.856,234.238,174.206,225.27,183.184z"/>
	<path fill="#FFFFFF" d="M161.515,147.731l22.473,22.477l37.372-37.375l-6.693-6.694l-30.677,30.677l-15.778-15.778l-6.695,6.698
		L161.515,147.731L161.515,147.731z"/>
</g>
</svg>
