<?xml version="1.0" encoding="utf-8"?>
<!-- Generator: Adobe Illustrator 16.0.0, SVG Export Plug-In . SVG Version: 6.00 Build 0)  -->
<!DOCTYPE svg PUBLIC "-//W3C//DTD SVG 1.1//EN" "http://www.w3.org/Graphics/SVG/1.1/DTD/svg11.dtd">
<svg version="1.1" id="Capa_1" xmlns="http://www.w3.org/2000/svg" xmlns:xlink="http://www.w3.org/1999/xlink" x="0px" y="0px"
	 width="380px" height="380px" viewBox="16 16 380 380" enable-background="new 16 16 380 380" xml:space="preserve">
<g>
	<path fill="#FFFFFF" d="M365.712,93.897H46.287c-8.502,0-15.392,6.89-15.392,15.392v182.296c0,8.497,6.89,15.391,15.392,15.391h179
		c4.688,0,9.122,2.139,12.046,5.801l52.478,65.917c3.133,3.933,9.47,1.721,9.47-3.308v-53.02c0-8.502,6.889-15.395,15.391-15.395
		h51.045c8.499,0,15.392-6.89,15.392-15.392V109.289C381.104,100.787,374.211,93.897,365.712,93.897z"/>
	<path fill="#122436" d="M380.34,94.662c-3.727-3.734-8.933-6.063-14.628-6.058H46.287c-5.694,0-10.9,2.324-14.626,6.058
		c-3.735,3.726-6.063,8.932-6.059,14.626v182.296c0,5.693,2.323,10.899,6.059,14.625c3.726,3.735,8.932,6.063,14.626,6.055h179
		c3.076,0,5.987,1.401,7.902,3.813l52.48,65.912c1.038,1.314,2.366,2.357,3.801,3.023c1.435,0.678,2.965,0.987,4.444,0.987
		c2.705-0.009,5.278-1,7.291-2.849c1.005-0.923,1.856-2.08,2.448-3.407c0.596-1.328,0.918-2.829,0.918-4.358v-53.02
		c0-2.808,1.121-5.296,2.957-7.142c1.844-1.836,4.333-2.956,7.142-2.96h51.041c5.695,0.004,10.901-2.319,14.628-6.055
		c3.732-3.726,6.062-8.932,6.058-14.625V109.289C386.397,103.594,384.072,98.388,380.34,94.662z M375.811,291.585
		c-0.004,2.802-1.121,5.292-2.957,7.137c-1.843,1.836-4.337,2.956-7.142,2.956h-51.041c-11.427,0.009-20.681,9.259-20.686,20.688
		v53.023l-0.033,0.008l-0.004-0.004l-52.476-65.911c-3.929-4.931-9.884-7.805-16.186-7.805h-179c-2.808,0-5.297-1.12-7.142-2.956
		c-1.836-1.845-2.952-4.335-2.957-7.137V109.289c0.005-2.804,1.121-5.297,2.957-7.142c1.845-1.836,4.338-2.957,7.142-2.957h319.425
		c2.805,0,5.294,1.121,7.138,2.957c1.836,1.845,2.957,4.338,2.957,7.142v182.296H375.811z"/>
	<path fill="#FFFFFF" d="M248.688,32.426l-19.807,9.966l-13.332,46.749l-35.746,36.477l-31.233,27.748l-2.577,25.031l3.429,10.714
		l36.432-19.717l65.408-82.296l8.58-44.661L248.688,32.426z"/>
	<path fill="#FFCC34" d="M255.562,37.711c0,0-1.459,40.84-24.204,70.291c-22.748,29.452-87.288,77.289-87.288,77.289v53.063
		l94.78,14.796l-1.579-73.413c0,0-0.773-42.846,5.405-48.106c6.178-5.26,19.3-3.25,19.3-3.25l8.75-12.799
		c0,0,6.413-27.412,4.664-41.116C273.641,60.761,255.562,37.711,255.562,37.711z"/>
	<path fill="#365FE0" d="M85.258,162.803h58.812v88.941H85.258V162.803z"/>
	<path fill="#FFFFFF" d="M131.838,232.921h10.586v-10.586h-10.586V232.921z M108.548,232.921h10.586v-10.586h-10.586V232.921z
		 M85.258,232.921h10.586v-10.586H85.258V232.921z"/>
	<path fill="#FFCC34" d="M312.16,150.252h-60.313c-8.051,0-14.581,6.53-14.581,14.582v75.854c0,8.051,6.53,14.581,14.581,14.581
		h60.313c8.051,0,14.582-6.53,14.582-14.581v-75.854C326.742,156.782,320.211,150.252,312.16,150.252z"/>
	<path fill="#122436" d="M114.664,172.235c5.21,0,9.437-4.222,9.437-9.432s-4.227-9.437-9.437-9.437
		c-5.211,0-9.433,4.226-9.433,9.437S109.453,172.235,114.664,172.235z"/>
	<path fill="#122436" d="M326.585,128.534c-3.346-3.358-8.031-5.45-13.146-5.446h-40.314l5.339-30.808c0.657-3.801,1-7.654,1-11.513
		c0-5.301-0.645-10.615-2.014-15.809c-3.879-14.713-12.364-25.775-20.883-33.645c-3.887-3.606-8.776-5.331-13.46-5.314
		c-4.802,0.008-9.438,1.72-13.081,4.838c-3.643,3.101-6.256,7.725-6.765,13.129c-0.819,8.531-2.449,18.311-5.487,27.496
		c-3.031,9.193-7.477,17.719-13.663,23.98c-9.61,9.739-25.544,24.262-39.009,36.275c-5.979,5.334-11.471,10.181-15.738,13.923
		v-3.813c0.004-2.179-0.897-4.201-2.328-5.624c-1.423-1.431-3.445-2.333-5.624-2.328h-53.49c-2.179-0.004-4.201,0.897-5.624,2.328
		c-1.431,1.423-2.332,3.445-2.332,5.628v107.255c0,2.185,0.901,4.207,2.328,5.625c1.423,1.431,3.444,2.336,5.628,2.332h53.49
		c2.179,0,4.201-0.901,5.624-2.332c1.431-1.423,2.332-3.445,2.332-5.625v-5.821l94.935,16.185c1.963,0.707,4.071,1.113,6.272,1.108
		h62.864c10.272,0,18.592-8.319,18.597-18.591V141.685C332.035,136.565,329.941,131.884,326.585,128.534z M138.777,246.452H90.551
		V144.459h48.227V246.452z M232.614,246.717l-83.251-14.192v-72.827c3.676-3.197,12.513-10.917,22.789-20.085
		c13.543-12.088,29.51-26.627,39.487-36.738c7.759-7.874,12.796-17.881,16.182-28.091c3.374-10.222,5.1-20.713,5.977-29.798
		c0.269-2.676,1.427-4.64,3.113-6.112c1.687-1.456,3.949-2.295,6.19-2.287c2.2,0.012,4.334,0.728,6.272,2.506
		c7.493,6.922,14.61,16.313,17.832,28.563c1.125,4.268,1.667,8.672,1.667,13.113c0,3.233-0.286,6.484-0.845,9.706l-5.647,32.615
		H250.57c-5.116,0-9.801,2.092-13.146,5.446c-3.357,3.35-5.45,8.031-5.446,13.15v100.28
		C231.974,243.606,232.213,245.194,232.614,246.717z M321.448,241.965c-0.004,2.229-0.89,4.198-2.345,5.661
		c-1.467,1.459-3.436,2.344-5.665,2.344h-61.731l-4.516-0.769c-0.844-0.396-1.621-0.918-2.282-1.575
		c-1.46-1.468-2.345-3.433-2.35-5.661v-15.242h39.442v-10.587H242.56v-19.018h39.442v-10.586H242.56v-19.018h39.442v-10.587H242.56
		v-15.242c0.005-2.229,0.89-4.197,2.35-5.666c1.464-1.456,3.432-2.345,5.661-2.345h62.864c2.233,0,4.202,0.889,5.665,2.345
		c1.459,1.464,2.345,3.437,2.345,5.666v100.28H321.448z"/>
	<path fill="#122436" d="M293.981,156.927h12.369v10.587h-12.369V156.927z"/>
</g>
</svg>
