<?xml version="1.0" encoding="utf-8"?>
<!-- Generator: Adobe Illustrator 16.0.0, SVG Export Plug-In . SVG Version: 6.00 Build 0)  -->
<!DOCTYPE svg PUBLIC "-//W3C//DTD SVG 1.1//EN" "http://www.w3.org/Graphics/SVG/1.1/DTD/svg11.dtd">
<svg version="1.1" id="Capa_1" xmlns="http://www.w3.org/2000/svg" xmlns:xlink="http://www.w3.org/1999/xlink" x="0px" y="0px"
	 width="300px" height="300px" viewBox="0 0 300 300" enable-background="new 0 0 300 300" xml:space="preserve">
<g>
	<path fill="#FFFFFF" d="M235.218,92.195c0,49.487-40.118,89.606-89.607,89.606c-49.487,0-89.606-40.119-89.606-89.606
		c0-49.49,40.119-89.607,89.606-89.607C195.1,2.587,235.218,42.705,235.218,92.195 M145.611,17.522
		c-41.24,0-74.672,33.431-74.672,74.673c0,41.239,33.432,74.67,74.672,74.67c41.241,0,74.671-33.431,74.671-74.67
		C220.282,50.953,186.852,17.522,145.611,17.522"/>
	<path fill="#FFFFFF" d="M180.836,102.382c-7.076-22.014-29.059-22.401-30.249-22.51c-0.482-0.044-0.649-2.381-1.082-4.762
		c-0.434-2.38-0.434-4.545-0.434-4.545s3.896,1.731,9.307,1.299c5.412-0.433,7.359-2.598,8.658-4.545
		c1.299-1.948-0.216-5.194,0.649-5.412c0.865-0.216,1.947-2.381,4.112-5.844c2.164-3.462,2.813-3.679,3.463-5.843
		c0.649-2.164-0.65-6.061-1.299-5.843c-0.649,0.215-0.865,8.007-0.865,8.007l-6.71,8.225c0,0-2.165-0.217-3.464,0.648
		c-1.298,0.867-4.545,3.896-7.142,5.412c-2.598,1.515-6.494,1.082-8.875,1.082c-2.38,0-3.246-0.649-3.895-1.731
		c-0.65-1.083-0.65-1.948-0.65-1.948s1.299-0.649,2.597-1.947c1.3-1.299,1.3-4.113,1.3-4.113s1.082,0,1.947-2.381
		c0.866-2.381-3.896-4.329-4.545-4.329c-0.648,0-0.434,3.247-0.434,3.247s-3.246-0.649-5.627,0.433
		c-2.381,1.082-2.381,6.06-2.381,6.06l-1.731,0.434l1.515,1.731c0,0-0.216,1.299,0,2.597c0.216,1.299,5.412-0.649,5.412-0.649
		s0.866,1.082,0.866,2.813c0,1.732-0.216,4.113-1.515,4.762s-4.113,2.813-9.74,3.462c-5.627,0.65-10.823,1.083-13.419-0.432
		c-2.598-1.515-5.844-5.628-6.494-5.628c0,0-0.648,1.299,0.649,3.68c1.298,2.381,3.247,1.949,3.247,1.949s2.381,1.731,6.71,2.814
		c2.528,0.632,6.926-0.217,6.926-0.217s-1.353,6.926,2.597,6.926c6.494,0,9.523-9.307,10.822-9.307c1.298,0,4.761,2.165,5.627,3.03
		c0.865,0.866,1.731,1.948,1.731,1.948s-10.822,3.896-17.53,14.718c-6.711,10.823-10.569,18.953-19.698,20.778
		c-9.739,1.949-14.935-4.545-14.935-4.545s1.083,9.307,9.741,11.039c8.657,1.731,11.687-1.083,11.687-1.083s-2.814,2.38-5.628,3.03
		c-2.813,0.649-7.358,0-7.358,0s3.246,6.494,12.986,6.494c9.74,0,12.986-2.596,12.986-2.596s-0.216,2.38-2.814,3.678
		c-2.596,1.299-4.545,1.732-4.545,1.732s3.68,2.381,10.173,1.515s10.39-3.463,10.39-3.463s-1.732,4.545-6.493,5.411
		c-4.763,0.867-10.172,0.217-10.172,0.217s6.709,6.926,20.344,5.411c13.636-1.514,14.501-4.979,14.501-4.979
		s-0.865,0.92-0.649,3.248c0.217,2.327,2.813,3.679,2.813,3.679s-1.515-1.515-0.649-3.679c0.867-2.165,7.144-9.524,8.875-8.875
		s1.731,1.515-1.082,4.328c-2.814,2.814-4.763,4.113-4.763,4.113S191.063,134.2,180.836,102.382"/>
	<g>
		<path fill="#FFFFFF" d="M98.132,205.678v89.434H86.789V279.74c-4.823,5.863-10.234,10.273-16.234,13.232
			c-6.001,2.961-12.563,4.439-19.687,4.439c-12.659,0-23.468-4.588-32.427-13.768C9.479,274.467,5,263.299,5,250.146
			c0-12.875,4.521-23.891,13.563-33.043c9.042-9.15,19.919-13.729,32.633-13.729c7.343,0,13.986,1.563,19.933,4.686
			c5.946,3.123,11.165,7.809,15.66,14.057v-16.439H98.132z M52.141,214.473c-6.403,0-12.315,1.576-17.734,4.723
			c-5.42,3.148-9.73,7.568-12.932,13.26c-3.203,5.691-4.803,11.713-4.803,18.063c0,6.295,1.615,12.316,4.844,18.063
			c3.229,5.748,7.567,10.223,13.013,13.426s11.29,4.803,17.53,4.803c6.294,0,12.26-1.586,17.899-4.762
			c5.637-3.176,9.975-7.473,13.013-12.891c3.037-5.418,4.557-11.521,4.557-18.311c0-10.344-3.407-18.994-10.223-25.945
			C70.491,217.949,62.103,214.473,52.141,214.473z"/>
		<path fill="#FFFFFF" d="M122.545,205.678h11.508v41.758c0,10.191,0.547,17.207,1.646,21.043c1.647,5.48,4.789,9.809,9.426,12.986
			c4.637,3.18,10.166,4.77,16.588,4.77c6.421,0,11.867-1.549,16.341-4.646c4.473-3.096,7.56-7.162,9.262-12.205
			c1.151-3.453,1.729-10.77,1.729-21.947v-41.758h11.755v43.895c0,12.33-1.438,21.617-4.315,27.865
			c-2.877,6.246-7.207,11.139-12.988,14.672c-5.782,3.535-13.027,5.303-21.741,5.303c-8.713,0-15.988-1.768-21.823-5.303
			c-5.836-3.533-10.193-8.465-13.07-14.795s-4.315-15.852-4.315-28.564V205.678z"/>
		<path fill="#FFFFFF" d="M216.171,205.678h13.809l23.787,32.715l23.535-32.715h13.835l-30.441,42.248L295,295.111h-14.017
			l-27.221-37.563l-27.064,37.563h-13.734l33.885-47.102L216.171,205.678z"/>
	</g>
</g>
</svg>
