<?xml version="1.0" encoding="utf-8"?>
<!-- Generator: Adobe Illustrator 16.0.0, SVG Export Plug-In . SVG Version: 6.00 Build 0)  -->
<!DOCTYPE svg PUBLIC "-//W3C//DTD SVG 1.1//EN" "http://www.w3.org/Graphics/SVG/1.1/DTD/svg11.dtd">
<svg version="1.1" id="Capa_1" xmlns="http://www.w3.org/2000/svg" xmlns:xlink="http://www.w3.org/1999/xlink" x="0px" y="0px"
	 width="380px" height="380px" viewBox="0 0 380 380" enable-background="new 0 0 380 380" xml:space="preserve">
<g>
	<path fill="#FFCC34" d="M354.396,37v79.333c0,9.389-7.61,16.999-17,16.999c-9.388,0-16.999-7.611-16.999-16.999v-32.64
		l-134.3,134.3c-6.869,6.401-17.626,6.021-24.027-0.847c-6.083-6.529-6.083-16.65,0-23.179L296.368,59.667h-32.64
		c-9.389,0-16.999-7.611-16.999-17c0-9.388,7.61-17,16.999-17h79.333C349.313,25.684,354.377,30.748,354.396,37L354.396,37z"/>
	<path fill="#365FE0" d="M353.433,207.113c0,0.624-0.058,1.246-0.111,1.927c-10.535,90.146-92.152,154.683-182.297,144.147
		C80.877,342.654,16.34,261.037,26.875,170.892c8.84-75.648,68.501-135.309,144.148-144.148c9.364-1.087,17.835,5.623,18.922,14.985
		c0.557,4.798-0.945,9.605-4.132,13.234c-2.764,3.107-6.579,5.085-10.71,5.553c-71.504,8.27-122.767,72.938-114.498,144.443
		c8.269,71.504,72.939,122.767,144.443,114.498c60.122-6.952,107.545-54.378,114.498-114.498c0.976-8.548,8.226-14.993,16.829-14.96
		C345.812,190.016,353.448,197.678,353.433,207.113L353.433,207.113L353.433,207.113z"/>
	<path stroke="#FFFFFF" stroke-width="5" stroke-miterlimit="10" d="M189.945,360c-3.547,0-7.116-0.11-10.705-0.334
		C85.538,353.755,14.369,273.001,20.28,179.3c5.178-82.09,68.385-148.697,150.091-158.167c12.431-1.482,23.712,7.395,25.194,19.828
		c1.479,12.434-7.396,23.712-19.83,25.195c-68.393,7.916-117.419,69.781-109.502,138.176
		c7.917,68.395,69.78,117.422,138.176,109.504c57.495-6.655,102.85-52.013,109.504-109.508c1.483-12.435,12.765-21.31,25.196-19.827
		c12.432,1.483,21.309,12.764,19.824,25.198l0,0C348.934,295.437,276.264,360.069,189.945,360L189.945,360z M172.977,32.308
		c-0.438,0-0.873,0.028-1.308,0.08C84.632,42.555,22.318,121.357,32.487,208.394c10.167,87.038,88.969,149.353,176.007,139.184
		c73.044-8.534,130.649-66.141,139.181-139.184c0.372-3.243-0.658-6.493-2.833-8.931c-4.146-4.665-11.29-5.09-15.959-0.941
		c-2.063,1.833-3.384,4.355-3.715,7.097c-8.636,74.613-76.121,128.1-150.733,119.463c-74.612-8.636-128.1-76.12-119.464-150.733
		c7.259-62.726,56.737-112.204,119.464-119.464c6.195-0.744,10.616-6.37,9.872-12.565c-0.33-2.745-1.653-5.275-3.724-7.109
		C178.489,33.341,175.783,32.309,172.977,32.308z"/>
	<path stroke="#FFFFFF" stroke-width="5" stroke-miterlimit="10" d="M174.089,228.646c-12.519,0.005-22.67-10.142-22.673-22.659
		c0-6.016,2.387-11.785,6.642-16.038L282.68,65.333h-18.95c-12.52,0-22.666-10.148-22.666-22.666
		C241.063,30.148,251.21,20,263.729,20h79.333c9.391,0,17,7.611,17,17.001v79.333c0,12.518-10.148,22.667-22.667,22.667
		c-12.518,0-22.666-10.149-22.666-22.667V97.39L190.114,222.005C185.874,226.271,180.104,228.663,174.089,228.646L174.089,228.646z
		 M263.729,31.333c-6.259,0-11.334,5.075-11.334,11.334c0,6.259,5.075,11.333,11.334,11.333h32.629c3.13,0,5.664,2.538,5.664,5.668
		c0,1.502-0.596,2.943-1.659,4.005L166.064,197.972c-4.427,4.426-4.429,11.602-0.003,16.028c0.001,0.002,0.002,0.002,0.003,0.005
		c4.486,4.28,11.544,4.28,16.03,0L316.394,79.703c2.219-2.209,5.806-2.204,8.015,0.014c1.057,1.06,1.651,2.496,1.653,3.994v32.623
		c0,6.259,5.073,11.334,11.334,11.334c6.259,0,11.332-5.075,11.332-11.334V37c0-3.13-2.537-5.667-5.667-5.667H263.729z"/>
</g>
</svg>
