<?xml version="1.0" encoding="utf-8"?>
<!-- Generator: Adobe Illustrator 16.0.0, SVG Export Plug-In . SVG Version: 6.00 Build 0)  -->
<!DOCTYPE svg PUBLIC "-//W3C//DTD SVG 1.1//EN" "http://www.w3.org/Graphics/SVG/1.1/DTD/svg11.dtd">
<svg version="1.1" id="Capa_1" xmlns="http://www.w3.org/2000/svg" xmlns:xlink="http://www.w3.org/1999/xlink" x="0px" y="0px"
	 width="150px" height="150px" viewBox="0 0 150 150" enable-background="new 0 0 150 150" xml:space="preserve">
<g>
	<path fill="#FFFFFF" d="M141.205,57.135l0.046,0.217l0.176,0.76c0.389,0.828,0.954,2.57,1.166,4.963
		c0.063-0.011,0.091-0.228,0.251,0.595c0.434,3.775,0.32,1.873,0.794,4.581c-0.058-0.84-0.287-1.885-0.269-2.308
		c0.371,1.731,0.422,3.495,0.531,5.249c0.091-0.73,0.194-1.336,0.343-0.462c0.223-0.554,0.605,1.182,0.908,1.856
		c-0.006-0.868-0.006-1.593-0.006-2.102c0.103,0.126,0.2,1.046,0.28,2.171c0.022-0.081,0.045-0.183,0.057-0.349
		c-0.011,0.166-0.034,0.269-0.057,0.349c0.04,0.771,0.08,1.582,0.12,2.358c0.006-0.44,0.018-0.874,0.08-0.657l-0.16-3.244
		c0.012-0.109,0.04,0,0.068,0.194l-0.103-0.84l-0.029,0.651c-0.045,0.229-0.097-0.211-0.154-0.639
		c-0.051-0.857-0.023-1.08-0.012-1.513c-0.068-0.566-0.091-1.154-0.251-1.714c-0.148-0.628,0.166,4.529-0.148,1.748l0.005-0.862
		c-0.166-1.279-0.486-2.976-0.725-3.804c0.012-1.309-0.691-3.581-0.486-3.838c-0.988-4.855-3.05-10.979-5.02-15.524
		c-0.572-0.686-0.938-0.52-2.085-2.319c-0.148-0.394-0.405-0.988-0.268-0.811c-0.257-0.429-0.571-0.828-0.852-1.234
		c0.475,0.714,0.977,1.646,1.063,2.079c-1.097-2.056,0.303,1.034,0.108,0.903c-0.486-0.948-0.965-1.891-1.582-2.747l0.16,0.336
		c2.627,5.026,4.729,10.321,6.003,15.827L141.205,57.135z"/>
	<path fill="#FFFFFF" d="M68.206,2.503l0.086,0.234C55.746,4.011,42.223,8.585,30.771,17.484C19.18,26.12,9.898,39.023,5.189,53.908
		c-4.473,14.908-4.432,31.74,1.345,46.75c2.804,7.511,6.846,14.559,11.875,20.762c5.118,6.14,11.218,11.378,17.892,15.507
		l-1.808-0.034c7.245,4.438,15.778,7.881,24.529,9.47c8.734,1.651,17.555,1.513,25.237,0.188c-1.993,0.337-4.015,0.337-6.031,0.377
		c2.759-0.292,7.625-1.028,12.732-2.353c2.536-0.72,5.198-1.36,7.614-2.388c2.467-0.868,4.786-1.799,6.706-2.787l-0.663,0.588
		c-10.944,4.638,0.839-0.097-3.41,2.256l-1.919,0.822l1.194-0.308l1.919-0.829c-0.177,0.2,0.063,0.303-1.782,1.035
		c0.874-0.326,1.782-0.606,2.627-0.971c5.695-2.028,6.02-1.583,5.638-0.606c1.404-0.806-0.343-0.514,5.603-3.889l-0.634,0.663
		c2.114-1.332,3.993-2.999,5.906-4.604c0.937-0.599,1.941-1.119,2.804-1.828c1.856-1.936,3.107-3.113,5.066-5.02l0.217-0.937
		c4.353-4.267,8.254-10.012,11.589-16.021c3.107-6.163,5.46-12.668,6.951-18.66c0.206-2.696,1.845-9.173,1.587-16.084l-0.656,2.924
		c-0.303,1.834-0.36,4.29-0.965,7.06c-0.246,1.445-0.491,2.907-0.749,4.42c-0.4,1.531-0.799,3.113-1.228,4.712
		c-1.737,6.443-4.609,13.166-7.877,18.106l0.006-0.531c1.279-2.12,1.816-3.85,3.25-6.546l-0.081-0.914
		c-0.942,0.977-1.925,2.65-2.986,4.644c-1.246,1.891-2.417,4.192-3.753,6.375c-2.696,4.357-5.815,8.362-7.357,9.835
		c-3.404,2.947-2.547,1.696-1.153,0.211c1.285-1.594,2.918-3.644,1.525-2.045c3.062-3.827,1.439-2.484-1.269,0.069
		c-2.787,2.501-7.065,5.837-8.921,6.729c-4.747,2.964-12.475,7.54-21.459,10.161c-8.916,2.742-18.837,3.507-26.17,2.759
		c-6.101-0.462-12.792-1.537-19.22-4.187c-6.414-2.599-12.64-6.289-18.106-10.829c-5.38-4.632-9.933-10.064-13.542-15.656
		c-3.647-5.603-5.957-11.515-7.831-16.855C8.051,90.2,6.02,83.306,5.803,76.595c-0.246-3.324-0.034-6.569,0.223-9.379
		c0.508-2.775,0.919-5.174,1.702-6.796c1.528-6.66,4.201-12.989,7.54-18.895l0.012,0.502c4.86-8.596,11.803-16.604,20.079-22.692
		c8.23-6.192,17.857-10.11,27.01-11.835c1.848-0.325,3.51-0.628,5.076-0.908c1.388-0.137,2.662-0.269,3.667-0.365
		c2.097-0.194,3.661-0.32,5.5,0.234c8.071,0.411,16.815,2.028,24.971,5.317c8.174,3.228,15.685,8.1,21.368,13.68
		c0.12-0.217,1.959,1.103-0.148-0.982c-3.05-2.782-6.534-5.466-9.23-7.637c-2.827-1.941-4.781-3.496-4.747-3.867l2.639,1.679
		c-1.501-1.097-2.964-2.296-4.609-3.205l-3.329-1.365c-0.76-0.554-1.08-0.851-1.098-0.966c-5.688-2.387-10.692-4.74-17.123-5.957
		c-2.291-0.343-4.752-0.491-7.545-0.577C74.96,2.302,71.847,2.48,68.206,2.503"/>
	<path fill="#FFFFFF" d="M114.062,102.132H23.469c-1.431,0-2.602-1.171-2.602-2.61c0-1.434,1.171-2.61,2.602-2.61h90.593
		c1.434,0,2.61,1.177,2.61,2.61C116.672,100.961,115.496,102.132,114.062,102.132 M109.065,51.697
		c-1.091,0.4-0.806,1.211-0.263,3.027c1.32,4.381,2.765,8.728,4.141,13.085c1.919,6.049,3.85,12.085,5.717,18.152
		c0.155,0.497,0.018,1.285-0.291,1.696c-1.627,2.148-3.33,4.25-5.072,6.3c-0.32,0.389-0.971,0.697-1.468,0.697H23.886
		c1.736-2.335,3.315-4.637,5-6.768c5.538-6.997,11.775-13.314,18.909-18.7c0.994-0.76,1.468-1.565,1.352-2.845
		c-0.129-1.325-0.046-2.667-0.023-4.004c0.028-1.953,1.162-3.106,3.087-3.215c1.959-0.091,3.365,1.068,3.564,2.947
		c0.028,0.343,0.051,0.674,0.103,1.292c1.371-0.846,2.599-1.583,3.816-2.342c7.222-4.496,14.93-7.946,23.115-10.23
		c6.905-1.937,13.965-3.113,21.19-2.873c0.571,0.017,1.582,0.137,2.125,0.457c0.737,0.446,0.959,1.097,1.69,1.068
		c0.851-0.04,0.851-1.08,2.171-1.01c4.42-0.069,11.445,3.318,12.12,7.819c0.457,3.901-0.737,6.934-1.502,10.053
		c-0.806,3.261-1.108,6.625,1.713,9.133c1.229,1.108,2.896,1.822,4.472,2.387c1.097,0.395,1.634,0.908,1.525,1.977
		c-0.12,1.171-1.051,1.342-1.988,1.257c-2.559-0.217-7.037-2.354-8.733-6.792c-1.422-3.741-0.56-7.311,0.377-10.915
		c0.303-1.177,0.749-2.336,0.902-3.542c0.492-4.09-4.278-8.025-8.63-8.088C109.944,51.72,109.345,51.589,109.065,51.697
		 M98.555,69.53v2.553c3.016,0.331,5.98,0.64,9.282,0.994c-1.776-6.803-3.461-13.268-5.169-19.831h-1.771
		c-7.391,0.034-14.457,1.639-21.299,4.381c-9.116,3.661-16.923,9.024-22.778,17.038c-1.379,1.896-1.07,2.845,1.234,3.456
		c0.522,0.148,1.076,0.148,1.622,0.183c3.607,0.246,7.077-0.543,10.493-1.537c3.159-0.919,6.283-1.971,9.39-3.039
		c1.388-0.474,2.319-1.182,2.319-3.661L98.555,69.53z M98.584,68.969l-16.536,0.623c-0.583,0.023-1.068-0.428-1.091-1.005
		c-0.023-0.565,0.428-1.051,1.005-1.074l16.541-0.633c0.572-0.018,1.063,0.434,1.086,1.005
		C99.612,68.461,99.161,68.946,98.584,68.969 M100.897,86.487c-1.439,0-2.61,1.165-2.61,2.604s1.171,2.61,2.61,2.61
		s2.61-1.17,2.61-2.61S102.336,86.487,100.897,86.487 M107.934,86.487c-1.439,0-2.605,1.165-2.605,2.604s1.166,2.61,2.605,2.61
		c1.444,0,2.61-1.17,2.61-2.61S109.378,86.487,107.934,86.487 M36.649,91.605c0.308-0.017,0.766-0.577,0.859-0.948
		c1.028-4.152,2.819-7.968,5.124-11.532c1.613-2.479,3.421-4.821,5.14-7.23c-7.111,5.42-13.382,11.617-18.06,19.751L36.649,91.605z"
		/>
</g>
</svg>
