<?xml version="1.0" encoding="utf-8"?>
<!-- Generator: Adobe Illustrator 16.0.0, SVG Export Plug-In . SVG Version: 6.00 Build 0)  -->
<!DOCTYPE svg PUBLIC "-//W3C//DTD SVG 1.1//EN" "http://www.w3.org/Graphics/SVG/1.1/DTD/svg11.dtd">
<svg version="1.1" id="Capa_1" xmlns="http://www.w3.org/2000/svg" xmlns:xlink="http://www.w3.org/1999/xlink" x="0px" y="0px"
	 width="380px" height="380px" viewBox="7 7 380 380" enable-background="new 7 7 380 380" xml:space="preserve">
<g>
	<path fill="#FFFFFF" d="M31.564,47.775h254.3v322.809h-254.3V47.775z"/>
	<path fill="#122436" d="M25.57,41.782V377h266.416V41.782H25.57z M37.558,53.765h242.439v311.243H37.558V53.765z"/>
	<path fill="#365FE0" d="M95.395,22.994H222.16v49.558H95.395V22.994z"/>
	<path fill="#FFFFFF" d="M95.395,22.994H222.16v19.321H95.395V22.994z"/>
	<path fill="#122436" d="M89.4,17v61.546h138.754V17H89.4z M101.388,28.988h114.778v37.57H101.388V28.988z"/>
	<path fill="#122436" d="M129.518,115.984h109.759v11.988H129.518V115.984z"/>
	<path fill="#122436" d="M129.518,182.315h109.759v11.988H129.518V182.315z"/>
	<path fill="#122436" d="M129.518,248.65h109.759v11.988H129.518V248.65z"/>
	<path fill="#122436" d="M129.518,314.982h109.759v11.988H129.518V314.982z"/>
	<path fill="#FFCC34" d="M71.536,168.829H110.5v38.96H71.536V168.829z"/>
	<path fill="#122436" d="M71.648,185.786l16.872,16.871l30.841-27.478l-7.975-8.954l-22.394,19.954l-8.864-8.869l-8.476,8.476
		H71.648z"/>
	<path fill="#FFCC34" d="M71.536,102.499H110.5v38.96H71.536V102.499z"/>
	<path fill="#122436" d="M71.648,119.454l16.872,16.872l30.841-27.483l-7.975-8.949l-22.394,19.949l-8.864-8.864l-8.476,8.475
		H71.648z"/>
	<path fill="#FFCC34" d="M71.536,235.159H110.5v38.966H71.536V235.159z"/>
	<path fill="#122436" d="M71.648,252.116l16.872,16.872l30.841-27.483l-7.975-8.949L88.993,252.51l-8.864-8.87l-8.476,8.48
		L71.648,252.116z"/>
	<path fill="#FFCC34" d="M71.536,301.491H110.5v38.966H71.536V301.491z"/>
	<path fill="#122436" d="M71.648,318.452l16.872,16.867l30.841-27.478l-7.975-8.95l-22.394,19.95l-8.864-8.865l-8.476,8.476H71.648z
		"/>
	<path fill="#FFFFFF" d="M193.132,124.152h161.523c4.298,0,7.781,3.483,7.781,7.781v92.176c0,4.298-3.483,7.782-7.781,7.782h-90.515
		c-2.374,0-4.611,1.081-6.092,2.937l-26.533,33.332c-1.581,1.989-4.79,0.87-4.79-1.673v-26.813c0-4.3-3.483-7.783-7.781-7.783
		h-25.813c-4.298,0-7.782-3.484-7.782-7.782v-92.176C185.35,127.635,188.833,124.152,193.132,124.152z"/>
	<path fill="#122436" d="M364.393,122.189c-2.472-2.482-5.956-4.037-9.737-4.032H193.132c-3.783-0.005-7.267,1.549-9.74,4.032
		c-2.486,2.477-4.042,5.956-4.037,9.744v92.176c-0.005,3.787,1.55,7.266,4.037,9.743c2.473,2.482,5.957,4.037,9.74,4.032h25.813
		c0.514,0.005,0.922,0.192,1.264,0.53c0.338,0.341,0.523,0.749,0.528,1.265v26.808c-0.005,1.227,0.258,2.458,0.751,3.554
		c0.734,1.654,1.947,2.956,3.328,3.808c1.387,0.861,2.966,1.316,4.627,1.321c1.208,0,2.468-0.254,3.652-0.81
		c1.185-0.554,2.28-1.415,3.113-2.468l26.532-33.329c0.343-0.425,0.859-0.674,1.4-0.674h90.515c3.786,0,7.266-1.551,9.742-4.037
		c2.482-2.473,4.038-5.956,4.033-9.738v-92.181C368.431,128.15,366.88,124.667,364.393,122.189z M356.442,224.114
		c-0.005,0.514-0.192,0.922-0.522,1.263c-0.348,0.333-0.756,0.521-1.265,0.525h-90.515c-4.199,0-8.166,1.909-10.779,5.193
		l-20.642,25.928v-17.349c0.005-3.783-1.549-7.268-4.035-9.74c-2.473-2.481-5.952-4.037-9.74-4.037h-25.813
		c-0.51,0-0.922-0.192-1.264-0.525c-0.337-0.34-0.52-0.753-0.53-1.263v-92.176c0.005-0.51,0.192-0.922,0.53-1.268
		c0.341-0.333,0.749-0.521,1.264-0.525h161.523c0.509,0.005,0.917,0.192,1.265,0.525c0.33,0.341,0.518,0.753,0.522,1.268V224.114z"
		/>
	<path fill="#FFFFFF" d="M211.362,148.96c0-4.879,3.972-8.845,8.846-8.845h21.166l-2.939-16.989
		c-0.793-4.58-0.629-9.057,0.49-13.304c1.616-6.143,5.053-11.673,10.214-16.431c2.501-2.308,6.018-2.987,9.187-1.779
		c3.155,1.204,5.316,4.041,5.638,7.407c0.812,8.392,3.209,19.846,10.026,26.758c6.916,7.005,20.069,18.698,27.295,25.043
		l2.445,2.149v-4.448c0-1.629,1.325-2.95,2.951-2.95h26.783c1.631,0,2.951,1.321,2.951,2.95v53.979c0,1.623-1.325,2.948-2.951,2.948
		h-26.783c-1.631,0-2.951-1.325-2.951-2.948v-4.239l-50.664,8.645c-0.771,0.211-1.566,0.324-2.359,0.324h-30.498
		c-4.879,0-8.846-3.972-8.846-8.852V148.96z"/>
	<path fill="#FFCC34" d="M248.834,95.736c0,0,0.734,20.65,12.241,35.547c11.5,14.891,44.134,39.082,44.134,39.082v26.832
		l-47.928,7.484l0.801-37.125c0,0,0.389-21.667-2.733-24.322c-3.125-2.66-9.76-1.649-9.76-1.649l-4.427-6.471
		c0,0-3.244-13.856-2.354-20.791C239.689,107.396,248.834,95.736,248.834,95.736z"/>
	<path fill="#365FE0" d="M305.209,158.995h29.735v44.973h-29.735V158.995z"/>
	<path fill="#FFCC34" d="M220.213,152.646h30.498c4.07,0,7.371,3.301,7.371,7.376v38.351c0,4.075-3.301,7.376-7.371,7.376h-30.498
		c-4.07,0-7.371-3.301-7.371-7.376v-38.351C212.838,155.946,216.139,152.646,220.213,152.646z"/>
	<path fill="#122436" d="M338.789,143.196c-1.307-1.321-3.181-2.15-5.189-2.15h-27.046c-2.011-0.004-3.883,0.83-5.194,2.15
		c-0.295,0.294-0.551,0.623-0.795,0.964c-1.969-1.737-4.136-3.671-6.379-5.684c-6.139-5.517-12.83-11.675-16.979-15.88
		c-2.637-2.65-4.697-6.504-6.121-10.836c-1.431-4.313-2.229-9.038-2.625-13.177c-0.328-3.592-2.109-6.761-4.563-8.841
		c-2.454-2.098-5.544-3.241-8.77-3.246c-3.153-0.019-6.481,1.171-9.058,3.568c-4.631,4.271-9.351,10.392-11.519,18.604
		c-0.771,2.914-1.129,5.892-1.129,8.837c0,2.153,0.192,4.288,0.557,6.392l2.029,11.692h-16.448
		c-3.493-0.004-6.709,1.434-8.994,3.728c-2.289,2.28-3.728,5.502-3.723,8.996v50.704c-0.005,3.495,1.434,6.712,3.723,8.997
		c2.285,2.289,5.501,3.728,8.994,3.728h31.793c1.273,0,2.478-0.249,3.639-0.596l44.317-7.552c0.221,1.623,0.95,3.122,2.05,4.218
		c1.312,1.316,3.184,2.153,5.194,2.148H333.6c2.009,0.005,3.878-0.828,5.189-2.148c1.321-1.312,2.154-3.184,2.149-5.189v-54.239
		C340.943,146.379,340.11,144.506,338.789,143.196z M311.203,153.034h17.752v44.94h-17.752V153.034z M245.793,121.852
		c-0.251-1.451-0.377-2.903-0.377-4.34c0-1.981,0.239-3.92,0.729-5.784c1.429-5.423,4.598-9.646,8.063-12.854
		c0.376-0.329,0.592-0.371,0.92-0.39c0.331-0.004,0.725,0.141,0.969,0.357c0.244,0.233,0.371,0.397,0.437,0.894
		c0.462,4.767,1.36,10.293,3.174,15.791c1.82,5.484,4.556,11.005,8.971,15.491c5.161,5.23,13.243,12.587,20.124,18.727
		c4.345,3.876,8.176,7.235,10.414,9.187v32.517l-35.141,5.989v-49.122c0.005-3.493-1.433-6.715-3.728-8.996
		c-2.28-2.294-5.496-3.732-8.994-3.728h-3.182L245.793,121.852z M218.831,199.018v-50.704c0.005-0.402,0.333-0.731,0.734-0.736
		h31.788c0.403,0,0.734,0.333,0.734,0.736v50.704c0,0.197-0.085,0.37-0.207,0.502l-1.379,0.234h-30.937
		C219.16,199.754,218.836,199.426,218.831,199.018z"/>
</g>
</svg>
