<?xml version="1.0" encoding="utf-8"?>
<!-- Generator: Adobe Illustrator 16.0.0, SVG Export Plug-In . SVG Version: 6.00 Build 0)  -->
<!DOCTYPE svg PUBLIC "-//W3C//DTD SVG 1.1//EN" "http://www.w3.org/Graphics/SVG/1.1/DTD/svg11.dtd">
<svg version="1.1" id="Capa_1" xmlns="http://www.w3.org/2000/svg" xmlns:xlink="http://www.w3.org/1999/xlink" x="0px" y="0px"
	 width="300px" height="100px" viewBox="0 0 300 100" enable-background="new 0 0 300 100" xml:space="preserve">
<g>
	<path fill="#FFFFFF" d="M98.132,5.284v89.434H86.789V79.347C81.965,85.21,76.555,89.62,70.555,92.579
		c-6.002,2.961-12.564,4.439-19.688,4.439c-12.658,0-23.468-4.588-32.428-13.768C9.479,74.073,5,62.905,5,49.753
		C5,36.878,9.521,25.862,18.563,16.71c9.043-9.15,19.92-13.729,32.633-13.729c7.344,0,13.986,1.563,19.934,4.686
		c5.946,3.123,11.165,7.809,15.66,14.057V5.284H98.132z M52.141,14.079c-6.403,0-12.315,1.576-17.734,4.723
		c-5.42,3.148-9.729,7.568-12.932,13.26c-3.203,5.691-4.803,11.713-4.803,18.063c0,6.295,1.615,12.316,4.844,18.063
		c3.229,5.748,7.567,10.223,13.014,13.426c5.445,3.203,11.289,4.803,17.529,4.803c6.295,0,12.261-1.586,17.899-4.762
		c5.637-3.176,9.975-7.473,13.013-12.891c3.037-5.418,4.558-11.521,4.558-18.311c0-10.344-3.407-18.994-10.223-25.945
		C70.491,17.556,62.103,14.079,52.141,14.079z"/>
	<path fill="#FFFFFF" d="M122.545,5.284h11.509v41.758c0,10.191,0.548,17.207,1.646,21.043c1.646,5.48,4.789,9.809,9.426,12.986
		c4.637,3.18,10.166,4.77,16.588,4.77c6.421,0,11.867-1.549,16.341-4.646c4.473-3.096,7.56-7.162,9.262-12.205
		c1.151-3.453,1.729-10.77,1.729-21.947V5.284h11.755v43.895c0,12.33-1.438,21.617-4.315,27.865
		c-2.877,6.246-7.207,11.139-12.988,14.672c-5.782,3.535-13.027,5.303-21.741,5.303c-8.713,0-15.988-1.768-21.823-5.303
		c-5.837-3.533-10.192-8.465-13.069-14.795s-4.316-15.852-4.316-28.564V5.284z"/>
	<path fill="#FFFFFF" d="M216.171,5.284h13.809l23.787,32.715l23.535-32.715h13.835l-30.441,42.248L295,94.718h-14.017
		l-27.221-37.563l-27.064,37.563h-13.734l33.885-47.102L216.171,5.284z"/>
</g>
</svg>
