<?xml version="1.0" encoding="utf-8"?>
<!-- Generator: Adobe Illustrator 16.0.0, SVG Export Plug-In . SVG Version: 6.00 Build 0)  -->
<!DOCTYPE svg PUBLIC "-//W3C//DTD SVG 1.1//EN" "http://www.w3.org/Graphics/SVG/1.1/DTD/svg11.dtd">
<svg version="1.1" id="Capa_1" xmlns="http://www.w3.org/2000/svg" xmlns:xlink="http://www.w3.org/1999/xlink" x="0px" y="0px"
	 width="380px" height="380px" viewBox="37 37 380 380" enable-background="new 37 37 380 380" xml:space="preserve">
<g>
	<g>
		<path fill="#122436" d="M316.633,107.177c-2.297-1.551-4.64-3.048-7.023-4.481l-4.194,6.97c2.26,1.36,4.484,2.78,6.668,4.252
			L316.633,107.177z"/>
		<path fill="#122436" d="M284.157,90.295c-2.591-0.989-5.217-1.914-7.873-2.769l-2.497,7.742c2.52,0.813,5.011,1.69,7.472,2.628
			L284.157,90.295z"/>
		<path fill="#122436" d="M331.209,118.275c-2.11-1.805-4.266-3.556-6.468-5.25l-4.961,6.448c2.087,1.608,4.138,3.271,6.136,4.983
			L331.209,118.275z"/>
		<path fill="#122436" d="M297.133,105.025l3.754-7.217c-2.463-1.281-4.962-2.498-7.497-3.655l-3.373,7.405
			C292.423,102.654,294.796,103.808,297.133,105.025z"/>
		<path fill="#122436" d="M366.848,179.908l7.469-3.226c-1.1-2.552-2.267-5.065-3.493-7.542l-7.29,3.608
			C364.695,175.103,365.803,177.487,366.848,179.908z"/>
		<path fill="#122436" d="M171.521,98.367c2.447-0.96,4.923-1.853,7.431-2.688l-2.564-7.72c-2.642,0.877-5.254,1.821-7.832,2.832
			L171.521,98.367z"/>
		<path fill="#122436" d="M344.423,130.946c-1.892-2.031-3.835-4.017-5.828-5.946l-5.66,5.844c1.892,1.834,3.737,3.715,5.533,5.645
			L344.423,130.946z"/>
		<path fill="#122436" d="M354.956,157.655c1.426,2.209,2.8,4.456,4.112,6.738l7.052-4.055c-1.386-2.406-2.828-4.774-4.332-7.1
			L354.956,157.655z"/>
		<path fill="#122436" d="M349.565,149.859l6.544-4.833c-1.65-2.231-3.353-4.421-5.114-6.563l-6.286,5.165
			C346.381,145.661,347.998,147.739,349.565,149.859z"/>
		<path fill="#122436" d="M89.907,173.882l-7.323-3.55c-1.21,2.499-2.357,5.031-3.438,7.6l7.498,3.159
			C87.67,178.656,88.757,176.253,89.907,173.882z"/>
		<path fill="#122436" d="M94.312,165.473c1.296-2.301,2.653-4.564,4.065-6.789l-6.868-4.363c-1.488,2.345-2.915,4.729-4.284,7.15
			L94.312,165.473z"/>
		<path fill="#122436" d="M103.713,150.838c1.551-2.136,3.155-4.227,4.812-6.28l-6.328-5.114c-1.745,2.158-3.435,4.363-5.066,6.61
			L103.713,150.838z"/>
		<path fill="#122436" d="M114.715,137.369c1.78-1.942,3.611-3.839,5.489-5.688l-5.708-5.797c-1.977,1.948-3.906,3.944-5.781,5.991
			L114.715,137.369z"/>
		<path fill="#122436" d="M140.907,114.607c2.167-1.491,4.375-2.924,6.622-4.303l-4.255-6.935c-2.364,1.453-4.69,2.962-6.975,4.532
			L140.907,114.607z"/>
		<path fill="#122436" d="M162.815,102.092l-3.431-7.376c-2.518,1.169-5,2.406-7.443,3.702l3.813,7.189
			C158.075,104.377,160.43,103.205,162.815,102.092z"/>
		<path fill="#122436" d="M127.167,125.238c1.986-1.726,4.017-3.403,6.095-5.027l-5.015-6.407c-2.187,1.709-4.325,3.477-6.419,5.294
			L127.167,125.238z"/>
		<path fill="#122436" d="M386.88,252.947c0.117-1.471,0.215-2.949,0.291-4.43h0.004c0-0.014,0-0.026,0-0.038
			c0.02-0.375,0.028-0.754,0.045-1.129c0.02-0.45,0.034-0.905,0.051-1.356c0.019-0.55,0.051-1.097,0.063-1.65
			c0.031-1.341,0.051-2.688,0.051-4.035c0-0.038,0.004-0.073,0.004-0.108c0-0.013,0-0.025,0-0.038v-0.334h-0.01
			c-0.01-3.352-0.149-6.678-0.363-9.979l0.042-0.003c-0.099-1.51-0.216-3.009-0.356-4.506c-0.022-0.245-0.051-0.486-0.072-0.731
			c-0.102-1.021-0.197-2.041-0.314-3.054l-0.045,0.006c-0.385-3.324-0.852-6.623-1.438-9.884l0.022-0.003
			c-0.047-0.273-0.107-0.544-0.157-0.814c-0.068-0.365-0.141-0.728-0.211-1.09c-0.4-2.098-0.832-4.183-1.315-6.249h-0.007
			c-0.764-3.257-1.649-6.464-2.609-9.642l0.035-0.01c-0.441-1.468-0.909-2.92-1.39-4.373c-0.082-0.245-0.17-0.486-0.253-0.734
			c-0.315-0.938-0.634-1.872-0.967-2.804l-0.038,0.013c-0.416-1.163-0.811-2.336-1.255-3.486l-7.59,2.927
			c0.756,1.967,1.469,3.957,2.146,5.959c0.076,0.232,0.159,0.464,0.238,0.693c2.078,6.241,3.757,12.667,5.019,19.24
			c0.063,0.343,0.133,0.683,0.197,1.026c0.794,4.291,1.408,8.645,1.83,13.056c0.022,0.232,0.052,0.461,0.073,0.693
			c0.426,4.636,0.647,9.331,0.647,14.08v0.038v0.108c-0.003,1.808-0.044,3.606-0.107,5.396c-0.003,0.032-0.003,0.061-0.003,0.09
			c-0.017,0.403-0.029,0.811-0.048,1.21c-0.079,1.774-0.181,3.544-0.317,5.301c-0.026,0.3-0.055,0.595-0.083,0.896
			c-0.133,1.596-0.296,3.188-0.48,4.771c-0.021,0.194-0.041,0.388-0.065,0.581c-0.032,0.277-0.07,0.551-0.102,0.827
			c-0.197,1.548-0.414,3.085-0.655,4.62c-0.02,0.138-0.038,0.273-0.061,0.407c-0.594,3.718-1.322,7.389-2.18,11.013
			c-0.236,0.997-0.478,1.992-0.731,2.98c-0.107,0.423-0.226,0.836-0.34,1.256c-0.22,0.822-0.439,1.649-0.674,2.466
			c-0.943,3.307-2.003,6.563-3.16,9.771c-0.257,0.708-0.521,1.414-0.787,2.117c-0.188,0.494-0.372,0.99-0.563,1.482
			c-0.281,0.728-0.578,1.446-0.87,2.165c-1.398,3.436-2.921,6.804-4.559,10.105c-1.047,2.114-2.144,4.195-3.284,6.253
			c-1.644,2.958-3.379,5.858-5.21,8.697c-1.344,2.079-2.737,4.12-4.175,6.124c-1.937,2.699-3.955,5.33-6.059,7.896
			c-1.628,1.979-3.298,3.921-5.021,5.815c-1.644,1.808-3.331,3.579-5.056,5.308c-0.604,0.604-1.221,1.194-1.834,1.789
			c-1.7,1.644-3.439,3.248-5.213,4.815c-2.596,2.287-5.272,4.486-8.018,6.594c-1.847,1.417-3.726,2.793-5.635,4.125
			c-2.778,1.937-5.616,3.782-8.523,5.533c-2.111,1.275-4.26,2.495-6.436,3.664c-2.94,1.583-5.941,3.074-8.994,4.463
			c-0.741,0.34-1.491,0.665-2.237,0.988c-0.42,0.185-0.837,0.372-1.257,0.55c-0.873,0.371-1.75,0.728-2.63,1.083
			c-3.472,1.398-7.002,2.673-10.594,3.817c-0.683,0.22-1.365,0.429-2.053,0.639c-0.546,0.166-1.097,0.33-1.646,0.489
			c-0.683,0.197-1.369,0.392-2.057,0.582c-3.811,1.049-7.685,1.954-11.608,2.708c-0.74,0.143-1.479,0.285-2.223,0.419
			c-0.559,0.099-1.125,0.188-1.687,0.28c-0.719,0.117-1.432,0.237-2.152,0.347c-3.441,0.521-6.925,0.918-10.443,1.203
			c-0.651,0.052-1.31,0.097-1.965,0.145c-0.645,0.044-1.288,0.085-1.938,0.12c-0.661,0.036-1.325,0.066-1.993,0.092
			c-2.16,0.093-4.331,0.149-6.518,0.149c-1.987,0-3.964-0.051-5.934-0.124c-0.696-0.028-1.395-0.051-2.088-0.085
			c-0.639-0.032-1.274-0.079-1.91-0.121c-0.665-0.041-1.333-0.079-1.993-0.131c-3.519-0.272-6.995-0.67-10.44-1.178
			c-0.676-0.1-1.353-0.204-2.027-0.313c-0.604-0.1-1.208-0.196-1.808-0.302c-0.677-0.114-1.348-0.238-2.022-0.365
			c-3.935-0.738-7.818-1.628-11.641-2.664c-0.741-0.199-1.485-0.4-2.222-0.609c-0.514-0.149-1.026-0.306-1.541-0.458
			c-0.718-0.216-1.433-0.43-2.148-0.655c-3.276-1.029-6.506-2.169-9.681-3.409c-0.778-0.309-1.553-0.623-2.326-0.941
			c-0.411-0.167-0.823-0.333-1.233-0.506c-0.88-0.371-1.754-0.756-2.625-1.14c-3.299-1.466-6.535-3.042-9.706-4.726
			c-2.082-1.106-4.128-2.256-6.149-3.455c-2.978-1.767-5.893-3.626-8.733-5.584c-1.946-1.341-3.859-2.724-5.737-4.147
			c-2.644-2.009-5.228-4.098-7.732-6.271c-1.929-1.672-3.813-3.395-5.653-5.158c-0.775-0.743-1.545-1.491-2.304-2.25
			c-1.583-1.583-3.125-3.2-4.635-4.854c-1.671-1.82-3.298-3.683-4.878-5.587c-2.158-2.599-4.229-5.276-6.216-8.018
			c-1.367-1.889-2.691-3.814-3.976-5.769c-1.891-2.88-3.686-5.822-5.383-8.836c-1.16-2.062-2.276-4.153-3.344-6.277
			c-1.478-2.935-2.867-5.92-4.157-8.961c-0.501-1.189-0.991-2.385-1.464-3.588c-0.036-0.092-0.071-0.188-0.105-0.279
			c-0.433-1.101-0.853-2.2-1.255-3.313c-1.169-3.203-2.229-6.458-3.185-9.756c-0.197-0.69-0.391-1.381-0.578-2.07
			c-0.153-0.552-0.306-1.105-0.452-1.662c-0.182-0.692-0.353-1.385-0.524-2.078c-0.96-3.899-1.773-7.856-2.428-11.867
			c-0.052-0.311-0.102-0.623-0.149-0.935c-0.264-1.665-0.502-3.343-0.709-5.03c-0.042-0.325-0.073-0.648-0.111-0.973
			c-0.188-1.611-0.353-3.229-0.489-4.856c-0.023-0.275-0.051-0.549-0.074-0.826c-0.136-1.725-0.235-3.46-0.314-5.202
			c-0.007-0.181-0.016-0.359-0.022-0.541c-0.013-0.28-0.026-0.562-0.035-0.842c-0.067-1.84-0.108-3.687-0.108-5.542
			c0-4.653,0.219-9.255,0.626-13.8c0.031-0.359,0.066-0.718,0.102-1.081c0.419-4.316,1.017-8.578,1.789-12.779
			c0.063-0.35,0.127-0.699,0.194-1.049c1.246-6.531,2.912-12.912,4.964-19.119c0.115-0.347,0.229-0.693,0.347-1.039
			c0.674-1.989,1.379-3.966,2.133-5.918l-7.593-2.93c-0.61,1.583-1.163,3.19-1.726,4.795l-0.031-0.01
			c-0.169,0.477-0.321,0.963-0.487,1.446c-0.124,0.369-0.248,0.737-0.369,1.11c-0.591,1.779-1.157,3.568-1.685,5.374l0.019,0.007
			c-0.928,3.184-1.753,6.413-2.485,9.674l-0.032-0.006c-0.379,1.688-0.722,3.391-1.045,5.098c-0.07,0.362-0.133,0.728-0.204,1.09
			c-0.12,0.661-0.251,1.319-0.365,1.98l0.041,0.006c-0.556,3.268-1.02,6.563-1.376,9.894l-0.036-0.003
			c-0.057,0.528-0.098,1.058-0.149,1.586c-0.038,0.384-0.073,0.769-0.11,1.153c-0.166,1.844-0.312,3.693-0.413,5.556l0.024,0.003
			c-0.165,2.969-0.27,5.949-0.27,8.959v0.014c0,0.336,0.01,0.669,0.013,1.008h-0.01c0.003,0.52,0.019,1.042,0.029,1.563
			c0.009,0.689,0.019,1.383,0.038,2.068c0.013,0.475,0.032,0.945,0.047,1.415c0.016,0.353,0.032,0.702,0.045,1.055
			c0.025,0.558,0.047,1.112,0.076,1.666c0.009,0.184,0.016,0.368,0.026,0.55h0.009c0.067,1.145,0.14,2.291,0.229,3.428
			c0.022,0.294,0.054,0.583,0.076,0.875c0.146,1.71,0.318,3.414,0.515,5.107c0.022,0.178,0.032,0.362,0.054,0.536h-0.003
			c0.003,0.035,0.009,0.066,0.012,0.102c0.01,0.073,0.019,0.147,0.029,0.221c0.009,0.082,0.022,0.161,0.035,0.244
			c0.089,0.722,0.188,1.439,0.287,2.158c0.088,0.636,0.171,1.271,0.267,1.907c0.069,0.47,0.146,0.937,0.219,1.407
			c0.022,0.144,0.042,0.292,0.063,0.436h0.01c0.015,0.11,0.038,0.222,0.053,0.333c0.08,0.478,0.146,0.957,0.229,1.431h0.006
			c0.572,3.295,1.247,6.557,2.012,9.785h-0.009c0.098,0.414,0.209,0.819,0.312,1.23c0.181,0.743,0.366,1.483,0.559,2.222
			c0.153,0.585,0.315,1.166,0.474,1.748c0.2,0.725,0.401,1.449,0.61,2.17c0.064,0.226,0.124,0.451,0.19,0.678l0.01-0.003
			c0.944,3.205,1.977,6.375,3.114,9.495h-0.003c0.016,0.042,0.031,0.087,0.048,0.131c0.413,1.131,0.843,2.257,1.278,3.379
			c0.054,0.13,0.101,0.267,0.152,0.399c0.499,1.262,1.011,2.518,1.541,3.767c0.007,0.02,0.016,0.038,0.023,0.058h0.003
			c1.303,3.069,2.705,6.086,4.188,9.051l-0.009,0.005c0.104,0.211,0.216,0.418,0.324,0.627c0.347,0.69,0.706,1.376,1.064,2.061
			c0.268,0.508,0.532,1.02,0.804,1.524c0.369,0.687,0.744,1.367,1.125,2.047c0.2,0.358,0.391,0.722,0.594,1.081l0.007-0.007
			c1.643,2.898,3.378,5.744,5.189,8.527l-0.007,0.003c0.086,0.134,0.181,0.257,0.268,0.388c1.353,2.068,2.758,4.1,4.204,6.1
			c0.087,0.117,0.166,0.243,0.251,0.361l0.009-0.007c1.961,2.691,3.999,5.327,6.121,7.888l-0.003,0.004
			c0.045,0.051,0.095,0.105,0.139,0.159c1.672,2.012,3.392,3.982,5.158,5.909c0.057,0.065,0.115,0.136,0.175,0.198l0.007-0.005
			c2.253,2.453,4.583,4.834,6.982,7.144l-0.007,0.004c0.051,0.048,0.106,0.095,0.152,0.143c1.942,1.859,3.929,3.677,5.959,5.438
			c0.014,0.013,0.026,0.022,0.038,0.032c2.515,2.18,5.108,4.274,7.755,6.299l-0.006,0.01c0.107,0.079,0.223,0.155,0.33,0.238
			c1.983,1.507,4.008,2.969,6.061,4.383c0.124,0.083,0.238,0.174,0.359,0.257l0.005-0.007c2.746,1.882,5.557,3.675,8.422,5.388
			l-0.006,0.006c0.327,0.197,0.661,0.382,0.988,0.572c0.658,0.388,1.32,0.769,1.981,1.146c0.508,0.29,1.023,0.577,1.534,0.858
			c0.667,0.369,1.338,0.735,2.009,1.094c0.254,0.137,0.499,0.276,0.753,0.41l0.007-0.01c2.943,1.555,5.937,3.029,8.984,4.402
			c0.299,0.136,0.605,0.26,0.903,0.391c0.903,0.399,1.809,0.801,2.721,1.185c0.445,0.188,0.89,0.363,1.337,0.548
			c0.801,0.33,1.605,0.658,2.413,0.975c0.107,0.041,0.213,0.086,0.318,0.128l0.003-0.007c3.102,1.208,6.249,2.317,9.439,3.331
			l-0.003,0.009c0.149,0.048,0.302,0.09,0.451,0.137c0.75,0.236,1.503,0.462,2.259,0.687c0.544,0.163,1.083,0.328,1.63,0.486
			c0.775,0.224,1.55,0.429,2.333,0.643c0.442,0.121,0.881,0.247,1.326,0.365v-0.009c3.209,0.839,6.461,1.576,9.744,2.218
			l-0.002,0.013c0.397,0.076,0.797,0.144,1.194,0.216c0.715,0.133,1.43,0.267,2.148,0.392c0.629,0.107,1.258,0.209,1.892,0.314
			c0.715,0.114,1.433,0.226,2.151,0.333c0.273,0.038,0.546,0.09,0.823,0.128l0.003-0.014c3.277,0.465,6.585,0.839,9.926,1.104v0.003
			c0.076,0.007,0.152,0.01,0.226,0.017c0.718,0.053,1.443,0.098,2.164,0.143c0.651,0.041,1.303,0.089,1.958,0.124
			c0.708,0.038,1.424,0.057,2.132,0.086c0.613,0.025,1.22,0.057,1.834,0.073v-0.004c1.489,0.042,2.984,0.063,4.481,0.063
			c1.843,0,3.677-0.041,5.504-0.102v0.009c0.455-0.012,0.905-0.044,1.357-0.063c0.701-0.028,1.401-0.057,2.101-0.095
			c0.68-0.038,1.357-0.085,2.034-0.13c0.696-0.048,1.389-0.095,2.078-0.149c0.245-0.02,0.492-0.032,0.738-0.055v-0.012
			c3.336-0.283,6.646-0.664,9.918-1.153l0.003,0.009c0.114-0.019,0.232-0.038,0.347-0.057c0.753-0.115,1.503-0.242,2.257-0.367
			c0.591-0.094,1.188-0.187,1.779-0.291c0.793-0.14,1.58-0.295,2.368-0.448c0.482-0.093,0.969-0.176,1.452-0.273l-0.003-0.006
			c3.283-0.662,6.521-1.431,9.725-2.29l0.003,0.01c0.341-0.092,0.675-0.189,1.011-0.285c0.734-0.2,1.466-0.407,2.193-0.62
			c0.578-0.164,1.157-0.339,1.732-0.515c0.721-0.216,1.438-0.441,2.154-0.671c0.295-0.095,0.598-0.181,0.894-0.276l-0.004-0.012
			c3.178-1.033,6.315-2.155,9.404-3.379v0.004c0.343-0.135,0.681-0.28,1.021-0.42c0.877-0.356,1.754-0.709,2.622-1.077
			c0.457-0.194,0.905-0.397,1.359-0.599c0.779-0.336,1.559-0.676,2.33-1.029c0.105-0.048,0.209-0.092,0.314-0.137l-0.003-0.006
			c3.031-1.389,6.009-2.87,8.937-4.437l0.003,0.006c0.128-0.069,0.252-0.141,0.378-0.21c0.723-0.388,1.434-0.784,2.148-1.186
			c0.459-0.256,0.922-0.509,1.377-0.769c0.759-0.436,1.509-0.88,2.259-1.326c0.354-0.209,0.713-0.413,1.062-0.622v-0.003
			c2.852-1.726,5.642-3.544,8.375-5.436l0.007,0.01c0.126-0.088,0.243-0.185,0.368-0.27c2.021-1.408,4.008-2.864,5.956-4.36
			c0.127-0.096,0.261-0.184,0.387-0.283l-0.006-0.006c2.638-2.037,5.209-4.151,7.71-6.345l0.007,0.007
			c0.111-0.095,0.213-0.2,0.325-0.298c1.871-1.646,3.701-3.337,5.494-5.072c0.099-0.093,0.201-0.179,0.298-0.274l-0.006-0.01
			c2.387-2.32,4.71-4.707,6.95-7.172c0.006-0.006,0.009-0.009,0.016-0.016c1.818-2.003,3.586-4.053,5.302-6.144
			c0.041-0.048,0.082-0.096,0.124-0.144l-0.007-0.006c2.109-2.575,4.139-5.219,6.086-7.926l0.007,0.006
			c0.055-0.073,0.099-0.149,0.149-0.22c1.521-2.119,2.996-4.281,4.414-6.478c0.041-0.063,0.089-0.123,0.127-0.188l-0.003-0.003
			c1.805-2.797,3.515-5.659,5.142-8.574l0.01,0.004c0.146-0.258,0.283-0.521,0.43-0.785c0.365-0.664,0.725-1.332,1.084-1.999
			c0.276-0.518,0.55-1.036,0.82-1.558c0.352-0.684,0.701-1.366,1.045-2.054c0.165-0.33,0.337-0.654,0.502-0.984l-0.012-0.004
			c1.471-2.983,2.856-6.021,4.141-9.107l0.006,0.003c0.166-0.397,0.318-0.804,0.482-1.201c0.3-0.734,0.596-1.469,0.884-2.206
			c0.207-0.53,0.407-1.062,0.608-1.591c0.275-0.738,0.552-1.477,0.818-2.217c0.07-0.19,0.145-0.378,0.214-0.568l-0.01-0.004
			c1.112-3.127,2.139-6.296,3.063-9.508h0.003c0.023-0.07,0.042-0.144,0.062-0.217c0.24-0.852,0.473-1.71,0.701-2.564
			c0.121-0.455,0.248-0.899,0.366-1.354c0.27-1.036,0.518-2.079,0.766-3.124c0.063-0.267,0.134-0.534,0.197-0.802h-0.003
			c0.75-3.228,1.386-6.499,1.936-9.798h0.015c0.041-0.251,0.073-0.506,0.114-0.756h0.007c0.025-0.155,0.045-0.315,0.066-0.471
			c0.103-0.632,0.198-1.269,0.29-1.9c0.095-0.648,0.185-1.294,0.273-1.945c0.073-0.547,0.146-1.097,0.212-1.646
			c0.032-0.268,0.064-0.531,0.096-0.795c0.029-0.245,0.063-0.487,0.092-0.731l-0.012-0.003c0.172-1.522,0.323-3.051,0.454-4.587
			C386.825,253.568,386.856,253.26,386.88,252.947z"/>
		<path fill="#122436" d="M187.373,93.152c1.551-0.416,3.111-0.807,4.678-1.176c0.191-0.044,0.385-0.083,0.579-0.127
			c4.421-1.021,8.917-1.847,13.479-2.473c0.495-0.069,0.991-0.133,1.488-0.193c1.073-0.136,2.151-0.261,3.235-0.375
			c0.47-0.051,0.938-0.105,1.411-0.149c4.856-0.467,9.776-0.712,14.756-0.712c4.84,0,9.623,0.238,14.346,0.677
			c0.492,0.047,0.986,0.092,1.481,0.143c1.229,0.127,2.457,0.27,3.678,0.426c0.292,0.038,0.587,0.07,0.88,0.108
			c3.244,0.436,6.461,0.97,9.64,1.605c0.024,0.006,0.053,0.012,0.083,0.016c1.455,0.296,2.9,0.61,4.341,0.944
			c0.438,0.102,0.87,0.21,1.306,0.315c1.297,0.308,2.588,0.626,3.867,0.969l2.113-7.855c-0.679-0.182-1.372-0.344-2.056-0.515
			l0.003-0.022c-0.674-0.171-1.353-0.327-2.029-0.489c-0.456-0.111-0.911-0.223-1.367-0.331c-1.532-0.353-3.07-0.689-4.618-1.001
			c-0.016-0.003-0.031-0.006-0.048-0.009c-0.019-0.003-0.035-0.01-0.054-0.013v0.003c-3.252-0.648-6.537-1.195-9.855-1.643
			l0.003-0.006c-0.086-0.013-0.172-0.022-0.258-0.032c-0.298-0.042-0.598-0.073-0.896-0.108c-1.297-0.168-2.598-0.317-3.899-0.454
			c-0.519-0.054-1.033-0.099-1.552-0.149c-0.556-0.051-1.112-0.114-1.671-0.162v0.025c-3.297-0.273-6.62-0.452-9.973-0.521v-0.022
			c-1.15-0.026-2.308-0.039-3.465-0.039c-1.627,0-3.245,0.026-4.859,0.073v0.006c-3.351,0.102-6.671,0.312-9.967,0.613v-0.016
			c-0.242,0.022-0.48,0.051-0.721,0.073c-0.489,0.048-0.976,0.105-1.466,0.155c-1.144,0.118-2.285,0.251-3.42,0.394
			c-0.521,0.067-1.042,0.134-1.56,0.204c-0.369,0.051-0.737,0.092-1.103,0.146l0.003,0.019c-3.312,0.48-6.595,1.055-9.84,1.732
			l-0.003-0.016c-1.081,0.226-2.151,0.471-3.226,0.719c-0.22,0.047-0.439,0.092-0.658,0.146c-1.415,0.331-2.822,0.68-4.217,1.049
			l0.003,0.013c-0.235,0.06-0.471,0.111-0.706,0.175L187.373,93.152z"/>
	</g>
	<path fill="#FFCC34" d="M87.254,212.233c-5.048,0-9.153-4.106-9.153-9.153c0-4.214-3.414-7.627-7.628-7.627
		c-4.21,0-7.627,3.413-7.627,7.627c0,5.047-4.106,9.153-9.153,9.153c-4.211,0-7.627,3.417-7.627,7.627
		c0,4.214,3.416,7.627,7.627,7.627c5.047,0,9.153,4.107,9.153,9.152c0,4.215,3.417,7.632,7.627,7.632
		c4.214,0,7.628-3.417,7.628-7.632c0-5.045,4.105-9.152,9.153-9.152c4.213,0,7.626-3.414,7.626-7.627
		C94.88,215.649,91.464,212.233,87.254,212.233z"/>
	<path fill="#122436" d="M95.522,211.591c-2.104-2.11-5.053-3.429-8.269-3.426c-1.409-0.003-2.657-0.563-3.592-1.494
		c-0.931-0.935-1.49-2.184-1.494-3.592c0.004-3.216-1.313-6.168-3.426-8.27c-2.104-2.11-5.053-3.426-8.27-3.426
		s-6.166,1.316-8.266,3.426c-2.113,2.104-3.43,5.054-3.426,8.27c-0.004,1.408-0.563,2.657-1.495,3.592
		c-0.934,0.931-2.184,1.49-3.591,1.494c-3.216-0.003-6.168,1.315-8.27,3.426c-2.11,2.104-3.429,5.05-3.426,8.27
		c-0.003,3.216,1.315,6.166,3.426,8.27c2.104,2.11,5.053,3.427,8.27,3.423c1.408,0.004,2.657,0.565,3.591,1.493
		c0.932,0.936,1.491,2.183,1.495,3.593c-0.004,3.218,1.313,6.167,3.426,8.269c2.104,2.113,5.053,3.429,8.266,3.426
		c3.219,0.003,6.168-1.313,8.27-3.426c2.113-2.104,3.43-5.051,3.426-8.269c0.004-1.41,0.563-2.657,1.494-3.593
		c0.935-0.928,2.183-1.489,3.592-1.493c3.215,0.004,6.167-1.313,8.269-3.423c2.11-2.104,3.427-5.057,3.427-8.27
		C98.949,216.641,97.633,213.691,95.522,211.591z M89.77,222.377c-0.657,0.651-1.522,1.04-2.516,1.043
		c-3.639-0.003-6.971,1.49-9.348,3.877c-2.386,2.377-3.877,5.708-3.874,9.343c-0.004,0.996-0.395,1.86-1.043,2.519
		c-0.658,0.65-1.522,1.039-2.52,1.042c-0.995,0-1.859-0.392-2.517-1.042c-0.648-0.658-1.039-1.522-1.043-2.519
		c0.004-3.638-1.49-6.966-3.873-9.343c-2.381-2.387-5.709-3.88-9.348-3.877c-0.994-0.003-1.859-0.392-2.516-1.043
		c-0.651-0.658-1.04-1.522-1.043-2.517c0-0.998,0.392-1.859,1.043-2.517c0.657-0.652,1.522-1.042,2.516-1.046
		c3.639,0.003,6.967-1.49,9.348-3.874c2.383-2.377,3.877-5.705,3.873-9.344c0.004-0.995,0.395-1.859,1.043-2.517
		c0.658-0.651,1.522-1.039,2.517-1.042c0.998,0,1.862,0.391,2.52,1.042c0.648,0.658,1.039,1.522,1.043,2.517
		c-0.004,3.639,1.491,6.967,3.874,9.344c2.377,2.387,5.708,3.877,9.348,3.874c0.994,0.003,1.859,0.394,2.516,1.046
		c0.651,0.658,1.039,1.519,1.043,2.517C90.809,220.855,90.421,221.719,89.77,222.377z"/>
	<path fill="#FFCC34" d="M400.3,212.233c-5.046,0-9.152-4.106-9.152-9.153c0-4.214-3.413-7.627-7.628-7.627
		c-4.21,0-7.628,3.413-7.628,7.627c0,5.047-4.105,9.153-9.152,9.153c-4.214,0-7.626,3.417-7.626,7.627
		c0,4.214,3.412,7.627,7.626,7.627c5.047,0,9.152,4.107,9.152,9.152c0,4.215,3.418,7.632,7.628,7.632
		c4.215,0,7.628-3.417,7.628-7.632c0-5.045,4.106-9.152,9.152-9.152c4.215,0,7.632-3.414,7.632-7.627
		C407.932,215.649,404.515,212.233,400.3,212.233z"/>
	<path fill="#122436" d="M408.573,211.591c-2.104-2.11-5.053-3.429-8.27-3.426c-1.411-0.003-2.657-0.563-3.595-1.494
		c-0.928-0.935-1.49-2.184-1.49-3.592c0-3.216-1.316-6.168-3.427-8.27c-2.103-2.11-5.052-3.426-8.269-3.426
		c-3.216,0-6.166,1.316-8.27,3.426c-2.11,2.104-3.429,5.054-3.426,8.27c0,1.408-0.563,2.657-1.49,3.592
		c-0.938,0.931-2.184,1.49-3.595,1.494c-3.217-0.003-6.166,1.315-8.27,3.426c-2.11,2.104-3.427,5.05-3.424,8.27
		c-0.003,3.216,1.313,6.166,3.424,8.27c2.104,2.11,5.053,3.427,8.27,3.423c1.411,0.004,2.656,0.565,3.595,1.493
		c0.928,0.936,1.49,2.183,1.49,3.593c0,3.218,1.315,6.167,3.426,8.269c2.104,2.113,5.054,3.429,8.27,3.426
		c3.217,0.003,6.169-1.313,8.269-3.426c2.11-2.104,3.43-5.051,3.427-8.269c0-1.41,0.563-2.657,1.49-3.593
		c0.938-0.928,2.184-1.489,3.595-1.493c3.217,0.004,6.166-1.313,8.27-3.423c2.109-2.104,3.43-5.057,3.427-8.27
		C412,216.641,410.68,213.691,408.573,211.591z M402.818,222.377c-0.655,0.651-1.521,1.04-2.519,1.043
		c-3.635-0.003-6.966,1.49-9.343,3.877c-2.387,2.377-3.877,5.705-3.877,9.343c0,0.996-0.392,1.86-1.042,2.519
		c-0.658,0.65-1.523,1.039-2.519,1.042c-0.994,0-1.859-0.392-2.517-1.042c-0.651-0.658-1.038-1.522-1.042-2.519
		c0-3.638-1.491-6.966-3.875-9.343c-2.38-2.387-5.707-3.88-9.347-3.877c-0.994-0.003-1.858-0.392-2.517-1.043
		c-0.651-0.658-1.038-1.522-1.042-2.517c0.004-0.998,0.391-1.859,1.042-2.517c0.658-0.652,1.522-1.042,2.517-1.046
		c3.64,0.003,6.967-1.49,9.347-3.874c2.384-2.377,3.875-5.708,3.875-9.344c0-0.995,0.391-1.859,1.042-2.517
		c0.657-0.651,1.522-1.039,2.517-1.042c0.995,0,1.86,0.391,2.519,1.042c0.65,0.658,1.039,1.522,1.042,2.517
		c0,3.639,1.49,6.967,3.877,9.344c2.377,2.387,5.708,3.877,9.343,3.874c0.998,0.003,1.863,0.394,2.519,1.046
		c0.651,0.658,1.042,1.519,1.045,2.517C403.86,220.855,403.47,221.719,402.818,222.377z"/>
	<path fill="#FFCC34" d="M243.778,72.304c-5.047,0-9.153-4.106-9.153-9.153c0-4.211-3.415-7.628-7.627-7.628
		c-4.214,0-7.627,3.414-7.627,7.628c0,5.047-4.106,9.153-9.153,9.153c-4.214,0-7.631,3.417-7.631,7.627
		c0,4.214,3.417,7.63,7.631,7.63c5.047,0,9.153,4.104,9.153,9.153c0,4.211,3.413,7.628,7.627,7.628c4.212,0,7.627-3.417,7.627-7.628
		c0-5.049,4.106-9.153,9.153-9.153c4.214,0,7.628-3.417,7.628-7.63C251.406,75.72,247.99,72.304,243.778,72.304z"/>
	<path fill="#122436" d="M252.049,71.662c-2.104-2.11-5.055-3.429-8.271-3.426c-1.407,0-2.656-0.562-3.591-1.49
		c-0.932-0.937-1.49-2.187-1.494-3.594c0.004-3.216-1.316-6.166-3.426-8.27c-2.104-2.11-5.05-3.429-8.27-3.425
		c-3.216,0-6.166,1.318-8.27,3.425c-2.11,2.104-3.426,5.054-3.423,8.27c-0.003,1.408-0.566,2.657-1.494,3.594
		c-0.934,0.928-2.184,1.49-3.591,1.49c-3.219,0-6.168,1.316-8.27,3.426c-2.11,2.104-3.429,5.053-3.426,8.27
		c-0.003,3.216,1.315,6.166,3.426,8.27c2.104,2.11,5.053,3.426,8.27,3.426c1.408,0,2.657,0.562,3.591,1.49
		c0.928,0.934,1.491,2.184,1.494,3.594c-0.003,3.216,1.313,6.166,3.423,8.27c2.104,2.11,5.053,3.426,8.27,3.423
		c3.22,0.003,6.17-1.313,8.27-3.423c2.109-2.104,3.43-5.053,3.426-8.27c0.004-1.411,0.563-2.66,1.494-3.594
		c0.935-0.928,2.184-1.49,3.591-1.49c3.216,0,6.17-1.316,8.271-3.426c2.109-2.104,3.425-5.054,3.425-8.27
		S254.158,73.766,252.049,71.662z M246.297,82.448c-0.659,0.651-1.523,1.04-2.519,1.042c-3.638,0-6.966,1.49-9.347,3.877
		c-2.383,2.377-3.877,5.705-3.874,9.343c-0.003,0.995-0.394,1.859-1.045,2.517c-0.658,0.652-1.521,1.039-2.518,1.042
		c-0.995,0-1.859-0.391-2.517-1.042c-0.651-0.658-1.039-1.522-1.043-2.517c0.004-3.639-1.49-6.966-3.874-9.343
		c-2.38-2.387-5.708-3.877-9.343-3.877c-0.998,0-1.863-0.391-2.52-1.042c-0.648-0.658-1.04-1.522-1.042-2.517
		c0.002-0.998,0.394-1.859,1.042-2.518c0.657-0.651,1.522-1.039,2.52-1.042c3.635,0,6.966-1.491,9.343-3.877
		c2.387-2.377,3.878-5.708,3.874-9.343c0.004-0.998,0.392-1.863,1.043-2.52c0.658-0.649,1.522-1.04,2.517-1.043
		c0.997,0.003,1.859,0.394,2.518,1.043c0.651,0.657,1.042,1.522,1.045,2.52c-0.003,3.636,1.491,6.966,3.874,9.343
		c2.381,2.387,5.709,3.877,9.347,3.877c0.995,0,1.859,0.391,2.519,1.042c0.647,0.659,1.039,1.52,1.041,2.518
		C247.336,80.926,246.944,81.791,246.297,82.448z"/>
	<path fill="#365FE0" d="M115.528,398.474v-39.663c0-41.735,33.834-75.566,75.573-75.566h71.796c41.735,0,75.57,33.831,75.57,77.404
		v37.825H115.528z"/>
	<path fill="#FFFFFF" d="M305.435,319.865c-0.982-1.058-1.997-2.08-3.042-3.069l-2.798,2.953l2.795-2.953
		c-11.931-11.298-27.986-18.115-45.574-18.111h-59.641c-17.588,0-33.625,6.81-45.552,17.923c-1.055,0.983-2.079,2-3.07,3.052
		l5.918,5.581c0.871-0.918,1.767-1.814,2.698-2.68c10.497-9.773,24.534-15.738,40.009-15.74h59.642
		c15.47,0.002,29.488,5.965,39.979,15.884c0.918,0.87,1.812,1.771,2.674,2.702L305.435,319.865z"/>
	<path fill="#FFFFFF" d="M311.511,327.442l-6.695,4.618c1.34,1.944,2.57,3.976,3.683,6.089l7.198-3.788
		C314.435,331.962,313.036,329.651,311.511,327.442z"/>
	<path fill="#FFFFFF" d="M319.593,343.241l-7.666,2.733c0.791,2.217,1.459,4.499,1.996,6.842l7.93-1.824
		C321.245,348.342,320.488,345.755,319.593,343.241z"/>
	<path fill="#FFFFFF" d="M315.523,377.638h8.138v7.604h-8.138V377.638z"/>
	<path fill="#FFFFFF" d="M315.523,368.507h8.138v-1.456c0-2.195-0.1-4.363-0.29-6.505l-8.104,0.727
		c0.17,1.898,0.257,3.824,0.257,5.778V368.507z"/>
	<path fill="#FFFFFF" d="M130.335,365.525v2.928h8.137v-2.928c0-1.481,0.054-2.951,0.162-4.404l-8.113-0.601
		C130.396,362.173,130.333,363.844,130.335,365.525z"/>
	<path fill="#FFFFFF" d="M130.335,377.612h8.137v7.633h-8.137V377.612z"/>
	<path fill="#FFFFFF" d="M131.944,350.877l7.942,1.777c0.522-2.339,1.186-4.627,1.977-6.85l-7.663-2.736
		C133.298,345.605,132.541,348.212,131.944,350.877z"/>
	<path fill="#FFFFFF" d="M138.141,334.154l7.18,3.824c1.121-2.107,2.367-4.139,3.73-6.083l-6.665-4.666
		C140.836,329.441,139.419,331.752,138.141,334.154z"/>
	<path fill="#FFCC34" d="M283.912,336.077H170.084l-15.681,62.396h145.189L283.912,336.077z"/>
	<path fill="#FFCC34" d="M170.012,347.055h16.154l-15.15-61.112c-5.148,1.418-10.078,3.363-14.724,5.778L170.012,347.055z"/>
	<path fill="#FFCC34" d="M297.704,291.765c-4.646-2.435-9.568-4.392-14.714-5.816l-15.149,61.106h16.157L297.704,291.765z"/>
	<path fill="#122436" d="M319.23,302.752c-4.985-5.075-10.656-9.445-16.835-13.015l0.025-0.093l-2.829-1.483
		c-0.354-0.185-0.728-0.35-1.086-0.534c-0.607-0.305-1.217-0.61-1.838-0.902c-0.594-0.279-1.194-0.554-1.799-0.82
		c-0.626-0.276-1.254-0.547-1.891-0.808c-0.606-0.25-1.217-0.491-1.834-0.727c-0.65-0.249-1.306-0.486-1.967-0.718
		c-0.613-0.214-1.227-0.427-1.844-0.628c-0.683-0.222-1.368-0.425-2.06-0.629c-0.402-0.118-0.798-0.254-1.2-0.364l-4.027-1.116
		l-0.035,0.13c-5.517-1.213-11.241-1.871-17.114-1.868h-71.796c-5.876,0-11.597,0.655-17.112,1.862l-0.028-0.124l-4.027,1.105
		c-0.339,0.096-0.67,0.21-1.007,0.309c-0.8,0.232-1.598,0.471-2.39,0.724c-0.505,0.166-1.004,0.338-1.507,0.513
		c-0.788,0.273-1.569,0.556-2.345,0.853c-0.49,0.188-0.976,0.378-1.459,0.574c-0.775,0.313-1.548,0.639-2.311,0.979
		c-0.467,0.207-0.932,0.414-1.396,0.63c-0.769,0.359-1.528,0.731-2.285,1.115c-0.273,0.136-0.553,0.261-0.82,0.401l-2.845,1.473
		l0.022,0.087c-23.97,13.726-40.13,39.536-40.133,69.137v43.731h231.074v-41.896C342.538,337.799,333.643,317.4,319.23,302.752z
		 M191.098,287.31h71.797c5.207,0.004,10.274,0.571,15.16,1.63l-10.678,43.07h-80.75l-10.678-43.077
		C180.83,287.878,185.896,287.31,191.098,287.31z M119.597,394.405v-35.595c0-19.755,7.996-37.606,20.94-50.558
		c3.938-3.935,8.336-7.408,13.097-10.342l10.85,43.763l-13.252,52.731H119.597z M172.872,341.684l-11.838-47.745
		c0.381-0.178,0.766-0.353,1.149-0.521c0.7-0.312,1.405-0.609,2.117-0.899c0.423-0.171,0.845-0.337,1.271-0.502
		c0.708-0.271,1.424-0.527,2.142-0.775c0.13-0.047,0.26-0.088,0.39-0.133l12.159,49.037h93.482l12.149-49.019
		c0.182,0.062,0.363,0.12,0.543,0.185c0.617,0.216,1.23,0.438,1.84,0.671c0.526,0.199,1.046,0.41,1.568,0.622
		c0.597,0.246,1.188,0.496,1.777,0.759c0.45,0.201,0.896,0.405,1.34,0.611l-11.835,47.732l13.247,52.699H159.619L172.872,341.684z
		 M302.765,394.405l-13.25-52.712l10.838-43.712c4.754,2.965,9.144,6.477,13.078,10.476c12.94,13.163,20.962,31.463,20.965,52.188
		v33.761H302.765z"/>
	<path fill="#365FE0" d="M268.419,255.149h11.016c13.458,0,24.496-13.754,24.478-30.795c-0.003-3.315-0.14-6.671-0.417-10.059
		c-3.839-46.995-34.533-84.195-71.781-87.007c-44.614-3.369-81.629,41.446-81.629,97.202v0.325
		c0.044,16.856,11.145,30.334,24.462,30.334H268.419z"/>
	<path fill="#122436" d="M307.548,213.962c-1.986-24.288-10.897-46.099-24.277-62.326c-6.692-8.114-14.515-14.829-23.166-19.717
		c-8.651-4.885-18.141-7.936-28.085-8.686c-1.685-0.128-3.355-0.191-5.021-0.191c-11.32-0.003-22.116,2.915-31.86,8.133
		c-14.62,7.834-26.884,20.8-35.509,36.955c-8.619,16.157-13.613,35.541-13.613,56.36v0.334c0.029,9.321,3.09,17.781,8.162,24.044
		c2.539,3.125,5.593,5.706,9.045,7.519c3.445,1.808,7.303,2.835,11.32,2.832h104.891c4.054,0.003,7.941-1.043,11.405-2.886
		c5.2-2.768,9.468-7.271,12.451-12.797c2.963-5.491,4.659-12.016,4.683-19.007h0.003l0.002-0.086v-0.095
		C307.974,220.925,307.833,217.461,307.548,213.962z M299.841,224.396c0.007,7.63-2.488,14.45-6.309,19.221
		c-1.904,2.391-4.129,4.266-6.513,5.529c-2.387,1.267-4.919,1.933-7.589,1.936H174.543c-2.641-0.003-5.165-0.66-7.545-1.906
		c-3.563-1.862-6.786-5.091-9.102-9.314c-2.324-4.221-3.731-9.407-3.748-15.058v-0.314c-0.006-26.022,8.353-49.505,21.652-66.337
		c6.649-8.416,14.519-15.169,23.176-19.803c8.663-4.637,18.099-7.169,28.018-7.172c1.459,0,2.927,0.057,4.409,0.168
		c8.682,0.658,16.996,3.312,24.696,7.66c11.546,6.515,21.697,16.875,29.298,29.899c7.606,13.024,12.65,28.691,14.038,45.72
		c0.267,3.277,0.397,6.521,0.404,9.725V224.396z"/>
	<path fill="#365FE0" d="M236.462,141.914c-32.191-5.225-62.522,16.634-67.747,48.829c-5.225,32.19,16.637,62.522,48.828,67.748
		c32.191,5.226,62.526-16.638,67.752-48.829C290.516,177.47,268.656,147.139,236.462,141.914z"/>
	<path fill="#FFCC34" d="M211.435,182.905c-9.229,10.945-23.041,17.899-38.481,17.899c-2.666-0.322-5.017,1.871-4.786,4.547
		c2.714,31.421,30.037,55.804,62.597,53.784c30.297-1.881,54.568-27.192,55.268-57.54c0.004-0.15,0.007-0.302,0.007-0.458
		c0.034-4.112-4.199-6.988-7.965-5.333c-7.345,3.232-15.465,5.025-24.006,5.025c-25.085,0-46.552-15.477-55.378-37.4
		L211.435,182.905z"/>
	<path fill="#122436" d="M287.15,194.07c-1.783-1.742-4.201-2.806-6.833-2.81c-1.29-0.003-2.625,0.267-3.884,0.823l0.004-0.003
		c-6.843,3.01-14.398,4.678-22.365,4.682c-11.699-0.003-22.522-3.604-31.479-9.763c-8.956-6.159-16.018-14.88-20.127-25.088
		l-7.548,3.039c2.664,6.614,6.429,12.639,11.022,17.934c-8.396,8.549-20.051,13.854-32.979,13.854
		c-0.174-0.009-0.35-0.032-0.524-0.032c-2.27,0.003-4.348,0.918-5.854,2.393c-1.509,1.465-2.498,3.573-2.495,5.893
		c0,0.235,0.01,0.477,0.032,0.718c1.396,16.142,8.87,30.555,20.108,40.912c11.234,10.36,26.283,16.7,42.771,16.7
		c1.331,0,2.67-0.041,4.018-0.123c16.221-1.008,30.812-8.286,41.416-19.339c10.612-11.047,17.294-25.924,17.667-42.167v-0.01
		c0.004-0.165,0.007-0.33,0.01-0.502v-0.092C290.112,198.309,288.937,195.799,287.15,194.07z M266.563,238.223
		c-9.277,9.662-21.97,15.977-36.049,16.851c-1.18,0.073-2.355,0.112-3.516,0.112c-14.391-0.003-27.45-5.511-37.257-14.55
		c-9.804-9.038-16.307-21.577-17.521-35.633v-0.013l0.044-0.073l0.168-0.073h0.032l0.242,0.032h0.248
		c15.132,0,28.833-6.21,38.688-16.192c2.008,1.795,4.109,3.489,6.337,5.018c10.255,7.059,22.708,11.196,36.089,11.196
		c9.113,0,17.796-1.917,25.643-5.368h0.005c0.223-0.098,0.407-0.13,0.599-0.133c0.378-0.003,0.823,0.171,1.147,0.493
		c0.323,0.327,0.505,0.699,0.508,1.201v0.019l-0.006,0.397C281.639,215.611,275.837,228.562,266.563,238.223z"/>
	<path fill="#FFFFFF" d="M226.998,159.807c22.431,0,41.528,11.025,48.711,26.448c0.713,1.535,3.035,1.09,3.042-0.604v-0.069
		c0-22.085-23.169-39.99-51.753-39.99c-28.581,0-51.749,17.905-51.749,39.99v0.069c0.003,1.694,2.327,2.139,3.041,0.604
		C185.47,170.832,204.567,159.807,226.998,159.807z"/>
</g>
</svg>
