<?xml version="1.0" encoding="utf-8"?>
<!-- Generator: Adobe Illustrator 16.0.0, SVG Export Plug-In . SVG Version: 6.00 Build 0)  -->
<!DOCTYPE svg PUBLIC "-//W3C//DTD SVG 1.1//EN" "http://www.w3.org/Graphics/SVG/1.1/DTD/svg11.dtd">
<svg version="1.1" id="Capa_1" xmlns="http://www.w3.org/2000/svg" xmlns:xlink="http://www.w3.org/1999/xlink" x="0px" y="0px"
	 width="116px" height="100px" viewBox="0 0 116 100" enable-background="new 0 0 116 100" xml:space="preserve">
<g id="Nuevo_símbolo_2">
	<g>
		<path fill="#FFFFFF" d="M106.524,56.717l-9.468-3.723H63.447l-9.469,3.723c-3.63,1.43-5.958,5.001-5.803,8.897l1.267,31.633
			h61.618l1.267-31.633C112.484,61.718,110.155,58.146,106.524,56.717z"/>
		<rect x="69.558" y="40.725" fill="#B48764" width="21.388" height="18.332"/>
		<path fill="#603813" d="M80.252,2.58c-7.627,0.412-11.967,4.583-11.967,4.583s-6.366,0-6.366,7.638
			c0,6.111,1.528,12.174,1.528,12.174h35.137C101.64,10.17,94.382,1.816,80.252,2.58z"/>
		<path fill="#42210B" d="M71.086,20.671c-5.612-7.017-2.801-13.508-2.801-13.508s-6.366,0-6.366,7.639
			c0,6.11,1.528,12.173,1.528,12.173h7.639V20.671z"/>
		<path fill="#C39772" d="M97.057,25.448h-1.529l-2.995-3.622c-13.75,2.865-20.954-3.074-20.954-3.074
			c-0.753,4.755-5.356,8.335-5.356,8.335l-2.827-1.641c0,0-0.001,0.001-0.002,0.001c-0.167,0.002-0.336,0.02-0.51,0.054
			c-1.488,0.286-2.491,1.708-2.491,3.223v1.106c0,1.492,0.98,2.892,2.443,3.192c0.291,0.059,0.575,0.075,0.848,0.053
			c0.751-0.059,1.42,0.479,1.555,1.222c1.291,7.128,7.514,12.537,15.015,12.537c7.493,0,13.712-5.398,15.011-12.516
			c0.132-0.723,0.754-1.249,1.479-1.233h0.314c1.687,0,3.056-1.369,3.056-3.056v-1.527C100.112,26.815,98.743,25.448,97.057,25.448z
			"/>
		<path fill="#EDEBED" d="M104.324,67.113l6.646-6.647c0.928,1.514,1.432,3.29,1.356,5.148l-1.267,31.633h-9.421V73.594
			C101.64,71.163,102.605,68.833,104.324,67.113z"/>
		<polygon fill="#29ABE2" points="83.093,59.127 76.951,59.127 75.416,97.247 84.628,97.247 		"/>
		<polygon fill="#29ABE2" points="83.427,67.43 83.093,59.127 76.951,59.127 76.617,67.43 		"/>
		<g>
			<path fill="#CCCCCC" d="M80.252,59.104L68.03,48.41l-4.583,4.584l7.098,10.646c1.071,1.606,3.341,1.829,4.703,0.466
				L80.252,59.104z"/>
			<path fill="#CCCCCC" d="M80.252,59.104l12.22-10.694l4.585,4.584l-7.1,10.646c-1.07,1.606-3.339,1.829-4.703,0.466L80.252,59.104
				z"/>
		</g>
		<path fill="#B48764" d="M83.28,46.524c-6.959-1.426-12.194-7.584-12.194-14.966V20.59c-1.413,3.81-4.864,6.498-4.864,6.498
			l-2.827-1.64c0,0-0.001,0-0.002,0c-0.167,0.003-0.336,0.021-0.51,0.054c-1.488,0.287-2.491,1.708-2.491,3.224v1.106
			c0,1.492,0.98,2.892,2.443,3.191c0.291,0.059,0.575,0.076,0.848,0.054c0.751-0.06,1.42,0.48,1.555,1.222
			c1.291,7.128,7.514,12.536,15.015,12.536C81.29,46.834,82.301,46.722,83.28,46.524z"/>
		<path fill="#9E005D" d="M53.14,65.708l-8.242-3.597H17.384l-8.242,3.597c-3.469,1.517-5.651,5.007-5.491,8.79l0.965,22.749h53.051
			l0.964-22.749C58.792,70.715,56.61,67.225,53.14,65.708z"/>
		<rect x="23.502" y="51.418" fill="#FAD7A5" width="15.276" height="15.277"/>
		<circle fill="#C4690E" cx="31.141" cy="11.698" r="9.166"/>
		<ellipse fill="#F7931E" cx="31.141" cy="27.739" rx="18.332" ry="17.569"/>
		<path fill="#C4690E" d="M25.031,30.03c-6.111-6.11-7.025-11.378-6.881-14.684c-3.299,3.177-5.341,7.555-5.341,12.394
			c0,3.313,0.96,6.406,2.627,9.047L25.031,30.03z"/>
		<path fill="#FFE1B4" d="M48.559,33.15c-0.121-0.041-0.875-0.063-0.875-0.063c-0.811,0-1.587-0.322-2.16-0.895l-2.104-1.595
			c0,0-10.817,2.265-20.61-4.24c-0.951,2.778-2.631,4.897-5.627,7.675l-2.897-0.945c-0.001,0-0.001,0-0.002,0
			c-0.167,0.002-0.339,0.02-0.514,0.055c-1.487,0.287-2.488,1.709-2.488,3.223v1.106c0,1.492,0.98,2.89,2.441,3.192
			c0.293,0.059,0.578,0.074,0.851,0.052c0.75-0.061,1.419,0.479,1.553,1.221c1.29,7.129,7.514,12.537,15.015,12.537
			c7.486,0,13.702-5.388,15.008-12.496c0.136-0.748,0.803-1.324,1.56-1.255c0.32,0.029,0.654,0.009,0.994-0.072
			c1.424-0.339,2.351-1.733,2.314-3.196c-0.017-0.694-0.017-1.373-0.017-1.373C51.001,34.64,49.927,33.594,48.559,33.15z"/>
		<g>
			<path fill="#5B003B" d="M11.858,74.415l-5.582-6.7c-1.736,1.774-2.735,4.203-2.625,6.783l0.965,22.749h9.72V81.259
				C14.336,78.758,13.46,76.336,11.858,74.415z"/>
			<path fill="#5B003B" d="M50.425,74.415l5.582-6.7c1.734,1.774,2.733,4.203,2.624,6.783l-0.964,22.749h-9.721V81.259
				C47.946,78.758,48.823,76.336,50.425,74.415z"/>
		</g>
		<path fill="#FAD7A5" d="M21.975,39.195V28.287c-1.014,1.918-2.526,3.644-4.793,5.745l-2.897-0.946
			c-0.001,0-0.001,0.001-0.002,0.001c-0.167,0.002-0.338,0.02-0.514,0.055c-1.487,0.287-2.488,1.708-2.488,3.223v1.106
			c0,1.492,0.98,2.89,2.441,3.19c0.293,0.06,0.578,0.076,0.853,0.054c0.75-0.062,1.417,0.479,1.552,1.221
			c1.29,7.129,7.513,12.537,15.014,12.537c1.04,0,2.049-0.113,3.029-0.31C27.21,52.737,21.975,46.578,21.975,39.195z"/>
		<g>
			<path fill="#5B003B" d="M30.713,66.542l-9.212-9.212l-4.605,4.605l5.68,9.221c0.495,0.802,1.588,0.974,2.304,0.364L30.713,66.542
				z"/>
			<path fill="#5B003B" d="M30.713,66.542l9.212-9.212l4.606,4.605l-5.68,9.221c-0.495,0.802-1.588,0.974-2.305,0.364L30.713,66.542
				z"/>
		</g>
		<path d="M70.92,73.126h-6.141c-0.907,0-1.642,0.733-1.642,1.642c0,0.906,0.734,1.641,1.642,1.641h6.141
			c0.906,0,1.641-0.734,1.641-1.641C72.561,73.859,71.826,73.126,70.92,73.126z"/>
		<path d="M107.067,55.556l-8.936-3.446l-4.557-4.555c-0.294-0.293-0.67-0.452-1.055-0.477v-3.626
			c2.147-2.288,3.676-5.188,4.293-8.455c0.383,0.018,0.769-0.013,1.15-0.092c2.185-0.447,3.769-2.472,3.769-4.816v-1.197
			c0-1.357-0.55-2.601-1.445-3.49c1.449-7.882,0.256-14.305-3.467-18.604c-3.602-4.157-9.402-6.145-16.777-5.746
			C73.23,1.419,68.832,4.555,67.439,5.701c-0.764,0.091-2.063,0.358-3.377,1.147c-1.822,1.094-3.996,3.391-3.996,8.125
			c0,4.129,0.66,7.576,1.138,9.532c-1.601,0.78-2.673,2.472-2.673,4.403v1.18c0,2.344,1.584,4.369,3.769,4.816
			c0.382,0.079,0.768,0.11,1.15,0.092c0.617,3.267,2.146,6.167,4.294,8.455v3.626c-0.385,0.025-0.763,0.184-1.055,0.476
			l-4.558,4.556l-8.936,3.446c-0.773,0.297-1.512,0.685-2.195,1.148c-0.749,0.511-0.944,1.529-0.435,2.28
			c0.317,0.469,0.833,0.72,1.359,0.72c0.317,0,0.639-0.092,0.921-0.284c0.476-0.324,0.991-0.594,1.532-0.801l8.293-3.199
			l6.341,9.512c0.787,1.18,2.046,1.934,3.456,2.074c0.158,0.016,0.314,0.024,0.469,0.024c0.817,0,1.61-0.215,2.31-0.613
			l-1.359,30.867c-0.041,0.906,0.661,1.672,1.567,1.714c0.024,0,0.049,0,0.072,0c0.874,0,1.6-0.687,1.64-1.569l1.262-28.651h3.407
			l1.263,28.651c0.039,0.883,0.766,1.569,1.639,1.569c0.023,0,0.05,0,0.073,0c0.906-0.042,1.607-0.808,1.567-1.714l-1.36-30.867
			c0.701,0.398,1.493,0.613,2.31,0.613c0.155,0,0.313-0.009,0.47-0.024c1.409-0.141,2.67-0.895,3.456-2.074l6.34-9.512l8.295,3.199
			c1.163,0.449,2.164,1.163,2.951,2.057l-5.673,5.674c-2.051,2.051-3.181,4.777-3.181,7.674v23.334c0,0.908,0.736,1.641,1.643,1.641
			s1.641-0.732,1.641-1.641V74.023c0-2.021,0.787-3.924,2.217-5.353l4.98-4.98c0.2,0.733,0.294,1.506,0.262,2.294l-1.271,31.307
			c-0.035,0.906,0.667,1.67,1.573,1.707c0.023,0,0.045,0,0.068,0c0.875,0,1.603-0.691,1.639-1.573l1.271-31.307
			C114.192,61.473,111.403,57.229,107.067,55.556z M80.131,57.279l-9.105-7.967v-3.141c2.648,1.685,5.78,2.648,9.105,2.648
			c3.326,0,6.459-0.963,9.107-2.648v3.141L80.131,57.279z M63.341,31.716c-0.125,0.01-0.254,0.001-0.382-0.025
			c-0.654-0.133-1.145-0.823-1.145-1.602v-1.18c0-0.761,0.508-1.446,1.157-1.56c0.548-0.096,1.071,0.105,1.404,0.538
			c0.302,0.393,0.704,0.674,1.162,0.813c0.672,0.202,1.413,0.083,1.983-0.32c1.025-0.724,1.931-1.609,2.69-2.63
			c0.542-0.727,0.389-1.756-0.337-2.296c-0.728-0.541-1.757-0.389-2.297,0.338c-0.379,0.509-0.807,0.971-1.278,1.38
			c-0.52-0.445-1.127-0.767-1.779-0.95c-0.422-1.615-1.172-5.076-1.172-9.25c0-2.513,0.774-4.279,2.304-5.249
			c1.192-0.756,2.453-0.787,2.452-0.787c0.42,0,0.828-0.165,1.133-0.454c0.04-0.037,4.074-3.781,10.982-4.155
			c6.323-0.341,11.207,1.255,14.119,4.618c2.936,3.39,3.912,8.593,2.853,15.106c-0.44-0.015-0.921,0.018-1.4,0.098l-1.541-3.702
			c-0.314-0.756-1.14-1.164-1.931-0.958c-0.153,0.039-15.309,3.882-21.663-4.03c-0.566-0.707-1.6-0.819-2.307-0.251
			c-0.706,0.568-0.819,1.601-0.252,2.307c6.489,8.079,19.365,6.322,23.651,5.464l1.191,2.863c0.514,1.231,1.825,1.903,3.118,1.598
			c0.53-0.125,1.037-0.127,1.228-0.089c0.664,0.131,1.164,0.794,1.164,1.541v1.197c0,0.779-0.492,1.467-1.145,1.601
			c-0.129,0.027-0.258,0.036-0.382,0.026c-1.573-0.115-3.033,1.028-3.323,2.605c-1.194,6.499-6.858,11.216-13.47,11.216
			c-6.61,0-12.273-4.717-13.468-11.216C66.374,32.745,64.914,31.599,63.341,31.716z M72.791,63.741
			c-0.251-0.025-0.722-0.141-1.048-0.63l-6.388-9.582l2.568-2.569l9.807,8.58l-3.787,3.788
			C73.526,63.745,73.043,63.766,72.791,63.741z M78.572,65.496l0.1-2.256l1.459-1.46l1.46,1.46l0.1,2.256H78.572L78.572,65.496z
			 M88.521,63.111c-0.326,0.489-0.798,0.604-1.048,0.63c-0.251,0.024-0.736,0.004-1.152-0.413l-3.787-3.788l9.808-8.581l2.567,2.57
			L88.521,63.111z"/>
		<path d="M54.027,64.157l-8.013-3.499l-4.38-4.381c-0.293-0.293-0.671-0.45-1.055-0.475v-2.582
			c3.744-2.458,6.483-6.371,7.363-11.034c0.431,0.02,0.867-0.021,1.295-0.124c2.1-0.496,3.624-2.509,3.624-4.784v-1.197
			c0-1.663-0.825-3.158-2.103-4.035c0.376-1.49,0.568-3.013,0.568-4.547c0-6.8-3.675-12.788-9.215-16.227
			C42.052,5.6,37.208,1,31.261,1C25.313,1,20.47,5.6,20.411,11.274c-5.54,3.439-9.214,9.428-9.214,16.227
			c0,1.528,0.19,3.048,0.563,4.534c-1.276,0.873-2.099,2.374-2.099,4.065v1.179c0,2.275,1.524,4.288,3.625,4.784
			c0.429,0.102,0.863,0.144,1.294,0.124c0.881,4.663,3.62,8.576,7.364,11.034v2.582c-0.384,0.024-0.762,0.182-1.055,0.475
			l-4.38,4.381l-8.013,3.499c-4.078,1.778-6.69,5.962-6.501,10.406l0.968,22.863c0.038,0.883,0.765,1.571,1.639,1.571
			c0.023,0,0.047,0,0.071,0c0.905-0.039,1.608-0.803,1.57-1.709L5.273,74.423c-0.062-1.472,0.321-2.9,1.041-4.133l4.307,5.171
			c1.361,1.632,2.11,3.701,2.11,5.829v16.067c0,0.908,0.735,1.641,1.642,1.641c0.905,0,1.641-0.732,1.641-1.641V81.29
			c0-2.894-1.02-5.709-2.872-7.933l-4.578-5.494c0.389-0.269,0.803-0.505,1.245-0.697l6.983-3.051l4.936,8.011
			c0.487,0.792,1.293,1.328,2.21,1.473c0.166,0.026,0.331,0.039,0.495,0.039c0.75,0,1.481-0.267,2.062-0.761l3.127-2.668v27.148
			c0,0.908,0.735,1.641,1.641,1.641c0.907,0,1.641-0.732,1.641-1.641V70.209l3.127,2.668c0.58,0.494,1.311,0.761,2.061,0.761
			c0.165,0,0.331-0.013,0.495-0.039c0.917-0.145,1.724-0.681,2.21-1.471l4.936-8.013l6.983,3.051
			c0.442,0.192,0.857,0.429,1.245,0.697l-4.578,5.494c-1.852,2.224-2.872,5.039-2.872,7.933v16.069c0,0.906,0.735,1.641,1.641,1.641
			c0.907,0,1.642-0.734,1.642-1.641V81.29c0-2.128,0.75-4.197,2.111-5.829l4.307-5.171c0.72,1.232,1.103,2.661,1.04,4.133
			l-0.969,22.866c-0.038,0.906,0.664,1.67,1.569,1.709c0.024,0,0.048,0.002,0.071,0.002c0.874,0,1.602-0.69,1.639-1.573
			l0.969-22.863C60.718,70.119,58.104,65.936,54.027,64.157z M31.261,4.282c3.491,0,6.438,2.228,7.309,5.246
			c-2.266-0.855-4.731-1.326-7.309-1.326c-2.577,0-5.042,0.47-7.308,1.326C24.824,6.51,27.771,4.282,31.261,4.282z M17.792,41.511
			c-0.289-1.577-1.75-2.722-3.322-2.605c-0.14,0.01-0.284-0.001-0.429-0.036c-0.625-0.148-1.098-0.833-1.098-1.591V36.1
			c0-0.762,0.508-1.446,1.158-1.56c0.548-0.096,1.072,0.105,1.404,0.537c0.302,0.393,0.704,0.674,1.163,0.813
			c0.672,0.204,1.414,0.083,1.983-0.319c1.011-0.713,1.905-1.582,2.656-2.584c0.544-0.724,0.398-1.752-0.327-2.297
			c-0.725-0.544-1.754-0.397-2.297,0.328c-0.372,0.494-0.791,0.945-1.252,1.346c-0.702-0.601-1.563-0.976-2.477-1.09
			c-0.314-1.236-0.475-2.501-0.475-3.772c0-8.832,7.528-16.016,16.783-16.016c9.255,0,16.783,7.185,16.783,16.016
			c0,1.269-0.16,2.53-0.473,3.763c-0.432,0.035-0.871,0.105-1.277,0.211l-1.233-1.015c-0.62-0.509-1.4-0.766-2.19-0.717
			c-2.413,0.142-14.765,0.468-21.104-7.117c-0.582-0.696-1.616-0.789-2.311-0.207C18.76,23,18.667,24.036,19.248,24.73
			c3.127,3.741,7.711,6.271,13.627,7.519c4.529,0.955,8.555,0.863,10.133,0.773l1.926,1.583c0.53,0.435,1.272,0.496,1.866,0.151
			c0.277-0.151,1.209-0.295,1.617-0.215c0.664,0.131,1.164,0.794,1.164,1.541v1.197c0,0.759-0.472,1.442-1.097,1.591
			c-0.146,0.034-0.29,0.046-0.429,0.036c-1.572-0.115-3.033,1.028-3.324,2.605c-1.193,6.499-6.858,11.216-13.469,11.216
			S18.986,48.009,17.792,41.511z M31.261,56.009c2.116,0,4.152-0.393,6.036-1.11v3.396l-6.036,6.034l-6.036-6.034v-3.396
			C27.109,55.616,29.146,56.009,31.261,56.009z M24.457,70.301l-4.935-8.013l2.528-2.529l6.795,6.796L24.457,70.301z M38.066,70.301
			l-4.389-3.746l6.795-6.796l2.529,2.529L38.066,70.301z"/>
		<path d="M25.121,80.364h-4.606c-0.907,0-1.641,0.733-1.641,1.642c0,0.905,0.734,1.641,1.641,1.641h4.606
			c0.906,0,1.641-0.735,1.641-1.641C26.761,81.098,26.026,80.364,25.121,80.364z"/>
	</g>
</g>
<g id="Nuevo_símbolo">
</g>
</svg>
