<?xml version="1.0" encoding="utf-8"?>
<!-- Generator: Adobe Illustrator 16.0.0, SVG Export Plug-In . SVG Version: 6.00 Build 0)  -->
<!DOCTYPE svg PUBLIC "-//W3C//DTD SVG 1.1//EN" "http://www.w3.org/Graphics/SVG/1.1/DTD/svg11.dtd">
<svg version="1.1" id="Capa_1" xmlns="http://www.w3.org/2000/svg" xmlns:xlink="http://www.w3.org/1999/xlink" x="0px" y="0px"
	 width="100px" height="100px" viewBox="0 0 100 100" enable-background="new 0 0 100 100" xml:space="preserve">
<symbol  id="Nuevo_símbolo_1" viewBox="-45.733 -49 91.467 98">
	<g>
		<polygon fill="#4398D1" points="13.067,-44.101 -32.667,-44.101 -39.2,6.533 19.601,6.533 		"/>
		<polygon fill="#4398D1" points="-44.1,13.067 24.499,13.067 24.499,6.534 -44.1,6.534 		"/>
	</g>
	<polygon fill="#398CC4" points="-39.2,6.533 -38.357,0 18.757,0 19.601,6.533 	"/>
	<polygon fill="#726891" points="-13.067,13.067 -35.934,13.067 -35.934,27.768 -29.401,35.933 -19.6,35.933 -13.067,27.768 	"/>
	<polygon fill="#E8594A" points="-29.401,47.367 -19.6,47.367 -19.6,35.934 -29.401,35.934 	"/>
	<polygon fill="#7A709C" points="-35.934,27.768 -13.067,27.768 -13.067,13.067 -35.934,13.067 	"/>
	<polygon fill="#E66712" points="19.427,28.496 16.505,27.037 9.839,40.393 12.761,41.852 	"/>
	<g>
		<polygon fill="#F77219" points="16.331,47.367 22.866,47.367 22.866,40.834 16.331,40.834 		"/>
		<path fill="#F77219" d="M8.167,34.3H-6.534c0,7.215,5.849,13.067,13.068,13.067h9.799v-6.533L8.167,34.3z"/>
	</g>
	<polygon fill="#D4D4D4" points="-1.634,34.3 8.167,34.3 8.167,27.768 -1.634,27.768 	"/>
	<polygon fill="#92E0C0" points="-1.634,27.768 8.167,27.768 16.331,19.6 16.331,13.067 -6.534,13.067 -6.534,22.868 	"/>
	<path fill="#F5A338" d="M35.933-21.233h-2.557c-1.543,0-3.059-0.358-4.438-1.047c-2.795-1.398-6.082-1.398-8.877,0
		c-1.379,0.688-2.896,1.047-4.438,1.047h-2.557c-4.51,0-8.168-3.657-8.168-8.166v-9.8c0-4.51,3.658-8.168,8.168-8.168h2.557
		c1.541,0,3.059,0.36,4.438,1.047c2.795,1.398,6.082,1.398,8.877,0c1.379-0.687,2.895-1.047,4.438-1.047h2.557
		c4.51,0,8.168,3.658,8.168,8.168v9.8C44.101-24.891,40.442-21.233,35.933-21.233z"/>
	<path fill="#F9B44D" d="M35.933-37.567h-2.557c-1.543,0-3.059,0.359-4.438,1.048l0,0c-2.795,1.398-6.082,1.398-8.877,0l0,0
		c-1.379-0.688-2.896-1.048-4.438-1.048h-2.557c-4.51,0-8.168,3.657-8.168,8.168l0,0c0,4.509,3.658,8.166,8.168,8.166h2.557
		c1.541,0,3.059-0.358,4.438-1.047l0,0c2.795-1.398,6.082-1.398,8.877,0l0,0c1.379,0.688,2.895,1.047,4.438,1.047h2.557
		c4.51,0,8.168-3.657,8.168-8.166l0,0C44.101-33.91,40.442-37.567,35.933-37.567z"/>
	<g>
		<polygon fill="#F5A338" points="34.3,-26.133 37.567,-26.133 37.567,-29.399 34.3,-29.399 		"/>
		<polygon fill="#F5A338" points="17.968,-26.133 21.235,-26.133 21.235,-29.399 17.968,-29.399 		"/>
		<polygon fill="#F5A338" points="11.433,-27.767 14.698,-27.767 14.698,-31.034 11.433,-31.034 		"/>
		<polygon fill="#F5A338" points="27.767,-27.767 31.034,-27.767 31.034,-31.034 27.767,-31.034 		"/>
	</g>
	<path fill="#97D3E6" d="M-1.634,0v13.067h-26.134V-24.5c0-2.707,2.194-4.899,4.9-4.899h16.333c2.707,0,4.9,2.192,4.9,4.899v16.332
		l6.631-3.314c1.75-0.875,3.875-0.166,4.754,1.581c0,0.002,0,0.002,0,0.004l0.041,0.081c0.916,1.794,0.199,3.991-1.596,4.904
		C8.19-4.908,8.183-4.903,8.175-4.899L-1.634,0z"/>
	<path fill="#8AC9DE" d="M8.175-4.899L-1.634,0v13.067h-1.238C-8.801-6.427-19.206-18.34-27.699-25.22
		c0.352-2.399,2.408-4.178,4.832-4.18h16.333c2.707,0,4.9,2.192,4.9,4.899v16.332l6.631-3.314c1.75-0.875,3.875-0.166,4.754,1.581
		c0,0.002,0.002,0.002,0.002,0.004l0.039,0.081c0.916,1.794,0.199,3.991-1.596,4.904C8.19-4.908,8.183-4.903,8.175-4.899z"/>
	<g>
		<polygon fill="#7DBDD1" points="-22.868,-13.067 -19.6,-13.067 -19.6,-29.399 -22.868,-29.399 		"/>
		<polygon fill="#7DBDD1" points="-16.334,-13.067 -13.067,-13.067 -13.067,-29.399 -16.334,-29.399 		"/>
		<polygon fill="#7DBDD1" points="-9.801,-13.067 -6.534,-13.067 -6.534,-29.399 -9.801,-29.399 		"/>
	</g>
	<path d="M-44.1,4.9h3.464l6.348-49.209c0.104-0.815,0.798-1.425,1.621-1.425H5.782c1.854-2.076,4.502-3.265,7.285-3.267h2.557
		c1.793,0.002,3.563,0.42,5.168,1.219c2.334,1.163,5.08,1.163,7.416,0c1.605-0.799,3.373-1.217,5.168-1.219h2.557
		c5.41,0.005,9.797,4.392,9.801,9.801v9.8c-0.004,5.409-4.391,9.794-9.801,9.799h-2.557c-1.795-0.002-3.563-0.418-5.168-1.22
		c-2.336-1.16-5.082-1.16-7.416,0c-0.93,0.457-1.92,0.787-2.939,0.979L21.036,4.9h3.463c0.902,0,1.633,0.73,1.633,1.632v6.534
		c0,0.902-0.73,1.633-1.633,1.633h-6.531v4.9c0,0.433-0.174,0.85-0.479,1.154L9.8,28.443v5.073l2.477,1.979l4.229-8.459l2.924,1.46
		l-4.543,9.087l2.018,1.616h5.963c0.902,0,1.633,0.732,1.633,1.634v6.534c0,0.901-0.73,1.633-1.633,1.633H6.534
		c-8.116-0.009-14.691-6.585-14.701-14.7c0-0.902,0.731-1.634,1.633-1.634h3.268v-4.223l-4.422-4.422
		c-0.308-0.306-0.479-0.722-0.479-1.154V14.7h-3.267v13.068c-0.003,0.202-0.043,0.4-0.12,0.589
		c-0.029,0.063-0.063,0.125-0.101,0.185c-0.04,0.084-0.085,0.168-0.138,0.246l-6.175,7.718v10.862c0,0.901-0.731,1.633-1.633,1.633
		h-9.801c-0.901,0-1.633-0.732-1.633-1.633V36.505l-6.175-7.718c-0.052-0.078-0.098-0.162-0.138-0.247
		c-0.037-0.059-0.072-0.121-0.102-0.184c-0.076-0.188-0.116-0.387-0.119-0.59V14.7H-44.1c-0.902,0-1.633-0.731-1.633-1.632V6.534
		C-45.733,5.631-45.002,4.9-44.1,4.9z M35.933-45.733h-2.557c-1.287,0.001-2.555,0.303-3.707,0.876
		c-3.258,1.618-7.082,1.618-10.34,0c-1.15-0.573-2.418-0.875-3.705-0.876h-2.557c-3.607,0-6.533,2.925-6.533,6.534v2.514
		c1.791-1.617,4.119-2.514,6.533-2.514h2.557c1.793,0.001,3.563,0.419,5.168,1.219c2.334,1.162,5.08,1.162,7.416,0
		c1.605-0.8,3.373-1.218,5.168-1.219h2.557c2.414,0,4.742,0.896,6.535,2.514v-2.514C42.468-42.809,39.54-45.733,35.933-45.733z
		 M29.669-23.742c1.152,0.574,2.42,0.874,3.707,0.875h2.557c3.607,0,6.535-2.925,6.535-6.532c0-3.609-2.928-6.533-6.535-6.533
		h-2.557c-1.287,0.001-2.555,0.301-3.707,0.874c-3.258,1.619-7.082,1.619-10.34,0c-1.15-0.573-2.418-0.873-3.705-0.874h-2.557
		c-3.607,0-6.533,2.924-6.533,6.533c0,3.607,2.926,6.532,6.533,6.532h2.557c1.287-0.001,2.555-0.301,3.705-0.875
		C22.587-25.359,26.411-25.359,29.669-23.742z M14.581-19.601h-1.514c-5.41-0.005-9.797-4.39-9.801-9.799v-9.8
		c0.004-1.114,0.195-2.22,0.572-3.268h-35.07L-37.344,4.9h7.943v-29.4c0-3.607,2.925-6.533,6.533-6.533h16.333
		c3.609,0,6.533,2.926,6.533,6.533v13.69l4.268-2.133c2.578-1.272,5.697-0.215,6.971,2.363c0.006,0.012,0.01,0.021,0.016,0.033
		c0.633,1.255,0.74,2.707,0.299,4.042c-0.436,1.334-1.389,2.437-2.646,3.061l-8.906,4.453V4.9h17.744L14.581-19.601z M-6.534,11.433
		h3.268V0c-0.004-0.622,0.345-1.192,0.902-1.471L7.435-6.37C7.913-6.605,8.276-7.025,8.44-7.531c0.17-0.545,0.111-1.134-0.162-1.634
		c-0.471-0.941-1.617-1.325-2.557-0.854c-0.002,0-0.006,0.002-0.008,0.002l-6.63,3.314c-0.811,0.395-1.789,0.061-2.185-0.75
		C-3.21-7.675-3.266-7.921-3.266-8.167V-24.5c0-1.806-1.463-3.267-3.268-3.267v14.699h-3.267v-14.699h-3.267v14.699h-3.267v-14.699
		H-19.6v14.699h-3.268v-14.699c-1.804,0-3.266,1.461-3.266,3.267v35.933H-6.534z M22.866,8.167H-0.001v3.267h22.867V8.167z
		 M21.233,42.467h-3.266v3.266h3.266V42.467z M6.532,45.733h8.166v-4.116l-7.105-5.684H-4.785
		C-3.965,41.555,0.854,45.727,6.532,45.733z M6.532,32.667V29.4h-6.533v3.266H6.532z M-4.901,22.19l3.943,3.942h8.447l7.209-7.208
		V14.7H-4.901V22.19z M-28.617,34.3h8.232l3.92-4.9h-16.072L-28.617,34.3z M-27.768,45.733h6.534v-8.167h-6.534V45.733z
		 M-34.301,26.132H-14.7V14.7h-19.601V26.132z M-42.467,11.433h13.066V8.166h-13.066V11.433z"/>
	<polygon points="34.3,-26.133 37.567,-26.133 37.567,-29.399 34.3,-29.399 	"/>
	<polygon points="17.968,-26.133 21.235,-26.133 21.235,-29.399 17.968,-29.399 	"/>
	<polygon points="11.433,-27.767 14.698,-27.767 14.698,-31.034 11.433,-31.034 	"/>
	<polygon points="27.767,-27.767 31.034,-27.767 31.034,-31.034 27.767,-31.034 	"/>
	<g>
	</g>
</symbol>
<g id="Nuevo_símbolo">
	
		<use xlink:href="#Nuevo_símbolo_1"  width="91.467" height="98" id="XMLID_1_" x="-45.733" y="-49" transform="matrix(1 0 0 -1 50 50)" overflow="visible"/>
</g>
</svg>
