<?xml version="1.0" encoding="utf-8"?>
<!-- Generator: Adobe Illustrator 16.0.0, SVG Export Plug-In . SVG Version: 6.00 Build 0)  -->
<!DOCTYPE svg PUBLIC "-//W3C//DTD SVG 1.1//EN" "http://www.w3.org/Graphics/SVG/1.1/DTD/svg11.dtd">
<svg version="1.1" id="Capa_1" xmlns="http://www.w3.org/2000/svg" xmlns:xlink="http://www.w3.org/1999/xlink" x="0px" y="0px"
	 width="100px" height="100px" viewBox="0 0 100 100" enable-background="new 0 0 100 100" xml:space="preserve">
<g id="Nuevo_símbolo_2">
	<g id="Nuevo_símbolo_3">
		<polygon fill="#FFA528" points="70.917,33.833 71.084,74.667 78.584,75.167 78.417,33.333 		"/>
		<polygon fill="#664FAF" points="5.75,49 58.25,49 54,97.5 9.5,97.5 		"/>
		<polygon fill="#0099D4" points="48.25,96.75 97.375,97.5 97.584,80.5 48.75,81.875 		"/>
		<path fill="#5DE1C0" d="M48.25,80.334L97.584,80.5l-0.667-15.666c0,0-0.999-3.501-5.333-3.334S67.25,61.667,67.25,61.667
			s-5.781,4.441,0.5,6.208C71.75,69,87,68.25,87,68.25l4.25,2.584L89.75,74l-29,0.5C60.75,74.5,45.75,71.834,48.25,80.334z"/>
		<polygon fill="#0099D4" points="51.75,3.333 54.917,25.167 94.25,25.833 97.25,3 		"/>
		<polygon fill="#FF7300" points="55.25,26.667 55.083,33.333 94.25,33 94.25,25.833 		"/>
		<polygon fill="#7F719F" points="3,42.25 2.25,48.25 61,48.75 61.5,42.25 		"/>
		<path fill="#75D4E7" d="M5.75,41c0,0,3.5-16.833,18.333-13.5c0,0,0.333-13.333,14-8.833c0,0,9.333,4.5,4,13.667
			c0,0,7,2.5,6.167,9.667l-14.333,0.5l-0.5,14.667c0,0-3.5,7.167-7-0.833c0,0,0.167-5.5-2.5-5.667s-3.5,2.334-3.333,8.667
			s0.5,8.332-3,8.166s-4.167-4.166-3.833-7.166s0.667-11.667,0.667-11.667v-3L14.083,42.5L5.75,41z"/>
		<g>
			<g>
				<g>
					<path d="M94.1,59.8H79.4V35.3H94.1c0.902,0,1.633-0.731,1.633-1.632v-8.053l3.25-22.75c0.129-0.893-0.491-1.721-1.384-1.849
						C97.521,1.006,97.444,1,97.366,1H51.633C50.731,1,50,1.731,50,2.633c0,0.078,0.006,0.155,0.016,0.232l3.25,22.75v8.053
						c0,0.901,0.732,1.632,1.634,1.632h14.7v24.5h-1.633c-2.706,0-4.9,2.193-4.9,4.9c0,2.706,2.194,4.899,4.9,4.899H69.6v3.267
						H58.167L59.69,50h1.742c0.902,0,1.634-0.731,1.634-1.633v-6.535c0-0.901-0.731-1.632-1.634-1.632H49.877
						c-0.517-3.539-2.657-6.634-5.785-8.368c2.589-5.758,0.02-12.526-5.739-15.116c-5.759-2.59-12.527-0.021-15.115,5.738
						c-0.45,1-0.753,2.058-0.902,3.143C13.382,24.629,5.338,31.103,4.37,40.057c-0.005,0.048-0.01,0.096-0.014,0.144H2.633
						C1.731,40.2,1,40.931,1,41.833v6.534C1,49.269,1.731,50,2.633,50h1.74l3.16,47.475C7.59,98.334,8.305,99.002,9.167,99h88.199
						C98.269,99,99,98.269,99,97.366V64.7C99,61.993,96.807,59.8,94.1,59.8z M53.516,4.267H59.8v9.801h3.267V4.267h3.267v3.267H69.6
						V4.267H79.4v4.9h3.266v-4.9h3.267v9.801H89.2V4.267h6.282l-2.799,19.601H56.316L53.516,4.267z M56.533,32.034v-4.9h35.934v4.9
						H56.533z M76.133,35.3v24.5h-3.267V35.3H76.133z M59.8,43.467v3.266H35.3v-3.266H59.8z M22.185,28.87
						c0.449,0.056,0.895,0.135,1.336,0.236c0.017,0,0.035,0,0.053,0c1.916,0.452,3.706,1.327,5.238,2.563l2.055-2.54
						c-1.572-1.259-3.363-2.22-5.283-2.832c0.469-4.474,4.477-7.721,8.95-7.251c4.475,0.469,7.722,4.475,7.252,8.95
						c-0.138,1.32-0.598,2.588-1.338,3.691c-0.502,0.75-0.301,1.764,0.448,2.266c0.115,0.077,0.239,0.139,0.369,0.185
						c2.702,0.954,4.708,3.255,5.282,6.063h-12.88c-0.903,0-1.634,0.731-1.634,1.632v14.7c0,0.903-0.731,1.635-1.633,1.635
						c-0.901,0-1.634-0.731-1.634-1.635v-3.265c0-2.707-2.193-4.9-4.9-4.9c-2.706,0-4.9,2.194-4.9,4.9V64.7
						c0,0.901-0.731,1.633-1.634,1.633c-0.901,0-1.632-0.731-1.632-1.633V41.833c0-0.901-0.731-1.632-1.633-1.632H7.643
						C8.53,33.055,15.04,27.982,22.185,28.87z M4.267,46.733v-3.266h8.166v3.266H4.267z M46.733,77.767v17.966H10.695L7.646,50
						h4.787v14.7c0,2.706,2.194,4.899,4.9,4.899c2.707,0,4.9-2.193,4.9-4.899V53.268c0-0.902,0.731-1.635,1.633-1.635
						c0.903,0,1.634,0.732,1.634,1.635v3.265c0,2.707,2.193,4.9,4.9,4.9s4.9-2.193,4.9-4.9V50h21.12L54.9,72.866h-3.267
						C48.926,72.866,46.733,75.061,46.733,77.767z M95.732,95.732h-4.899v-8.166h-3.267v8.166h-4.9v-8.166H79.4v8.166h-4.9v-8.166
						h-3.268v8.166h-4.899v-8.166h-3.267v8.166h-4.9v-8.166H54.9v8.166H50V82.666h45.732V95.732z M95.732,79.4H50v-1.634
						c0-0.902,0.731-1.634,1.633-1.634h35.934c2.705,0,4.9-2.193,4.9-4.9c0-2.705-2.195-4.899-4.9-4.899h-19.6
						c-0.903,0-1.634-0.731-1.634-1.633s0.73-1.633,1.634-1.633H94.1c0.902,0,1.633,0.731,1.633,1.633V79.4z M72.866,72.866V69.6
						h3.267v3.267H72.866z M79.4,72.866V69.6h8.166c0.902,0,1.634,0.731,1.634,1.633c0,0.902-0.731,1.634-1.634,1.634H79.4z"/>
				</g>
			</g>
			<g>
				<g>
					<polygon points="7.533,17.333 7.533,14.067 4.267,14.067 4.267,17.333 1,17.333 1,20.6 4.267,20.6 4.267,23.867 7.533,23.867 
						7.533,20.6 10.8,20.6 10.8,17.333 					"/>
				</g>
			</g>
			<g>
				<g>
					<polygon points="94.1,46.733 94.1,43.467 90.833,43.467 90.833,46.733 87.566,46.733 87.566,50 90.833,50 90.833,53.268 
						94.1,53.268 94.1,50 97.366,50 97.366,46.733 					"/>
				</g>
			</g>
			<g>
				<g>
					<polygon points="32.033,4.267 32.033,1 28.766,1 28.766,4.267 25.5,4.267 25.5,7.534 28.766,7.534 28.766,10.8 32.033,10.8 
						32.033,7.534 35.3,7.534 35.3,4.267 					"/>
				</g>
			</g>
			<g>
				<g>
					<rect x="59.8" y="17.333" width="3.267" height="3.267"/>
				</g>
			</g>
		</g>
	</g>
</g>
<g id="Nuevo_símbolo">
</g>
</svg>
