<?xml version="1.0" encoding="utf-8"?>
<!-- Generator: Adobe Illustrator 16.0.0, SVG Export Plug-In . SVG Version: 6.00 Build 0)  -->
<!DOCTYPE svg PUBLIC "-//W3C//DTD SVG 1.1//EN" "http://www.w3.org/Graphics/SVG/1.1/DTD/svg11.dtd">
<svg version="1.1" id="Capa_1" xmlns="http://www.w3.org/2000/svg" xmlns:xlink="http://www.w3.org/1999/xlink" x="0px" y="0px"
	 width="150px" height="150px" viewBox="0 0 150 150" enable-background="new 0 0 150 150" xml:space="preserve">
<g>
	<path fill="#FFFFFF" d="M141.206,57.133l0.046,0.223l0.177,0.754c0.383,0.834,0.954,2.57,1.16,4.97
		c0.063-0.012,0.097-0.234,0.257,0.588c0.434,3.781,0.32,1.874,0.794,4.58c-0.058-0.839-0.286-1.885-0.269-2.301
		c0.365,1.73,0.417,3.489,0.531,5.249c0.091-0.737,0.188-1.343,0.343-0.463c0.217-0.561,0.6,1.183,0.902,1.851
		c0-0.868-0.011-1.594-0.011-2.102c0.114,0.125,0.205,1.038,0.291,2.176c0.022-0.08,0.04-0.184,0.051-0.35
		c-0.011,0.166-0.029,0.27-0.051,0.35c0.04,0.765,0.074,1.575,0.114,2.353c0.011-0.439,0.023-0.868,0.08-0.657l-0.16-3.238
		c0.018-0.113,0.04-0.005,0.069,0.188l-0.097-0.839l-0.034,0.65c-0.04,0.229-0.097-0.211-0.148-0.64
		c-0.058-0.856-0.023-1.079-0.012-1.513c-0.074-0.566-0.102-1.148-0.251-1.714c-0.148-0.629,0.166,4.535-0.148,1.747v-0.856
		c-0.166-1.279-0.48-2.976-0.72-3.809c0.012-1.304-0.697-3.576-0.486-3.839c-0.988-4.854-3.055-10.978-5.026-15.519
		c-0.565-0.686-0.931-0.52-2.084-2.318c-0.148-0.4-0.405-0.995-0.269-0.817c-0.251-0.429-0.565-0.822-0.851-1.228
		c0.468,0.708,0.977,1.645,1.062,2.073c-1.097-2.057,0.303,1.039,0.115,0.908c-0.486-0.948-0.966-1.896-1.582-2.753l0.153,0.337
		c2.633,5.025,4.729,10.32,6.009,15.826L141.206,57.133z"/>
	<path fill="#FFFFFF" d="M68.208,2.501l0.08,0.234C55.743,4.01,42.221,8.59,30.774,17.488C19.177,26.125,9.896,39.027,5.187,53.906
		C0.72,68.813,0.754,85.651,6.531,100.661c2.81,7.505,6.846,14.553,11.88,20.756c5.118,6.146,11.212,11.377,17.886,15.507
		l-1.802-0.034c7.246,4.438,15.778,7.882,24.523,9.476c8.732,1.645,17.554,1.508,25.242,0.189c-1.999,0.33-4.015,0.33-6.037,0.37
		c2.764-0.285,7.63-1.027,12.737-2.353c2.536-0.726,5.191-1.359,7.607-2.388c2.474-0.869,4.792-1.8,6.712-2.787l-0.669,0.588
		c-10.938,4.638,0.84-0.097-3.404,2.262l-1.925,0.822l1.194-0.313l1.925-0.822c-0.177,0.199,0.063,0.302-1.782,1.033
		c0.874-0.337,1.776-0.604,2.627-0.971c5.695-2.027,6.02-1.588,5.638-0.611c1.404-0.806-0.343-0.514,5.603-3.884l-0.634,0.662
		c2.113-1.336,3.993-3.004,5.906-4.609c0.936-0.6,1.941-1.113,2.798-1.821c1.862-1.937,3.107-3.119,5.072-5.021l0.217-0.943
		c4.352-4.26,8.253-10.006,11.583-16.02c3.107-6.163,5.461-12.663,6.957-18.661c0.206-2.696,1.839-9.166,1.587-16.084l-0.663,2.93
		c-0.297,1.834-0.359,4.285-0.959,7.061c-0.246,1.439-0.497,2.901-0.754,4.416c-0.395,1.529-0.8,3.111-1.222,4.717
		c-1.737,6.437-4.616,13.165-7.889,18.105l0.012-0.537c1.285-2.118,1.822-3.843,3.25-6.545l-0.079-0.914
		c-0.943,0.982-1.925,2.655-2.981,4.643c-1.246,1.892-2.417,4.192-3.759,6.375c-2.696,4.358-5.809,8.361-7.351,9.83
		c-3.41,2.952-2.547,1.702-1.154,0.217c1.285-1.594,2.913-3.644,1.525-2.039c3.055-3.832,1.439-2.491-1.274,0.068
		c-2.788,2.496-7.065,5.832-8.922,6.723c-4.746,2.971-12.474,7.545-21.458,10.161c-8.911,2.741-18.832,3.513-26.165,2.758
		c-6.105-0.456-12.797-1.535-19.22-4.186c-6.42-2.599-12.64-6.289-18.106-10.824c-5.389-4.637-9.933-10.063-13.548-15.655
		c-3.641-5.603-5.952-11.515-7.831-16.86C8.054,90.197,6.023,83.31,5.806,76.599c-0.246-3.33-0.035-6.568,0.223-9.38
		c0.508-2.775,0.914-5.18,1.702-6.803c1.527-6.653,4.201-12.987,7.534-18.888l0.011,0.497c4.866-8.597,11.803-16.604,20.084-22.692
		c8.222-6.19,17.857-10.104,27.005-11.828c1.854-0.331,3.507-0.628,5.081-0.914c1.382-0.132,2.662-0.269,3.661-0.359
		c2.102-0.194,3.661-0.326,5.506,0.228c8.064,0.418,16.815,2.033,24.966,5.323c8.173,3.228,15.684,8.094,21.367,13.681
		c0.125-0.218,1.959,1.096-0.148-0.983c-3.045-2.787-6.541-5.472-9.225-7.637c-2.833-1.947-4.781-3.495-4.752-3.866l2.644,1.673
		c-1.501-1.097-2.964-2.296-4.615-3.204l-3.33-1.364c-0.76-0.555-1.073-0.852-1.091-0.966C96.74,6.728,91.737,4.381,85.306,3.158
		c-2.29-0.343-4.751-0.491-7.545-0.577C74.962,2.308,71.844,2.483,68.208,2.501"/>
	<path fill="#FFFFFF" d="M54.009,74.028c3.579,0.137,6.66,2.119,8.345,4.997c0,0,1.259,0.571,3.218,3.438
		c1.959,2.879,1.965,3.689,1.965,3.689s0.982-0.183,2.064,0.012c1.051,0.188,1.703,0.588,1.703,0.588
		c0.14-1.405,0.548-5.929-0.111-8.692c-0.786-3.358-2.622-9.511-8.779-13.64c-3.672-2.468-8.516-4.82-14.039-5.78
		c-3.707-0.641-7.725-0.657-11.912,0.337c-5.266,1.251-8.856,3.062-11.534,5.084c-2.622,1.976-4.375,4.152-5.983,6.191
		c-3.252,4.123-3.181,8.366-3.181,8.366s1.05,0.069,2.204,0.526c1.146,0.463,1.759,0.84,1.759,0.84s2.562-0.532,4.335-1.028
		c1.77-0.491,3.601-1.148,3.601-1.148c0.24-0.674,1.125-2.891,2.599-4.204c2.953-2.649,6.796-2.187,6.796-2.187
		s0.888-0.737,1.894-2.284c1-1.543,2.014-3.913,2.014-3.913s2.807,3.814,6.309,6.06C50.774,73.537,54.009,74.028,54.009,74.028"/>
	<path fill="#FFFFFF" d="M48.343,58.064c-3.71-0.641-7.728-0.657-11.915,0.336c-5.251,1.251-8.833,3.051-11.511,5.072
		c-0.006,0.005-0.018,0.012-0.023,0.017c0,0-1.825-9.121,9.359-12.114C45.436,48.389,48.343,58.064,48.343,58.064"/>
	<path fill="#FFFFFF" d="M69.239,86.587c-1.631-0.057-2.057-0.017-2.057-0.017s-0.334-1.554-2.176-4.032s-3.364-3.41-3.364-3.41
		c-1.385-2.536-4.03-4.301-7.128-4.409c0,0-3.95-0.56-8.102-3.375c-4.153-2.833-5.364-5.026-5.364-5.026s-0.514,1.148-1.396,2.74
		c-0.88,1.605-2.394,2.972-2.394,2.972c-0.206-0.028-0.415-0.046-0.625-0.052c-3.967-0.143-7.394,2.444-8.459,6.083
		c0,0-1.531,0.628-4.749,1.49c-3.215,0.868-3.77,0.852-3.77,0.852s-1.802-1.359-3.927-1.44c-2.15-0.079-3.953,1.601-4.036,3.741
		c-0.074,2.148,1.597,3.958,3.744,4.039c0.211,0.005,0.414,0,0.614-0.023l0.077-0.022c3.913,10.641,14.282,18.454,26.733,18.923
		c10.202,0.383,19.382-4.25,24.951-11.618l-0.031-0.017c0.371,0.131,0.763,0.217,1.171,0.228c2.104,0.081,3.873-1.564,3.955-3.666
		C72.989,88.444,71.347,86.673,69.239,86.587 M49.583,95.938c-1.351,1.73-3.578,2.689-5.943,2.599
		c-3.215-0.114-5.994-2.222-6.814-5.151c-0.397-1.429,0.628-1.605,0.837-0.801c0.697,2.714,3.13,4.753,6.078,4.873
		c1.996,0.067,4.023-0.583,5.066-2.124C49.168,94.789,50.419,94.858,49.583,95.938 M53.906,91.009
		c-4.317-0.155-7.685-3.787-7.528-8.111c0.012-0.268,0.035-0.537,0.069-0.794c0,0-0.08-0.479-1.063-0.56
		c-0.903-0.085-1.363,0.297-1.363,0.297c-0.674,3.775-4.049,6.586-8.001,6.432c-4.318-0.154-7.685-3.786-7.522-8.104
		c0.163-4.324,3.795-7.694,8.113-7.534c4.316,0.172,7.685,3.804,7.52,8.116l2.582,0.16c1.005-3.319,4.147-5.672,7.777-5.54
		c4.323,0.166,7.685,3.803,7.528,8.122C61.854,87.805,58.221,91.174,53.906,91.009"/>
	<path fill="#FFFFFF" d="M36.435,77.323c-1.931-0.075-3.57,1.868-3.661,4.335c-0.02,0.451,0.583,0.554,0.603,0.052
		c0.074-2.046,1.431-3.656,3.027-3.587c1.604,0.058,2.833,1.759,2.756,3.804c-0.018,0.446-0.018,0.446-0.023,0.668
		c-0.012,0.252,0.174,0.332,0.292,0.343c0.117,0.006,0.294-0.045,0.305-0.308c0.012-0.257,0.012-0.326,0.029-0.708
		C39.856,79.453,38.362,77.403,36.435,77.323"/>
	<path fill="#FFFFFF" d="M54.318,80.064c-1.931-0.079-3.57,1.862-3.661,4.329c-0.02,0.452,0.577,0.554,0.603,0.058
		c0.068-2.05,1.431-3.655,3.021-3.593c1.602,0.058,2.838,1.759,2.762,3.804c-0.018,0.446-0.018,0.446-0.029,0.675
		c-0.005,0.245,0.174,0.331,0.297,0.337c0.117,0.005,0.294-0.046,0.3-0.309c0.011-0.257,0.017-0.325,0.029-0.708
		C57.733,82.189,56.245,80.139,54.318,80.064"/>
	<path fill="#FFFFFF" d="M36.332,87.787c-0.1,0-0.194,0-0.289-0.006c-4.041-0.138-7.205-3.553-7.059-7.603
		c0.154-3.952,3.415-7.065,7.342-7.065c0.091,0,0.174,0,0.269,0.007c4.041,0.159,7.205,3.569,7.053,7.607
		c-0.071,1.965-0.896,3.775-2.333,5.1C39.944,87.102,38.179,87.787,36.332,87.787 M36.326,74.147c-3.376,0-6.183,2.673-6.312,6.065
		c-0.128,3.485,2.596,6.42,6.063,6.54c0.088,0,0.166,0.006,0.249,0.006c1.596,0,3.11-0.589,4.281-1.685
		c1.233-1.143,1.948-2.701,2.01-4.382c0.134-3.478-2.584-6.414-6.06-6.545H36.326z"/>
	<path fill="#FFFFFF" d="M54.209,90.522c-0.1,0-0.188,0-0.283-0.005c-1.959-0.069-3.764-0.896-5.106-2.33
		c-1.331-1.44-2.028-3.313-1.954-5.272c0.148-3.953,3.41-7.064,7.336-7.064c0.091,0,0.175,0,0.269,0.005
		c4.047,0.16,7.211,3.569,7.06,7.613C61.386,87.421,58.127,90.522,54.209,90.522 M54.203,76.889c-3.37,0-6.177,2.668-6.305,6.062
		c-0.066,1.684,0.537,3.294,1.679,4.535c1.146,1.227,2.707,1.946,4.386,2.004c0.08,0,0.163,0.006,0.246,0.006
		c3.361,0,6.163-2.674,6.291-6.066c0.135-3.478-2.59-6.414-6.063-6.54H54.203z"/>
	<path fill="#FFFFFF" d="M98.723,60.708l5.489-0.44l3.313-3.444c0,0,3.889-0.382,12.542,1.019c8.659,1.404,11.783,2.09,10.396,4.779
		c-1.394,2.69-2.143,1-3.387,1.383c-1.257,0.394-2.742,6.757-5.586,10.31c-2.856,3.541-5.563,1.582-8.356,0.65
		c-2.787-0.919-8.916-2.301-9.024-5.168s-0.051-4.467-0.051-4.467s-1.336-2.137-2.142-2.108c-0.805,0.035-2.787,2.171-2.787,2.171
		s0.445,2.855,0.074,5.157c-0.366,2.319-8.065,5.244-11.915,6.528c-3.85,1.292-6.528-2.854-8.499-6.567
		c-1.982-3.707-2.136-4.964-3.607-4.336c-1.467,0.635-2.418-0.257-3.063-2.062c-0.637-1.816,0.914-3.13,12.2-5.049
		c11.286-1.914,10.378-1.879,10.955-1.555C95.867,57.829,98.723,60.708,98.723,60.708 M81.348,70.464
		c2.621,6.294,4.695,6.02,10.463,3.775c5.774-2.233,7.208-2.937,5.986-9.207c-1.229-6.277-5.763-5.513-11.337-3.97
		C80.879,62.61,78.8,64.323,81.348,70.464 M116.28,59.954c-5.677-1.13-10.252-1.559-11.006,4.793
		c-0.748,6.356,0.737,6.95,6.654,8.744c5.917,1.805,8.014,1.918,10.155-4.547C124.174,62.627,121.963,61.068,116.28,59.954
		 M92.469,62.89c-1.931,0.063-3.416,2.131-3.331,4.598c0.018,0.451,0.617,0.503,0.6,0c-0.074-2.045,1.16-3.752,2.758-3.809
		c1.594-0.058,2.953,1.548,3.027,3.593c0.018,0.451,0.018,0.451,0.023,0.673c0.012,0.252,0.206,0.32,0.332,0.314
		c0.108-0.005,0.285-0.063,0.28-0.325c-0.011-0.264-0.011-0.337-0.029-0.708C96.032,64.758,94.398,62.815,92.469,62.89
		 M110.654,62.324c-1.93,0.074-3.415,2.126-3.318,4.593c0.017,0.45,0.61,0.503,0.594,0c-0.074-2.039,1.16-3.742,2.753-3.799
		c1.6-0.063,2.964,1.543,3.033,3.593c0.017,0.44,0.017,0.44,0.028,0.669c0.006,0.244,0.2,0.319,0.319,0.313
		c0.121-0.005,0.292-0.069,0.28-0.331c-0.012-0.257-0.012-0.325-0.028-0.709C114.224,64.187,112.585,62.245,110.654,62.324"/>
	<path fill="#FFFFFF" d="M100.693,44.396c-14.028,0.53-21.95,8.167-21.95,8.167s0.697,1.867,0.651,3.65
		c-0.045,1.77-0.909,3.34-0.909,3.34c1.571-0.359,3.479-0.725,5.809-1.125c11.287-1.912,10.543-1.884,11.132-1.553
		c0.583,0.319,3.444,3.197,3.444,3.197l5.095-0.371l3.307-3.5c0,0,4.113-0.389,12.777,1.011c1.576,0.251,2.97,0.485,4.192,0.714
		c0,0-0.657-1.137-0.954-2.901c-0.292-1.76,0.074-4.188,0.074-4.188S114.675,43.877,100.693,44.396"/>
	<path fill="#FFFFFF" d="M78.606,56.642c0.2-2.073,0.326-4.694-3.823-5.712c-3.645-0.896-7.608,0.634-7.977,2.993
		c-0.369,2.365,1.199,2.828,1.199,2.828s-1.868,0.811-2.253,2.775c-0.385,1.964,0.386,2.679,0.386,2.679s2.236-1.686,4.252-1.411
		c2.013,0.269,2.433,0.703,2.433,0.703s0.731-0.424,1.982-0.817c1.248-0.394,2.716-0.788,2.716-0.788S78.36,59.229,78.606,56.642"/>
	<path fill="#FFFFFF" d="M123.842,54.945c-0.354-2.051-0.663-4.649,3.387-5.969c3.576-1.171,7.643,0.052,8.185,2.388
		c0.542,2.33-0.982,2.906-0.982,2.906s1.918,0.669,2.45,2.6c0.525,1.931-0.188,2.702-0.188,2.702s-2.354-1.52-4.347-1.091
		c-1.993,0.417-2.375,0.89-2.375,0.89s-0.76-0.382-2.034-0.668c-1.274-0.297-2.77-0.594-2.77-0.594S124.282,57.509,123.842,54.945"
		/>
	<path fill="#FFFFFF" d="M102.332,87.53c-12.577,0.639-17.203-4.228-15.701-6.9c1.388-2.462,6.876-5.105,6.876-5.105
		c-2.29,0.959-4.923,1.771-6.54,2.318c-3.85,1.285-6.522-2.862-8.504-6.568c-1.97-3.713-2.13-4.975-3.601-4.341
		c-1.468,0.628-2.362-0.273-3.059-2.073c-0.889-2.256,0.346-2.992,0.346-2.992s-1.819-1.131-3.678-0.263
		c-1.254,0.582-2.59,1.348-2.193,4.209c0.385,2.856,3.672,3.192,3.672,3.192s1.071,25.605,32.576,24.429
		c31.505-1.176,30.323-26.771,30.323-26.771s4.255,0.349,4.632-3.507c0.365-3.854-3.724-4.392-5.209-4.163
		c-1.485,0.223-1.685,0.92-1.685,0.92s1.313,1.216,0.183,3.381c-1.399,2.684-2.142,1.051-3.387,1.451
		c-1.251,0.389-2.73,6.756-5.586,10.298c-2.844,3.552-6.186,1.61-8.978,0.679c-0.623-0.211-1.451-0.451-2.331-0.736
		c0,0,4.763,1.918,6.402,3.833c1.217,1.416,1.548,3.381-1.948,5.443C111.459,86.337,107.444,87.268,102.332,87.53"/>
	<path fill="#FFFFFF" d="M110.922,71.807c0.125,3.368-3.832,6.254-8.858,6.447c-5.021,0.184-9.19-2.398-9.31-5.769
		c-0.131-3.37,3.838-6.249,8.853-6.437C106.633,65.86,110.802,68.441,110.922,71.807"/>
	<path fill="#FFFFFF" d="M102.315,87.078c8.185-0.422,15.958-3.472,14.981-6.802c-0.691-2.336-4.89-4.215-7.345-5.124l0.005,0.006
		c-1.468,1.96-4.426,3.358-7.876,3.49c-3.484,0.126-6.563-1.074-8.156-2.947l-0.006,0.006c-2.387,1.085-6.54,3.318-7.042,5.7
		C86.151,84.806,94.125,87.262,102.315,87.078"/>
</g>
</svg>
