<?xml version="1.0" encoding="utf-8"?>
<!-- Generator: Adobe Illustrator 16.0.0, SVG Export Plug-In . SVG Version: 6.00 Build 0)  -->
<!DOCTYPE svg PUBLIC "-//W3C//DTD SVG 1.1//EN" "http://www.w3.org/Graphics/SVG/1.1/DTD/svg11.dtd">
<svg version="1.1" id="Capa_1" xmlns="http://www.w3.org/2000/svg" xmlns:xlink="http://www.w3.org/1999/xlink" x="0px" y="0px"
	 width="100px" height="100px" viewBox="0 0 100 100" enable-background="new 0 0 100 100" xml:space="preserve">
<g id="Nuevo_símbolo_2">
	<g id="Nuevo_símbolo_3">
	</g>
</g>
<g id="Nuevo_símbolo_5">
	<polygon fill="#0099D4" points="4.804,56.5 12.137,56.333 12.304,88 4.637,88.167 	"/>
	<circle fill="#75D4E7" cx="51.264" cy="32.875" r="29.625"/>
	<circle fill="#5DE1C0" cx="51.014" cy="32.875" r="23.125"/>
	<path fill="#FFA64D" d="M55.972,42.165l7.167-8.415c0,0,1.75-7.5,0.25-9.5s-7.25-4-7.25-4l-0.5,9.25l-1.75,1.5h-6.5l-2.75-2.25
		l0.5-7.75c0,0-6.75,0-6.75,3.75s-1,10.25-1,10.25l7,7.25L55.972,42.165z"/>
	<path fill="#C4690E" d="M45.472,42.665l-0.5,48.667c0,0,5.333,12.167,11,0.5V42.165L45.472,42.665z"/>
	<path fill="#C39772" d="M53.639,60h17.834c0,0,2.499,3.334,1.666,5.334s0.333,4.334,0,6s-2,2.333-0.833,3.833s-0.167,3.833,0.5,6
		s1.001,7.834-2.333,7.667s-15.667-0.667-15.667-0.667s-4-3.666-1-6.333c0,0-2.667-6.5,0.333-7.167c0,0-3.334-5.333-0.5-6.833
		C53.639,67.834,50.472,62.666,53.639,60z"/>
	<path fill="#C39772" d="M13.889,60.5l-0.25,22.75l15.25,0.25l5.75,4.75l10,0.25l1.5-27.75l20-1.5c0,0,1.5-6.25-2-6.25
		s-23.75,0-23.75,0l-8.5,7L13.889,60.5z"/>
	<path d="M82.641,33.072C82.641,15.389,68.253,1,50.568,1S18.495,15.389,18.495,33.072c0,9.728,4.423,18.877,11.93,24.946H14.932
		v-3.564H2.459v35.637h12.473v-5.346h13.518l5.345,5.346h9.647v1.782c0,3.931,3.196,7.127,7.127,7.127s7.127-3.196,7.127-7.127
		v-1.782H70.17c2.947,0,5.346-2.398,5.346-5.346c0-1.373-0.536-2.615-1.39-3.563c0.855-0.947,1.39-2.189,1.39-3.563
		s-0.536-2.616-1.39-3.563c0.855-0.948,1.39-2.19,1.39-3.563c0-1.374-0.536-2.616-1.39-3.563c0.855-0.948,1.39-2.19,1.39-3.564
		c0-2.779-2.14-5.042-4.854-5.295C78.221,52.01,82.641,42.919,82.641,33.072z M11.368,86.527H6.022V58.019h5.346V86.527z
		 M35.27,86.527l-5.346-5.346H14.932v-19.6h18.556l7.128-7.128h22.426c0.982,0,1.782,0.799,1.782,1.782s-0.8,1.782-1.782,1.782
		h-7.127H44.485l-7.649,7.649l2.52,2.52l4.086-4.086v22.426H35.27z M62.303,50.891h-4.607V42.72l7.128-7.127v-9.647
		c0-3.931-3.196-7.127-7.128-7.127h-3.563v9.953l-0.738,0.737h-5.652l-0.737-0.737v-9.953h-3.563c-3.931,0-7.128,3.196-7.128,7.127
		v9.647l7.128,7.127v8.171H39.14l-0.112,0.112c-6.083-3.925-9.841-10.655-9.841-17.931c0-11.79,9.592-21.381,21.382-21.381
		c11.791,0,21.382,9.591,21.382,21.381C71.95,40.294,68.342,46.908,62.303,50.891z M46.267,33.072h8.603l2.826-2.825v-7.865
		c1.966,0,3.564,1.599,3.564,3.563v8.172L55.176,40.2h-9.215l-6.084-6.083v-8.172c0-1.965,1.599-3.563,3.564-3.563v7.865
		L46.267,33.072z M47.005,43.764h7.128v7.127h-7.128V43.764z M71.952,70.491c0,0.983-0.8,1.781-1.782,1.781H55.914
		c-0.982,0-1.781-0.798-1.781-1.781s0.799-1.782,1.781-1.782H70.17C71.152,68.709,71.952,69.508,71.952,70.491z M71.952,77.618
		c0,0.983-0.8,1.782-1.782,1.782H55.914c-0.982,0-1.781-0.799-1.781-1.782s0.799-1.782,1.781-1.782H70.17
		C71.152,75.836,71.952,76.635,71.952,77.618z M50.568,95.437c-1.966,0-3.563-1.599-3.563-3.563V61.582h3.892
		c-0.2,0.56-0.328,1.154-0.328,1.781c0,1.374,0.536,2.616,1.39,3.564c-0.855,0.947-1.39,2.189-1.39,3.563
		c0,1.373,0.536,2.615,1.39,3.563c-0.855,0.947-1.39,2.189-1.39,3.563s0.536,2.616,1.39,3.563c-0.855,0.948-1.39,2.19-1.39,3.563
		c0,2.32,1.495,4.28,3.564,5.018v2.11C54.133,93.838,52.533,95.437,50.568,95.437z M70.17,86.527H55.914
		c-0.982,0-1.781-0.798-1.781-1.782c0-0.983,0.799-1.781,1.781-1.781H70.17c0.982,0,1.782,0.798,1.782,1.781
		C71.952,85.729,71.152,86.527,70.17,86.527z M71.952,63.363c0,0.984-0.8,1.782-1.782,1.782H55.914
		c-0.982,0-1.781-0.798-1.781-1.782c0-0.983,0.799-1.781,1.781-1.781h7.127h7.129C71.152,61.582,71.952,62.38,71.952,63.363z
		 M68.301,55.39c-0.203-1.263-0.848-2.367-1.774-3.171c5.679-4.715,8.987-11.657,8.987-19.146c0-13.755-11.189-24.945-24.945-24.945
		s-24.945,11.19-24.945,24.945c0,8.23,4.095,15.895,10.811,20.525l-2.566,2.565C26.468,50.804,22.06,42.226,22.06,33.072
		c0-15.719,12.789-28.509,28.509-28.509c15.719,0,28.51,12.79,28.51,28.509C79.078,41.879,75.098,50.004,68.301,55.39z"/>
	<g>
		<g>
			<path fill="#664FAF" d="M3.748,13.403c0-2.634,2.146-4.782,4.781-4.782s4.781,2.148,4.781,4.782s-2.146,4.782-4.781,4.782
				S3.748,16.037,3.748,13.403z"/>
			<path d="M14.041,13.403c0-2.947-2.398-5.346-5.346-5.346S3.35,10.456,3.35,13.403s2.398,5.346,5.346,5.346
				S14.041,16.35,14.041,13.403z M5.248,13.403c0-1.899,1.548-3.449,3.447-3.449c1.9,0,3.448,1.55,3.448,3.449
				s-1.548,3.449-3.448,3.449C6.796,16.852,5.248,15.302,5.248,13.403z"/>
		</g>
		<g>
			<path fill="#664FAF" d="M6.062,23.963c0-1.401,1.143-2.545,2.545-2.545c1.403,0,2.546,1.144,2.546,2.545
				c0,1.402-1.143,2.546-2.546,2.546C7.204,26.509,6.062,25.366,6.062,23.963z"/>
			<path d="M11.541,23.963c0-1.568-1.276-2.846-2.846-2.846c-1.568,0-2.846,1.277-2.846,2.846c0,1.569,1.277,2.846,2.846,2.846
				C10.265,26.809,11.541,25.533,11.541,23.963z M6.86,23.963c0-1.011,0.824-1.836,1.835-1.836c1.012,0,1.835,0.825,1.835,1.836
				s-0.823,1.836-1.835,1.836C7.685,25.799,6.86,24.974,6.86,23.963z"/>
		</g>
		<g>
			<circle fill="#664FAF" cx="8.648" cy="30.691" r="1.353"/>
			<path d="M10.207,30.691c0-0.833-0.678-1.512-1.512-1.512c-0.833,0-1.512,0.679-1.512,1.512s0.679,1.512,1.512,1.512
				C9.529,32.203,10.207,31.524,10.207,30.691z M7.72,30.691c0-0.537,0.438-0.976,0.976-0.976s0.976,0.438,0.976,0.976
				s-0.438,0.976-0.976,0.976S7.72,31.228,7.72,30.691z"/>
		</g>
	</g>
	<g>
		<g>
			<path fill="#664FAF" d="M97.143,48.691c0,2.633-2.146,4.782-4.781,4.782s-4.781-2.148-4.781-4.782
				c0-2.634,2.146-4.782,4.781-4.782S97.143,46.057,97.143,48.691z"/>
			<path d="M86.85,48.691c0,2.948,2.398,5.346,5.346,5.346s5.346-2.398,5.346-5.346c0-2.947-2.398-5.346-5.346-5.346
				S86.85,45.744,86.85,48.691z M95.643,48.691c0,1.899-1.547,3.449-3.447,3.449s-3.447-1.55-3.447-3.449s1.547-3.449,3.447-3.449
				S95.643,46.792,95.643,48.691z"/>
		</g>
		<g>
			<path fill="#664FAF" d="M94.828,38.13c0,1.401-1.143,2.545-2.545,2.545s-2.545-1.144-2.545-2.545
				c0-1.402,1.143-2.546,2.545-2.546S94.828,36.728,94.828,38.13z"/>
			<path d="M89.35,38.13c0,1.568,1.277,2.846,2.846,2.846s2.846-1.277,2.846-2.846c0-1.569-1.277-2.846-2.846-2.846
				S89.35,36.561,89.35,38.13z M94.031,38.13c0,1.011-0.824,1.836-1.836,1.836s-1.836-0.825-1.836-1.836s0.824-1.836,1.836-1.836
				S94.031,37.12,94.031,38.13z"/>
		</g>
		<g>
			<circle fill="#664FAF" cx="92.242" cy="31.403" r="1.352"/>
			<path d="M90.684,31.403c0,0.833,0.678,1.512,1.512,1.512s1.512-0.679,1.512-1.512s-0.678-1.512-1.512-1.512
				S90.684,30.569,90.684,31.403z M93.17,31.403c0,0.537-0.438,0.976-0.975,0.976s-0.975-0.438-0.975-0.976s0.438-0.976,0.975-0.976
				S93.17,30.866,93.17,31.403z"/>
		</g>
	</g>
</g>
</svg>
