<?xml version="1.0" encoding="utf-8"?>
<!-- Generator: Adobe Illustrator 16.0.0, SVG Export Plug-In . SVG Version: 6.00 Build 0)  -->
<!DOCTYPE svg PUBLIC "-//W3C//DTD SVG 1.1//EN" "http://www.w3.org/Graphics/SVG/1.1/DTD/svg11.dtd">
<svg version="1.1" id="Capa_1" xmlns="http://www.w3.org/2000/svg" xmlns:xlink="http://www.w3.org/1999/xlink" x="0px" y="0px"
	 width="100px" height="100px" viewBox="0 0 100 100" enable-background="new 0 0 100 100" xml:space="preserve">
<g id="Nuevo_símbolo_2">
	<g id="Nuevo_símbolo_3">
		<path fill="#FFBC53" d="M66.949,61.66H33.051c-4.594,0-8.316-3.723-8.316-8.316V28.18C24.734,14.226,36.046,2.914,50,2.914l0,0
			c13.953,0,25.266,11.312,25.266,25.266v25.164C75.266,57.938,71.543,61.66,66.949,61.66z"/>
		<path fill="#2B87BA" d="M42.397,61.66h15.205c16.521,0,29.913,13.393,29.913,29.913v5.513H12.484v-5.513
			C12.484,75.053,25.877,61.66,42.397,61.66z"/>
		<polygon fill="#FFFFFF" points="33.331,61.66 50,90.532 66.67,61.66 		"/>
		<g>
			<path fill="#FFCDAC" d="M57.273,53.926v4.545c0,4.017-3.256,7.273-7.273,7.273l0,0c-4.018,0-7.273-3.257-7.273-7.273v-4.545"/>
			<path fill="#FFCDAC" d="M66.461,30.845v6.561c0,9.091-7.369,16.461-16.461,16.461l0,0c-9.092,0-16.461-7.37-16.461-16.461v-6.561
				c0-3.383,2.743-6.125,6.125-6.125h20.672C63.718,24.72,66.461,27.462,66.461,30.845z"/>
		</g>
		<path d="M24.734,41.208c0.503,0,0.997-0.205,1.353-0.561c0.356-0.356,0.561-0.85,0.561-1.354c0-0.505-0.205-0.999-0.561-1.355
			c-0.356-0.356-0.85-0.561-1.353-0.561s-0.997,0.205-1.353,0.561c-0.356,0.358-0.561,0.85-0.561,1.355
			c0,0.503,0.205,0.996,0.561,1.354C23.737,41.004,24.231,41.208,24.734,41.208z"/>
		<path d="M71.031,62.723c3.614-1.58,6.148-5.188,6.148-9.379V28.18C77.18,13.192,64.987,1,50,1S22.82,13.192,22.82,28.18v2.871
			c0,1.057,0.857,1.914,1.914,1.914s1.914-0.857,1.914-1.914V28.18C26.648,15.304,37.124,4.828,50,4.828S73.352,15.304,73.352,28.18
			v25.164c0,3.53-2.872,6.402-6.402,6.402h-7.852c0.058-0.417,0.09-0.842,0.09-1.275v-5.066c0-0.03-0.003-0.058-0.004-0.087
			c5.489-3.182,9.191-9.122,9.191-15.911v-6.561c0-4.433-3.606-8.039-8.039-8.039H39.664c-4.433,0-8.039,3.606-8.039,8.039v6.561
			c0,6.79,3.702,12.729,9.191,15.911c-0.001,0.028-0.004,0.057-0.004,0.087v5.066c0,0.434,0.033,0.858,0.09,1.275h-7.852
			c-3.53,0-6.402-2.872-6.402-6.402v-6.406c0-1.057-0.857-1.914-1.914-1.914s-1.914,0.857-1.914,1.914v6.406
			c0,4.191,2.534,7.8,6.148,9.379C18.112,67.796,10.57,78.82,10.57,91.573v5.513c0,1.057,0.857,1.914,1.914,1.914h75.031
			c1.057,0,1.914-0.857,1.914-1.914v-5.513C89.43,78.82,81.889,67.796,71.031,62.723z M42.365,63.574
			c1.65,2.461,4.456,4.084,7.635,4.084s5.985-1.622,7.635-4.084c1.852,0.002,3.66,0.187,5.411,0.533L50,86.704L36.954,64.107
			C38.705,63.761,40.514,63.576,42.365,63.574z M35.453,37.406v-6.561c0-2.322,1.889-4.211,4.211-4.211h20.672
			c2.321,0,4.211,1.889,4.211,4.211v6.561c0,8.021-6.526,14.547-14.547,14.547C41.979,51.953,35.453,45.427,35.453,37.406z
			 M50,55.781c1.864,0,3.664-0.279,5.359-0.797v3.486c0,2.955-2.404,5.359-5.359,5.359s-5.359-2.404-5.359-5.359v-3.486
			C46.336,55.502,48.136,55.781,50,55.781z M85.602,95.172h-7.716v-6.699c0-1.057-0.856-1.914-1.914-1.914
			c-1.057,0-1.914,0.857-1.914,1.914v6.699H25.942V82.838c0-1.058-0.858-1.914-1.914-1.914c-1.058,0-1.914,0.856-1.914,1.914v12.334
			h-7.716v-3.599c0-12.194,7.836-22.591,18.737-26.423l15.207,26.339c0.342,0.593,0.975,0.957,1.658,0.957s1.316-0.364,1.658-0.957
			L66.865,65.15c10.9,3.832,18.736,14.229,18.736,26.423V95.172z"/>
		<path d="M43.084,35.032c-0.503,0-0.995,0.205-1.353,0.561c-0.356,0.356-0.559,0.848-0.559,1.354c0,0.503,0.203,0.997,0.559,1.353
			c0.358,0.356,0.85,0.561,1.353,0.561c0.505,0,0.997-0.205,1.353-0.561C44.796,37.943,45,37.45,45,36.946s-0.205-0.998-0.563-1.354
			C44.082,35.237,43.588,35.032,43.084,35.032z"/>
		<path d="M56.963,38.86c0.504,0,0.998-0.205,1.354-0.561c0.356-0.356,0.561-0.85,0.561-1.353s-0.204-0.998-0.561-1.354
			c-0.355-0.356-0.85-0.561-1.354-0.561c-0.503,0-0.997,0.205-1.353,0.561c-0.356,0.356-0.561,0.85-0.561,1.354
			s0.205,0.997,0.561,1.353C55.966,38.655,56.46,38.86,56.963,38.86z"/>
		<path d="M52.822,42.679c-0.748-0.748-1.959-0.748-2.708,0c-0.195,0.195-0.511,0.195-0.706,0c-0.749-0.749-1.96-0.748-2.708,0
			s-0.748,1.96,0.001,2.707c0.843,0.844,1.951,1.265,3.06,1.265s2.216-0.421,3.06-1.265C53.57,44.638,53.57,43.426,52.822,42.679z"
			/>
		<path d="M75.972,79.01c-0.503,0-0.997,0.204-1.353,0.561c-0.356,0.356-0.562,0.848-0.562,1.354c0,0.503,0.205,0.997,0.562,1.353
			c0.357,0.356,0.85,0.562,1.353,0.562c0.504,0,0.997-0.205,1.354-0.562c0.356-0.355,0.561-0.85,0.561-1.353
			c0-0.504-0.204-0.997-0.561-1.354S76.478,79.01,75.972,79.01z"/>
	</g>
</g>
<g id="Nuevo_símbolo">
</g>
</svg>
