<?xml version="1.0" encoding="utf-8"?>
<!-- Generator: Adobe Illustrator 16.0.0, SVG Export Plug-In . SVG Version: 6.00 Build 0)  -->
<!DOCTYPE svg PUBLIC "-//W3C//DTD SVG 1.1//EN" "http://www.w3.org/Graphics/SVG/1.1/DTD/svg11.dtd">
<svg version="1.1" id="Capa_1" xmlns="http://www.w3.org/2000/svg" xmlns:xlink="http://www.w3.org/1999/xlink" x="0px" y="0px"
	 width="150px" height="150px" viewBox="0 0 150 150" enable-background="new 0 0 150 150" xml:space="preserve">
<g>
	<path fill="#FFFFFF" d="M141.205,57.132l0.04,0.223l0.183,0.753c0.388,0.834,0.954,2.57,1.166,4.97
		c0.063-0.011,0.097-0.234,0.25,0.588c0.435,3.781,0.32,1.874,0.8,4.58c-0.063-0.839-0.286-1.885-0.274-2.301
		c0.371,1.73,0.423,3.489,0.531,5.249c0.092-0.737,0.194-1.343,0.343-0.463c0.224-0.56,0.606,1.183,0.903,1.851
		c-0.005-0.869-0.005-1.594-0.005-2.102c0.114,0.125,0.205,1.039,0.286,2.176c0.023-0.08,0.046-0.183,0.057-0.349
		c-0.011,0.166-0.034,0.27-0.057,0.349c0.04,0.765,0.079,1.576,0.12,2.353c0.011-0.44,0.022-0.868,0.079-0.657l-0.16-3.238
		c0.011-0.114,0.04-0.005,0.069,0.188l-0.104-0.839l-0.033,0.651c-0.041,0.229-0.092-0.211-0.149-0.64
		c-0.051-0.857-0.022-1.08-0.012-1.513c-0.074-0.566-0.096-1.148-0.25-1.714c-0.148-0.629,0.16,4.536-0.148,1.748l0.005-0.857
		c-0.171-1.279-0.485-2.975-0.725-3.809c0.012-1.303-0.691-3.576-0.485-3.838c-0.983-4.855-3.05-10.979-5.021-15.519
		c-0.572-0.686-0.937-0.52-2.085-2.319c-0.155-0.4-0.405-0.995-0.269-0.817c-0.257-0.428-0.57-0.822-0.857-1.228
		c0.475,0.708,0.977,1.645,1.068,2.073c-1.096-2.057,0.303,1.04,0.109,0.908c-0.485-0.948-0.959-1.896-1.582-2.753l0.155,0.337
		c2.638,5.026,4.735,10.321,6.008,15.827L141.205,57.132z"/>
	<path fill="#FFFFFF" d="M68.201,2.498l0.092,0.235c-12.549,1.274-26.07,5.854-37.516,14.753
		C19.177,26.123,9.895,39.026,5.189,53.905c-4.473,14.908-4.433,31.746,1.342,46.756c2.81,7.506,6.842,14.554,11.88,20.757
		c5.117,6.146,11.213,11.378,17.884,15.508l-1.799-0.034c7.248,4.438,15.782,7.882,24.526,9.476
		c8.728,1.645,17.553,1.508,25.236,0.189c-1.994,0.33-4.01,0.33-6.032,0.371c2.759-0.285,7.63-1.028,12.731-2.354
		c2.536-0.726,5.198-1.359,7.614-2.388c2.467-0.868,4.787-1.8,6.706-2.787l-0.663,0.588c-10.944,4.638,0.84-0.097-3.404,2.262
		l-1.925,0.822l1.194-0.313l1.918-0.822c-0.171,0.199,0.063,0.302-1.776,1.033c0.875-0.337,1.776-0.604,2.622-0.971
		c5.695-2.027,6.02-1.588,5.638-0.611c1.411-0.806-0.343-0.514,5.603-3.884l-0.634,0.662c2.119-1.336,3.999-3.004,5.906-4.609
		c0.943-0.6,1.948-1.114,2.805-1.821c1.856-1.937,3.107-3.119,5.073-5.021l0.211-0.942c4.352-4.261,8.253-10.007,11.589-16.021
		c3.108-6.164,5.461-12.664,6.958-18.662c0.2-2.696,1.839-9.167,1.582-16.084l-0.657,2.93c-0.303,1.834-0.359,4.285-0.965,7.06
		c-0.24,1.44-0.491,2.902-0.749,4.417c-0.399,1.53-0.799,3.112-1.222,4.717c-1.743,6.437-4.616,13.166-7.882,18.106l0.005-0.537
		c1.279-2.118,1.816-3.843,3.25-6.546l-0.08-0.913c-0.942,0.982-1.925,2.655-2.987,4.644c-1.24,1.891-2.416,4.192-3.753,6.374
		c-2.696,4.358-5.814,8.362-7.352,9.83c-3.41,2.953-2.553,1.702-1.159,0.218c1.285-1.594,2.918-3.645,1.524-2.039
		c3.062-3.833,1.44-2.491-1.268,0.068c-2.788,2.496-7.066,5.832-8.922,6.722c-4.747,2.972-12.474,7.546-21.459,10.162
		c-8.911,2.742-18.838,3.513-26.172,2.759c-6.1-0.457-12.789-1.536-19.22-4.187c-6.415-2.599-12.634-6.289-18.101-10.824
		c-5.386-4.638-9.939-10.064-13.548-15.656c-3.65-5.603-5.958-11.515-7.831-16.861C8.044,90.198,6.023,83.309,5.8,76.598
		c-0.239-3.33-0.034-6.569,0.224-9.38c0.508-2.775,0.919-5.18,1.708-6.803c1.519-6.653,4.192-12.988,7.533-18.888l0.011,0.497
		c4.861-8.596,11.807-16.604,20.089-22.693c8.219-6.19,17.854-10.104,26.999-11.828c1.856-0.331,3.514-0.628,5.078-0.915
		c1.388-0.131,2.668-0.269,3.667-0.359c2.096-0.194,3.662-0.326,5.501,0.228c8.07,0.418,16.815,2.033,24.972,5.323
		c8.173,3.228,15.684,8.094,21.368,13.681c0.119-0.217,1.958,1.096-0.149-0.983c-3.049-2.787-6.54-5.472-9.229-7.637
		c-2.828-1.947-4.776-3.495-4.748-3.866l2.64,1.673c-1.497-1.096-2.965-2.296-4.609-3.204l-3.331-1.365
		c-0.76-0.554-1.08-0.852-1.096-0.966C96.738,6.725,91.74,4.378,85.303,3.155c-2.291-0.343-4.753-0.491-7.54-0.577
		C74.958,2.305,71.845,2.481,68.201,2.498"/>
	<polygon fill="#FFFFFF" points="74.592,24.438 91.031,57.732 127.764,63.067 101.176,88.981 107.453,125.571 74.592,108.299 
		41.744,125.571 48.01,88.981 21.427,63.067 58.166,57.732 	"/>
</g>
</svg>
