<?xml version="1.0" encoding="utf-8"?>
<!-- Generator: Adobe Illustrator 16.0.0, SVG Export Plug-In . SVG Version: 6.00 Build 0)  -->
<!DOCTYPE svg PUBLIC "-//W3C//DTD SVG 1.1//EN" "http://www.w3.org/Graphics/SVG/1.1/DTD/svg11.dtd">
<svg version="1.1" id="Capa_1" xmlns="http://www.w3.org/2000/svg" xmlns:xlink="http://www.w3.org/1999/xlink" x="0px" y="0px"
	 width="150px" height="150px" viewBox="0 0 150 150" enable-background="new 0 0 150 150" xml:space="preserve">
<g>
	<path fill="#FFFFFF" d="M141.204,57.135l0.04,0.217l0.183,0.76c0.388,0.828,0.954,2.57,1.166,4.963
		c0.063-0.011,0.097-0.228,0.251,0.594c0.434,3.776,0.32,1.874,0.799,4.581c-0.063-0.84-0.285-1.885-0.274-2.308
		c0.371,1.731,0.423,3.496,0.531,5.249c0.092-0.73,0.194-1.336,0.343-0.462c0.223-0.554,0.606,1.182,0.903,1.856
		c-0.005-0.868-0.005-1.594-0.005-2.102c0.114,0.126,0.205,1.045,0.286,2.171c0.022-0.08,0.045-0.183,0.057-0.349
		c-0.012,0.166-0.035,0.269-0.057,0.349c0.04,0.771,0.08,1.583,0.12,2.359c0.012-0.44,0.022-0.874,0.08-0.657l-0.16-3.244
		c0.012-0.109,0.04,0,0.069,0.194l-0.103-0.84l-0.034,0.651c-0.04,0.229-0.091-0.211-0.149-0.64
		c-0.051-0.856-0.022-1.079-0.011-1.513c-0.074-0.566-0.097-1.154-0.251-1.714c-0.148-0.628,0.16,4.529-0.148,1.748l0.005-0.863
		c-0.171-1.279-0.485-2.976-0.725-3.804c0.011-1.308-0.691-3.581-0.486-3.838c-0.982-4.855-3.05-10.979-5.021-15.525
		c-0.572-0.686-0.937-0.52-2.085-2.319c-0.154-0.394-0.405-0.987-0.269-0.811c-0.257-0.429-0.571-0.828-0.856-1.234
		c0.474,0.714,0.977,1.646,1.068,2.079c-1.096-2.056,0.303,1.034,0.108,0.903c-0.485-0.948-0.959-1.891-1.582-2.747l0.154,0.336
		c2.639,5.026,4.735,10.321,6.009,15.827L141.204,57.135z"/>
	<path fill="#FFFFFF" d="M68.201,2.501l0.091,0.234C55.744,4.009,42.224,8.584,30.777,17.483
		C19.177,26.119,9.896,39.022,5.188,53.907c-4.472,14.908-4.432,31.741,1.343,46.751c2.81,7.511,6.843,14.56,11.881,20.762
		c5.117,6.141,11.211,11.378,17.883,15.508l-1.799-0.034c7.248,4.438,15.781,7.882,24.526,9.471
		c8.728,1.65,17.553,1.513,25.235,0.188c-1.994,0.338-4.01,0.338-6.032,0.378c2.759-0.292,7.631-1.028,12.731-2.354
		c2.536-0.72,5.198-1.359,7.614-2.388c2.467-0.868,4.787-1.799,6.706-2.787l-0.663,0.588c-10.944,4.638,0.839-0.097-3.405,2.257
		l-1.925,0.822l1.194-0.309l1.918-0.829c-0.171,0.2,0.063,0.304-1.776,1.035c0.874-0.326,1.776-0.606,2.622-0.972
		c5.695-2.027,6.02-1.582,5.638-0.605c1.411-0.806-0.343-0.514,5.603-3.89l-0.634,0.663c2.12-1.332,3.999-2.999,5.906-4.604
		c0.943-0.6,1.948-1.119,2.805-1.828c1.855-1.936,3.106-3.112,5.072-5.02l0.211-0.938c4.353-4.267,8.253-10.012,11.589-16.021
		c3.107-6.163,5.461-12.669,6.957-18.661c0.2-2.696,1.839-9.173,1.583-16.084l-0.657,2.924c-0.303,1.834-0.36,4.29-0.966,7.06
		c-0.24,1.445-0.491,2.907-0.748,4.421c-0.4,1.531-0.8,3.113-1.222,4.712c-1.743,6.443-4.615,13.167-7.882,18.107l0.005-0.531
		c1.279-2.119,1.816-3.85,3.25-6.546l-0.08-0.914c-0.942,0.977-1.925,2.65-2.987,4.644c-1.239,1.891-2.416,4.193-3.752,6.375
		c-2.696,4.357-5.815,8.362-7.352,9.835c-3.41,2.947-2.553,1.696-1.159,0.212c1.285-1.594,2.919-3.645,1.525-2.046
		c3.062-3.826,1.439-2.483-1.268,0.069c-2.788,2.502-7.066,5.837-8.922,6.729c-4.746,2.964-12.475,7.545-21.459,10.161
		c-8.91,2.741-18.837,3.507-26.171,2.759c-6.1-0.462-12.789-1.536-19.22-4.187c-6.415-2.599-12.634-6.289-18.101-10.824
		c-5.386-4.638-9.939-10.069-13.548-15.661c-3.649-5.604-5.957-11.516-7.831-16.856C8.044,90.201,6.022,83.312,5.8,76.595
		c-0.239-3.324-0.034-6.569,0.223-9.379c0.509-2.775,0.92-5.175,1.708-6.796c1.52-6.661,4.193-12.989,7.534-18.896l0.011,0.503
		c4.861-8.596,11.807-16.604,20.089-22.692c8.219-6.192,17.855-10.11,27-11.836c1.856-0.325,3.513-0.628,5.078-0.908
		c1.388-0.137,2.667-0.269,3.667-0.365c2.096-0.194,3.662-0.32,5.501,0.234c8.07,0.411,16.815,2.028,24.972,5.317
		c8.173,3.228,15.685,8.1,21.368,13.68c0.12-0.218,1.958,1.103-0.149-0.982c-3.05-2.782-6.54-5.466-9.23-7.637
		c-2.827-1.942-4.775-3.496-4.747-3.867l2.639,1.679c-1.497-1.097-2.964-2.296-4.609-3.204l-3.33-1.365
		c-0.76-0.554-1.079-0.852-1.097-0.966C96.737,6.728,91.74,4.375,85.303,3.158c-2.291-0.343-4.753-0.491-7.54-0.577
		C74.958,2.301,71.845,2.479,68.201,2.501"/>
	<path fill="#FFFFFF" d="M84.897,48.298c-0.651-1.268-1.428-2.627-2.079-4.038c-1.011-2.239-1.994-4.678-4.724-5.049
		c-2.359-0.331-4.809-0.188-7.203,0.045c-1.468,0.154-2.565,1.234-3.261,2.61c-1.148,2.228-2.308,4.45-3.341,6.432H84.897z
		 M69.264,114.43c-5.559-0.028-11.122-0.394-16.673-0.88c-2.879-0.251-5.701-1.113-8.551-1.656c-2.273-0.429-3.102-2.37-4.089-3.998
		c-2.987-4.958-4.81-10.373-5.677-16.073c-0.817-5.283-1.583-10.567-2.177-15.861c-0.257-2.216-0.045-4.495-0.045-6.895
		c-3.438-0.816-6.723-1.605-10.013-2.37c-1.246-0.297-2.513-0.48-3.758-0.771c-1.782-0.4-2.547-1.594-2.302-3.519
		c0.131-1.114,1.37-2.084,2.89-1.948c1.879,0.177,3.741,0.583,5.603,0.937c2.411,0.457,4.81,0.953,7.323,1.451
		c0-2.051,0.028-3.85-0.041-5.644c-0.011-0.291-0.474-0.554-0.714-0.839c-0.28-0.326-0.72-0.668-0.748-1.028
		c-0.023-0.286,0.417-0.776,0.748-0.897c0.948-0.331,1.931-0.577,2.925-0.771c4.717-0.874,9.441-1.719,14.17-2.582
		c2.428-0.446,4.867-0.84,7.266-1.394c1.353-0.314,2.696-0.822,3.952-1.429c1.154-0.565,1.657-1.702,2.022-2.941
		c0.794-2.713,1.879-5.317,3.913-7.374c1.228-1.246,2.656-2.319,4.444-2.359h9.727c1.782,0.04,3.216,1.113,4.444,2.359
		c2.044,2.057,3.118,4.661,3.913,7.374c0.359,1.239,0.868,2.376,2.027,2.941c1.25,0.606,2.587,1.114,3.947,1.429
		c2.405,0.554,4.844,0.948,7.277,1.394c4.712,0.863,9.447,1.708,14.159,2.582c0.988,0.194,1.977,0.44,2.924,0.771
		c0.332,0.121,0.766,0.611,0.748,0.897c-0.028,0.36-0.474,0.703-0.748,1.028c-0.24,0.285-0.702,0.548-0.714,0.839
		c-0.063,1.794-0.034,3.593-0.034,5.644c2.501-0.498,4.906-0.994,7.311-1.451c1.862-0.354,3.724-0.76,5.604-0.937
		c1.525-0.137,2.759,0.834,2.907,1.948c0.24,1.925-0.52,3.118-2.313,3.519c-1.251,0.291-2.519,0.474-3.764,0.771
		c-3.291,0.765-6.574,1.554-10.002,2.37c0,2.399,0.211,4.678-0.04,6.895c-0.611,5.294-1.377,10.578-2.177,15.861
		c-0.885,5.701-2.69,11.116-5.694,16.073c-0.988,1.628-1.816,3.569-4.072,3.998c-2.862,0.543-5.689,1.405-8.568,1.656
		c-5.535,0.486-11.109,0.852-16.667,0.88H69.264z"/>
</g>
</svg>
