<?xml version="1.0" encoding="utf-8"?>
<!-- Generator: Adobe Illustrator 16.0.0, SVG Export Plug-In . SVG Version: 6.00 Build 0)  -->
<!DOCTYPE svg PUBLIC "-//W3C//DTD SVG 1.1//EN" "http://www.w3.org/Graphics/SVG/1.1/DTD/svg11.dtd">
<svg version="1.1" id="Capa_1" xmlns="http://www.w3.org/2000/svg" xmlns:xlink="http://www.w3.org/1999/xlink" x="0px" y="0px"
	 width="45px" height="45px" viewBox="0 0 45 45" enable-background="new 0 0 45 45" xml:space="preserve">
<rect x="-1.333" y="-1.083" fill="#00A859" width="47.666" height="47.167"/>
<g>
	<path fill="#FFFFFF" d="M33.488,11.372c-2.935-2.941-6.843-4.559-10.995-4.559c-8.572,0-15.547,6.975-15.547,15.547
		c0,2.739,0.714,5.414,2.073,7.774l-2.206,8.054l8.243-2.164c2.269,1.239,4.825,1.891,7.43,1.891h0.007
		c8.564,0,15.694-6.975,15.694-15.547C38.188,18.214,36.423,14.313,33.488,11.372z M22.493,35.295c-2.325,0-4.602-0.623-6.583-1.8
		l-0.469-0.28l-4.888,1.282l1.303-4.77l-0.308-0.49c-1.296-2.059-1.975-4.434-1.975-6.877c0-7.123,5.799-12.921,12.928-12.921
		c3.453,0,6.695,1.344,9.133,3.789c2.437,2.444,3.936,5.687,3.929,9.139C35.562,29.496,29.615,35.295,22.493,35.295z M29.58,25.616
		c-0.385-0.196-2.297-1.134-2.654-1.261c-0.356-0.133-0.616-0.195-0.875,0.196c-0.259,0.393-1.002,1.261-1.232,1.527
		c-0.225,0.259-0.455,0.294-0.841,0.098c-2.283-1.142-3.782-2.038-5.288-4.622c-0.399-0.687,0.399-0.637,1.142-2.122
		c0.126-0.259,0.063-0.483-0.035-0.679c-0.098-0.196-0.875-2.108-1.198-2.886c-0.315-0.756-0.637-0.651-0.875-0.665
		c-0.224-0.014-0.483-0.014-0.742-0.014s-0.679,0.098-1.037,0.483c-0.357,0.392-1.358,1.331-1.358,3.242
		c0,1.912,1.394,3.761,1.583,4.02c0.196,0.259,2.738,4.181,6.639,5.869c2.465,1.064,3.432,1.156,4.665,0.974
		c0.749-0.112,2.297-0.938,2.619-1.849s0.322-1.688,0.224-1.849C30.225,25.903,29.966,25.806,29.58,25.616z"/>
</g>
</svg>
